<svg width="22" height="21" viewBox="0 0 22 21" fill="none" xmlns="http://www.w3.org/2000/svg">
<path fill-rule="evenodd" clip-rule="evenodd" d="M20.4219 12.7543C19.1758 10.4245 15.7719 9.20865 12.8888 10.7329C10.0061 12.2568 8.79282 15.5934 10.1787 18.1854C11.5649 20.7774 15.0257 21.6432 17.9088 20.1193C20.7915 18.5954 21.6677 15.0841 20.4219 12.7543Z" fill="#00AD93"/>
<mask id="mask0" mask-type="alpha" maskUnits="userSpaceOnUse" x="0" y="0" width="22" height="11">
<path fill-rule="evenodd" clip-rule="evenodd" d="M0 0H22V10.7224H0V0Z" fill="white"/>
</mask>
<g mask="url(#mask0)">
<path fill-rule="evenodd" clip-rule="evenodd" d="M19.7434 5.79624C21.9652 6.30723 22.9429 3.53345 20.8237 2.16978C18.7048 0.805782 13.3522 -1.42435 5.96932 1.26325C2.92346 2.37209 1.52134 3.66608 0.717236 4.76953C-0.0868714 5.87299 -0.290267 7.51302 0.497596 9.00023C1.2858 10.4878 4.49884 11.8602 7.45739 9.26784C12.9383 4.46522 17.5213 5.28524 19.7434 5.79624Z" fill="#272445"/>
</g>
</svg>
