<svg width="40" height="40" viewBox="0 0 40 40" fill="none" xmlns="http://www.w3.org/2000/svg">
<circle cx="20" cy="20" r="20" fill="url(#paint0_linear)"/>
<circle cx="20" cy="20" r="20" fill="#00ac92"/>
<path d="M29.3625 22.9786C28.0149 20.4469 24.3322 19.1255 21.2136 20.7817C18.095 22.4379 16.7825 26.0641 18.282 28.8811C19.7815 31.698 23.5252 32.6388 26.6439 30.9827C29.7625 29.3263 30.7103 25.5105 29.3625 22.9786Z" fill="#00A38A"/>
<path d="M29.3625 22.9786C28.0149 20.4469 24.3322 19.1255 21.2136 20.7817C18.095 22.4379 16.7825 26.0641 18.282 28.8811C19.7815 31.698 23.5252 32.6388 26.6439 30.9827C29.7625 29.3263 30.7103 25.5105 29.3625 22.9786Z" fill="white"/>
<path fill-rule="evenodd" clip-rule="evenodd" d="M28.6294 15.5449C31.0332 16.1001 32.0905 13.0858 29.7981 11.6037C27.5057 10.1216 21.7157 7.69787 13.7293 10.6186C10.4341 11.8236 8.9176 13.23 8.04779 14.429C7.17797 15.6281 6.95766 17.4107 7.81016 19.0269C8.66267 20.6431 12.1383 22.1349 15.3388 19.3176C21.2678 14.0984 26.2256 14.9897 28.6294 15.5449Z" fill="white"/>
<defs>
<linearGradient id="paint0_linear" x1="0" y1="0" x2="0" y2="40" gradientUnits="userSpaceOnUse">
<stop stop-color="#F396A4"/>
<stop offset="1" stop-color="#FEC1C8"/>
</linearGradient>
</defs>
</svg>
