<svg width="48" height="48" viewBox="0 0 48 48" fill="none" xmlns="http://www.w3.org/2000/svg">
<g clip-path="url(#clip0_1_11936)">
<path d="M35.468 36.2235C35.468 35.8088 35.8081 35.4795 36.2229 35.4795C36.6376 35.4795 36.9669 35.8088 36.9669 36.2235V47.2455C36.9669 47.6599 36.6372 48.0004 36.2229 48.0004H4.28111C3.86673 48.0004 3.53711 47.6602 3.53711 47.2455V28.2941C3.53711 27.8794 3.86636 27.5501 4.28111 27.5501C4.69586 27.5501 5.03598 27.8794 5.03598 28.2941V46.5011H35.468V36.2235Z" fill="#272445"/>
<path d="M10.914 45.3C10.914 45.7144 10.5739 46.0549 10.1592 46.0549C9.7444 46.0549 9.41553 45.7147 9.41553 45.3V35.7236C9.41553 34.2994 9.98928 33.0026 10.9354 32.0674C11.871 31.1321 13.1678 30.5471 14.592 30.5471C16.0163 30.5471 17.313 31.1321 18.2483 32.0674C19.1839 33.0026 19.7685 34.2994 19.7685 35.7236V45.3C19.7685 45.7144 19.4284 46.0549 19.014 46.0549C18.5993 46.0549 18.2697 45.7147 18.2697 45.3V35.7236C18.2697 34.7141 17.8553 33.7995 17.1855 33.1305C16.5158 32.4607 15.6015 32.046 14.5917 32.046C13.5818 32.046 12.657 32.4604 11.9877 33.1305C11.3284 33.7995 10.914 34.7141 10.914 35.7236V45.3Z" fill="#272445"/>
<path d="M24.5941 39.3161H31.4817V34.0759H24.5941V39.3161ZM32.2366 40.815H23.8501C23.4357 40.815 23.0952 40.4854 23.0952 40.071V33.3214C23.0952 32.907 23.4353 32.5774 23.8501 32.5774H32.2366C32.651 32.5774 32.9915 32.907 32.9915 33.3214V40.0706C32.9915 40.4854 32.651 40.815 32.2366 40.815Z" fill="#272445"/>
<path fill-rule="evenodd" clip-rule="evenodd" d="M15.8462 41.2718C16.2501 41.2718 16.5902 40.932 16.5902 40.5281C16.5902 40.1138 16.2501 39.7733 15.8462 39.7733C15.4318 39.7733 15.0913 40.1134 15.0913 40.5281C15.0913 40.9316 15.4314 41.2718 15.8462 41.2718Z" fill="#272445"/>
<path d="M16.7176 23.2346V23.1919L17.2175 13.9129H14.3364L12.6358 23.277C12.6463 23.8721 12.8698 24.4039 13.2418 24.7972C13.6029 25.1801 14.1133 25.4137 14.6765 25.4137C15.2296 25.4137 15.7393 25.1801 16.1008 24.7972C16.4836 24.3934 16.7068 23.8406 16.7068 23.2346H16.7176ZM18.7055 13.9132L18.2165 23.2346C18.2165 23.8406 18.4505 24.3934 18.8225 24.7972C19.184 25.1801 19.694 25.4137 20.2573 25.4137C20.81 25.4137 21.32 25.1801 21.6815 24.7972C22.0644 24.3934 22.2875 23.8406 22.2875 23.2346H22.298L22.0426 18.558C22.0213 18.1436 22.3404 17.7926 22.7551 17.7712C23.1695 17.7499 23.5205 18.069 23.5415 18.4834L23.786 23.1919V23.2346H23.7965C23.7965 23.8406 24.0305 24.3934 24.4025 24.7972C24.7636 25.1801 25.274 25.4137 25.8373 25.4137C26.2513 25.4137 26.5809 25.7539 26.5809 26.1682C26.5809 26.5826 26.2513 26.9231 25.8373 26.9231C24.8488 26.9231 23.9555 26.4979 23.318 25.8285C23.2224 25.7224 23.1268 25.6163 23.0416 25.4989C22.9569 25.6163 22.8613 25.7224 22.7656 25.8285C22.1278 26.4979 21.2345 26.9231 20.2569 26.9231C19.2684 26.9231 18.3755 26.4979 17.7376 25.8285C17.642 25.7224 17.5464 25.6163 17.4613 25.4989C17.3761 25.6163 17.2809 25.7224 17.1853 25.8285C16.5474 26.4979 15.6545 26.9231 14.6765 26.9231C13.688 26.9231 12.7951 26.4979 12.1573 25.8285C12.0616 25.7224 11.966 25.6163 11.8809 25.4989C11.7958 25.6163 11.7001 25.7224 11.6045 25.8285C10.9666 26.4979 10.0738 26.9231 9.09615 26.9231C8.10765 26.9231 7.2144 26.4979 6.5769 25.8285C6.48128 25.7224 6.38565 25.6163 6.30053 25.4989C6.2154 25.6163 6.11978 25.7224 6.02415 25.8285C5.38665 26.4979 4.49378 26.9231 3.51578 26.9231C2.67615 26.9231 1.91078 26.6149 1.30478 26.1154C0.698777 25.6162 0.252152 24.9041 0.0714024 24.0855C0.00802738 23.82 -0.0133476 23.5646 0.00802738 23.3096C0.0290274 23.0546 0.0931524 22.7996 0.199277 22.5442L3.30315 14.9764C3.6219 14.1896 4.14278 13.5521 4.78065 13.1059C5.42903 12.6593 6.1944 12.4147 7.02353 12.4147H20.7354C21.1498 12.4147 21.4899 12.7549 21.4899 13.1696C21.4899 13.5735 21.1498 13.9136 20.7354 13.9136H18.7055V13.9132ZM12.8274 13.9132H9.78727L7.05578 23.3197C7.07715 23.8939 7.30027 24.4147 7.66177 24.7972C8.02327 25.1797 8.53327 25.4137 9.0969 25.4137C9.64965 25.4137 10.1596 25.1801 10.5211 24.7972C10.904 24.3934 11.1271 23.8406 11.1271 23.2346H11.1376C11.1376 23.1919 11.1376 23.139 11.1481 23.0962L12.8274 13.9132ZM8.23553 13.9132H7.0239C6.50303 13.9132 6.02453 14.0617 5.63153 14.3385C5.22765 14.6254 4.89803 15.0292 4.68578 15.5501L1.58153 23.1071C1.53915 23.2132 1.50728 23.3197 1.4964 23.4263C1.4964 23.5324 1.4964 23.6389 1.52828 23.7555C1.6344 24.2445 1.90028 24.6698 2.26178 24.9671C2.6124 25.2544 3.03765 25.4134 3.51615 25.4134C4.0689 25.4134 4.5789 25.1797 4.9404 24.7969C5.32328 24.393 5.5464 23.8403 5.5464 23.2342H5.5569C5.5569 23.1596 5.5674 23.0959 5.57828 23.0216L8.23553 13.9132Z" fill="#272445"/>
<path d="M22.7344 43.3444C22.32 43.3444 21.9795 43.0151 21.9795 42.6007C21.9795 42.1864 22.32 41.8459 22.7344 41.8459H33.3529C33.7669 41.8459 34.0965 42.186 34.0965 42.6007C34.0965 43.0155 33.7669 43.3444 33.3529 43.3444H22.7344Z" fill="#272445"/>
<path d="M46.5013 17.5376L36.8503 33.8636C36.6377 34.2248 36.1806 34.3417 35.8296 34.1291C35.7126 34.0654 35.6173 33.9697 35.5536 33.8531L25.9123 17.5376C25.9018 17.5163 25.8909 17.4953 25.8804 17.4844C25.4128 16.6339 25.0513 15.7095 24.7963 14.7529C24.5518 13.7963 24.4243 12.8077 24.4243 11.7874C24.4243 8.535 25.7424 5.59087 27.8683 3.4545C30.0047 1.31775 32.9488 0 36.2121 0C39.4644 0 42.4089 1.31775 44.5457 3.45413C46.6824 5.5905 48.0002 8.535 48.0002 11.7874C48.0002 12.8077 47.8622 13.7963 47.6173 14.7529C47.3619 15.7305 46.9899 16.6552 46.5118 17.5162L46.5013 17.5376ZM36.2121 4.63387C38.1887 4.63387 39.9748 5.43113 41.2716 6.7275C42.5683 8.02425 43.3656 9.81 43.3656 11.787C43.3656 13.764 42.5683 15.5497 41.2716 16.8465C39.9748 18.1432 38.1887 18.951 36.2121 18.951C34.2347 18.951 32.4384 18.1432 31.1417 16.8465C29.8554 15.5497 29.0481 13.764 29.0481 11.787C29.0481 9.81 29.8554 8.02425 31.1417 6.7275C32.4388 5.43113 34.2347 4.63387 36.2121 4.63387ZM40.2088 7.79062C39.1884 6.75975 37.7747 6.13238 36.2124 6.13238C34.6498 6.13238 33.2361 6.75975 32.2048 7.79062C31.1844 8.811 30.5466 10.2247 30.5466 11.787C30.5466 13.3496 31.1844 14.7634 32.2048 15.7942C33.2361 16.8146 34.6498 17.4416 36.2124 17.4416C37.7747 17.4416 39.1888 16.8146 40.2088 15.7942C41.2296 14.7634 41.8674 13.3496 41.8674 11.787C41.8674 10.2247 41.2292 8.81137 40.2088 7.79062ZM36.2121 32.0141L45.2151 16.7722C45.6294 16.0282 45.9486 15.2205 46.1717 14.37C46.3843 13.5514 46.5013 12.6904 46.5013 11.787C46.5013 8.94937 45.3426 6.37687 43.4829 4.51687C41.6222 2.65687 39.0501 1.4985 36.2121 1.4985C33.3632 1.4985 30.7911 2.65687 28.9311 4.51687C27.0703 6.37687 25.9228 8.94937 25.9228 11.787C25.9228 12.6904 26.0289 13.5514 26.2416 14.37C26.4651 15.2096 26.7838 16.0069 27.1877 16.7509L27.1982 16.7722L36.2121 32.0141Z" fill="#00AD93"/>
<path d="M36.2119 8.35425C37.1476 8.35425 38.0082 8.74762 38.6352 9.36412C39.2521 9.98062 39.6346 10.8412 39.6346 11.7874C39.6346 12.7335 39.2517 13.5941 38.6352 14.2106C38.0082 14.8376 37.1584 15.2205 36.2119 15.2205C35.2662 15.2205 34.4048 14.8376 33.7774 14.2106C33.7669 14.2001 33.7561 14.1787 33.7351 14.1682C33.1403 13.5517 32.7788 12.7121 32.7788 11.7874C32.7788 10.8416 33.1617 9.98062 33.7774 9.36412C33.7988 9.35362 33.8093 9.33225 33.8307 9.32137C34.4472 8.72625 35.2876 8.35425 36.2119 8.35425ZM37.5724 10.416C37.2218 10.0759 36.7437 9.86325 36.2119 9.86325C35.6911 9.86325 35.2234 10.0654 34.8728 10.3946C34.8623 10.4051 34.8514 10.416 34.8409 10.4265C34.4896 10.7775 34.2769 11.2556 34.2769 11.787C34.2769 12.3079 34.4791 12.7755 34.8091 13.1265C34.8196 13.137 34.8304 13.1479 34.8409 13.1584C35.1919 13.4985 35.6701 13.7216 36.2119 13.7216C36.7437 13.7216 37.2218 13.4985 37.5724 13.1584C37.9234 12.8074 38.1357 12.3292 38.1357 11.787C38.1357 11.2556 37.9234 10.7775 37.5724 10.4265V10.416Z" fill="#272445"/>
</g>
<defs>
<clipPath id="clip0_1_11936">
<rect width="48" height="48" fill="white"/>
</clipPath>
</defs>
</svg>
