<svg width="280" height="121" viewBox="0 0 280 121" fill="none" xmlns="http://www.w3.org/2000/svg">
<path d="M60.49 120.97L0 109.63V18.91L60.49 0V120.97Z" fill="#164194"/>
<path d="M0.0195312 87.8299V64.2699C3.01953 65.0999 6.44957 65.4899 8.67957 64.1399C13.5696 61.2299 20.9695 52.2999 20.9695 52.2999C20.9695 52.2999 17.0696 61.9299 18.5396 65.4599C20.0896 69.2099 29.3395 69.4599 29.3395 69.4599C29.3395 69.4599 18.8895 75.8199 14.0295 80.0299C9.02954 84.3199 5.54956 100.11 5.54956 100.11C5.54956 100.11 3.12953 89.9899 0.0195312 87.8799" fill="#FFED00"/>
<path d="M60.4899 46.2699C58.7556 47.469 56.8322 48.3682 54.7999 48.9299C49.9499 49.8699 44.7399 44.2799 44.7399 44.2799C44.7399 44.2799 45.9699 52.4499 42.9099 57.4799C39.6899 62.7799 29.3398 69.4099 29.3398 69.4099C29.3398 69.4099 40.7799 67.1999 43.0099 70.7499C45.3699 74.5499 45.6899 87.8099 45.6899 87.8099C45.6899 87.8099 51.5099 71.8899 56.8099 69.7299C58.0099 69.2413 59.2389 68.8272 60.4899 68.4899V46.2699Z" fill="#E30613"/>
<path d="M20.9707 52.3C20.9707 52.3 26.8108 43.15 26.4608 39.89C26.1208 36.79 20.0508 35.68 20.0508 35.68C20.0508 35.68 27.9908 33.73 31.4508 30.61C34.9108 27.49 37.7108 21.37 37.7108 21.37C37.7108 21.37 38.4508 26.53 41.4208 27.27C44.3908 28.01 52.6708 24.74 52.6708 24.74C49.4968 27.716 46.492 30.8677 43.6708 34.18C41.0208 37.66 44.7407 44.28 44.7407 44.28C44.7407 44.28 37.8808 41.9 34.0508 42.62C30.2208 43.34 20.9707 52.3 20.9707 52.3Z" fill="white"/>
<path d="M90.7227 45.3699V22.6799H105.053V26.1799H94.8427V31.9799H103.913V35.4799H94.8427V45.3699H90.7227Z" fill="#1D1D1B"/>
<path d="M121.691 44.4899C120.921 44.6799 119.931 44.8799 118.691 45.0899C117.369 45.3051 116.031 45.4088 114.691 45.3999C113.513 45.4376 112.34 45.2369 111.241 44.8099C110.371 44.4611 109.604 43.8968 109.011 43.1699C108.438 42.4325 108.032 41.5795 107.821 40.6699C107.573 39.6251 107.452 38.5539 107.461 37.4799V27.8899H111.461V36.8899C111.355 38.2458 111.632 39.6043 112.261 40.8099C112.589 41.2293 113.018 41.5585 113.508 41.7667C113.997 41.9748 114.532 42.0551 115.061 41.9999C115.541 41.9999 116.061 41.9999 116.581 41.9299C116.985 41.9027 117.386 41.8458 117.781 41.7599V27.8899H121.781L121.691 44.4899Z" fill="#1D1D1B"/>
<path d="M126.533 28.7699C127.522 28.5124 128.523 28.3055 129.533 28.1499C130.876 27.9444 132.234 27.8475 133.593 27.8599C134.785 27.8242 135.973 28.0177 137.093 28.4299C137.965 28.7652 138.739 29.3156 139.343 30.0299C139.915 30.7613 140.315 31.6124 140.513 32.5199C140.752 33.5696 140.869 34.6433 140.863 35.7199V45.3699H136.863V36.3699C136.873 35.5828 136.813 34.7963 136.683 34.0199C136.594 33.4653 136.393 32.9345 136.093 32.4599C135.823 32.0522 135.431 31.7406 134.973 31.5699C134.425 31.3723 133.845 31.2774 133.263 31.2899C132.738 31.2893 132.213 31.3227 131.693 31.3899C131.143 31.4499 130.693 31.5099 130.473 31.5499V45.3699H126.473L126.533 28.7699Z" fill="#1D1D1B"/>
<path d="M148.601 36.3699C148.516 37.8435 148.955 39.2997 149.841 40.4799C150.263 40.9748 150.792 41.3664 151.388 41.6247C151.985 41.883 152.632 42.0011 153.281 41.9699C153.823 41.9751 154.364 41.9451 154.901 41.8799C155.271 41.8419 155.639 41.7818 156.001 41.6999V31.8799C155.563 31.6019 155.093 31.377 154.601 31.2099C154.011 30.9996 153.388 30.8947 152.761 30.8999C152.151 30.8528 151.539 30.9632 150.984 31.2206C150.429 31.478 149.95 31.8738 149.591 32.3699C148.87 33.5752 148.522 34.9671 148.591 36.3699H148.601ZM159.952 44.4499C158.966 44.7329 157.964 44.9533 156.952 45.1099C155.711 45.3059 154.457 45.4029 153.202 45.3999C151.963 45.4228 150.732 45.2125 149.572 44.7799C148.544 44.3896 147.613 43.7825 146.841 42.9999C146.073 42.1902 145.48 41.2301 145.101 40.1799C144.686 38.9845 144.483 37.7255 144.501 36.4599C144.482 35.2144 144.654 33.9733 145.011 32.7799C145.315 31.7487 145.817 30.7872 146.491 29.9499C147.14 29.1697 147.957 28.5473 148.881 28.1299C149.908 27.6925 151.016 27.4777 152.131 27.4999C152.872 27.49 153.609 27.5877 154.322 27.7899C154.886 27.9627 155.435 28.1835 155.962 28.4499V23.3399L159.962 22.6899L159.952 44.4499Z" fill="#1D1D1B"/>
<path d="M178.843 44.4899C178.083 44.6799 177.093 44.8799 175.843 45.0899C174.521 45.3057 173.182 45.4094 171.843 45.3999C170.665 45.4393 169.491 45.2385 168.393 44.8099C167.519 44.4626 166.748 43.8981 166.153 43.1699C165.572 42.4373 165.165 41.5825 164.963 40.6699C164.709 39.6259 164.588 38.5541 164.603 37.4799V27.8899H168.603V36.8899C168.493 38.2471 168.775 39.6072 169.413 40.8099C169.737 41.2154 170.158 41.5338 170.636 41.7363C171.115 41.9388 171.636 42.0191 172.153 41.9699C172.643 41.9699 173.153 41.9699 173.683 41.8999C174.083 41.8728 174.481 41.816 174.873 41.7299V27.8899H178.873L178.843 44.4899Z" fill="#1D1D1B"/>
<path d="M187.979 42.1199C188.761 42.1695 189.543 42.0431 190.269 41.7499C190.503 41.6301 190.697 41.4437 190.825 41.2141C190.953 40.9844 191.01 40.722 190.989 40.4599C190.989 40.1793 190.918 39.9032 190.784 39.6569C190.649 39.4106 190.455 39.2019 190.219 39.0499C189.428 38.5395 188.574 38.1328 187.679 37.8399C186.999 37.5982 186.331 37.3212 185.679 37.0099C185.12 36.7476 184.599 36.4113 184.129 36.0099C183.701 35.6116 183.36 35.1279 183.129 34.5899C182.855 33.9423 182.726 33.2427 182.749 32.5399C182.72 31.8272 182.863 31.1179 183.166 30.4722C183.469 29.8264 183.923 29.263 184.489 28.8299C185.859 27.8538 187.52 27.3741 189.199 27.4699C190.166 27.4702 191.131 27.564 192.079 27.7499C192.78 27.8718 193.469 28.0524 194.139 28.2899L193.419 31.4899C192.88 31.2634 192.321 31.086 191.749 30.9599C190.979 30.7809 190.19 30.6969 189.399 30.7099C188.709 30.6779 188.022 30.8188 187.399 31.1199C187.166 31.2353 186.971 31.4157 186.838 31.6392C186.705 31.8627 186.64 32.1199 186.649 32.3799C186.646 32.6367 186.693 32.8917 186.789 33.1299C186.912 33.3689 187.086 33.5774 187.299 33.7399C187.596 33.9555 187.915 34.1398 188.249 34.2899C188.649 34.4799 189.129 34.6699 189.689 34.8699C190.506 35.1543 191.304 35.4883 192.079 35.8699C192.68 36.1605 193.227 36.5492 193.699 37.0199C194.117 37.4269 194.438 37.9223 194.639 38.4699C194.848 39.1154 194.947 39.7916 194.929 40.4699C194.971 41.1926 194.825 41.9137 194.506 42.5636C194.187 43.2134 193.706 43.7701 193.109 44.1799C191.55 45.1134 189.744 45.5526 187.929 45.4399C186.705 45.4725 185.482 45.3481 184.289 45.0699C183.369 44.8099 182.729 44.6099 182.359 44.4599L183.049 41.1499C183.736 41.3988 184.438 41.6058 185.149 41.7699C186.065 41.9981 187.006 42.1056 187.949 42.0899" fill="#1D1D1B"/>
<path d="M210.432 31.03C210.002 31.49 209.432 32.13 208.712 32.96C207.992 33.79 207.252 34.72 206.442 35.72C205.632 36.72 204.822 37.81 204.002 38.9C203.182 39.99 202.452 41.06 201.792 42.06H210.632V45.37H197.012V42.92C197.557 41.9364 198.158 40.9849 198.812 40.07C199.532 39.07 200.272 38.01 201.042 36.97C201.812 35.93 202.562 34.97 203.312 33.97C204.062 32.97 204.742 32.21 205.312 31.51H197.422V28.21H210.422L210.432 31.03Z" fill="#1D1D1B"/>
<path d="M224.083 34.7699C224.089 34.241 224.011 33.7145 223.852 33.2099C223.717 32.7458 223.489 32.3138 223.182 31.9399C222.893 31.5768 222.523 31.2859 222.102 31.0899C221.627 30.8702 221.106 30.764 220.583 30.7799C220.03 30.7661 219.482 30.8825 218.982 31.1199C218.538 31.3366 218.143 31.643 217.823 32.0199C217.498 32.3969 217.247 32.831 217.083 33.2999C216.904 33.7737 216.783 34.2673 216.722 34.7699H224.083ZM212.592 36.5399C212.563 35.1764 212.79 33.8194 213.262 32.5399C213.657 31.4831 214.267 30.5196 215.052 29.7099C215.771 28.9644 216.64 28.3814 217.602 27.9999C218.556 27.6176 219.575 27.424 220.602 27.4299C221.626 27.3742 222.65 27.5411 223.603 27.9191C224.556 28.2972 225.415 28.8775 226.122 29.6199C227.442 31.0799 228.122 33.2699 228.122 36.1699C228.122 36.3899 228.122 36.6299 228.122 36.8999C228.122 37.1699 228.123 37.4199 228.073 37.6399H216.772C216.79 38.2437 216.928 38.8379 217.179 39.3874C217.43 39.937 217.788 40.4308 218.232 40.8399C219.306 41.6541 220.637 42.0551 221.982 41.9699C222.87 41.9778 223.755 41.8873 224.622 41.6999C225.264 41.5714 225.893 41.3874 226.502 41.1499L227.022 44.3899C226.731 44.5255 226.43 44.6392 226.122 44.7299C225.692 44.8624 225.255 44.9725 224.812 45.0599C224.322 45.1499 223.812 45.2399 223.232 45.2999C222.655 45.3687 222.074 45.4021 221.492 45.3999C220.152 45.4314 218.817 45.2039 217.562 44.7299C216.515 44.3252 215.574 43.6854 214.812 42.8599C214.083 42.0492 213.538 41.0908 213.213 40.0499C212.851 38.9017 212.672 37.7037 212.682 36.4999" fill="#1D1D1B"/>
<path d="M90.7227 75.5999V52.9199H105.283V56.4199H94.8427V62.0199H104.143V65.4599H94.8427V72.0999H106.073V75.5999H90.7227Z" fill="#1D1D1B"/>
<path d="M123 74.7699C122.23 74.9599 121.24 75.1699 120 75.3699C118.678 75.5851 117.34 75.6888 116 75.6799C114.823 75.7141 113.651 75.517 112.55 75.0999C111.684 74.744 110.918 74.1809 110.32 73.4599C109.749 72.7176 109.343 71.8618 109.13 70.9499C108.881 69.9051 108.76 68.8339 108.77 67.7599V58.1299H112.77V67.1299C112.663 68.4858 112.941 69.8443 113.57 71.0499C113.898 71.4693 114.327 71.7985 114.816 72.0066C115.306 72.2148 115.841 72.2951 116.37 72.2399C116.85 72.2399 117.37 72.2399 117.89 72.1699C118.294 72.1477 118.696 72.0908 119.09 71.9999V58.1299H123.09L123 74.7699Z" fill="#1D1D1B"/>
<path d="M137.602 62.0599C137.156 61.9168 136.702 61.8032 136.242 61.7199C135.584 61.5844 134.913 61.5207 134.242 61.5299C133.776 61.5358 133.311 61.5793 132.852 61.6599C132.515 61.7198 132.181 61.7965 131.852 61.8899V75.6099H127.852V59.2999C128.79 58.9733 129.749 58.7061 130.722 58.4999C131.975 58.2403 133.252 58.1163 134.532 58.1299C134.838 58.1123 135.145 58.1123 135.452 58.1299C135.802 58.1299 136.152 58.1999 136.452 58.2599C136.752 58.3199 137.142 58.3799 137.452 58.4499C137.762 58.5199 138.042 58.5999 138.242 58.6699L137.602 62.0599Z" fill="#1D1D1B"/>
<path d="M152.261 66.6C152.328 65.1851 151.947 63.7851 151.171 62.6C150.831 62.1169 150.378 61.7246 149.852 61.4578C149.325 61.191 148.741 61.0578 148.151 61.07C147.557 61.0458 146.967 61.1693 146.433 61.4293C145.899 61.6894 145.438 62.0778 145.091 62.56C144.307 63.7419 143.921 65.1435 143.991 66.56C143.909 68.0092 144.295 69.4463 145.091 70.66C145.435 71.1453 145.896 71.5367 146.43 71.7987C146.965 72.0606 147.556 72.1848 148.151 72.16C148.745 72.1839 149.336 72.0593 149.871 71.7974C150.405 71.5355 150.866 71.1446 151.211 70.66C151.999 69.4431 152.38 68.0076 152.301 66.56L152.261 66.6ZM156.361 66.56C156.38 67.8182 156.181 69.0702 155.771 70.26C155.418 71.3166 154.853 72.2899 154.111 73.12C153.38 73.9056 152.49 74.5261 151.501 74.94C150.442 75.3895 149.301 75.6142 148.151 75.6C147.003 75.6164 145.866 75.3915 144.811 74.94C143.827 74.5256 142.944 73.9049 142.221 73.12C141.475 72.2886 140.904 71.3161 140.541 70.26C140.119 69.0727 139.913 67.8198 139.931 66.56C139.914 65.3068 140.121 64.0607 140.541 62.88C140.908 61.8304 141.487 60.8673 142.241 60.05C142.969 59.2689 143.855 58.6518 144.841 58.24C145.889 57.8027 147.015 57.5849 148.151 57.6C149.289 57.5869 150.419 57.8046 151.471 58.24C152.459 58.6469 153.346 59.2646 154.071 60.05C154.812 60.8735 155.383 61.8352 155.751 62.88C156.171 64.0607 156.377 65.3068 156.361 66.56Z" fill="#1D1D1B"/>
<path d="M171.58 67.13C171.671 65.6589 171.246 64.2021 170.38 63.01C169.896 62.4851 169.298 62.0787 168.632 61.822C167.966 61.5654 167.25 61.4655 166.54 61.53C166.16 61.53 165.78 61.53 165.38 61.53C164.975 61.5691 164.574 61.6393 164.18 61.74V71.53C164.613 71.8101 165.08 72.0352 165.57 72.2C166.163 72.4112 166.79 72.5162 167.42 72.51C168.028 72.5573 168.639 72.4469 169.193 72.1894C169.746 71.9319 170.224 71.536 170.58 71.04C171.307 69.8373 171.656 68.4434 171.58 67.04V67.13ZM175.64 66.98C175.652 68.1988 175.48 69.4125 175.13 70.58C174.827 71.6014 174.332 72.5553 173.67 73.39C173.036 74.1813 172.224 74.8118 171.3 75.23C170.282 75.6762 169.181 75.8979 168.07 75.88C167.32 75.8856 166.573 75.788 165.85 75.59C165.271 75.4293 164.712 75.2081 164.18 74.93V81.58H160.18V59.04C160.98 58.83 161.98 58.62 163.18 58.42C164.413 58.2239 165.661 58.127 166.91 58.13C168.148 58.1064 169.379 58.3167 170.54 58.75C171.569 59.1427 172.503 59.7494 173.28 60.53C174.048 61.3377 174.638 62.2987 175.01 63.35C175.434 64.5435 175.64 65.8035 175.62 67.07" fill="#1D1D1B"/>
<path d="M190.071 64.9699C190.078 64.4442 190 63.9208 189.841 63.4199C189.708 62.9518 189.48 62.5161 189.171 62.1399C188.882 61.7768 188.512 61.4858 188.091 61.2899C187.615 61.0701 187.095 60.964 186.571 60.9799C186.018 60.9649 185.47 61.0814 184.971 61.3199C184.526 61.5365 184.131 61.843 183.811 62.2199C183.487 62.5969 183.236 63.031 183.071 63.4999C182.893 63.9737 182.772 64.4672 182.711 64.9699H190.071ZM178.581 66.7699C178.549 65.4053 178.78 64.0474 179.261 62.7699C179.652 61.7137 180.258 60.7501 181.041 59.9399C181.759 59.1944 182.629 58.6113 183.591 58.2299C184.545 57.8476 185.563 57.654 186.591 57.6599C187.614 57.5995 188.637 57.7643 189.589 58.1427C190.541 58.5211 191.399 59.1039 192.101 59.8499C193.421 61.3099 194.101 63.4999 194.101 66.3999C194.101 66.6199 194.101 66.8599 194.101 67.1299C194.101 67.3999 194.101 67.6499 194.101 67.8699H182.811C182.825 68.4734 182.961 69.0678 183.21 69.6176C183.459 70.1674 183.817 70.6614 184.261 71.0699C185.332 71.8898 186.665 72.2914 188.011 72.1999C188.898 72.2078 189.784 72.1172 190.651 71.9299C191.292 71.8014 191.921 71.6173 192.531 71.3799L193.051 74.6199C192.761 74.7571 192.46 74.8708 192.151 74.9599C191.72 75.0923 191.283 75.2025 190.841 75.2899C190.351 75.3799 189.841 75.4699 189.261 75.5299C188.683 75.5986 188.102 75.632 187.521 75.6299C186.18 75.6603 184.846 75.4329 183.591 74.9599C182.543 74.5552 181.602 73.9154 180.841 73.0899C180.112 72.2772 179.563 71.3196 179.231 70.2799C178.878 69.13 178.702 67.9328 178.711 66.7299" fill="#1D1D1B"/>
<path d="M202.411 53.48C202.426 53.8095 202.37 54.1384 202.246 54.444C202.121 54.7496 201.932 55.0246 201.691 55.25C201.231 55.6805 200.621 55.9138 199.991 55.9C199.352 55.9174 198.731 55.6842 198.261 55.25C198.02 55.0246 197.831 54.7496 197.707 54.444C197.583 54.1384 197.526 53.8095 197.541 53.48C197.524 53.1457 197.579 52.8116 197.703 52.5008C197.828 52.19 198.018 51.9099 198.261 51.68C198.731 51.2458 199.352 51.0125 199.991 51.03C200.621 51.0161 201.231 51.2494 201.691 51.68C201.935 51.9099 202.125 52.19 202.249 52.5008C202.374 52.8116 202.429 53.1457 202.411 53.48ZM195.831 81.7C195.551 81.7 195.151 81.7 194.641 81.62C194.176 81.5747 193.718 81.4671 193.281 81.3L193.801 78.07C194.366 78.2334 194.953 78.3109 195.541 78.3C195.905 78.3386 196.273 78.2847 196.61 78.143C196.948 78.0014 197.244 77.7768 197.471 77.49C197.893 76.76 198.088 75.9211 198.031 75.08V58.49H202.031V75.15C202.111 76.0472 202.011 76.9512 201.738 77.8095C201.465 78.6678 201.024 79.4634 200.441 80.15C199.826 80.7106 199.105 81.1412 198.319 81.4162C197.534 81.6911 196.701 81.8046 195.871 81.75" fill="#1D1D1B"/>
<path d="M211.15 72.3699C211.936 72.4162 212.722 72.2864 213.45 71.9899C213.682 71.8677 213.872 71.6804 213.998 71.4512C214.124 71.2219 214.181 70.9608 214.16 70.6999C214.163 70.4201 214.093 70.1443 213.959 69.8991C213.824 69.6539 213.628 69.4475 213.39 69.2999C212.602 68.7815 211.748 68.3712 210.85 68.0799C210.167 67.8399 209.5 67.5594 208.85 67.2399C208.287 66.9792 207.762 66.6428 207.29 66.2399C206.862 65.841 206.522 65.3575 206.29 64.8199C206.028 64.1864 205.898 63.5056 205.91 62.8199C205.881 62.1072 206.024 61.398 206.327 60.7522C206.63 60.1064 207.084 59.5431 207.65 59.1099C209.02 58.1339 210.681 57.6541 212.36 57.7499C213.327 57.749 214.292 57.8428 215.24 58.0299C215.944 58.152 216.637 58.3327 217.31 58.5699L216.59 61.7699C216.047 61.5451 215.485 61.3678 214.91 61.2399C214.14 61.0609 213.351 60.977 212.56 60.9899C211.87 60.9592 211.183 61.1 210.56 61.3999C210.327 61.5154 210.132 61.6957 209.999 61.9192C209.866 62.1427 209.801 62.4 209.81 62.6599C209.805 62.9179 209.856 63.1739 209.96 63.4099C210.076 63.6529 210.252 63.8627 210.47 64.0199C210.779 64.2449 211.115 64.4298 211.47 64.5699C211.939 64.7902 212.42 64.9838 212.91 65.1499C213.726 65.4362 214.524 65.7702 215.3 66.1499C215.895 66.4457 216.441 66.8301 216.92 67.2899C217.33 67.7054 217.647 68.203 217.85 68.7499C218.068 69.3936 218.169 70.0708 218.15 70.7499C218.19 71.4725 218.044 72.1932 217.725 72.8429C217.407 73.4926 216.926 74.0495 216.33 74.4599C214.766 75.3913 212.958 75.8303 211.14 75.7199C209.916 75.7525 208.693 75.6282 207.5 75.3499C206.59 75.0899 205.94 74.8899 205.57 74.7399L206.26 71.4299C206.949 71.7029 207.653 71.9334 208.37 72.1199C209.285 72.3517 210.227 72.4626 211.17 72.4499" fill="#1D1D1B"/>
<path d="M225.559 65.17L227.159 63.4799C227.729 62.8799 228.289 62.28 228.829 61.68C229.369 61.08 229.899 60.5 230.379 59.95C230.859 59.4 231.299 58.9 231.639 58.49H236.329C235.239 59.71 234.079 60.9799 232.869 62.2899C231.659 63.5999 230.439 64.8699 229.219 66.1099C229.949 66.7335 230.641 67.4014 231.289 68.1099C232.009 68.8799 232.699 69.7099 233.379 70.5799C234.059 71.4499 234.689 72.32 235.279 73.2C235.813 73.9791 236.304 74.787 236.749 75.6199H232.149C231.759 74.9399 231.299 74.24 230.789 73.49C230.279 72.74 229.729 72.0299 229.139 71.3299C228.549 70.6299 227.949 69.9699 227.339 69.3299C226.78 68.755 226.179 68.2235 225.539 67.74V75.6H221.539V53.6L225.539 52.95L225.559 65.17Z" fill="#1D1D1B"/>
<path d="M243.43 75.6099H239.43V58.4899H243.43V75.6099ZM243.86 53.4799C243.872 53.8091 243.815 54.1373 243.69 54.4425C243.566 54.7476 243.379 55.0229 243.14 55.2499C242.676 55.6801 242.063 55.9132 241.43 55.8999C240.791 55.9152 240.171 55.6823 239.7 55.2499C239.459 55.0245 239.27 54.7495 239.145 54.444C239.021 54.1384 238.965 53.8094 238.98 53.4799C238.962 53.1456 239.018 52.8115 239.142 52.5007C239.266 52.1899 239.457 51.9098 239.7 51.6799C240.171 51.2475 240.791 51.0145 241.43 51.0299C242.063 51.0166 242.676 51.2497 243.14 51.6799C243.381 51.911 243.571 52.1913 243.695 52.5018C243.819 52.8123 243.875 53.1458 243.86 53.4799Z" fill="#1D1D1B"/>
<path d="M258.822 64.9699C258.824 64.4446 258.746 63.922 258.591 63.4199C258.454 62.9535 258.227 62.5185 257.921 62.1399C257.628 61.7815 257.259 61.4914 256.841 61.2899C256.362 61.071 255.838 60.965 255.312 60.9799C254.759 60.966 254.211 61.0825 253.712 61.3199C253.268 61.5392 252.874 61.8452 252.551 62.2199C252.231 62.5991 251.98 63.0326 251.812 63.4999C251.642 63.9765 251.522 64.469 251.452 64.9699H258.822ZM247.332 66.7699C247.297 65.406 247.524 64.0481 248.001 62.7699C248.396 61.7155 249.002 60.7526 249.781 59.9399C250.501 59.1965 251.37 58.6138 252.332 58.2299C253.286 57.849 254.304 57.6555 255.332 57.6599C256.355 57.6021 257.38 57.7681 258.333 58.1463C259.286 58.5245 260.146 59.1058 260.851 59.8499C262.171 61.3099 262.851 63.4999 262.851 66.3999C262.851 66.6199 262.851 66.8599 262.851 67.1299C262.851 67.3999 262.851 67.6499 262.851 67.8699H251.562C251.577 68.4741 251.714 69.069 251.965 69.6188C252.216 70.1687 252.575 70.6622 253.021 71.0699C254.093 71.8898 255.426 72.2915 256.771 72.1999C257.655 72.207 258.537 72.1165 259.401 71.9299C260.043 71.8028 260.672 71.6188 261.281 71.3799L261.801 74.6199C261.511 74.7571 261.21 74.8708 260.901 74.9599C260.471 75.0935 260.034 75.2037 259.591 75.2899C259.101 75.3799 258.591 75.4699 258.011 75.5299C257.434 75.5987 256.853 75.6321 256.271 75.6299C254.931 75.6596 253.597 75.4322 252.341 74.9599C251.294 74.5552 250.353 73.9154 249.591 73.0899C248.862 72.2792 248.316 71.3208 247.991 70.2799C247.633 69.1311 247.458 67.9332 247.471 66.7299" fill="#1D1D1B"/>
<path d="M92.8322 90.8999H90.7422V105.87H92.8322V90.8999Z" fill="#1D1D1B"/>
<path d="M96.3203 94.9599C96.7803 94.8499 97.3903 94.7299 98.1603 94.5999C99.0292 94.4548 99.9094 94.3878 100.79 94.3999C101.551 94.3771 102.31 94.5063 103.02 94.7799C103.576 95.0022 104.062 95.368 104.43 95.8399C104.796 96.322 105.052 96.8784 105.18 97.4699C105.326 98.1569 105.396 98.8577 105.39 99.5599V105.87H103.39V99.9899C103.399 99.3972 103.356 98.8049 103.26 98.2199C103.187 97.7953 103.027 97.3902 102.79 97.0299C102.577 96.7305 102.277 96.5036 101.93 96.3799C101.497 96.2278 101.039 96.1567 100.58 96.1699H99.9103L99.2603 96.2299L98.6903 96.2999L98.3402 96.3699V105.85H96.3402L96.3203 94.9599Z" fill="#1D1D1B"/>
<path d="M110.491 94.3799H114.751V96.0599H110.491V101.25C110.48 101.717 110.524 102.183 110.621 102.64C110.686 102.955 110.819 103.252 111.011 103.51C111.181 103.716 111.407 103.868 111.661 103.95C111.955 104.044 112.263 104.088 112.571 104.08C113.063 104.097 113.554 104.026 114.021 103.87L114.791 103.58L115.181 105.24C114.838 105.393 114.483 105.52 114.121 105.62C113.559 105.78 112.976 105.858 112.391 105.85C111.749 105.867 111.108 105.769 110.501 105.56C110.031 105.376 109.617 105.073 109.301 104.68C108.985 104.257 108.77 103.768 108.671 103.25C108.538 102.592 108.474 101.921 108.481 101.25V91.2499L110.481 90.9099L110.491 94.3799Z" fill="#1D1D1B"/>
<path d="M124.059 98.92C124.102 98.1168 123.861 97.3242 123.379 96.68C123.148 96.3915 122.851 96.1615 122.514 96.0087C122.177 95.8558 121.809 95.7843 121.439 95.8C121.018 95.7973 120.601 95.8896 120.219 96.07C119.878 96.2437 119.575 96.4853 119.329 96.78C119.077 97.0734 118.883 97.413 118.759 97.78C118.623 98.1515 118.529 98.5373 118.479 98.93L124.059 98.92ZM116.349 100.02C116.33 99.1309 116.476 98.2459 116.779 97.41C117.035 96.7276 117.422 96.1023 117.919 95.57C118.384 95.0868 118.947 94.7084 119.569 94.46C120.175 94.2216 120.819 94.0994 121.469 94.1C122.117 94.0588 122.765 94.1642 123.366 94.4084C123.966 94.6525 124.504 95.0291 124.939 95.51C125.846 96.756 126.278 98.284 126.159 99.82V100.16C126.17 100.286 126.17 100.414 126.159 100.54H118.469C118.481 101.513 118.835 102.452 119.469 103.19C119.844 103.521 120.282 103.772 120.756 103.928C121.231 104.085 121.732 104.143 122.229 104.1C122.828 104.114 123.427 104.05 124.009 103.91C124.386 103.829 124.755 103.712 125.109 103.56L125.379 105.24C124.971 105.427 124.541 105.565 124.099 105.65C123.417 105.806 122.719 105.88 122.019 105.87C121.152 105.894 120.288 105.744 119.479 105.43C118.81 105.158 118.209 104.741 117.719 104.21C117.257 103.673 116.915 103.042 116.719 102.36C116.492 101.601 116.381 100.812 116.389 100.02" fill="#1D1D1B"/>
<path d="M132.309 105.87C131.364 105.936 130.428 105.651 129.679 105.07C129.395 104.752 129.178 104.38 129.043 103.976C128.907 103.572 128.855 103.145 128.889 102.72V89.2299L130.889 88.8899V102.39C130.885 102.665 130.912 102.94 130.969 103.21C131.015 103.405 131.112 103.584 131.249 103.73C131.396 103.871 131.574 103.974 131.769 104.03C132.032 104.099 132.3 104.149 132.569 104.18L132.309 105.87Z" fill="#1D1D1B"/>
<path d="M136.74 105.87H134.74V94.64H136.74V105.87ZM135.74 92.61C135.399 92.6105 135.07 92.4819 134.82 92.25C134.689 92.1201 134.589 91.9634 134.525 91.7907C134.461 91.618 134.435 91.4335 134.45 91.25C134.434 91.0663 134.459 90.8814 134.523 90.7086C134.587 90.5357 134.688 90.3791 134.82 90.25C135.067 90.0136 135.398 89.8843 135.74 89.89C135.909 89.8861 136.078 89.9159 136.236 89.9777C136.394 90.0395 136.538 90.132 136.66 90.25C136.793 90.3786 136.896 90.5348 136.961 90.7077C137.027 90.8805 137.054 91.0656 137.04 91.25C137.053 91.4343 137.026 91.6192 136.96 91.792C136.895 91.9647 136.792 92.121 136.66 92.25C136.411 92.4837 136.081 92.6126 135.74 92.61Z" fill="#1D1D1B"/>
<path d="M147.152 96.4099C146.886 96.3382 146.615 96.2848 146.342 96.2499C145.888 96.1912 145.43 96.1644 144.972 96.1699C144.501 96.1375 144.03 96.2167 143.595 96.4008C143.161 96.585 142.776 96.8691 142.472 97.2299C141.862 98.0356 141.554 99.0302 141.602 100.04C141.59 100.603 141.671 101.164 141.842 101.7C141.99 102.123 142.217 102.513 142.512 102.85C142.79 103.146 143.132 103.375 143.512 103.52C143.872 103.66 144.256 103.731 144.642 103.73C145.142 103.738 145.639 103.66 146.112 103.5C146.493 103.39 146.852 103.214 147.172 102.98L147.152 96.4099ZM147.152 104.75C146.833 104.927 146.498 105.075 146.152 105.19C145.589 105.38 144.997 105.472 144.402 105.46C143.751 105.468 143.103 105.357 142.492 105.13C141.901 104.923 141.367 104.581 140.932 104.13C140.463 103.648 140.101 103.072 139.872 102.44C139.596 101.664 139.464 100.844 139.482 100.02C139.472 99.2507 139.597 98.4858 139.852 97.7599C140.076 97.0991 140.441 96.4951 140.922 95.9899C141.407 95.4836 141.993 95.085 142.642 94.8199C143.367 94.5305 144.142 94.3877 144.922 94.3999C145.747 94.3897 146.571 94.46 147.382 94.6099C148.082 94.7399 148.662 94.8699 149.142 94.9799V104.98C149.204 105.668 149.117 106.361 148.886 107.012C148.654 107.663 148.285 108.256 147.802 108.75C146.63 109.607 145.19 110.018 143.742 109.91C143.072 109.911 142.403 109.854 141.742 109.74C141.19 109.643 140.645 109.505 140.112 109.33L140.472 107.58C140.956 107.762 141.454 107.902 141.962 108C142.561 108.122 143.171 108.182 143.782 108.18C144.7 108.268 145.618 108.015 146.362 107.47C146.648 107.17 146.866 106.812 147.002 106.42C147.139 106.029 147.19 105.613 147.152 105.2V104.75Z" fill="#1D1D1B"/>
<path d="M159.552 98.92C159.604 98.1156 159.362 97.3198 158.872 96.68C158.641 96.3923 158.347 96.1627 158.012 96.0099C157.676 95.857 157.31 95.7851 156.942 95.8C156.517 95.7961 156.096 95.8884 155.712 96.07C155.37 96.2437 155.067 96.4853 154.822 96.78C154.575 97.0777 154.382 97.4161 154.252 97.78C154.114 98.1504 154.023 98.5368 153.982 98.93L159.552 98.92ZM151.842 100.02C151.822 99.1309 151.968 98.2459 152.272 97.41C152.527 96.7276 152.914 96.1022 153.412 95.57C153.878 95.0891 154.44 94.711 155.062 94.46C155.667 94.2225 156.311 94.1004 156.962 94.1C157.61 94.0595 158.26 94.1651 158.862 94.4092C159.464 94.6532 160.004 95.0294 160.442 95.51C161.339 96.7596 161.768 98.2857 161.652 99.82V100.16C161.652 100.29 161.652 100.42 161.652 100.54H153.952C153.963 101.513 154.317 102.452 154.952 103.19C155.326 103.521 155.764 103.772 156.238 103.928C156.713 104.085 157.214 104.143 157.712 104.1C158.311 104.114 158.909 104.05 159.492 103.91C159.869 103.829 160.237 103.712 160.592 103.56L160.872 105.24C160.459 105.427 160.026 105.565 159.582 105.65C158.9 105.806 158.201 105.88 157.502 105.87C156.634 105.894 155.771 105.744 154.962 105.43C154.292 105.158 153.691 104.741 153.202 104.21C152.742 103.67 152.402 103.04 152.202 102.36C151.975 101.601 151.863 100.812 151.872 100.02" fill="#1D1D1B"/>
<path d="M164.43 94.9599C164.89 94.8499 165.5 94.7299 166.27 94.5999C167.139 94.4548 168.019 94.3878 168.9 94.3999C169.661 94.3771 170.419 94.5063 171.13 94.7799C171.685 95.0022 172.172 95.368 172.54 95.8399C172.913 96.3174 173.17 96.8755 173.29 97.4699C173.435 98.1569 173.506 98.8577 173.5 99.5599V105.87H171.5V99.9899C171.506 99.3969 171.459 98.8045 171.36 98.2199C171.286 97.7953 171.126 97.3902 170.89 97.0299C170.678 96.7286 170.377 96.5013 170.03 96.3799C169.6 96.2286 169.145 96.1574 168.69 96.1699H168.02L167.36 96.2299L166.8 96.2999L166.44 96.3699V105.85H164.44L164.43 94.9599Z" fill="#1D1D1B"/>
<path d="M178.613 94.3799H182.863V96.0599H178.613V101.25C178.604 101.716 178.644 102.182 178.733 102.64C178.797 102.955 178.931 103.252 179.123 103.51C179.295 103.714 179.52 103.866 179.773 103.95C180.067 104.044 180.374 104.088 180.683 104.08C181.178 104.097 181.672 104.026 182.143 103.87L182.913 103.58L183.293 105.24C182.95 105.395 182.595 105.522 182.233 105.62C181.673 105.78 181.094 105.857 180.513 105.85C179.87 105.869 179.23 105.771 178.623 105.56C178.15 105.382 177.735 105.077 177.423 104.68C177.099 104.261 176.88 103.77 176.783 103.25C176.653 102.591 176.593 101.921 176.603 101.25V91.2499L178.603 90.9099L178.613 94.3799Z" fill="#1D1D1B"/>
<path d="M185.301 94.9599C185.761 94.8499 186.371 94.7299 187.141 94.5999C188.01 94.4548 188.89 94.3878 189.771 94.3999C190.532 94.3771 191.29 94.5063 192.001 94.7799C192.556 95.0022 193.043 95.368 193.411 95.8399C193.784 96.3174 194.041 96.8755 194.161 97.4699C194.306 98.1569 194.377 98.8577 194.371 99.5599V105.87H192.371V99.9899C192.377 99.3969 192.33 98.8045 192.231 98.2199C192.157 97.7953 191.997 97.3902 191.761 97.0299C191.549 96.7286 191.248 96.5013 190.901 96.3799C190.471 96.2286 190.017 96.1574 189.561 96.1699H188.891L188.231 96.2299L187.671 96.2999L187.311 96.3699V105.85H185.311L185.301 94.9599Z" fill="#1D1D1B"/>
<path d="M195.89 107.96C196.088 108.054 196.296 108.125 196.51 108.17C196.751 108.237 197 108.271 197.25 108.27C197.921 108.321 198.591 108.145 199.15 107.77C199.683 107.3 200.097 106.71 200.36 106.05C199.45 104.33 198.61 102.49 197.82 100.56C197.026 98.6421 196.358 96.6746 195.82 94.6699H197.97C198.13 95.3199 198.32 96.0099 198.55 96.7599C198.78 97.5099 199.02 98.2799 199.29 99.0799C199.56 99.8799 199.86 100.66 200.18 101.45C200.5 102.24 200.83 103.01 201.18 103.74C201.73 102.23 202.18 100.74 202.61 99.2499C203.04 97.7599 203.39 96.2499 203.75 94.6699H205.83C205.31 96.7799 204.73 98.8199 204.1 100.77C203.47 102.72 202.78 104.55 202.1 106.25C201.848 106.831 201.547 107.39 201.2 107.92C200.925 108.353 200.588 108.744 200.2 109.08C199.82 109.378 199.39 109.605 198.93 109.75C198.413 109.896 197.877 109.967 197.34 109.96H196.84C196.671 109.941 196.504 109.91 196.34 109.87C196.183 109.843 196.03 109.803 195.88 109.75L195.59 109.65L195.89 107.96Z" fill="#1D1D1B"/>
<path d="M216.999 92.5799C216.099 92.5799 215.419 92.5799 214.939 92.6499V98.2899H216.429C217.097 98.2945 217.765 98.2578 218.429 98.1799C218.936 98.1284 219.43 97.9897 219.889 97.7699C220.27 97.583 220.587 97.2872 220.799 96.9199C221.038 96.4715 221.152 95.9673 221.129 95.4599C221.146 94.969 221.032 94.4825 220.799 94.0499C220.593 93.6819 220.292 93.3749 219.929 93.1599C219.525 92.9372 219.085 92.785 218.629 92.7099C218.107 92.624 217.579 92.5805 217.049 92.5799H216.999ZM220.219 99.5799C220.449 99.8599 220.739 100.24 221.099 100.71C221.459 101.18 221.809 101.71 222.189 102.27C222.569 102.83 222.929 103.43 223.299 104.05C223.645 104.629 223.959 105.226 224.239 105.84H221.949C221.659 105.29 221.349 104.74 221.009 104.18C220.669 103.62 220.329 103.08 220.009 102.56C219.689 102.04 219.329 101.56 219.009 101.13C218.689 100.7 218.359 100.3 218.089 99.9599C217.899 99.9699 217.709 99.9699 217.519 99.9599H215.039V105.81H212.949V91.1199C213.607 90.9695 214.276 90.8692 214.949 90.8199C215.669 90.8199 216.339 90.7499 216.949 90.7499C218.636 90.642 220.314 91.0538 221.759 91.9299C222.308 92.3371 222.747 92.8752 223.035 93.4953C223.323 94.1153 223.452 94.7975 223.409 95.4799C223.435 96.3938 223.157 97.2904 222.619 98.0299C222.025 98.781 221.216 99.3324 220.299 99.6099" fill="#1D1D1B"/>
<path d="M234.021 99.9899C234.071 98.9241 233.773 97.871 233.171 96.9899C232.901 96.6309 232.548 96.3426 232.142 96.1493C231.736 95.956 231.29 95.8636 230.841 95.8799C230.393 95.8636 229.948 95.956 229.544 96.1493C229.14 96.3427 228.789 96.6311 228.521 96.9899C227.915 97.8691 227.616 98.9236 227.671 99.9899C227.616 101.056 227.915 102.111 228.521 102.99C228.789 103.349 229.14 103.637 229.544 103.83C229.948 104.024 230.393 104.116 230.841 104.1C231.29 104.116 231.736 104.024 232.142 103.831C232.548 103.637 232.901 103.349 233.171 102.99C233.773 102.109 234.072 101.056 234.021 99.9899ZM236.111 99.9899C236.121 100.812 235.993 101.63 235.731 102.41C235.494 103.098 235.12 103.731 234.631 104.27C234.17 104.789 233.6 105.199 232.961 105.47C232.291 105.755 231.569 105.898 230.841 105.89C230.116 105.898 229.398 105.755 228.731 105.47C228.09 105.197 227.517 104.787 227.051 104.27C226.565 103.73 226.194 103.097 225.961 102.41C225.691 101.632 225.559 100.813 225.571 99.9899C225.563 99.1702 225.695 98.3552 225.961 97.5799C226.199 96.8945 226.569 96.2625 227.051 95.7199C227.517 95.2025 228.09 94.793 228.731 94.5199C229.398 94.2352 230.116 94.0922 230.841 94.0999C231.569 94.0922 232.291 94.2352 232.961 94.5199C233.6 94.7909 234.17 95.2008 234.631 95.7199C235.116 96.262 235.489 96.8939 235.731 97.5799C235.989 98.357 236.117 99.1712 236.111 99.9899Z" fill="#1D1D1B"/>
<path d="M245.859 96.1499C245.552 96.4832 245.153 96.9532 244.659 97.5599C244.159 98.1599 243.659 98.8299 243.059 99.5599C242.459 100.29 241.919 101.06 241.349 101.87C240.779 102.68 240.279 103.45 239.849 104.18H246.029V105.87H237.449V104.53C237.799 103.9 238.219 103.2 238.729 102.44C239.239 101.68 239.729 100.91 240.309 100.16C240.889 99.4099 241.409 98.6899 241.929 98.0199C242.449 97.3499 242.929 96.7799 243.309 96.3199H237.749V94.6399H245.859V96.1499Z" fill="#1D1D1B"/>
<path d="M257.652 105.87C257.252 104.87 256.822 103.65 256.372 102.31C255.922 100.97 255.502 99.5999 255.122 98.1599C254.752 99.5999 254.342 100.98 253.892 102.31C253.442 103.64 253.022 104.83 252.622 105.87H250.872C250.212 104.39 249.562 102.69 248.872 100.8C248.182 98.9099 247.642 96.7999 247.082 94.6399H249.242C249.382 95.3199 249.562 96.0499 249.762 96.8399C249.962 97.6299 250.172 98.4299 250.402 99.2199C250.632 100.01 250.852 100.77 251.102 101.5C251.352 102.23 251.582 102.88 251.792 103.43C252.042 102.75 252.282 102.04 252.512 101.28C252.742 100.52 252.982 99.7599 253.202 98.9899C253.422 98.2199 253.612 97.4599 253.812 96.7199C254.012 95.9799 254.172 95.2899 254.322 94.6399H255.982C256.112 95.2899 256.272 95.9799 256.462 96.7199C256.652 97.4599 256.852 98.2199 257.062 98.9899C257.272 99.7599 257.502 100.53 257.742 101.28C257.982 102.03 258.222 102.75 258.472 103.43C258.682 102.88 258.912 102.24 259.152 101.5C259.392 100.76 259.622 100.01 259.852 99.2199C260.082 98.4299 260.292 97.6299 260.502 96.8399C260.712 96.0499 260.872 95.3199 261.022 94.6399H263.092C262.532 96.8399 261.932 98.8932 261.292 100.8C260.662 102.69 260.012 104.39 259.352 105.87H257.652Z" fill="#1D1D1B"/>
<path d="M272.152 90.3799L269.152 93.3799L268.152 92.4699L270.923 89.1499L272.152 90.3799ZM272.713 99.9899C272.763 98.9241 272.464 97.871 271.862 96.9899C271.592 96.6309 271.239 96.3425 270.834 96.1493C270.428 95.956 269.982 95.8636 269.533 95.8799C269.085 95.8636 268.64 95.956 268.236 96.1493C267.832 96.3427 267.481 96.6311 267.213 96.9899C266.607 97.8691 266.308 98.9236 266.362 99.9899C266.307 101.056 266.606 102.111 267.213 102.99C267.481 103.349 267.832 103.637 268.236 103.83C268.64 104.024 269.085 104.116 269.533 104.1C269.982 104.116 270.428 104.024 270.834 103.831C271.239 103.637 271.592 103.349 271.862 102.99C272.465 102.109 272.763 101.056 272.713 99.9899ZM274.803 99.9899C274.813 100.812 274.684 101.63 274.423 102.41C274.186 103.098 273.811 103.731 273.323 104.27C272.862 104.789 272.291 105.199 271.652 105.47C270.982 105.755 270.261 105.898 269.533 105.89C268.808 105.898 268.089 105.755 267.423 105.47C266.782 105.197 266.209 104.787 265.742 104.27C265.257 103.73 264.886 103.097 264.652 102.41C264.382 101.632 264.25 100.813 264.262 99.9899C264.255 99.1702 264.386 98.3552 264.652 97.5799C264.891 96.8945 265.261 96.2625 265.742 95.7199C266.209 95.2025 266.782 94.793 267.423 94.5199C268.089 94.2352 268.808 94.0922 269.533 94.0999C270.261 94.0922 270.982 94.2352 271.652 94.5199C272.291 94.7909 272.862 95.2008 273.323 95.7199C273.807 96.262 274.181 96.8939 274.423 97.5799C274.68 98.357 274.809 99.1712 274.803 99.9899Z" fill="#1D1D1B"/>
<path d="M278.522 92.6099C278.181 92.6105 277.852 92.4819 277.602 92.2499C277.47 92.1209 277.367 91.9646 277.302 91.7919C277.236 91.6192 277.209 91.4342 277.222 91.2499C277.208 91.0656 277.235 90.8804 277.301 90.7076C277.366 90.5348 277.469 90.3785 277.602 90.2499C277.852 90.018 278.181 89.8894 278.522 89.8899C278.863 89.8874 279.193 90.0163 279.442 90.2499C279.574 90.379 279.675 90.5356 279.739 90.7085C279.803 90.8814 279.828 91.0663 279.812 91.2499C279.827 91.4335 279.801 91.618 279.737 91.7906C279.673 91.9633 279.572 92.12 279.442 92.2499C279.193 92.4836 278.863 92.6125 278.522 92.6099ZM275.692 109.91C275.468 109.906 275.244 109.886 275.022 109.85C274.787 109.811 274.556 109.75 274.332 109.67L274.592 108.03C274.753 108.076 274.917 108.112 275.082 108.14C275.255 108.154 275.429 108.154 275.602 108.14C275.883 108.168 276.166 108.124 276.425 108.012C276.684 107.9 276.91 107.724 277.082 107.5C277.415 106.939 277.568 106.29 277.522 105.64V94.6399H279.522V105.64C279.607 106.801 279.25 107.951 278.522 108.86C278.141 109.216 277.69 109.489 277.197 109.661C276.705 109.833 276.182 109.901 275.662 109.86" fill="#1D1D1B"/>
</svg>
