<svg width="574" height="133" viewBox="0 0 574 133" fill="none" xmlns="http://www.w3.org/2000/svg">
<path d="M252.156 27.9552C256.988 27.9552 260.675 28.8366 263.234 30.6099C265.791 32.3712 267.072 35.0766 267.072 38.7166C267.072 43.2526 264.838 46.3219 260.359 47.9312C260.974 48.6752 261.663 49.5699 262.44 50.6366C263.208 51.6979 263.998 52.8512 264.803 54.0859C265.606 55.3232 266.374 56.5966 267.116 57.9019C267.86 59.2046 268.518 60.4806 269.104 61.7366H262.296C261.682 60.5779 261.02 59.4086 260.312 58.2366C259.604 57.0632 258.894 55.9206 258.164 54.8086C257.439 53.7006 256.726 52.6566 256.019 51.6712C255.311 50.6926 254.651 49.8152 254.038 49.0406C253.59 49.0792 253.204 49.0899 252.882 49.0899H251.964H249.022V61.7366H242.934V28.7726C244.418 28.4526 245.995 28.2312 247.672 28.1179C249.342 28.0046 250.838 27.9552 252.156 27.9552ZM252.588 33.2112C251.3 33.2112 250.112 33.2632 249.022 33.3539V44.1686H251.675C253.155 44.1686 254.455 44.0872 255.58 43.9232C256.711 43.7686 257.652 43.4752 258.406 43.0566C259.158 42.6432 259.732 42.0779 260.122 41.3712C260.506 40.6619 260.698 39.7606 260.698 38.6646C260.698 37.6406 260.506 36.7672 260.122 36.0619C259.732 35.3552 259.179 34.7912 258.451 34.3699C257.738 33.9512 256.874 33.6512 255.87 33.4792C254.872 33.3032 253.776 33.2112 252.588 33.2112" fill="#1D1D1B"/>
<path d="M291.59 40.5966C290.941 41.2659 290.106 42.2219 289.057 43.4419C288.01 44.6672 286.894 46.0219 285.697 47.5206C284.506 49.0179 283.313 50.5792 282.107 52.2059C280.898 53.8286 279.813 55.3819 278.85 56.8632H291.873V61.7352H271.801V58.1206C272.507 56.8259 273.397 55.4312 274.457 53.9152C275.518 52.4046 276.614 50.8832 277.735 49.3539C278.865 47.8286 279.982 46.3739 281.093 44.9899C282.199 43.6059 283.194 42.3952 284.059 41.3726H272.427V36.4926H291.59V40.5966Z" fill="#1D1D1B"/>
<path d="M295.066 49.2339C295.066 47.0192 295.39 45.0712 296.056 43.3966C296.712 41.7179 297.593 40.3299 298.681 39.2179C299.784 38.1126 301.029 37.2699 302.452 36.7072C303.864 36.1486 305.317 35.8672 306.794 35.8672C310.274 35.8672 312.982 36.9432 314.93 39.1006C316.882 41.2592 317.849 44.4766 317.849 48.7499C317.849 49.0792 317.841 49.4379 317.822 49.8379C317.808 50.2419 317.777 50.6059 317.752 50.9232H301.1C301.256 52.9552 301.978 54.5219 303.245 55.6259C304.517 56.7392 306.364 57.2992 308.776 57.2992C310.188 57.2992 311.484 57.1646 312.657 56.9099C313.832 56.6526 314.761 56.3752 315.432 56.0886L316.21 60.8646C315.885 61.0299 315.444 61.1992 314.877 61.3766C314.316 61.5539 313.669 61.7166 312.956 61.8592C312.226 62.0032 311.449 62.1259 310.606 62.2179C309.773 62.3166 308.916 62.3646 308.054 62.3646C305.826 62.3646 303.901 62.0352 302.26 61.3766C300.618 60.7099 299.268 59.8006 298.201 58.6206C297.14 57.4512 296.354 56.0672 295.838 54.4686C295.322 52.8806 295.066 51.1379 295.066 49.2339ZM312.008 46.6286C312.008 45.8272 311.894 45.0619 311.668 44.3379C311.449 43.6152 311.117 42.9846 310.686 42.4566C310.245 41.9259 309.716 41.5046 309.086 41.1966C308.462 40.8926 307.714 40.7392 306.842 40.7392C305.94 40.7392 305.15 40.9072 304.476 41.2459C303.804 41.5872 303.229 42.0272 302.765 42.5752C302.297 43.1246 301.934 43.7512 301.681 44.4552C301.42 45.1632 301.249 45.8899 301.142 46.6286H312.008Z" fill="#1D1D1B"/>
<path d="M322.625 49.1395C322.625 47.2755 322.917 45.5262 323.501 43.9035C324.076 42.2782 324.902 40.8689 325.978 39.6795C327.058 38.4915 328.376 37.5582 329.917 36.8809C331.469 36.2049 333.194 35.8648 335.132 35.8648C337.506 35.8648 339.764 36.2955 341.885 37.1702L340.636 41.9462C339.956 41.6582 339.19 41.4169 338.344 41.2289C337.486 41.0329 336.581 40.9369 335.614 40.9369C333.325 40.9369 331.59 41.6462 330.4 43.0835C329.21 44.5155 328.617 46.5382 328.617 49.1395C328.617 51.6515 329.177 53.6395 330.31 55.0995C331.428 56.5662 333.325 57.2995 336 57.2995C337 57.2995 337.974 57.1955 338.944 57.0075C339.912 56.8168 340.746 56.5715 341.456 56.2849L342.274 61.1102C341.629 61.4275 340.654 61.7208 339.353 61.9768C338.053 62.2368 336.709 62.3622 335.322 62.3622C333.164 62.3622 331.29 62.0328 329.698 61.3782C328.108 60.7115 326.79 59.8008 325.745 58.6222C324.698 57.4515 323.913 56.0488 323.404 54.4208C322.886 52.7995 322.625 51.0369 322.625 49.1395Z" fill="#1D1D1B"/>
<path d="M364.473 40.5966C363.834 41.2659 362.978 42.2219 361.939 43.4419C360.893 44.6672 359.773 46.0219 358.586 47.5206C357.397 49.0179 356.197 50.5792 354.989 52.2059C353.783 53.8286 352.693 55.3819 351.725 56.8632H364.759V61.7352H344.688V58.1206C345.393 56.8259 346.274 55.4312 347.338 53.9152C348.398 52.4046 349.49 50.8832 350.622 49.3539C351.749 47.8286 352.866 46.3739 353.973 44.9899C355.09 43.6059 356.075 42.3952 356.945 41.3726H345.31V36.4926H364.473V40.5966Z" fill="#1D1D1B"/>
<path d="M392.895 49.1395C392.895 51.0662 392.648 52.8408 392.145 54.4502C391.645 56.0582 390.937 57.4422 390.005 58.5995C389.069 59.7582 387.903 60.6595 386.501 61.3008C385.1 61.9462 383.515 62.2702 381.748 62.2702C380.551 62.2702 379.456 62.1262 378.467 61.8342C377.471 61.5422 376.651 61.2235 376.005 60.8622V70.6635H370.164V37.3128C371.349 36.9942 372.813 36.6875 374.555 36.4022C376.296 36.1088 378.127 35.9595 380.056 35.9595C382.053 35.9595 383.836 36.2662 385.415 36.8808C386.988 37.4915 388.333 38.3688 389.447 39.5088C390.56 40.6515 391.411 42.0382 392.003 43.6608C392.599 45.2862 392.895 47.1115 392.895 49.1395ZM386.913 49.2342C386.913 46.6288 386.324 44.5995 385.149 43.1568C383.976 41.7088 382.081 40.9835 379.479 40.9835C378.935 40.9835 378.361 41.0062 377.768 41.0515C377.172 41.1048 376.587 41.2062 376.005 41.3702V55.8035C376.523 56.1502 377.209 56.4835 378.055 56.7848C378.905 57.0942 379.819 57.2475 380.777 57.2475C382.9 57.2475 384.467 56.5262 385.44 55.0755C386.419 53.6302 386.913 51.6808 386.913 49.2342" fill="#1D1D1B"/>
<path d="M421.763 49.09C421.763 51.09 421.473 52.902 420.893 54.542C420.314 56.1873 419.491 57.586 418.43 58.7447C417.369 59.8993 416.089 60.8047 414.598 61.45C413.098 62.09 411.449 62.4127 409.643 62.4127C407.85 62.4127 406.199 62.09 404.725 61.45C403.243 60.8047 401.971 59.8993 400.91 58.7447C399.849 57.586 399.022 56.1873 398.43 54.542C397.826 52.902 397.531 51.09 397.531 49.09C397.531 47.094 397.826 45.286 398.43 43.6607C399.022 42.0367 399.857 40.642 400.933 39.4847C402.013 38.3273 403.286 37.434 404.781 36.81C406.249 36.1807 407.877 35.8673 409.643 35.8673C411.422 35.8673 413.046 36.1807 414.549 36.81C416.039 37.434 417.319 38.3273 418.381 39.4847C419.442 40.642 420.277 42.0367 420.873 43.6607C421.465 45.286 421.763 47.094 421.763 49.09ZM415.771 49.09C415.771 46.578 415.242 44.5953 414.159 43.134C413.075 41.6687 411.577 40.9367 409.643 40.9367C407.714 40.9367 406.207 41.6687 405.131 43.134C404.059 44.5953 403.513 46.578 403.513 49.09C403.513 51.6287 404.059 53.6433 405.131 55.126C406.207 56.602 407.714 57.3433 409.643 57.3433C411.577 57.3433 413.075 56.602 414.159 55.126C415.242 53.6433 415.771 51.6287 415.771 49.09Z" fill="#1D1D1B"/>
<path d="M434.113 57.5347C435.665 57.5347 436.79 57.3493 437.495 56.9813C438.201 56.6133 438.565 55.9773 438.565 55.0747C438.565 54.2387 438.183 53.548 437.423 53.004C436.669 52.4507 435.415 51.856 433.682 51.216C432.621 50.8307 431.646 50.4213 430.763 49.9787C429.875 49.5493 429.113 49.0427 428.469 48.4653C427.826 47.884 427.315 47.1813 426.95 46.3627C426.581 45.5413 426.398 44.5387 426.398 43.3493C426.398 41.0333 427.245 39.2093 428.951 37.8707C430.654 36.532 432.975 35.8653 435.906 35.8653C437.382 35.8653 438.794 36.0013 440.146 36.2747C441.506 36.5547 442.518 36.8147 443.197 37.076L442.129 41.8013C441.482 41.5133 440.663 41.2453 439.666 41.0067C438.678 40.7667 437.518 40.6427 436.194 40.6427C435.003 40.6427 434.037 40.848 433.301 41.2453C432.549 41.6453 432.183 42.2733 432.183 43.104C432.183 43.5227 432.254 43.8933 432.402 44.2133C432.549 44.5387 432.799 44.8373 433.149 45.112C433.505 45.3827 433.966 45.656 434.554 45.932C435.125 46.2053 435.842 46.484 436.673 46.7733C438.062 47.2893 439.237 47.7973 440.198 48.2933C441.166 48.792 441.966 49.356 442.589 49.9787C443.207 50.6107 443.677 51.3267 443.959 52.1333C444.257 52.9373 444.398 53.9 444.398 55.028C444.398 57.4427 443.506 59.268 441.717 60.5067C439.934 61.7467 437.382 62.3627 434.071 62.3627C431.851 62.3627 430.061 62.1773 428.709 61.8093C427.358 61.4413 426.41 61.1427 425.859 60.916L426.878 56.0373C427.747 56.396 428.781 56.7333 429.989 57.052C431.194 57.38 432.573 57.5347 434.113 57.5347Z" fill="#1D1D1B"/>
<path d="M472.582 49.1395C472.582 51.0662 472.329 52.8408 471.834 54.4502C471.34 56.0582 470.618 57.4422 469.682 58.5995C468.757 59.7582 467.582 60.6595 466.189 61.3008C464.789 61.9462 463.204 62.2702 461.437 62.2702C460.238 62.2702 459.152 62.1262 458.148 61.8342C457.15 61.5422 456.332 61.2235 455.693 60.8622V70.6635H449.852V37.3128C451.045 36.9942 452.502 36.6875 454.242 36.4022C455.984 36.1088 457.816 35.9595 459.744 35.9595C461.741 35.9595 463.532 36.2662 465.11 36.8808C466.676 37.4915 468.021 38.3688 469.13 39.5088C470.241 40.6515 471.09 42.0382 471.69 43.6608C472.288 45.2862 472.582 47.1115 472.582 49.1395ZM466.601 49.2342C466.601 46.6288 466.004 44.5995 464.837 43.1568C463.661 41.7088 461.777 40.9835 459.166 40.9835C458.614 40.9835 458.042 41.0062 457.444 41.0515C456.852 41.1048 456.276 41.2062 455.693 41.3702V55.8035C456.202 56.1502 456.886 56.4835 457.744 56.7848C458.601 57.0942 459.506 57.2475 460.465 57.2475C462.596 57.2475 464.136 56.5262 465.129 55.0755C466.11 53.6302 466.601 51.6808 466.601 49.2342" fill="#1D1D1B"/>
<path d="M501.448 49.09C501.448 51.09 501.16 52.902 500.58 54.542C499.997 56.1873 499.179 57.586 498.117 58.7447C497.048 59.8993 495.776 60.8047 494.277 61.45C492.787 62.09 491.136 62.4127 489.331 62.4127C487.531 62.4127 485.888 62.09 484.412 61.45C482.931 60.8047 481.659 59.8993 480.597 58.7447C479.536 57.586 478.709 56.1873 478.117 54.542C477.513 52.902 477.219 51.09 477.219 49.09C477.219 47.094 477.513 45.286 478.117 43.6607C478.709 42.0367 479.544 40.642 480.624 39.4847C481.7 38.3273 482.98 37.434 484.453 36.81C485.936 36.1807 487.564 35.8673 489.331 35.8673C491.093 35.8673 492.733 36.1807 494.236 36.81C495.728 37.434 497.008 38.3273 498.068 39.4847C499.137 40.642 499.956 42.0367 500.549 43.6607C501.153 45.286 501.448 47.094 501.448 49.09ZM495.467 49.09C495.467 46.578 494.92 44.5953 493.847 43.134C492.771 41.6687 491.264 40.9367 489.331 40.9367C487.401 40.9367 485.895 41.6687 484.819 43.134C483.74 44.5953 483.207 46.578 483.207 49.09C483.207 51.6287 483.74 53.6433 484.819 55.126C485.895 56.602 487.401 57.3433 489.331 57.3433C491.264 57.3433 492.771 56.602 493.847 55.126C494.92 53.6433 495.467 51.6287 495.467 49.09" fill="#1D1D1B"/>
<path d="M516.264 62.2183C514.523 62.1863 513.088 61.9943 511.948 61.6383C510.804 61.2863 509.891 60.7836 509.221 60.1169C508.545 59.4609 508.067 58.6409 507.797 57.6569C507.523 56.6743 507.387 55.5556 507.387 54.3036V29.5823L513.224 28.6183V53.1943C513.224 53.9009 513.281 54.5009 513.391 54.9823C513.508 55.4663 513.704 55.8756 514.003 56.2129C514.281 56.5489 514.679 56.8063 515.176 56.9836C515.679 57.1609 516.312 57.2996 517.083 57.3916L516.264 62.2183Z" fill="#1D1D1B"/>
<path d="M528.33 29.1128C528.33 30.2035 527.975 31.0701 527.27 31.7155C526.563 32.3621 525.722 32.6808 524.758 32.6808C523.769 32.6808 522.913 32.3621 522.206 31.7155C521.501 31.0701 521.145 30.2035 521.145 29.1128C521.145 27.9835 521.501 27.0981 522.206 26.4581C522.913 25.8101 523.769 25.4901 524.758 25.4901C525.722 25.4901 526.563 25.8101 527.27 26.4581C527.975 27.0981 528.33 27.9835 528.33 29.1128ZM527.699 61.7355H521.866V36.4928H527.699V61.7355Z" fill="#1D1D1B"/>
<path d="M534.844 29.5828L540.688 28.6202V36.4922H549.662V41.3722H540.688V51.6522C540.688 53.6735 541.005 55.1242 541.65 55.9908C542.293 56.8642 543.392 57.2988 544.932 57.2988C546 57.2988 546.94 57.1855 547.761 56.9602C548.584 56.7335 549.233 56.5268 549.712 56.3282L550.682 60.9695C550.002 61.2535 549.112 61.5522 548.021 61.8602C546.926 62.1642 545.638 62.3162 544.161 62.3162C542.357 62.3162 540.85 62.0748 539.653 61.5935C538.445 61.1122 537.482 60.4082 536.776 59.4922C536.062 58.5748 535.572 57.4628 535.285 56.1602C534.986 54.8602 534.844 53.3735 534.844 51.6988V29.5828Z" fill="#1D1D1B"/>
<path d="M563.703 35.8654C565.639 35.8654 567.259 36.1067 568.581 36.5881C569.898 37.0761 570.953 37.7481 571.745 38.6121C572.53 39.4841 573.097 40.5401 573.437 41.7814C573.769 43.0201 573.935 44.3734 573.935 45.8601V61.1574C573.041 61.3481 571.681 61.5841 569.861 61.8601C568.038 62.1294 565.991 62.2694 563.703 62.2694C562.197 62.2694 560.814 62.1241 559.558 61.8361C558.303 61.5401 557.231 61.0801 556.347 60.4347C555.459 59.7881 554.77 58.9547 554.275 57.9227C553.773 56.8934 553.523 55.6241 553.523 54.1121C553.523 52.6654 553.806 51.4427 554.365 50.4414C554.931 49.4467 555.694 48.6334 556.665 48.0027C557.627 47.3774 558.741 46.9267 560.017 46.6547C561.29 46.3827 562.613 46.2427 564.002 46.2427C564.635 46.2427 565.315 46.2814 566.021 46.3641C566.731 46.4454 567.486 46.5761 568.294 46.7734V45.8094C568.294 45.1307 568.215 44.4854 568.053 43.8814C567.89 43.2654 567.615 42.7281 567.203 42.2641C566.798 41.7974 566.27 41.4334 565.614 41.1761C564.955 40.9201 564.125 40.7867 563.129 40.7867C561.778 40.7867 560.539 40.8907 559.409 41.0801C558.285 41.2667 557.371 41.4934 556.665 41.7547L555.937 37.0254C556.673 36.7654 557.751 36.5134 559.169 36.2561C560.587 35.9961 562.094 35.8654 563.703 35.8654ZM564.19 57.6387C565.991 57.6387 567.358 57.5347 568.294 57.3441V50.8774C567.965 50.7801 567.502 50.6867 566.894 50.5854C566.278 50.4947 565.606 50.4414 564.862 50.4414C564.229 50.4414 563.574 50.4947 562.91 50.5854C562.253 50.6867 561.657 50.8614 561.121 51.1174C560.595 51.3747 560.173 51.7374 559.847 52.2054C559.522 52.6694 559.365 53.2601 559.365 53.9667C559.365 55.3507 559.798 56.3041 560.667 56.8374C561.531 57.3707 562.714 57.6387 564.19 57.6387" fill="#1D1D1B"/>
<path d="M252.399 72.7032C257.255 72.7032 260.975 73.5832 263.567 75.3566C266.163 77.1259 267.45 79.8926 267.45 83.6606C267.45 85.6219 267.104 87.3032 266.419 88.7032C265.72 90.1019 264.718 91.2432 263.404 92.1246C262.082 93.0166 260.474 93.6632 258.576 94.0832C256.671 94.5046 254.506 94.7086 252.058 94.7086H249.014V106.485H242.934V73.5219C244.348 73.2059 245.919 72.9819 247.639 72.8726C249.363 72.7592 250.95 72.7032 252.399 72.7032ZM252.826 77.9579C251.288 77.9579 250.019 78.0112 249.014 78.1046V89.5019H251.967C254.89 89.5019 257.14 89.0912 258.723 88.2646C260.299 87.4486 261.088 85.8966 261.088 83.6086C261.088 82.5179 260.871 81.5992 260.455 80.8606C260.044 80.1179 259.456 79.5392 258.723 79.1192C257.983 78.7032 257.103 78.4086 256.083 78.2272C255.072 78.0539 253.983 77.9579 252.826 77.9579" fill="#1D1D1B"/>
<path d="M294.676 93.8439C294.676 95.8359 294.385 97.6545 293.807 99.2945C293.233 100.94 292.413 102.333 291.347 103.495C290.292 104.652 289.008 105.552 287.509 106.199C286.013 106.844 284.363 107.163 282.557 107.163C280.755 107.163 279.115 106.844 277.643 106.199C276.152 105.552 274.884 104.652 273.831 103.495C272.761 102.333 271.929 100.94 271.337 99.2945C270.741 97.6545 270.445 95.8359 270.445 93.8439C270.445 91.8479 270.741 90.0345 271.337 88.4159C271.929 86.7852 272.771 85.3972 273.848 84.2399C274.927 83.0759 276.205 82.1825 277.691 81.5585C279.167 80.9319 280.787 80.6172 282.557 80.6172C284.333 80.6172 285.96 80.9319 287.46 81.5585C288.956 82.1825 290.235 83.0759 291.295 84.2399C292.356 85.3972 293.193 86.7852 293.785 88.4159C294.377 90.0345 294.676 91.8479 294.676 93.8439ZM288.692 93.8439C288.692 91.3332 288.155 89.3492 287.071 87.8839C285.996 86.4172 284.488 85.6905 282.557 85.6905C280.633 85.6905 279.128 86.4172 278.052 87.8839C276.973 89.3492 276.432 91.3332 276.432 93.8439C276.432 96.3825 276.973 98.3972 278.052 99.8745C279.128 101.356 280.633 102.097 282.557 102.097C284.488 102.097 285.996 101.356 287.071 99.8745C288.155 98.3972 288.692 96.3825 288.692 93.8439" fill="#1D1D1B"/>
<path d="M309.497 106.969C307.756 106.937 306.321 106.742 305.175 106.394C304.033 106.034 303.124 105.532 302.444 104.872C301.772 104.209 301.3 103.39 301.023 102.405C300.753 101.428 300.613 100.31 300.613 99.0543V74.393L306.455 73.4263V97.9477C306.455 98.6543 306.519 99.249 306.624 99.7317C306.737 100.214 306.937 100.622 307.228 100.961C307.523 101.297 307.912 101.553 308.415 101.734C308.905 101.914 309.539 102.048 310.316 102.148L309.497 106.969Z" fill="#1D1D1B"/>
<path d="M321.367 102.288C322.915 102.288 324.04 102.103 324.745 101.735C325.451 101.361 325.807 100.727 325.807 99.8306C325.807 98.9919 325.433 98.2972 324.673 97.7546C323.919 97.2039 322.665 96.6106 320.932 95.9692C319.871 95.5812 318.896 95.1692 318.013 94.7346C317.121 94.2986 316.364 93.7986 315.719 93.2132C315.068 92.6412 314.565 91.9346 314.2 91.1172C313.831 90.2906 313.645 89.2866 313.645 88.0986C313.645 85.7799 314.495 83.9572 316.201 82.6239C317.912 81.2879 320.227 80.6146 323.149 80.6146C324.632 80.6146 326.049 80.7559 327.407 81.0252C328.756 81.3026 329.768 81.5692 330.448 81.8252L329.379 86.5546C328.732 86.2612 327.913 85.9972 326.924 85.7599C325.92 85.5146 324.761 85.3986 323.444 85.3986C322.257 85.3986 321.287 85.5972 320.544 85.9972C319.807 86.4012 319.441 87.0212 319.441 87.8572C319.441 88.2759 319.512 88.6466 319.652 88.9679C319.799 89.2866 320.041 89.5852 320.403 89.8626C320.751 90.1359 321.224 90.4092 321.796 90.6799C322.383 90.9586 323.092 91.2332 323.923 91.5279C325.312 92.0426 326.479 92.5439 327.452 93.0479C328.416 93.5452 329.209 94.1092 329.847 94.7346C330.469 95.3639 330.927 96.0812 331.217 96.8812C331.501 97.6919 331.648 98.6532 331.648 99.7812C331.648 102.192 330.757 104.016 328.967 105.256C327.184 106.496 324.632 107.116 321.313 107.116C319.101 107.116 317.319 106.925 315.967 106.557C314.612 106.189 313.66 105.891 313.117 105.664L314.128 100.792C315.001 101.145 316.039 101.484 317.232 101.805C318.444 102.129 319.815 102.288 321.367 102.288Z" fill="#1D1D1B"/>
<path d="M342.939 91.0887C343.684 90.3233 344.468 89.4927 345.31 88.6073C346.144 87.7193 346.971 86.838 347.772 85.9513C348.57 85.0647 349.339 84.214 350.068 83.3927C350.786 82.574 351.41 81.8553 351.922 81.246H358.82C357.219 83.0433 355.531 84.91 353.748 86.8473C351.967 88.7753 350.17 90.6607 348.372 92.494C349.339 93.294 350.355 94.2687 351.41 95.41C352.468 96.5527 353.5 97.7687 354.498 99.0553C355.49 100.345 356.423 101.627 357.284 102.917C358.156 104.205 358.87 105.394 359.455 106.485H352.688C352.115 105.49 351.451 104.446 350.691 103.351C349.936 102.257 349.124 101.195 348.251 100.161C347.383 99.1353 346.496 98.1633 345.602 97.246C344.695 96.326 343.819 95.5513 342.939 94.902V106.485H337.098V74.394L342.939 73.426V91.0887Z" fill="#1D1D1B"/>
<path d="M372.094 80.6147C374.026 80.6147 375.646 80.8614 376.967 81.3427C378.289 81.8254 379.339 82.5014 380.127 83.3654C380.914 84.2387 381.479 85.2894 381.819 86.5307C382.159 87.768 382.33 89.128 382.33 90.608V105.912C381.431 106.101 380.067 106.337 378.247 106.608C376.421 106.883 374.378 107.02 372.094 107.02C370.587 107.02 369.201 106.873 367.941 106.588C366.69 106.296 365.615 105.828 364.731 105.183C363.85 104.536 363.153 103.705 362.658 102.672C362.155 101.645 361.914 100.377 361.914 98.86C361.914 97.416 362.193 96.196 362.751 95.1907C363.315 94.1974 364.085 93.3867 365.049 92.756C366.011 92.1254 367.127 91.68 368.401 91.4094C369.678 91.1307 370.991 90.996 372.377 90.996C373.018 90.996 373.698 91.0334 374.407 91.1174C375.114 91.1934 375.869 91.3307 376.685 91.528V90.5587C376.685 89.8787 376.602 89.24 376.435 88.632C376.274 88.0147 375.998 87.4827 375.594 87.012C375.185 86.5507 374.661 86.1814 373.997 85.924C373.339 85.6694 372.511 85.54 371.511 85.54C370.165 85.54 368.926 85.64 367.793 85.8334C366.669 86.0214 365.758 86.2494 365.049 86.508L364.319 81.7747C365.063 81.52 366.139 81.26 367.559 81.004C368.974 80.7494 370.481 80.6147 372.094 80.6147ZM372.577 102.387C374.378 102.387 375.737 102.288 376.685 102.097V95.632C376.353 95.528 375.893 95.4347 375.277 95.3387C374.661 95.2427 373.989 95.1907 373.245 95.1907C372.603 95.1907 371.957 95.2427 371.301 95.3387C370.635 95.4347 370.043 95.6094 369.503 95.8667C368.974 96.128 368.555 96.4907 368.227 96.9534C367.906 97.4227 367.743 98.008 367.743 98.716C367.743 100.097 368.181 101.057 369.058 101.587C369.914 102.119 371.097 102.387 372.577 102.387" fill="#1D1D1B"/>
<path d="M0 66.368H198.865V4.46459e-05H0V66.368Z" fill="white"/>
<path d="M0 132.718H198.865V66.367L0 66.3683V132.718Z" fill="#B5202B"/>
<path d="M0 132.718H198.865V0.0005674H0V132.718ZM0.620005 0.627236H198.244V132.09H0.620005V0.627236Z" fill="#878787"/>
</svg>
