<svg width="404" height="91" viewBox="0 0 404 91" fill="none" xmlns="http://www.w3.org/2000/svg">
<path d="M403.062 0H266.992V90.72H403.062V0Z" fill="#164194"/>
<path d="M332.131 19.7701L335.001 17.6801L337.871 19.7701L336.781 16.3901L339.691 14.3001H336.101L335.001 10.8601L333.901 14.3001H330.301L333.211 16.3901L332.131 19.7701Z" fill="#FFED00"/>
<path d="M317.263 23.7701L320.143 21.6701L323.013 23.7701L321.913 20.3801L324.833 18.2801H321.243L320.143 14.8401L319.043 18.2901L315.453 18.2801L318.363 20.3801L317.263 23.7701Z" fill="#FFED00"/>
<path d="M309.26 25.74L308.16 29.19L304.57 29.18L307.48 31.28L306.39 34.66L309.26 32.57L312.14 34.66L311.04 31.28L313.96 29.18H310.37L309.26 25.74Z" fill="#FFED00"/>
<path d="M305.282 47.4001L308.142 49.5001L307.052 46.1101L309.972 44.0201H306.382L305.282 40.5801L304.172 44.0301L300.582 44.0201L303.492 46.1101L302.412 49.5001L305.282 47.4001Z" fill="#FFED00"/>
<path d="M310.37 58.9001L309.26 55.4701L308.17 58.9001H304.57L307.48 61.0101L306.39 64.3801L309.26 62.2901L312.14 64.3801L311.05 61.0101L313.96 58.9001H310.37Z" fill="#FFED00"/>
<path d="M321.251 69.7901L320.161 66.3601L319.051 69.8001L315.461 69.7901L318.381 71.8901L317.291 75.2701L320.161 73.1801L323.031 75.2701L321.941 71.8901L324.861 69.7901H321.251Z" fill="#FFED00"/>
<path d="M336.101 73.7401L335.001 70.3L333.911 73.7401H330.301L333.221 75.83L332.121 79.22L335.001 77.1301L337.881 79.22L336.771 75.83L339.701 73.7401H336.101Z" fill="#FFED00"/>
<path d="M350.942 69.7901L349.832 66.3601L348.732 69.8001L345.152 69.7901L348.062 71.8901L346.962 75.2701L349.832 73.1801L352.712 75.2701L351.622 71.8901L354.552 69.7901H350.942Z" fill="#FFED00"/>
<path d="M361.841 58.9001L360.731 55.4701L359.641 58.9001H356.051L358.961 61.0101L357.851 64.3801L360.731 62.2901L363.611 64.3801L362.511 61.0101L365.431 58.9001H361.841Z" fill="#FFED00"/>
<path d="M369.372 43.97H365.782L364.692 40.53L363.572 43.97H359.992L362.912 46.08L361.802 49.46L364.692 47.36L367.562 49.46L366.462 46.08L369.372 43.97Z" fill="#FFED00"/>
<path d="M357.861 34.6101L360.731 32.5201L363.611 34.6101L362.511 31.2201L365.431 29.1401H361.841L360.731 25.6901L359.641 29.1501L356.051 29.1401L358.961 31.2201L357.861 34.6101Z" fill="#FFED00"/>
<path d="M349.881 14.8501L348.791 18.2901L345.191 18.2801L348.111 20.3801L347.021 23.7701L349.901 21.6701L352.761 23.7701L351.671 20.3801L354.581 18.2801H350.991L349.881 14.8501Z" fill="#FFED00"/>
<path d="M53.4727 59.0601V44.0901H62.6127V45.8801H55.5726V50.3301H61.8326V52.0801H55.5726V57.2601H63.1526V59.0601H53.4727Z" fill="#1D1D1B"/>
<path d="M74.1016 58.5001C73.6416 58.6101 73.0416 58.7301 72.2816 58.8701C71.4118 59.0069 70.5321 59.0705 69.6516 59.0601C68.9066 59.0847 68.1644 58.9553 67.4716 58.6801C66.9127 58.4492 66.4209 58.0812 66.0417 57.6101C65.6711 57.1282 65.4085 56.5723 65.2716 55.9801C65.1055 55.2994 65.0249 54.6007 65.0316 53.9001V47.5901H67.0316V53.4601C66.9344 54.5032 67.1614 55.5508 67.6817 56.4601C67.9478 56.7709 68.2848 57.0131 68.6642 57.1663C69.0436 57.3195 69.4543 57.3791 69.8617 57.3401H70.5316C70.7616 57.3401 70.9817 57.3401 71.1817 57.2801L71.7317 57.2201C71.8543 57.207 71.975 57.1802 72.0916 57.1401V47.5901H74.0916L74.1016 58.5001Z" fill="#1D1D1B"/>
<path d="M81.601 47.59H82.1909C82.4109 47.59 82.641 47.6401 82.851 47.6801L83.4509 47.7901C83.5877 47.8076 83.722 47.8412 83.851 47.8901L83.501 49.63C83.242 49.5473 82.9781 49.4805 82.7109 49.4301C82.2471 49.336 81.774 49.2958 81.301 49.3101C80.9274 49.3043 80.5546 49.3446 80.1909 49.4301L79.4609 49.59V59.0301H77.4609V48.3C78.0402 48.1028 78.6314 47.9425 79.231 47.8201C80.0134 47.656 80.8116 47.5789 81.611 47.59" fill="#1D1D1B"/>
<path d="M93.5031 53.1801C93.5592 52.1136 93.2602 51.0586 92.653 50.1801C92.3849 49.8213 92.0337 49.5328 91.6297 49.3395C91.2256 49.1462 90.7807 49.0537 90.333 49.0701C89.8853 49.0529 89.4401 49.1449 89.0359 49.3383C88.6316 49.5317 88.2806 49.8206 88.013 50.1801C87.4023 51.0574 87.0998 52.1125 87.153 53.1801C87.1006 54.2476 87.403 55.3025 88.013 56.1801C88.2806 56.5395 88.6316 56.8284 89.0359 57.0218C89.4401 57.2152 89.8853 57.3073 90.333 57.2901C90.7807 57.3064 91.2256 57.214 91.6297 57.0207C92.0337 56.8273 92.3849 56.5389 92.653 56.1801C93.2596 55.3012 93.5584 54.2465 93.5031 53.1801ZM95.6031 53.1801C95.6152 54.0033 95.4832 54.8223 95.213 55.6001C94.975 56.2855 94.6047 56.9174 94.1231 57.4601C93.6586 57.9749 93.0891 58.384 92.453 58.6601C91.7823 58.9428 91.0609 59.0858 90.333 59.0801C89.605 59.0877 88.8832 58.9448 88.213 58.6601C87.5741 58.3891 87.0036 57.9792 86.5431 57.4601C86.0617 56.9155 85.6884 56.2842 85.443 55.6001C85.1811 54.8205 85.0527 54.0024 85.0631 53.1801C85.0552 52.3612 85.1835 51.5468 85.443 50.7701C85.6861 50.0849 86.0597 49.4532 86.5431 48.9101C87.0009 48.3879 87.5721 47.9774 88.213 47.7101C88.881 47.4174 89.6038 47.2708 90.333 47.2801C91.0621 47.2729 91.7844 47.4194 92.453 47.7101C93.0883 47.9737 93.6583 48.3731 94.1231 48.8801C94.6069 49.4212 94.9774 50.0536 95.213 50.7401C95.4808 51.515 95.6128 52.3303 95.6031 53.1501" fill="#1D1D1B"/>
<path d="M106.121 53.46C106.178 52.3697 105.821 51.2982 105.121 50.46C104.789 50.1073 104.385 49.8301 103.937 49.6473C103.488 49.4644 103.005 49.38 102.521 49.4C102.05 49.394 101.58 49.4141 101.111 49.46C100.838 49.4949 100.567 49.5483 100.301 49.62V56.7C100.623 56.9484 100.981 57.1473 101.361 57.29C101.842 57.4776 102.355 57.5726 102.871 57.57C103.383 57.5833 103.891 57.4735 104.351 57.25C104.755 57.0568 105.1 56.76 105.351 56.39C105.62 55.9995 105.814 55.5619 105.921 55.1C106.036 54.5677 106.093 54.0246 106.091 53.48L106.121 53.46ZM108.191 53.48C108.196 54.2792 108.081 55.0745 107.851 55.84C107.641 56.5188 107.302 57.1504 106.851 57.7C106.417 58.2162 105.874 58.6295 105.261 58.91C104.583 59.2031 103.85 59.3496 103.111 59.34C102.528 59.3483 101.946 59.2605 101.391 59.08C101.004 58.9554 100.631 58.7877 100.281 58.58V63.08H98.2812V48.17C98.7612 48.06 99.3513 47.93 100.061 47.79C100.88 47.6499 101.71 47.5829 102.541 47.59C103.337 47.5797 104.127 47.7188 104.871 48C105.566 48.2457 106.198 48.6418 106.721 49.16C107.226 49.6904 107.614 50.3206 107.861 51.01C108.134 51.7977 108.269 52.6265 108.261 53.46" fill="#1D1D1B"/>
<path d="M118.02 52.1001C118.071 51.299 117.829 50.5067 117.34 49.8701C117.111 49.5817 116.816 49.3517 116.481 49.1988C116.146 49.0459 115.779 48.9744 115.41 48.9901C114.988 48.9811 114.57 49.0737 114.19 49.2601C113.848 49.4367 113.542 49.6777 113.29 49.9701C113.042 50.2663 112.849 50.6051 112.72 50.9701C112.581 51.3367 112.49 51.7199 112.45 52.1101L118.02 52.1001ZM110.31 53.2101C110.29 52.3209 110.436 51.4357 110.74 50.6001C110.998 49.9134 111.388 49.2845 111.89 48.7501C112.355 48.2735 112.913 47.8988 113.53 47.6501C114.136 47.4125 114.78 47.2904 115.43 47.2901C116.079 47.2495 116.728 47.3552 117.331 47.5992C117.933 47.8433 118.473 48.2195 118.91 48.7001C119.813 49.9474 120.242 51.4753 120.12 53.0101V53.3501C120.12 53.4801 120.12 53.6001 120.12 53.7201H112.42C112.429 54.6971 112.783 55.6396 113.42 56.3801C113.796 56.7114 114.236 56.963 114.712 57.1194C115.188 57.2758 115.691 57.3339 116.19 57.2901C116.789 57.3032 117.388 57.2393 117.97 57.1001C118.343 57.0133 118.707 56.8963 119.06 56.7501L119.34 58.4301C118.932 58.6174 118.502 58.7551 118.06 58.8401C117.375 58.9959 116.673 59.0697 115.97 59.0601C115.102 59.0807 114.239 58.9277 113.43 58.6101C112.758 58.3488 112.155 57.9345 111.67 57.4001C111.215 56.8575 110.875 56.2281 110.67 55.5501C110.443 54.7911 110.332 54.0022 110.34 53.2101" fill="#1D1D1B"/>
<path d="M123.903 45.7901C123.734 45.7953 123.566 45.7671 123.408 45.707C123.25 45.647 123.105 45.5562 122.983 45.4401C122.85 45.3111 122.748 45.1547 122.682 44.982C122.617 44.8093 122.589 44.6244 122.603 44.4401C122.592 44.256 122.62 44.0718 122.686 43.8995C122.751 43.7272 122.853 43.5706 122.983 43.4401C123.233 43.2091 123.562 43.0838 123.903 43.0901C124.243 43.0858 124.571 43.2109 124.823 43.4401C124.951 43.5711 125.051 43.728 125.115 43.9004C125.179 44.0728 125.205 44.2567 125.193 44.4401C125.207 44.6236 125.182 44.8081 125.118 44.9808C125.054 45.1535 124.953 45.3102 124.823 45.4401C124.574 45.6737 124.244 45.7996 123.903 45.7901ZM121.073 63.1001C120.848 63.0961 120.624 63.0761 120.403 63.0401C120.172 63.0054 119.945 62.9519 119.723 62.8801L119.983 61.2401C120.144 61.2858 120.307 61.3225 120.473 61.3501C120.646 61.3638 120.82 61.3638 120.993 61.3501C121.274 61.3789 121.557 61.3352 121.816 61.2232C122.075 61.1111 122.301 60.9345 122.473 60.7101C122.805 60.1494 122.959 59.5004 122.913 58.8501V47.8801H124.913V58.8801C124.998 60.0382 124.641 61.1855 123.913 62.0901C123.532 62.447 123.081 62.7204 122.588 62.8927C122.096 63.0649 121.573 63.1321 121.053 63.0901" fill="#1D1D1B"/>
<path d="M130.882 57.3501C131.506 57.3869 132.129 57.2773 132.702 57.0301C132.887 56.9373 133.041 56.7941 133.147 56.6171C133.254 56.44 133.307 56.2365 133.302 56.0301C133.308 55.8016 133.257 55.5753 133.154 55.3712C133.051 55.1671 132.899 54.9916 132.712 54.8601C132.111 54.4566 131.467 54.1212 130.792 53.8601C130.362 53.6901 129.942 53.5101 129.552 53.3301C129.19 53.1653 128.854 52.9498 128.552 52.6901C128.261 52.4503 128.026 52.15 127.862 51.8101C127.679 51.4088 127.59 50.971 127.602 50.5301C127.586 50.0777 127.677 49.6279 127.868 49.2176C128.059 48.8074 128.345 48.4483 128.702 48.1701C129.576 47.5502 130.633 47.2436 131.702 47.3001C132.012 47.3001 132.332 47.3001 132.652 47.3001C132.972 47.3001 133.262 47.3801 133.532 47.4301C133.802 47.4801 134.052 47.5401 134.262 47.5901L134.742 47.7401L134.372 49.4701C134.053 49.3149 133.718 49.1942 133.372 49.1101C132.829 48.981 132.271 48.9205 131.712 48.9301C131.203 48.9163 130.697 49.0297 130.242 49.2601C130.055 49.3514 129.896 49.4935 129.785 49.6702C129.673 49.8469 129.614 50.0512 129.612 50.2601C129.608 50.4847 129.656 50.7072 129.752 50.9101C129.857 51.1091 130.004 51.2831 130.182 51.4201C130.407 51.5903 130.652 51.7314 130.912 51.8401C131.192 51.9701 131.542 52.1101 131.912 52.2501C132.282 52.3901 132.912 52.6501 133.342 52.8501C133.732 53.0196 134.093 53.249 134.412 53.5301C134.705 53.7862 134.937 54.1038 135.092 54.4601C135.263 54.8891 135.345 55.3484 135.332 55.8101C135.357 56.2698 135.263 56.7283 135.06 57.1415C134.857 57.5547 134.552 57.9089 134.172 58.1701C133.182 58.7644 132.035 59.0434 130.882 58.9701C130.098 58.9965 129.313 58.9124 128.552 58.7201C128.163 58.6136 127.779 58.4868 127.402 58.3401L127.772 56.6101L128.872 57.0101C129.522 57.1979 130.197 57.2822 130.872 57.2601" fill="#1D1D1B"/>
<path d="M141.85 52.8801C142.335 53.2576 142.792 53.6686 143.22 54.1101C143.71 54.6001 144.22 55.1101 144.65 55.7001C145.08 56.2901 145.56 56.8401 145.98 57.4301C146.36 57.9552 146.714 58.4992 147.04 59.0601H144.72C144.397 58.5252 144.047 58.0078 143.67 57.51C143.28 56.99 142.86 56.5101 142.43 56.0001C142.015 55.5354 141.575 55.0947 141.11 54.6801C140.713 54.3146 140.288 53.9803 139.84 53.6801V59.08H137.84V42.6401L139.84 42.3V52.5401L140.98 51.3901C141.4 50.9701 141.81 50.5501 142.21 50.1101C142.61 49.6701 143 49.27 143.36 48.87C143.72 48.47 144.03 48.13 144.29 47.87H146.64C146.31 48.22 145.95 48.6201 145.56 49.0601C145.17 49.5001 144.77 49.9201 144.35 50.3601C143.93 50.8001 143.51 51.2401 143.09 51.6801L141.89 52.9201" fill="#1D1D1B"/>
<path d="M150.97 59.0601H148.97V47.8201H150.97V59.0601ZM149.97 45.7901C149.629 45.7996 149.298 45.6737 149.05 45.4401C148.919 45.3102 148.819 45.1535 148.755 44.9808C148.691 44.8081 148.665 44.6236 148.68 44.4401C148.667 44.2566 148.693 44.0725 148.757 43.9001C148.82 43.7276 148.92 43.5707 149.05 43.4401C149.301 43.2109 149.63 43.0858 149.97 43.0901C150.31 43.0838 150.64 43.2091 150.89 43.4401C151.02 43.5703 151.122 43.7268 151.187 43.8992C151.253 44.0716 151.281 44.256 151.27 44.4401C151.283 44.6244 151.256 44.8093 151.19 44.982C151.124 45.1547 151.022 45.3111 150.89 45.4401C150.767 45.5562 150.623 45.647 150.465 45.707C150.307 45.7671 150.139 45.7953 149.97 45.7901Z" fill="#1D1D1B"/>
<path d="M159.32 59.0601V44.0901H168.35V45.8801H161.42V50.3901H167.58V52.1701H161.42V59.0601H159.32Z" fill="#1D1D1B"/>
<path d="M179.09 58.5001C178.64 58.6101 178.03 58.7301 177.27 58.8701C176.403 59.0065 175.527 59.0701 174.65 59.0601C173.902 59.0855 173.156 58.9561 172.46 58.6801C171.902 58.4516 171.413 58.083 171.04 57.6101C170.666 57.1288 170.4 56.5729 170.26 55.9801C170.094 55.2994 170.013 54.6007 170.02 53.9001V47.5901H172.02V53.4601C171.923 54.5032 172.15 55.5508 172.67 56.4601C172.936 56.7709 173.273 57.0131 173.652 57.1663C174.032 57.3195 174.443 57.3791 174.85 57.3401H175.52C175.75 57.3401 175.97 57.3401 176.17 57.2801L176.72 57.2201C176.843 57.2082 176.964 57.1814 177.08 57.1401V47.5901H179.08L179.09 58.5001Z" fill="#1D1D1B"/>
<path d="M182.441 48.15C182.901 48.04 183.511 47.92 184.281 47.78C185.155 47.6433 186.038 47.5797 186.921 47.59C187.679 47.5681 188.434 47.6972 189.141 47.97C189.698 48.1949 190.187 48.5601 190.561 49.03C190.924 49.5129 191.177 50.0692 191.301 50.66C191.451 51.3466 191.524 52.0474 191.521 52.7501V59.06H189.521V53.1801C189.528 52.5871 189.481 51.9947 189.381 51.41C189.309 50.9849 189.149 50.5796 188.911 50.22C188.7 49.9188 188.399 49.6914 188.051 49.5701C187.621 49.4187 187.167 49.3476 186.711 49.3601H186.041H185.381L184.821 49.44L184.461 49.5001V58.99H182.461L182.441 48.15Z" fill="#1D1D1B"/>
<path d="M201.993 49.94C201.671 49.6941 201.313 49.4986 200.933 49.36C200.453 49.1668 199.94 49.0716 199.423 49.08C198.912 49.0699 198.406 49.1759 197.943 49.39C197.545 49.5923 197.202 49.8873 196.943 50.25C196.669 50.6479 196.479 51.0969 196.383 51.57C196.26 52.0978 196.199 52.6382 196.203 53.18C196.149 54.2699 196.506 55.3404 197.203 56.18C197.531 56.5359 197.932 56.816 198.379 57.0007C198.827 57.1855 199.309 57.2706 199.793 57.25C200.25 57.2538 200.708 57.2271 201.163 57.17C201.449 57.1375 201.733 57.084 202.013 57.01L201.993 49.94ZM201.993 42.38L203.993 42.04V58.47C203.533 58.6 202.993 58.73 202.223 58.87C201.403 59.0061 200.573 59.0697 199.743 59.06C198.947 59.0713 198.156 58.9321 197.413 58.65C196.742 58.3924 196.135 57.9934 195.633 57.48C195.131 56.9527 194.746 56.3258 194.503 55.64C194.224 54.8503 194.089 54.0173 194.103 53.18C194.094 52.378 194.205 51.5793 194.433 50.81C194.637 50.1288 194.977 49.4961 195.433 48.95C195.862 48.4333 196.402 48.0198 197.013 47.74C197.69 47.4425 198.423 47.2958 199.163 47.31C199.747 47.2968 200.328 47.3847 200.883 47.57C201.271 47.6877 201.644 47.8522 201.993 48.06V42.38Z" fill="#1D1D1B"/>
<path d="M216.303 58.5001C215.843 58.6101 215.233 58.7301 214.473 58.8701C213.607 59.0069 212.73 59.0705 211.853 59.0601C211.105 59.0855 210.359 58.9561 209.663 58.6801C209.106 58.4516 208.616 58.083 208.243 57.6101C207.873 57.1264 207.608 56.5714 207.463 55.9801C207.297 55.2994 207.216 54.6007 207.223 53.9001V47.5901H209.223V53.4601C209.131 54.5028 209.358 55.549 209.873 56.4601C210.139 56.7709 210.476 57.0131 210.856 57.1663C211.235 57.3195 211.646 57.3791 212.053 57.3401H212.723C212.953 57.3401 213.173 57.3401 213.373 57.2801L213.923 57.2201C214.046 57.2082 214.167 57.1814 214.283 57.1401V47.5901H216.283L216.303 58.5001Z" fill="#1D1D1B"/>
<path d="M222.263 57.35C222.886 57.3868 223.51 57.2772 224.083 57.03C224.267 56.9372 224.422 56.794 224.528 56.617C224.634 56.4399 224.688 56.2364 224.683 56.03C224.688 55.8015 224.637 55.5752 224.534 55.3711C224.432 55.167 224.28 54.9915 224.093 54.86C223.492 54.4565 222.848 54.1211 222.173 53.86C221.743 53.69 221.323 53.51 220.933 53.33C220.571 53.1652 220.234 52.9497 219.933 52.69C219.642 52.4502 219.406 52.1499 219.243 51.81C219.06 51.4087 218.971 50.9709 218.983 50.53C218.966 50.0765 219.058 49.6256 219.251 49.215C219.444 48.8044 219.733 48.4461 220.093 48.17C220.965 47.5464 222.023 47.2395 223.093 47.3C223.403 47.3 223.723 47.3 224.093 47.3C224.463 47.3 224.703 47.38 224.973 47.43C225.243 47.48 225.493 47.54 225.703 47.59L226.183 47.74L225.813 49.47C225.493 49.3148 225.158 49.1941 224.813 49.11C224.269 48.9809 223.712 48.9204 223.153 48.93C222.643 48.9174 222.138 49.0308 221.683 49.26C221.495 49.3513 221.337 49.4934 221.225 49.6701C221.114 49.8468 221.054 50.0511 221.053 50.26C221.049 50.4846 221.097 50.7071 221.193 50.91C221.301 51.1067 221.447 51.28 221.623 51.42C221.848 51.5902 222.093 51.7313 222.353 51.84C222.643 51.97 222.983 52.11 223.353 52.25C223.723 52.39 224.353 52.65 224.773 52.85C225.163 53.0195 225.524 53.2489 225.843 53.53C226.135 53.7861 226.368 54.1037 226.523 54.46C226.69 54.9137 226.758 55.3978 226.723 55.88C226.748 56.3397 226.654 56.7982 226.451 57.2114C226.248 57.6246 225.942 57.9788 225.563 58.24C224.573 58.8343 223.425 59.1133 222.273 59.04C221.485 59.0657 220.698 58.9815 219.933 58.79C219.373 58.62 218.993 58.5 218.793 58.41L219.163 56.68L220.263 57.08C220.912 57.2678 221.587 57.3521 222.263 57.33" fill="#1D1D1B"/>
<path d="M236.623 49.34C236.323 49.67 235.923 50.14 235.433 50.74C234.943 51.34 234.433 52.02 233.833 52.74C233.233 53.46 232.693 54.25 232.123 55.05C231.553 55.85 231.053 56.63 230.623 57.36H236.803V59.05H228.223V57.71C228.563 57.08 228.993 56.38 229.503 55.62C230.013 54.86 230.503 54.09 231.083 53.34C231.663 52.59 232.183 51.87 232.703 51.2C233.223 50.53 233.703 49.96 234.073 49.5H228.523V47.88H236.623V49.34Z" fill="#1D1D1B"/>
<path d="M21.8226 72.24C20.9326 72.24 20.2526 72.24 19.7726 72.31V77.95H21.2626C21.9309 77.9544 22.5988 77.9176 23.2626 77.84C23.7661 77.7886 24.2568 77.6498 24.7126 77.43C25.0962 77.2433 25.4162 76.9476 25.6326 76.58C25.8712 76.1316 25.9852 75.6275 25.9626 75.12C25.9806 74.629 25.8666 74.1421 25.6326 73.71C25.4077 73.358 25.0938 73.0717 24.7227 72.88C24.3206 72.6495 23.8802 72.4937 23.4227 72.42C22.8976 72.3292 22.3655 72.2857 21.8326 72.29L21.8226 72.24ZM25.0126 79.29C25.246 79.5834 25.536 79.9634 25.8826 80.43C26.2426 80.9 26.6027 81.43 26.9727 81.98C27.3427 82.53 27.7227 83.15 28.0927 83.77C28.4388 84.3489 28.7526 84.9465 29.0327 85.56H26.7227C26.4327 85.01 26.1227 84.45 25.7827 83.9C25.4427 83.35 25.1027 82.8 24.7827 82.29C24.4627 81.78 24.0927 81.29 23.7827 80.85C23.4727 80.41 23.1427 80.01 22.8727 79.69H19.8226V85.55H17.7227V70.77C18.3797 70.6176 19.049 70.5239 19.7227 70.49C20.4527 70.43 21.1227 70.41 21.7227 70.41C23.4108 70.2965 25.0922 70.7125 26.5327 71.6C27.0824 72.0044 27.5217 72.5406 27.81 73.1592C28.0983 73.7778 28.2265 74.459 28.1827 75.14C28.2081 76.054 27.9303 76.9506 27.3926 77.69C26.8013 78.4418 25.9904 78.9906 25.0726 79.26" fill="#1D1D1B"/>
<path d="M38.8498 79.66C38.9023 78.5925 38.5999 77.5376 37.9898 76.66C37.7217 76.3012 37.3705 76.0128 36.9665 75.8194C36.5624 75.6261 36.1175 75.5337 35.6698 75.55C35.2222 75.5337 34.7773 75.6261 34.3732 75.8194C33.9691 76.0128 33.618 76.3012 33.3498 76.66C32.7398 77.5376 32.4374 78.5925 32.4898 79.66C32.4382 80.7274 32.7405 81.7821 33.3498 82.66C33.6217 83.0279 33.9804 83.3227 34.394 83.5181C34.8075 83.7135 35.263 83.8035 35.7198 83.78C36.1675 83.7964 36.6124 83.7039 37.0165 83.5106C37.4205 83.3173 37.7717 83.0288 38.0398 82.67C38.6492 81.7921 38.9515 80.7374 38.8998 79.67L38.8498 79.66ZM40.9898 79.67C41.0003 80.4931 40.8684 81.3119 40.5998 82.09C40.3633 82.7731 39.9927 83.402 39.5098 83.94C39.0492 84.4591 38.4787 84.8691 37.8398 85.14C37.1694 85.4239 36.4478 85.5668 35.7198 85.56C34.9918 85.5668 34.2702 85.4239 33.5998 85.14C32.9624 84.8665 32.3924 84.4569 31.9298 83.94C31.4504 83.3996 31.0802 82.7713 30.8398 82.09C30.5713 81.3119 30.4393 80.4931 30.4498 79.67C30.4393 78.8501 30.5712 78.0347 30.8398 77.26C31.073 76.5694 31.4438 75.9332 31.9298 75.39C32.3924 74.8731 32.9624 74.4635 33.5998 74.19C34.2702 73.9062 34.9918 73.7632 35.7198 73.77C36.4478 73.7632 37.1694 73.9062 37.8398 74.19C38.4787 74.461 39.0492 74.8709 39.5098 75.39C39.9993 75.9307 40.3706 76.5676 40.5998 77.26C40.8684 78.0347 41.0004 78.8501 40.9898 79.67Z" fill="#1D1D1B"/>
<path d="M50.7203 75.81C50.4203 76.14 50.0203 76.61 49.5303 77.21C49.0403 77.81 48.5304 78.49 47.9304 79.21C47.3304 79.93 46.7903 80.72 46.2203 81.52C45.6503 82.32 45.1503 83.1 44.7203 83.83H50.9003V85.52H42.3203V84.18C42.6703 83.55 43.0903 82.85 43.6003 82.08C44.1103 81.31 44.6004 80.57 45.1804 79.81C45.7604 79.05 46.2804 78.34 46.8004 77.66L48.1703 75.97H42.6204V74.28H50.7203V75.81Z" fill="#1D1D1B"/>
<path d="M62.4797 85.53C62.0797 84.53 61.6496 83.31 61.1896 81.98C60.7296 80.65 60.3296 79.26 59.9496 77.82C59.5796 79.26 59.1697 80.65 58.7197 81.98C58.2697 83.31 57.8496 84.49 57.4496 85.53H55.7197C55.0497 84.04 54.4097 82.35 53.7197 80.45C53.0297 78.55 52.4897 76.5 51.9297 74.29H54.0897C54.2297 74.97 54.4097 75.71 54.6097 76.5C54.8097 77.29 55.0197 78.09 55.2497 78.88C55.4797 79.67 55.6996 80.43 55.9496 81.17C56.1996 81.91 56.4196 82.54 56.6396 83.09C56.8896 82.42 57.1297 81.69 57.3597 80.94C57.5897 80.19 57.8297 79.42 58.0397 78.65C58.2497 77.88 58.4597 77.12 58.6597 76.38C58.8597 75.64 59.0197 74.94 59.1697 74.29H60.8297C60.9597 74.94 61.1197 75.64 61.3097 76.38C61.4997 77.12 61.6997 77.88 61.9097 78.65C62.1197 79.42 62.3497 80.18 62.5897 80.94C62.8297 81.7 63.0696 82.42 63.3196 83.09C63.5296 82.54 63.7597 81.9 63.9997 81.17C64.2397 80.44 64.4696 79.67 64.6996 78.88C64.9296 78.09 65.1397 77.29 65.3497 76.5C65.5597 75.71 65.7197 74.97 65.8697 74.29H67.9396C67.3796 76.5034 66.7796 78.5567 66.1396 80.45C65.4996 82.3434 64.853 84.0367 64.1996 85.53H62.4797Z" fill="#1D1D1B"/>
<path d="M77.5404 79.6601C77.5913 78.5942 77.2928 77.5408 76.6904 76.6601C76.4201 76.3011 76.0671 76.0127 75.6615 75.8195C75.2558 75.6262 74.8095 75.5338 74.3604 75.5501C73.9128 75.5337 73.4679 75.6262 73.0638 75.8195C72.6597 76.0128 72.3086 76.3013 72.0404 76.6601C71.4339 77.5389 71.135 78.5937 71.1904 79.6601C71.1358 80.7264 71.4346 81.7809 72.0404 82.6601C72.3086 83.0189 72.6597 83.3073 73.0638 83.5006C73.4679 83.694 73.9128 83.7864 74.3604 83.7701C74.8095 83.7864 75.2558 83.6939 75.6615 83.5007C76.0671 83.3074 76.4201 83.019 76.6904 82.6601C77.2922 81.779 77.5906 80.7259 77.5404 79.6601ZM79.6304 79.6601C79.6439 80.4826 79.5154 81.3013 79.2505 82.0801C79.0066 82.7619 78.6331 83.3902 78.1504 83.9301C77.6898 84.4492 77.1194 84.8591 76.4804 85.1301C75.8103 85.4147 75.0885 85.5577 74.3604 85.5501C73.6356 85.5578 72.9171 85.4148 72.2505 85.1301C71.6099 84.8569 71.0365 84.4474 70.5704 83.9301C70.0909 83.3896 69.7208 82.7614 69.4804 82.0801C69.2119 81.3019 69.08 80.4832 69.0904 79.6601C69.0799 78.8402 69.2119 78.0248 69.4804 77.2501C69.7136 76.5594 70.0844 75.9233 70.5704 75.3801C71.0365 74.8627 71.6099 74.4532 72.2505 74.1801C72.9171 73.8954 73.6356 73.7523 74.3604 73.7601C75.0885 73.7524 75.8103 73.8954 76.4804 74.1801C77.1194 74.451 77.6898 74.8609 78.1504 75.3801C78.6396 75.9227 79.0138 76.5589 79.2505 77.2501C79.5154 78.0254 79.6439 78.8408 79.6304 79.6601Z" fill="#1D1D1B"/>
<path d="M83.3502 72.27C83.0086 72.2726 82.6792 72.1437 82.4302 71.91C82.2985 71.7806 82.1963 71.6242 82.1307 71.4516C82.0651 71.279 82.0376 71.0943 82.0502 70.91C82.0356 70.7256 82.062 70.5403 82.1277 70.3673C82.1935 70.1944 82.2968 70.0382 82.4302 69.91C82.552 69.7921 82.6961 69.6995 82.854 69.6377C83.0119 69.5759 83.1806 69.5461 83.3502 69.55C83.5197 69.5461 83.6884 69.5759 83.8463 69.6377C84.0042 69.6995 84.1483 69.7921 84.2701 69.91C84.4023 70.0387 84.5041 70.1952 84.5681 70.3682C84.6321 70.5412 84.6567 70.7263 84.6401 70.91C84.6546 71.0936 84.6291 71.2781 84.5652 71.4507C84.5013 71.6234 84.4006 71.7801 84.2701 71.91C84.0211 72.1437 83.6917 72.2726 83.3502 72.27ZM80.5201 89.57C80.2952 89.5666 80.071 89.5431 79.8502 89.5C79.6141 89.4719 79.3823 89.4148 79.1602 89.33L79.4202 87.69C79.5801 87.7403 79.744 87.7771 79.9102 87.8C80.0832 87.8138 80.2571 87.8138 80.4302 87.8C80.711 87.8289 80.9945 87.7852 81.2537 87.6731C81.5128 87.5611 81.7388 87.3844 81.9102 87.16C82.2466 86.5969 82.4035 85.9446 82.3602 85.29V74.29H84.3602V85.29C84.452 86.4488 84.0939 87.5984 83.3602 88.5C82.9838 88.8659 82.5347 89.1485 82.0419 89.3294C81.5492 89.5104 81.0239 89.5855 80.5002 89.55" fill="#1D1D1B"/>
<path d="M96.6624 84.9601C96.2024 85.0801 95.5924 85.2001 94.8324 85.3301C93.9663 85.4707 93.0898 85.5376 92.2124 85.5301C91.4644 85.5504 90.7198 85.4213 90.0224 85.1501C89.4649 84.9216 88.9758 84.553 88.6024 84.0801C88.2307 83.5976 87.9649 83.0422 87.8224 82.4501C87.6563 81.7694 87.5757 81.0707 87.5824 80.3701V74.0601H89.5824V79.9301C89.4989 80.9531 89.7254 81.9776 90.2324 82.8701C90.4959 83.1847 90.8322 83.4302 91.2121 83.5853C91.592 83.7404 92.0041 83.8004 92.4124 83.7601H93.0824L93.7324 83.7001L94.2824 83.6401C94.4046 83.6245 94.5251 83.5977 94.6424 83.5601V74.0801H96.6424L96.6624 84.9601Z" fill="#1D1D1B"/>
<path d="M109.161 72.24C108.271 72.24 107.591 72.24 107.111 72.31V77.95H108.601C109.269 77.9544 109.937 77.9176 110.601 77.84C111.107 77.7871 111.601 77.6485 112.061 77.43C112.44 77.2403 112.756 76.9451 112.971 76.58C113.21 76.1316 113.324 75.6275 113.301 75.12C113.319 74.629 113.205 74.1421 112.971 73.71C112.767 73.3427 112.466 73.0384 112.101 72.83C111.699 72.5995 111.259 72.4437 110.801 72.37C110.276 72.2792 109.744 72.2357 109.211 72.24H109.161ZM112.391 79.24L113.271 80.38C113.621 80.85 113.981 81.38 114.361 81.93C114.741 82.48 115.101 83.1 115.471 83.72C115.817 84.2989 116.131 84.8965 116.411 85.51H114.121C113.831 84.96 113.521 84.4 113.181 83.85C112.841 83.3 112.501 82.75 112.181 82.24C111.861 81.73 111.491 81.24 111.181 80.8C110.871 80.36 110.531 79.96 110.261 79.64H107.211V85.5H105.121V70.77C105.778 70.6169 106.447 70.5232 107.121 70.49C107.841 70.43 108.511 70.41 109.121 70.41C110.809 70.2965 112.491 70.7125 113.931 71.6C114.481 72.0044 114.92 72.5406 115.208 73.1592C115.497 73.7778 115.625 74.459 115.581 75.14C115.607 76.054 115.329 76.9506 114.791 77.69C114.202 78.4438 113.39 78.9931 112.471 79.26" fill="#1D1D1B"/>
<path d="M125.45 78.57C125.5 77.7689 125.259 76.9767 124.77 76.34C124.541 76.0511 124.246 75.8207 123.911 75.6677C123.575 75.5147 123.208 75.4435 122.84 75.46C122.417 75.4511 121.999 75.5437 121.62 75.73C121.279 75.9059 120.974 76.1432 120.72 76.43C120.474 76.7283 120.281 77.0666 120.15 77.43C120.011 77.7967 119.92 78.1799 119.88 78.57H125.45ZM117.74 79.67C117.721 78.7842 117.867 77.9026 118.17 77.07C118.422 76.384 118.814 75.7575 119.32 75.23C119.781 74.747 120.34 74.3685 120.96 74.12C121.565 73.8825 122.21 73.7604 122.86 73.76C123.509 73.7195 124.158 73.8252 124.76 74.0692C125.363 74.3133 125.902 74.6895 126.34 75.17C127.241 76.4181 127.67 77.9454 127.55 79.48V79.81C127.55 79.95 127.55 80.08 127.55 80.19H119.86C119.863 81.168 120.218 82.1123 120.86 82.85C121.236 83.1787 121.674 83.4286 122.148 83.5849C122.622 83.7412 123.122 83.8008 123.62 83.76C124.222 83.7717 124.823 83.7113 125.41 83.58C125.783 83.4922 126.148 83.3717 126.5 83.22L126.78 84.91C126.369 85.0884 125.94 85.2225 125.5 85.31C124.814 85.4658 124.113 85.5397 123.41 85.53C122.543 85.5489 121.68 85.3995 120.87 85.09C120.201 84.8178 119.6 84.4012 119.11 83.87C118.649 83.3312 118.308 82.7006 118.11 82.02C117.874 81.2594 117.759 80.4664 117.77 79.67" fill="#1D1D1B"/>
<path d="M137.361 76.06C137.094 75.9943 136.824 75.9442 136.551 75.91C136.094 75.851 135.632 75.8242 135.171 75.83C134.709 75.8044 134.248 75.8858 133.823 76.0679C133.398 76.2501 133.021 76.528 132.721 76.88C132.105 77.6831 131.793 78.6787 131.841 79.69C131.832 80.2533 131.917 80.8143 132.091 81.35C132.236 81.7708 132.464 82.1584 132.761 82.49C133.038 82.7899 133.38 83.0225 133.761 83.17C134.125 83.3088 134.512 83.38 134.901 83.38C135.399 83.3815 135.895 83.3073 136.371 83.16C136.75 83.0389 137.107 82.8602 137.431 82.63L137.361 76.06ZM137.361 84.41C137.042 84.5864 136.707 84.7337 136.361 84.85C135.802 85.0422 135.213 85.1336 134.621 85.12C133.97 85.1235 133.323 85.0118 132.711 84.79C132.122 84.5801 131.588 84.238 131.151 83.79C130.682 83.3046 130.32 82.7252 130.091 82.09C129.814 81.3141 129.681 80.4938 129.701 79.67C129.691 78.904 129.816 78.1422 130.071 77.42C130.3 76.7639 130.661 76.1616 131.131 75.65C131.616 75.1437 132.202 74.7451 132.851 74.48C133.58 74.1918 134.358 74.0491 135.141 74.06C135.962 74.0518 136.782 74.1188 137.591 74.26C138.291 74.4 138.881 74.53 139.361 74.64V84.64C139.424 85.3249 139.336 86.0152 139.105 86.6629C138.874 87.3105 138.504 87.8999 138.021 88.39C136.849 89.2559 135.404 89.6712 133.951 89.56C133.281 89.562 132.612 89.5051 131.951 89.39C131.396 89.2913 130.848 89.1543 130.311 88.98L130.681 87.23C131.165 87.4015 131.659 87.5418 132.161 87.65C132.763 87.7723 133.377 87.8326 133.991 87.83C134.908 87.9103 135.824 87.6583 136.571 87.12C136.857 86.8197 137.075 86.4618 137.211 86.0704C137.348 85.6789 137.399 85.2628 137.361 84.85V84.41Z" fill="#1D1D1B"/>
<path d="M144.722 85.53H142.722V74.29H144.722V85.53ZM143.722 72.27C143.38 72.2726 143.051 72.1437 142.802 71.91C142.669 71.781 142.567 71.6247 142.501 71.452C142.435 71.2793 142.408 71.0943 142.422 70.91C142.408 70.7257 142.434 70.5405 142.5 70.3677C142.566 70.1949 142.669 70.0386 142.802 69.91C142.923 69.7921 143.067 69.6995 143.225 69.6377C143.383 69.5759 143.552 69.5461 143.722 69.55C143.891 69.5461 144.06 69.5759 144.218 69.6377C144.376 69.6995 144.52 69.7921 144.642 69.91C144.774 70.0386 144.877 70.1949 144.943 70.3677C145.009 70.5405 145.035 70.7257 145.022 70.91C145.035 71.0943 145.008 71.2793 144.942 71.452C144.876 71.6247 144.774 71.781 144.642 71.91C144.392 72.1437 144.063 72.2726 143.722 72.27Z" fill="#1D1D1B"/>
<path d="M155.89 79.6601C155.946 78.5937 155.647 77.5389 155.04 76.6601C154.771 76.3019 154.42 76.0139 154.016 75.8207C153.612 75.6274 153.168 75.5346 152.72 75.5501C152.271 75.5338 151.825 75.6262 151.419 75.8195C151.013 76.0127 150.66 76.3011 150.39 76.6601C149.784 77.5389 149.485 78.5937 149.54 79.6601C149.486 80.7264 149.784 81.7809 150.39 82.6601C150.659 83.0209 151.012 83.3112 151.418 83.5062C151.823 83.7013 152.27 83.7952 152.72 83.7801C153.168 83.7956 153.612 83.7027 154.016 83.5095C154.42 83.3162 154.771 83.0282 155.04 82.6701C155.646 81.7909 155.945 80.7364 155.89 79.6701V79.6601ZM157.99 79.6701C158.001 80.4932 157.869 81.3119 157.6 82.0901C157.36 82.7714 156.99 83.3996 156.51 83.9401C156.046 84.4548 155.476 84.864 154.84 85.1401C154.169 85.4228 153.448 85.5657 152.72 85.5601C151.992 85.5677 151.27 85.4247 150.6 85.1401C149.961 84.8691 149.391 84.4592 148.93 83.9401C148.448 83.4002 148.074 82.772 147.83 82.0901C147.565 81.3113 147.437 80.4926 147.45 79.6701C147.437 78.8508 147.565 78.0354 147.83 77.2601C148.067 76.5689 148.441 75.9327 148.93 75.3901C149.391 74.871 149.961 74.461 150.6 74.1901C151.27 73.9054 151.992 73.7624 152.72 73.7701C153.448 73.7644 154.169 73.9073 154.84 74.1901C155.476 74.4661 156.046 74.8753 156.51 75.3901C156.996 75.9333 157.367 76.5694 157.6 77.2601C157.869 78.0348 158.001 78.8502 157.99 79.6701Z" fill="#1D1D1B"/>
<path d="M160.723 74.6201C161.183 74.5001 161.793 74.3801 162.563 74.2501C163.433 74.1136 164.312 74.0501 165.193 74.0601C165.953 74.0352 166.711 74.1609 167.423 74.4301C167.977 74.6593 168.463 75.0279 168.833 75.5001C169.196 75.9798 169.452 76.5324 169.583 77.1201C169.728 77.8105 169.798 78.5146 169.793 79.2201V85.5301H167.793V79.6601C167.804 79.0636 167.758 78.4674 167.653 77.8801C167.588 77.4545 167.431 77.0483 167.193 76.6901C166.973 76.3901 166.671 76.1607 166.323 76.0301C165.891 75.8858 165.438 75.8181 164.983 75.8301H164.313C164.093 75.8301 163.873 75.8301 163.663 75.8901C163.453 75.9501 163.263 75.8901 163.103 75.9601L162.743 76.0301V85.5101H160.743L160.723 74.6201Z" fill="#1D1D1B"/>
<path d="M176.803 83.88C177.283 83.88 177.703 83.88 178.073 83.88C178.381 83.8655 178.689 83.8287 178.993 83.77V80.41C178.767 80.3243 178.532 80.2639 178.293 80.2301C177.901 80.1777 177.507 80.1542 177.113 80.16C176.778 80.1575 176.444 80.1809 176.113 80.2301C175.791 80.2659 175.476 80.3537 175.183 80.49C174.907 80.6218 174.665 80.8131 174.473 81.05C174.28 81.3282 174.185 81.6622 174.203 82C174.17 82.2892 174.218 82.5816 174.339 82.8459C174.461 83.1102 174.652 83.3364 174.893 83.5C175.467 83.8054 176.113 83.9472 176.763 83.91L176.803 83.88ZM176.593 73.85C177.272 73.8345 177.949 73.9395 178.593 74.16C179.105 74.3424 179.566 74.648 179.933 75.05C180.276 75.4422 180.525 75.9073 180.663 76.41C180.809 76.9783 180.879 77.5633 180.873 78.15V85.15L180.153 85.27L179.103 85.41L177.843 85.53C177.383 85.53 176.933 85.53 176.493 85.53C175.904 85.5372 175.316 85.4735 174.743 85.3401C174.243 85.2259 173.771 85.0153 173.353 84.72C172.962 84.4335 172.652 84.0512 172.453 83.61C172.22 83.0849 172.107 82.5143 172.123 81.94C172.112 81.3831 172.242 80.8326 172.503 80.3401C172.742 79.9062 173.086 79.5386 173.503 79.27C173.965 78.9778 174.477 78.7711 175.013 78.66C175.61 78.5261 176.22 78.459 176.833 78.46C177.033 78.46 177.233 78.46 177.453 78.46C177.661 78.4795 177.868 78.5096 178.073 78.55L178.573 78.65H178.883V78.1C178.882 77.7637 178.845 77.4285 178.773 77.1C178.707 76.7883 178.574 76.4948 178.383 76.24C178.179 75.9779 177.914 75.7686 177.613 75.63C177.213 75.4679 176.784 75.3896 176.353 75.4C175.769 75.3982 175.187 75.4484 174.613 75.55C174.234 75.609 173.862 75.7062 173.503 75.84L173.263 74.17C173.684 74.017 174.119 73.9065 174.563 73.84C175.223 73.7259 175.892 73.6723 176.563 73.68" fill="#1D1D1B"/>
<path d="M187.543 85.53C186.598 85.5961 185.661 85.3113 184.913 84.73C184.63 84.4101 184.414 84.0359 184.28 83.6302C184.146 83.2245 184.096 82.7958 184.133 82.37V68.88L186.133 68.54V82.04C186.129 82.3155 186.155 82.5906 186.213 82.86C186.258 83.0551 186.355 83.2346 186.493 83.38C186.639 83.5189 186.818 83.6186 187.013 83.67C187.274 83.7475 187.542 83.801 187.813 83.83L187.543 85.53Z" fill="#1D1D1B"/>
<path d="M189.961 74.62C190.421 74.5 191.031 74.38 191.801 74.25C192.671 74.1136 193.551 74.05 194.431 74.06C195.191 74.0343 195.949 74.1601 196.661 74.43C197.215 74.6592 197.701 75.0278 198.071 75.5C198.435 75.9797 198.691 76.5323 198.821 77.12C198.966 77.8105 199.037 78.5145 199.031 79.22V85.53H197.031V79.66C197.04 79.064 196.997 78.4683 196.901 77.88C196.829 77.4549 196.669 77.0496 196.431 76.69C196.215 76.3908 195.916 76.1613 195.571 76.03C195.136 75.8865 194.679 75.8189 194.221 75.83H193.561C193.334 75.83 193.114 75.85 192.901 75.89C192.691 75.89 192.501 75.89 192.341 75.96L191.981 76.03V85.51H189.981L189.961 74.62Z" fill="#1D1D1B"/>
<path d="M209.341 78.57C209.386 77.7695 209.145 76.9788 208.661 76.34C208.431 76.0511 208.137 75.8207 207.801 75.6677C207.466 75.5147 207.099 75.4435 206.731 75.46C206.305 75.4511 205.883 75.5436 205.501 75.73C205.161 75.9035 204.859 76.1412 204.611 76.43C204.358 76.7235 204.164 77.063 204.041 77.43C203.903 77.7977 203.809 78.1804 203.761 78.57H209.341ZM201.631 79.67C201.612 78.7842 201.758 77.9026 202.061 77.07C202.313 76.3864 202.701 75.7607 203.201 75.23C203.665 74.7514 204.223 74.3736 204.841 74.12C205.449 73.8824 206.097 73.7604 206.751 73.76C207.398 73.7189 208.046 73.8243 208.647 74.0684C209.247 74.3125 209.785 74.6891 210.221 75.17C211.125 76.4168 211.557 77.9442 211.441 79.4801V79.81C211.452 79.9365 211.452 80.0636 211.441 80.19H203.721C203.729 81.1671 204.083 82.1096 204.721 82.85C205.096 83.1787 205.534 83.4286 206.008 83.5849C206.482 83.7412 206.983 83.8008 207.481 83.76C208.082 83.7711 208.683 83.7107 209.27 83.58C209.643 83.4906 210.008 83.3702 210.361 83.22L210.641 84.91C210.225 85.0865 209.793 85.2205 209.351 85.31C208.668 85.4659 207.97 85.5398 207.27 85.53C206.403 85.5489 205.541 85.3995 204.731 85.0901C204.061 84.8178 203.46 84.4013 202.971 83.87C202.51 83.3312 202.169 82.7006 201.971 82.02C201.743 81.2578 201.632 80.4655 201.641 79.67" fill="#1D1D1B"/>
<path d="M221.242 76.06C220.976 75.9924 220.705 75.9423 220.432 75.91C219.978 75.8509 219.52 75.8242 219.062 75.83C218.593 75.7993 218.123 75.8792 217.691 76.0633C217.258 76.2474 216.875 76.5306 216.572 76.89C215.951 77.6906 215.639 78.6881 215.692 79.7C215.678 80.2637 215.763 80.8255 215.942 81.36C216.083 81.7826 216.312 82.171 216.612 82.5C216.887 82.8024 217.23 83.0354 217.612 83.18C217.973 83.3181 218.356 83.3892 218.742 83.39C219.241 83.393 219.736 83.3187 220.212 83.17C220.591 83.049 220.948 82.8702 221.272 82.64L221.242 76.06ZM221.242 84.41C220.924 84.5895 220.589 84.7369 220.242 84.85C219.682 85.0396 219.093 85.131 218.502 85.12C217.851 85.1252 217.204 85.0135 216.592 84.79C216 84.5805 215.463 84.2385 215.022 83.79C214.553 83.3046 214.191 82.7252 213.962 82.09C213.685 81.3141 213.553 80.4938 213.572 79.67C213.566 78.9044 213.692 78.1435 213.942 77.42C214.172 76.7619 214.536 76.159 215.012 75.65C215.492 75.1416 216.075 74.7426 216.722 74.48C217.45 74.1898 218.229 74.0471 219.012 74.06C219.833 74.0523 220.653 74.1193 221.462 74.26C222.162 74.4 222.752 74.53 223.222 74.64V84.64C223.287 85.3251 223.201 86.016 222.969 86.6639C222.737 87.3119 222.366 87.9011 221.882 88.39C220.716 89.2594 219.273 89.6752 217.822 89.56C217.152 89.5615 216.483 89.5046 215.822 89.39C215.27 89.2926 214.725 89.1556 214.192 88.98L214.562 87.23C215.046 87.403 215.54 87.5433 216.042 87.65C216.641 87.7717 217.251 87.832 217.862 87.83C218.78 87.9131 219.696 87.6608 220.442 87.12C220.728 86.8197 220.946 86.4619 221.083 86.0704C221.219 85.6789 221.27 85.2628 221.232 84.85L221.242 84.41Z" fill="#1D1D1B"/>
<path d="M234.419 79.6601C234.475 78.5937 234.176 77.5389 233.569 76.6601C233.299 76.3011 232.946 76.0127 232.54 75.8195C232.135 75.6262 231.688 75.5338 231.239 75.5501C230.792 75.5346 230.347 75.6274 229.943 75.8206C229.539 76.0139 229.188 76.3019 228.919 76.6601C228.313 77.5389 228.014 78.5937 228.069 79.6601C228.015 80.7264 228.314 81.7809 228.919 82.6601C229.188 83.0182 229.539 83.3062 229.943 83.4995C230.347 83.6927 230.792 83.7856 231.239 83.7701C231.688 83.7864 232.135 83.6939 232.54 83.5007C232.946 83.3074 233.299 83.019 233.569 82.6601C234.175 81.7809 234.474 80.7264 234.419 79.6601ZM236.509 79.6601C236.523 80.4826 236.394 81.3013 236.129 82.0801C235.885 82.7595 235.515 83.387 235.039 83.9301C234.573 84.4474 234 84.8569 233.359 85.1301C232.689 85.4147 231.967 85.5577 231.239 85.5501C230.514 85.5578 229.796 85.4148 229.129 85.1301C228.489 84.8569 227.915 84.4474 227.449 83.9301C226.97 83.3896 226.6 82.7614 226.359 82.0801C226.091 81.3019 225.959 80.4832 225.969 79.6601C225.959 78.8402 226.091 78.0248 226.359 77.2501C226.592 76.5594 226.963 75.9233 227.449 75.3801C227.915 74.8627 228.489 74.4532 229.129 74.1801C229.796 73.8954 230.514 73.7523 231.239 73.7601C231.967 73.7524 232.689 73.8954 233.359 74.1801C234 74.4532 234.573 74.8627 235.039 75.3801C235.522 75.926 235.892 76.5613 236.129 77.2501C236.394 78.0254 236.523 78.8408 236.509 79.6601Z" fill="#1D1D1B"/>
<path d="M8.91104 28.8801C7.54703 28.916 6.18889 28.6885 4.91104 28.2101C3.86112 27.7994 2.9176 27.1567 2.15103 26.3301C1.4064 25.5119 0.853042 24.5384 0.531039 23.4801C0.163267 22.3161 -0.0156351 21.1007 0.00107058 19.8801V5.69006H4.16104V19.4701C4.14149 20.3588 4.25614 21.2455 4.50107 22.1001C4.69952 22.7627 5.04087 23.3737 5.50107 23.8901C5.92269 24.3328 6.43881 24.6747 7.01102 24.8901C7.65124 25.1239 8.3296 25.2359 9.01102 25.2201C9.69228 25.2335 10.3702 25.1217 11.011 24.8901C11.5888 24.6799 12.1093 24.3374 12.531 23.8901C12.9986 23.3789 13.3409 22.7662 13.531 22.1001C13.7847 21.2471 13.9027 20.3596 13.881 19.4701V5.69006H18.031V19.8801C18.0429 21.1003 17.8641 22.315 17.5011 23.4801C17.1161 24.5394 16.5092 25.5043 15.721 26.3101C14.9451 27.1442 13.9868 27.7876 12.9211 28.1901C11.6414 28.6617 10.2846 28.8889 8.92105 28.8601" fill="#1D1D1B"/>
<path d="M22.7919 12.2601C23.7796 11.9977 24.7811 11.7907 25.7919 11.6401C27.1352 11.4346 28.4929 11.3376 29.8519 11.3501C31.0446 11.3092 32.2337 11.5029 33.3519 11.9201C34.2266 12.2518 35.0013 12.8028 35.6019 13.5201C36.1539 14.2575 36.5363 15.1078 36.7219 16.0101C36.9538 17.0574 37.0679 18.1274 37.0619 19.2001V28.8201H33.0619V19.8201C33.073 19.0395 33.0126 18.2596 32.8818 17.4901C32.7946 16.9288 32.5938 16.3912 32.2919 15.9101C32.0232 15.5077 31.6349 15.1999 31.1819 15.0301C30.6314 14.8287 30.0477 14.7337 29.4619 14.7501C28.9369 14.7494 28.4125 14.7829 27.8918 14.8501C27.3418 14.9101 26.8919 14.9701 26.6719 15.0101V28.8201H22.6719L22.7919 12.2601Z" fill="#1D1D1B"/>
<path d="M45.7228 28.82H41.7228V11.7H45.7228V28.82ZM46.1528 6.7C46.1685 7.02814 46.1122 7.35575 45.9878 7.6598C45.8635 7.96386 45.674 8.23699 45.4328 8.46C44.9727 8.89145 44.3635 9.12799 43.7328 9.12C43.0891 9.13421 42.4651 8.89753 41.9928 8.46C41.7516 8.23699 41.5621 7.96386 41.4377 7.6598C41.3133 7.35575 41.257 7.02814 41.2728 6.7C41.2551 6.36422 41.3103 6.02859 41.4346 5.71615C41.5588 5.40371 41.7493 5.12188 41.9928 4.89C42.4689 4.45969 43.0912 4.22722 43.7328 4.24C44.3615 4.23239 44.9695 4.46485 45.4328 4.89C45.6763 5.12188 45.8667 5.40371 45.991 5.71615C46.1153 6.02859 46.1705 6.36422 46.1528 6.7Z" fill="#1D1D1B"/>
<path d="M56.6102 25.72C57.5411 25.7415 58.4719 25.6745 59.3901 25.5201V21.1401C59.0794 21.0478 58.7617 20.9809 58.4401 20.94C57.987 20.8686 57.5288 20.8351 57.0701 20.84C56.6249 20.8389 56.1802 20.8723 55.7402 20.94C55.3206 20.9964 54.9123 21.1178 54.5301 21.3C54.1818 21.4638 53.8819 21.7154 53.6601 22.0301C53.4332 22.3879 53.3215 22.8067 53.3401 23.23C53.2972 23.6028 53.3564 23.9802 53.5114 24.3219C53.6664 24.6636 53.9114 24.9568 54.2201 25.1701C54.9496 25.5736 55.7777 25.7642 56.6102 25.72ZM56.2801 10.9501C57.4033 10.9248 58.5225 11.0905 59.5901 11.4401C60.4016 11.7204 61.1326 12.194 61.7201 12.82C62.2703 13.4303 62.6648 14.1645 62.8702 14.9601C63.1067 15.8641 63.221 16.7957 63.2101 17.73V28.1101C62.6001 28.2401 61.6801 28.4 60.4501 28.58C59.0658 28.7785 57.6685 28.8721 56.2701 28.8601C55.3257 28.8665 54.3834 28.7693 53.4601 28.5701C52.6745 28.384 51.9336 28.0441 51.2801 27.5701C50.6823 27.1297 50.2016 26.5494 49.8801 25.8801C49.5162 25.07 49.3418 24.1876 49.3702 23.3C49.3402 22.4334 49.5403 21.5743 49.9501 20.8101C50.3223 20.1403 50.8549 19.5733 51.5002 19.16C52.1961 18.7137 52.9694 18.4017 53.7801 18.2401C54.6673 18.0489 55.5727 17.955 56.4802 17.9601C56.9379 17.9632 57.3952 17.9899 57.8502 18.0401C58.3683 18.1046 58.8824 18.1981 59.3901 18.3201V17.6701C59.3936 17.225 59.3399 16.7814 59.2302 16.3501C59.1243 15.9465 58.9257 15.5733 58.6501 15.26C58.3591 14.9299 57.9918 14.6758 57.5801 14.5201C57.0369 14.3329 56.4645 14.2449 55.8901 14.2601C55.046 14.2557 54.203 14.3226 53.3702 14.4601C52.7353 14.5573 52.1098 14.7078 51.5002 14.91L51.0101 11.7101C51.7284 11.4783 52.4641 11.3044 53.2101 11.1901C54.2228 11.0048 55.2506 10.9144 56.2801 10.9201" fill="#1D1D1B"/>
<path d="M75.5 28.82V6.14001H90.0601V9.64001H79.6201V15.24H88.92V18.68H79.6201V25.32H90.85V28.82H75.5Z" fill="#1D1D1B"/>
<path d="M107.78 27.9401C107.01 28.1401 106.02 28.3401 104.78 28.5501C103.457 28.7604 102.119 28.8641 100.78 28.8601C99.6021 28.8937 98.4294 28.6932 97.3298 28.2701C96.4594 27.9213 95.6921 27.357 95.0998 26.6301C94.5229 25.8951 94.1165 25.0413 93.9098 24.1301C93.6525 23.0866 93.5282 22.0148 93.5398 20.9401V11.3501H97.5398V20.3501C97.428 21.7063 97.7055 23.0662 98.3398 24.2701C98.6679 24.6884 99.0971 25.0162 99.587 25.2226C100.077 25.4291 100.611 25.5074 101.14 25.4501C101.62 25.4501 102.14 25.4501 102.66 25.3901C103.064 25.3671 103.465 25.3102 103.86 25.2201V11.3501H107.86L107.78 27.9401Z" fill="#1D1D1B"/>
<path d="M122.383 15.2701C122.053 15.1701 121.603 15.0501 121.023 14.9301C120.364 14.8031 119.694 14.7428 119.023 14.7501C118.557 14.7514 118.091 14.795 117.633 14.8801C117.295 14.9357 116.961 15.0125 116.633 15.1101V28.8201H112.633V12.5201C113.567 12.19 114.523 11.9227 115.493 11.7201C116.749 11.461 118.03 11.3369 119.313 11.3501C119.573 11.3501 119.873 11.3501 120.223 11.3501C120.573 11.3501 120.923 11.4301 121.223 11.4901C121.523 11.5501 121.913 11.6001 122.223 11.6801L123.003 11.8901L122.383 15.2701Z" fill="#1D1D1B"/>
<path d="M137.043 19.82C137.108 18.4054 136.727 17.006 135.953 15.82C135.605 15.3365 135.142 14.9471 134.606 14.687C134.07 14.4268 133.478 14.3042 132.883 14.33C132.289 14.305 131.699 14.428 131.164 14.6882C130.63 14.9483 130.169 15.3373 129.823 15.82C129.041 17.0029 128.656 18.4038 128.723 19.82C128.651 21.2556 129.036 22.677 129.823 23.88C130.166 24.3672 130.626 24.7606 131.161 25.0243C131.695 25.2881 132.287 25.4138 132.883 25.39C133.48 25.4137 134.073 25.2879 134.609 25.0243C135.145 24.7606 135.607 24.3673 135.953 23.88C136.737 22.6654 137.119 21.2341 137.043 19.7901V19.82ZM141.103 19.7901C141.117 21.0479 140.918 22.2991 140.513 23.49C140.157 24.5443 139.589 25.5143 138.843 26.34C138.116 27.1284 137.23 27.7523 136.243 28.17C135.181 28.6204 134.036 28.8451 132.883 28.83C131.736 28.8444 130.598 28.6196 129.543 28.17C128.563 27.7493 127.684 27.1256 126.963 26.34C126.218 25.5103 125.643 24.5418 125.273 23.49C124.859 22.3009 124.656 21.0489 124.673 19.7901C124.657 18.5378 124.86 17.2925 125.273 16.1101C125.645 15.0606 126.227 14.0978 126.983 13.28C127.711 12.496 128.597 11.8757 129.583 11.46C130.627 11.0231 131.751 10.8052 132.883 10.82C134.025 10.807 135.157 11.0247 136.213 11.46C137.201 11.8707 138.089 12.4918 138.813 13.28C139.556 14.1019 140.127 15.0641 140.493 16.1101C140.914 17.2906 141.12 18.5368 141.103 19.7901Z" fill="#1D1D1B"/>
<path d="M156.361 20.3501C156.452 18.8759 156.028 17.416 155.161 16.2201C154.674 15.6975 154.074 15.2933 153.406 15.0385C152.739 14.7837 152.022 14.685 151.311 14.7501C150.941 14.7501 150.561 14.7501 150.151 14.8001C149.748 14.8303 149.35 14.9006 148.961 15.0101V24.8001C149.394 25.0823 149.861 25.3075 150.351 25.4701C150.944 25.6822 151.571 25.7871 152.201 25.7801C152.81 25.8274 153.42 25.7171 153.974 25.4595C154.527 25.202 155.005 24.8061 155.361 24.3101C156.088 23.1074 156.437 21.7136 156.361 20.3101V20.3501ZM160.411 20.2401C160.422 21.4614 160.254 22.6778 159.911 23.8501C159.604 24.8698 159.109 25.823 158.451 26.6601C157.814 27.4457 157.002 28.0722 156.081 28.4901C155.065 28.9434 153.963 29.1687 152.851 29.1501C152.097 29.1575 151.346 29.0565 150.621 28.8501C150.045 28.697 149.488 28.4789 148.961 28.2001V34.8801H144.961V12.2601C145.771 12.0401 146.761 11.8401 147.961 11.6401C149.194 11.4391 150.442 11.3421 151.691 11.3501C152.929 11.3272 154.161 11.5375 155.321 11.9701C156.352 12.3529 157.285 12.961 158.051 13.7501C158.828 14.5531 159.422 15.5152 159.791 16.5701C160.207 17.762 160.41 19.0178 160.391 20.2801" fill="#1D1D1B"/>
<path d="M174.852 18.19C174.859 17.6611 174.781 17.1346 174.622 16.63C174.481 16.1654 174.254 15.7312 173.952 15.35C173.657 14.9927 173.289 14.7029 172.872 14.5C172.395 14.2859 171.876 14.18 171.352 14.19C170.796 14.1784 170.244 14.2984 169.742 14.54C169.301 14.762 168.907 15.0677 168.582 15.44C168.261 15.8135 168.013 16.2444 167.852 16.71C167.674 17.1873 167.553 17.6841 167.492 18.19H174.852ZM163.362 19.95C163.33 18.5862 163.557 17.2287 164.032 15.95C164.432 14.898 165.037 13.9361 165.812 13.12C166.537 12.3805 167.41 11.8013 168.372 11.42C169.307 11.0448 170.305 10.8513 171.312 10.85C172.337 10.7881 173.362 10.9522 174.316 11.3307C175.27 11.7091 176.129 12.2927 176.832 13.04C178.166 14.5 178.832 16.6834 178.832 19.59C178.832 19.81 178.832 20.05 178.832 20.32C178.832 20.59 178.832 20.85 178.772 21.06H167.482C167.502 21.6634 167.642 22.2569 167.892 22.8061C168.143 23.3554 168.5 23.8495 168.942 24.26C170.015 25.0772 171.348 25.4754 172.692 25.38C173.576 25.3858 174.457 25.2986 175.322 25.12C175.965 24.9943 176.594 24.8103 177.202 24.57L177.722 27.88C177.431 28.0156 177.131 28.1293 176.822 28.22C176.393 28.3534 175.955 28.4603 175.512 28.54C175.022 28.64 174.512 28.73 173.922 28.79C173.348 28.8538 172.77 28.8872 172.192 28.89C170.852 28.9215 169.517 28.694 168.262 28.22C167.213 27.8179 166.272 27.1777 165.512 26.35C164.778 25.5377 164.229 24.5756 163.902 23.53C163.543 22.3816 163.367 21.1834 163.382 19.98" fill="#1D1D1B"/>
<path d="M187.193 6.7C187.208 7.02814 187.152 7.35575 187.028 7.6598C186.903 7.96386 186.714 8.23699 186.473 8.46C186.012 8.89145 185.403 9.12799 184.772 9.12C184.132 9.13585 183.51 8.89876 183.043 8.46C182.798 8.23922 182.605 7.96673 182.479 7.6623C182.353 7.35788 182.296 7.02916 182.312 6.7C182.294 6.36323 182.35 6.02653 182.476 5.71373C182.602 5.40094 182.796 5.11972 183.043 4.89C183.514 4.45854 184.134 4.22569 184.772 4.24C185.401 4.23239 186.009 4.46485 186.473 4.89C186.716 5.12188 186.906 5.40371 187.031 5.71615C187.155 6.02859 187.21 6.36422 187.193 6.7ZM180.613 34.88C180.333 34.88 179.933 34.88 179.423 34.81C178.957 34.7648 178.499 34.6571 178.062 34.49L178.582 31.25C179.148 31.4134 179.734 31.491 180.323 31.48C180.685 31.5171 181.052 31.4634 181.389 31.3237C181.725 31.1841 182.022 30.9629 182.253 30.68C182.669 29.9485 182.861 29.11 182.802 28.27V11.71H186.802V28.37C186.877 29.2569 186.775 30.1496 186.504 30.9973C186.233 31.845 185.798 32.6308 185.223 33.31C184.609 33.8725 183.887 34.3045 183.102 34.5795C182.316 34.8546 181.483 34.967 180.652 34.91" fill="#1D1D1B"/>
<path d="M195.901 25.58C196.682 25.6297 197.465 25.5032 198.191 25.21C198.426 25.0886 198.619 24.9003 198.748 24.669C198.876 24.4376 198.932 24.1736 198.911 23.91C198.909 23.6311 198.837 23.357 198.703 23.1126C198.568 22.8682 198.375 22.6611 198.141 22.51C197.352 22.0013 196.502 21.5948 195.611 21.3C194.928 21.0614 194.26 20.7809 193.611 20.46C193.048 20.1993 192.523 19.8629 192.051 19.46C191.622 19.0617 191.281 18.578 191.051 18.04C190.788 17.4065 190.659 16.7257 190.671 16.04C190.642 15.326 190.786 14.6156 191.088 13.9684C191.391 13.3211 191.845 12.7559 192.411 12.32C193.77 11.3235 195.427 10.816 197.111 10.88C198.077 10.8764 199.042 10.9668 199.991 11.15C200.691 11.2777 201.38 11.4616 202.051 11.7L201.341 14.9C200.798 14.6714 200.235 14.4907 199.661 14.36C198.889 14.1896 198.101 14.1091 197.311 14.12C196.62 14.0841 195.932 14.2252 195.311 14.53C195.077 14.6445 194.881 14.8246 194.748 15.0483C194.615 15.2721 194.55 15.5298 194.561 15.79C194.556 16.0479 194.607 16.3038 194.711 16.54C194.829 16.7788 195 16.9874 195.211 17.15C195.525 17.3663 195.86 17.5506 196.211 17.7C196.684 17.9184 197.168 18.112 197.661 18.28C198.475 18.5619 199.27 18.896 200.041 19.28C200.638 19.5707 201.185 19.9557 201.661 20.42C202.079 20.8307 202.4 21.3295 202.601 21.88C202.815 22.5242 202.914 23.2014 202.891 23.88C202.931 24.6015 202.786 25.3213 202.469 25.9708C202.152 26.6203 201.674 27.1777 201.081 27.59C199.514 28.5346 197.698 28.9842 195.871 28.88C194.646 28.91 193.423 28.7823 192.231 28.5C191.578 28.3324 190.934 28.1322 190.301 27.9L190.991 24.59C191.679 24.863 192.384 25.0935 193.101 25.28C194.016 25.5082 194.957 25.6158 195.901 25.6" fill="#1D1D1B"/>
<path d="M210.34 18.38L211.94 16.69C212.51 16.1 213.06 15.49 213.61 14.9L215.16 13.16C215.65 12.61 216.08 12.16 216.42 11.7H221.11C220.01 12.93 218.86 14.19 217.65 15.5C216.44 16.81 215.22 18.09 214 19.33C214.727 19.9536 215.415 20.6215 216.06 21.33C216.78 22.11 217.48 22.93 218.16 23.81C218.84 24.69 219.47 25.55 220.06 26.42C220.65 27.29 221.14 28.11 221.53 28.84H216.95C216.55 28.17 216.1 27.46 215.59 26.72C215.08 25.98 214.52 25.26 213.94 24.56C213.36 23.86 212.75 23.2 212.14 22.56C211.579 21.9872 210.978 21.4558 210.34 20.97V28.82H206.34V6.82004L210.34 6.17004V18.38Z" fill="#1D1D1B"/>
<path d="M230.243 25.72C231.174 25.7415 232.105 25.6745 233.023 25.5201V21.1401C232.712 21.0478 232.395 20.9809 232.073 20.94C231.625 20.8831 231.174 20.863 230.723 20.8801C230.278 20.8789 229.833 20.9123 229.393 20.98C228.973 21.0364 228.565 21.1578 228.183 21.34C227.835 21.5038 227.535 21.7554 227.313 22.0701C227.086 22.4279 226.974 22.8467 226.993 23.2701C226.95 23.6428 227.009 24.0202 227.164 24.3619C227.319 24.7037 227.564 24.9968 227.873 25.2101C228.602 25.6136 229.431 25.8042 230.263 25.76L230.243 25.72ZM229.933 10.9901C231.056 10.9648 232.175 11.1305 233.243 11.48C234.058 11.7589 234.793 12.2327 235.383 12.8601C235.933 13.4703 236.328 14.2045 236.533 15.0001C236.77 15.9041 236.884 16.8357 236.873 17.7701V28.1101C236.263 28.2401 235.343 28.4 234.113 28.58C232.729 28.7785 231.331 28.8721 229.933 28.8601C228.989 28.8665 228.046 28.7693 227.123 28.5701C226.336 28.3868 225.595 28.0467 224.943 27.5701C224.334 27.1333 223.843 26.5528 223.513 25.8801C223.149 25.07 222.975 24.1876 223.003 23.3C222.973 22.4334 223.173 21.5743 223.583 20.8101C223.955 20.1403 224.488 19.5733 225.133 19.16C225.828 18.712 226.602 18.3998 227.413 18.2401C228.3 18.0489 229.205 17.955 230.113 17.9601C230.571 17.9632 231.028 17.9899 231.483 18.0401C232.001 18.1046 232.515 18.1981 233.023 18.3201V17.6701C233.026 17.225 232.973 16.7814 232.863 16.3501C232.757 15.9487 232.562 15.5763 232.293 15.26C231.994 14.9293 231.621 14.6755 231.203 14.5201C230.663 14.332 230.094 14.2439 229.523 14.2601C228.679 14.2557 227.836 14.3226 227.003 14.4601C226.368 14.5573 225.743 14.7078 225.133 14.91L224.643 11.7101C225.361 11.4783 226.097 11.3044 226.843 11.1901C227.856 11.0048 228.883 10.9144 229.913 10.9201" fill="#1D1D1B"/>
</svg>
