<svg width="125" height="38" viewBox="0 0 125 38" fill="none" xmlns="http://www.w3.org/2000/svg">
<path d="M116.147 0H8.77468C8.42212 0 8.10874 0 7.75619 0C7.48198 0 7.20777 0 6.89439 0C6.26763 0 5.64086 0.0794979 5.05327 0.158996C4.46568 0.278243 3.87809 0.476987 3.2905 0.75523C2.74209 1.07322 2.23284 1.43096 1.80194 1.8682C1.37104 2.30544 1.01849 2.82218 0.705108 3.37866C0.430899 3.9749 0.235036 4.57113 0.156691 5.16736C0.0391727 5.80335 0 6.39958 0 7.03557C0 7.31381 0 7.59205 0 7.91004V30.09C0 30.3682 0 30.6464 0 30.9644C0 31.6004 0.0783454 32.2364 0.156691 32.8326C0.274209 33.4686 0.470072 34.0649 0.744281 34.6213C1.01849 35.1778 1.41022 35.6946 1.84112 36.1318C2.27202 36.569 2.78126 36.9665 3.32968 37.2448C3.87809 37.523 4.46568 37.7218 5.09245 37.841C5.71921 37.9603 6.3068 38 6.93356 38C7.20777 38 7.48198 38 7.79536 38C8.14792 38 8.4613 38 8.81385 38H116.186C116.5 38 116.852 38 117.205 38C117.479 38 117.792 38 118.066 38C118.693 38 119.32 37.9205 119.908 37.841C120.534 37.7218 121.122 37.523 121.67 37.2448C122.219 36.9665 122.728 36.569 123.159 36.1318C123.59 35.6946 123.982 35.1778 124.256 34.6213C124.53 34.0649 124.726 33.4686 124.843 32.8326C124.961 32.1967 125 31.6004 125 30.9644C125 30.6862 125 30.4079 125 30.09C125 29.7322 125 29.4142 125 29.0565V8.94351C125 8.58577 125 8.26778 125 7.91004C125 7.6318 125 7.31381 125 7.03557C125 6.39958 124.922 5.7636 124.843 5.16736C124.726 4.53138 124.53 3.93515 124.256 3.37866C123.668 2.26569 122.767 1.31172 121.67 0.75523C121.122 0.476987 120.534 0.278243 119.908 0.158996C119.281 0.039749 118.693 0 118.066 0C117.792 0 117.479 0 117.205 0C116.813 0 116.46 0 116.147 0Z" fill="#B7B7B7"/>
<path d="M7.7956 37.2448C7.52139 37.2448 7.24718 37.2448 6.97297 37.2448C6.38538 37.2448 5.79779 37.205 5.24938 37.0858C4.66179 36.9665 4.15254 36.8075 3.68247 36.569C3.2124 36.3305 2.7815 36.0125 2.38977 35.6151C1.99804 35.2176 1.68466 34.7803 1.44963 34.3033C1.21459 33.8264 1.01873 33.2699 0.940382 32.7531C0.862037 32.1569 0.783691 31.6004 0.783691 31.0042C0.783691 30.8054 0.783691 30.1297 0.783691 30.1297V7.91003C0.783691 7.91003 0.783691 7.27405 0.783691 7.0753C0.783691 6.47907 0.822864 5.88283 0.940382 5.32635C1.01873 4.76986 1.21459 4.25313 1.44963 3.77614C1.68466 3.29915 1.99804 2.86191 2.38977 2.46442C2.7815 2.06693 3.2124 1.74894 3.68247 1.51045C4.15254 1.27196 4.66179 1.07321 5.2102 0.993713C5.79779 0.914215 6.34621 0.834717 6.9338 0.834717H7.75643H117.127H117.988C118.576 0.834717 119.124 0.874466 119.712 0.993713C120.26 1.07321 120.77 1.27196 121.24 1.51045C122.219 2.02719 122.963 2.82216 123.473 3.77614C123.708 4.25313 123.864 4.76986 123.982 5.32635C124.06 5.92258 124.138 6.51882 124.138 7.11505C124.138 7.39329 124.138 7.67154 124.138 7.94978C124.138 8.30752 124.138 8.62551 124.138 8.98325V29.136C124.138 29.4937 124.138 29.8117 124.138 30.1297C124.138 30.4477 124.138 30.7259 124.138 31.0042C124.138 31.6004 124.06 32.1569 123.982 32.7531C123.903 33.3096 123.708 33.8264 123.473 34.3033C123.237 34.7803 122.924 35.2176 122.532 35.6151C122.141 36.0125 121.71 36.3305 121.24 36.569C120.77 36.8075 120.221 37.0063 119.712 37.0858C119.124 37.1653 118.576 37.2448 117.988 37.2448C117.714 37.2448 117.44 37.2448 117.166 37.2448H116.147H7.7956Z" fill="#010101"/>
<path d="M46.3404 25.7326H41.9923L40.9346 28.674H39.0151L43.2458 17.6636H45.0477L49.3959 28.674H47.3981L46.3404 25.7326ZM42.5407 24.2222H45.792L44.6168 21.082C44.4601 20.6447 44.3034 20.1678 44.1468 19.651C43.9901 20.128 43.8725 20.605 43.6767 21.082L42.5407 24.2222Z" fill="white"/>
<path d="M50.2575 22.4733C50.2575 21.8771 50.2184 21.2014 50.1792 20.4859H51.942C52.0203 20.8436 52.0595 21.1616 52.0595 21.5194C52.6863 20.7641 53.5872 20.3269 54.5274 20.3269C55.6634 20.3269 56.6819 21.0026 57.1519 22.0361C57.4653 22.7516 57.5828 23.5068 57.5828 24.3018C57.622 25.1365 57.4261 25.9713 57.1128 26.7662C56.8386 27.4022 56.3685 27.9587 55.7809 28.3164C55.1541 28.6742 54.4882 28.8729 53.7831 28.8332C53.2347 28.8332 52.6862 28.7537 52.177 28.5549V31.9336L50.3359 32.0926L50.2575 22.4733ZM55.115 26.647C55.5459 25.9713 55.7417 25.1763 55.6634 24.3813C55.6634 23.4671 55.5067 22.7913 55.1933 22.3938C54.9191 21.9964 54.449 21.7579 53.9398 21.7579C53.5872 21.7579 53.2347 21.8374 52.9605 21.9964C52.6471 22.1951 52.3337 22.4336 52.0987 22.6721V27.0445C52.2945 27.124 52.5296 27.2035 52.7254 27.2432C52.9605 27.283 53.1955 27.3227 53.4697 27.3227C54.1356 27.4817 54.7232 27.1637 55.115 26.647Z" fill="white"/>
<path d="M58.758 22.4733C58.758 21.8771 58.7189 21.2014 58.6797 20.4859H60.4033C60.4816 20.8436 60.5208 21.1616 60.5208 21.5194C61.1476 20.7641 62.0485 20.3269 62.9887 20.3269C64.1247 20.3269 65.1432 21.0026 65.6133 22.0361C65.9266 22.7516 66.0442 23.5068 66.0442 24.3018C66.0833 25.1365 65.8875 25.9713 65.5741 26.7662C65.2999 27.4022 64.8298 27.9587 64.2422 28.3164C63.6154 28.6742 62.9495 28.8729 62.2444 28.8332C61.696 28.8332 61.1476 28.7537 60.6383 28.5549V31.9336L58.7972 32.0926L58.758 22.4733ZM63.6154 26.647C64.0463 25.9713 64.2422 25.1763 64.1639 24.3813C64.1639 23.4671 64.0072 22.7913 63.6938 22.3938C63.4196 21.9964 62.9495 21.7579 62.4403 21.7579C62.0877 21.7579 61.7352 21.8374 61.4609 21.9964C61.1476 22.1951 60.8342 22.4336 60.5991 22.6721V27.0445C60.795 27.124 61.03 27.2035 61.2259 27.2432C61.4609 27.283 61.696 27.3227 61.9702 27.3227C62.597 27.4817 63.2237 27.1637 63.6154 26.647Z" fill="white"/>
<path d="M69.5698 28.1573C68.7863 27.7201 68.1204 27.0444 67.7286 26.2494C67.2977 25.3352 67.0627 24.3017 67.1019 23.308C67.0627 22.195 67.3369 21.1218 67.8462 20.1678C68.3162 19.3331 69.0213 18.6573 69.844 18.2201C70.7449 17.7829 71.7243 17.5444 72.7036 17.5841C73.2912 17.5841 73.9179 17.6636 74.5055 17.7829C75.0539 17.9021 75.5632 18.1009 76.0724 18.3394L75.6024 19.7703C74.7406 19.3331 73.7612 19.0946 72.7819 19.0548C72.0768 19.0548 71.4109 19.2138 70.7841 19.5318C70.1965 19.8498 69.7656 20.3665 69.4522 20.9628C69.1389 21.6783 68.943 22.4732 68.9822 23.2682C68.9822 23.9837 69.0997 24.6992 69.3347 25.3749C69.5698 25.9712 69.9615 26.4481 70.4707 26.8059C71.0583 27.1636 71.7634 27.3624 72.4294 27.3226C72.7819 27.3226 73.1345 27.2829 73.5262 27.2431C73.8788 27.2034 74.1921 27.0841 74.5447 26.9649V24.7389H72.0376V23.2682H76.3466V27.8791C75.7199 28.1573 75.0539 28.3958 74.388 28.5548C73.7221 28.7138 73.0561 28.7933 72.351 28.7933C71.4109 28.8331 70.4316 28.5946 69.5698 28.1573Z" fill="white"/>
<path d="M83.0058 28.674C82.9275 28.3162 82.8883 27.9585 82.8883 27.6008C82.5749 27.9585 82.1832 28.2765 81.7915 28.4752C81.3214 28.7137 80.773 28.833 80.2637 28.833C79.8328 28.833 79.4019 28.7535 79.0102 28.5547C78.6185 28.356 78.3051 28.0778 78.1093 27.72C77.8742 27.3225 77.7567 26.8455 77.7567 26.3685C77.7175 25.6531 78.0309 24.9376 78.6185 24.4606C79.1669 23.9836 80.1071 23.7451 81.4389 23.7451C81.9482 23.7451 82.4182 23.7849 82.8883 23.8644V23.7054C82.8883 22.9899 82.7316 22.4731 82.4182 22.1949C82.0657 21.8769 81.5956 21.7179 81.1255 21.7577C80.6946 21.7577 80.2637 21.8372 79.872 21.9167C79.4803 22.0359 79.0886 22.1552 78.6968 22.3539L78.4226 21.0024C78.8535 20.8037 79.2844 20.6844 79.7153 20.5652C80.2637 20.446 80.8513 20.3665 81.4389 20.3665C82.0657 20.3665 82.6533 20.446 83.2017 20.6844C83.7109 20.9229 84.1027 21.2807 84.3377 21.7974C84.6511 22.4731 84.7686 23.1886 84.7686 23.9041V27.1635C84.7686 27.5213 84.8078 27.9983 84.847 28.7137L83.0058 28.674ZM81.909 27.1635C82.2616 27.0045 82.5749 26.766 82.8491 26.448V24.9376C82.4574 24.8978 82.0265 24.8581 81.5956 24.8581C80.8513 24.8581 80.3029 24.9773 80.0287 25.2158C79.7545 25.4543 79.5586 25.8518 79.5978 26.2096C79.5586 26.5275 79.6762 26.8853 79.9112 27.1238C80.1462 27.3225 80.4596 27.4418 80.773 27.402C81.1647 27.402 81.5564 27.3225 81.909 27.1635Z" fill="white"/>
<path d="M86.2969 26.6866V17.0276L88.138 16.8687V26.3687C88.0988 26.6469 88.1772 26.8854 88.2947 27.1239C88.4514 27.2829 88.6472 27.3624 88.8431 27.3226C88.9998 27.3226 89.1565 27.2829 89.3132 27.2431L89.5482 28.5946C89.3523 28.6741 89.1173 28.7138 88.9214 28.7536C88.6864 28.7933 88.4514 28.8331 88.2163 28.8331C86.9628 28.8331 86.2969 28.1176 86.2969 26.6866Z" fill="white"/>
<path d="M90.9189 26.6866V17.0276L92.7601 16.8687V26.3687C92.7209 26.6469 92.7992 26.8854 92.9168 27.1239C93.0734 27.2829 93.2693 27.3624 93.4652 27.3226C93.6219 27.3226 93.7785 27.2829 93.9352 27.2431L94.1703 28.5946C93.9744 28.6741 93.7394 28.7138 93.5435 28.7536C93.3085 28.7933 93.0734 28.8331 92.8384 28.8331C91.5457 28.8331 90.9189 28.1176 90.9189 26.6866Z" fill="white"/>
<path d="M101.848 24.8184H96.5599C96.6383 26.5276 97.4609 27.4021 98.9886 27.4021C99.3804 27.4021 99.7721 27.3623 100.164 27.2431C100.556 27.1636 100.947 27.0443 101.3 26.8853L101.692 28.1573C100.751 28.5946 99.6937 28.833 98.6361 28.833C97.8918 28.8728 97.1475 28.674 96.4816 28.3561C95.894 28.0381 95.4239 27.5213 95.1497 26.9251C94.8363 26.2096 94.6796 25.4544 94.7188 24.6992C94.6796 23.9042 94.8755 23.1092 95.1889 22.354C95.4631 21.718 95.9332 21.2012 96.5208 20.8435C97.1083 20.4858 97.7743 20.3268 98.4794 20.3268C99.1453 20.287 99.8113 20.4858 100.399 20.8833C100.908 21.241 101.3 21.7577 101.535 22.3142C101.77 22.9502 101.927 23.6259 101.887 24.3017L101.848 24.8184ZM100.046 23.6259C100.046 23.1092 99.8896 22.5925 99.5762 22.1552C99.2628 21.8372 98.8711 21.6385 98.401 21.6782C97.9701 21.6782 97.5392 21.8372 97.2259 22.1552C96.8733 22.5527 96.6774 23.0694 96.5991 23.6259H100.046Z" fill="white"/>
<path d="M103.337 22.5131C103.337 22.0758 103.297 21.3603 103.258 20.4461H104.982C105.021 20.6846 105.021 20.9628 105.06 21.2808C105.099 21.5988 105.099 21.8373 105.099 22.0361C105.295 21.7181 105.491 21.4001 105.726 21.1218C105.922 20.8833 106.157 20.6846 106.47 20.5256C106.745 20.3666 107.097 20.2871 107.411 20.2871C107.646 20.2871 107.92 20.3269 108.155 20.3666L107.959 22.0361C107.763 21.9963 107.567 21.9566 107.371 21.9566C106.98 21.9566 106.588 22.0758 106.235 22.3143C105.844 22.6323 105.491 22.99 105.178 23.4273V28.6741H103.337V22.5131Z" fill="white"/>
<path d="M109.291 32.013C109.056 31.9733 108.86 31.9335 108.625 31.854L108.978 30.5026C109.095 30.5423 109.252 30.5821 109.448 30.6218C109.643 30.6616 109.8 30.6616 109.996 30.6616C110.819 30.6616 111.445 30.1448 111.837 29.0716L111.955 28.7536L108.978 20.4858H110.975L112.464 25.0967C112.66 25.693 112.816 26.2892 112.934 26.9252C113.091 26.3289 113.247 25.7327 113.443 25.1365L114.971 20.4858H116.851L113.874 28.7934C113.639 29.4691 113.365 30.1051 112.973 30.7013C112.699 31.1386 112.307 31.536 111.837 31.7745C111.328 32.013 110.78 32.1323 110.231 32.1323C109.879 32.0925 109.565 32.0528 109.291 32.013Z" fill="white"/>
<path d="M14.8494 6.92261C9.95282 6.92261 8.15088 8.75106 8.15088 13.7197V24.2929C8.15088 29.2615 9.95282 31.09 14.8494 31.09H25.2693C30.1659 31.09 31.9679 29.2615 31.9679 24.2929V13.7197C32.007 8.75106 30.2051 6.92261 25.3085 6.92261H14.8494Z" fill="#C00020"/>
<path d="M12.8906 19.0459H13.5174V22.2258H12.8906V20.9538H11.4412V22.2258H10.8145V19.0459H11.4412V20.3178H12.8514V19.0459H12.8906ZM16.4553 20.8346C16.4553 21.3513 16.2203 21.6295 15.7502 21.6295C15.2801 21.6295 15.0451 21.3513 15.0451 20.8346V19.0459H14.4183V20.8346C14.4183 21.709 14.8884 22.2258 15.7502 22.2258C16.612 22.2258 17.0821 21.709 17.0821 20.7948V19.0061H16.4553V20.8346ZM23.7414 21.1923L23.0363 19.0459H22.5271L21.822 21.232L21.1169 19.0459H20.4509L21.5478 22.2258H22.057L22.7621 20.1588L23.4672 22.2258H23.9765L25.0733 19.0459H24.4074L23.7414 21.1923ZM26.2485 20.8346H27.3845V20.2781H26.2485V19.6421H27.9329V19.0459H25.6217V22.2258H27.9721V21.6295H26.2485V20.8346ZM28.7164 22.186H29.3431V19.0061H28.7164V22.186ZM18.3356 21.55L18.0614 22.2258H17.4346L18.8057 19.0459H19.3541L20.7251 22.2258H20.0592L19.785 21.55H18.3356ZM18.5706 20.9538H19.5108L19.0407 19.8408L18.5706 20.9538Z" fill="white"/>
<path d="M20.0595 14.9917C17.8658 14.9917 16.103 13.203 16.103 10.9771H16.6514C16.6514 12.885 18.1792 14.4352 20.0595 14.4352C21.9398 14.4352 23.4675 12.885 23.4675 10.9771H24.0159C24.0551 13.203 22.2531 14.9917 20.0595 14.9917Z" fill="white"/>
<path d="M40.5448 12.958C40.1139 12.7195 39.8005 12.3618 39.5654 11.9246C39.3304 11.4873 39.2129 10.9706 39.2129 10.3743C39.2129 9.73836 39.3304 9.22162 39.5654 8.74464C39.8005 8.26765 40.153 7.90991 40.5839 7.67142C41.0148 7.43292 41.5633 7.27393 42.19 7.27393C42.7776 7.27393 43.2868 7.39317 43.7177 7.63167C44.1486 7.87016 44.462 8.2279 44.6971 8.66514C44.9321 9.10238 45.0104 9.61911 45.0104 10.2153C45.0104 10.8513 44.8929 11.4078 44.6579 11.8451C44.4229 12.322 44.0703 12.6798 43.6394 12.9183C43.2085 13.1568 42.6601 13.3158 42.0725 13.3158C41.4849 13.3158 40.9757 13.1965 40.5448 12.958ZM43.1302 12.2425C43.4044 12.0438 43.6394 11.8053 43.7569 11.4476C43.9136 11.1296 43.9528 10.7321 43.9528 10.2948C43.9528 9.85761 43.8744 9.49987 43.7569 9.18188C43.6394 8.86388 43.4435 8.58564 43.1693 8.3869C42.8951 8.18815 42.5426 8.10865 42.1117 8.10865C41.7199 8.10865 41.3674 8.2279 41.0932 8.42665C40.819 8.62539 40.5839 8.90363 40.4664 9.22162C40.3097 9.53962 40.2706 9.93711 40.2706 10.3346C40.2706 10.7718 40.3489 11.1296 40.4664 11.4873C40.5839 11.8053 40.819 12.0835 41.0932 12.2823C41.3674 12.481 41.7199 12.5605 42.1117 12.5605C42.5034 12.5208 42.8559 12.4413 43.1302 12.2425Z" fill="white"/>
<path d="M46.1465 7.35352H48.0659C48.6927 7.35352 49.2411 7.47276 49.672 7.67151C50.1029 7.87025 50.4555 8.18824 50.6905 8.58573C50.9256 8.98322 51.0431 9.49996 51.0431 10.0962C51.0431 10.6924 50.9256 11.2489 50.6905 11.7259C50.4555 12.2029 50.1029 12.5606 49.6329 12.8389C49.1628 13.1171 48.6144 13.2364 47.9876 13.2364H46.1465V7.35352ZM47.9093 12.4414C48.3793 12.4414 48.7711 12.3619 49.0844 12.1631C49.3978 11.9644 49.6329 11.6862 49.7895 11.3682C49.9462 11.0104 50.0246 10.6129 50.0246 10.1757C50.0246 9.53971 49.8679 9.02297 49.5153 8.70498C49.1628 8.38699 48.6535 8.18824 47.9876 8.18824H47.165V12.4811H47.9093V12.4414Z" fill="white"/>
<path d="M52.1792 7.35352H53.1977V10.3347C53.3935 10.0962 53.5502 9.8577 53.7461 9.61921L55.4305 7.35352H56.5665L54.5687 9.9372L56.7624 13.2364H55.6264L53.942 10.6527L53.2369 11.4079V13.2761H52.2184V7.35352H52.1792Z" fill="white"/>
<path d="M57.428 7.35352H59.2299C59.8958 7.35352 60.4051 7.47276 60.7185 7.75101C61.071 8.02925 61.2277 8.38699 61.2277 8.90372C61.2277 9.22172 61.1494 9.49996 61.0318 9.73845C60.9143 9.97695 60.7576 10.1757 60.5618 10.3347C60.3659 10.4937 60.2092 10.6129 60.0134 10.6527L61.8153 13.2364H60.6401L59.1124 10.8912H58.3681V13.2364H57.3496V7.35352H57.428ZM58.9949 10.1359C59.2299 10.1359 59.4649 10.0962 59.6216 9.97695C59.8175 9.89745 59.935 9.73845 60.0525 9.57946C60.17 9.42046 60.2092 9.22172 60.2092 8.98322C60.2092 8.70498 60.1309 8.46649 59.935 8.34724C59.7391 8.22799 59.4649 8.14849 59.1124 8.14849H58.3681V10.1757H58.9949V10.1359Z" fill="white"/>
<path d="M63.6172 10.9705L61.6978 7.39307H62.7554L63.6956 9.26127C63.8914 9.65876 64.0481 9.97675 64.0873 10.1357C64.1656 9.937 64.3223 9.65876 64.479 9.30102L65.4975 7.39307H66.4768L64.5574 10.9705V13.2759H63.578V10.9705H63.6172Z" fill="white"/>
<path d="M66.6338 7.35352H67.6914L68.6316 10.9707C68.7491 11.3284 68.8275 11.6862 68.8666 12.0439C68.9841 11.5669 69.0625 11.2092 69.1408 10.8912L70.1593 7.35352H71.217L72.2747 10.9309C72.3922 11.3682 72.5097 11.7259 72.5489 12.0439C72.6272 11.7259 72.7056 11.4079 72.7839 11.0104L73.724 7.35352H74.7425L73.0581 13.2364H72.0396L71.0603 9.8577C70.982 9.57946 70.9036 9.38071 70.8644 9.14222C70.8253 8.90372 70.7861 8.70498 70.7078 8.50624C70.6686 8.74473 70.5902 8.98322 70.5511 9.18197C70.5119 9.38071 70.4335 9.57946 70.3552 9.81795L69.3759 13.2364H68.3574L66.6338 7.35352Z" fill="white"/>
<path d="M78.5813 11.686H76.2701L75.6826 13.2759H74.6641L76.9361 7.39307H77.9154L80.2266 13.2759H79.1689L78.5813 11.686ZM76.5444 10.8512H78.2679L77.6412 9.18177C77.5628 8.94328 77.4845 8.70478 77.4061 8.42654C77.3278 8.66503 77.2495 8.94328 77.1711 9.18177L76.5444 10.8512Z" fill="white"/>
<path d="M80.4224 13.2364L80.5007 12.4414C80.6182 12.4811 80.7357 12.4811 80.8533 12.4811C81.0883 12.4811 81.245 12.4414 81.3625 12.3221C81.48 12.2029 81.5584 12.0836 81.6367 11.8849C81.6759 11.6862 81.7151 11.4477 81.7151 11.1694V7.35352H82.6944V11.2489C82.6944 11.9246 82.5769 12.4414 82.3026 12.7991C82.0284 13.1569 81.5975 13.3159 81.01 13.3159C80.8141 13.3159 80.6182 13.2761 80.4224 13.2364Z" fill="white"/>
<path d="M86.0239 7.35352H87.0816L88.0217 10.9707C88.1393 11.3284 88.2176 11.6862 88.2568 12.0439C88.3743 11.5669 88.4526 11.2092 88.531 10.8912L89.5495 7.35352H90.6071L91.6648 10.9309C91.7823 11.3682 91.8998 11.7259 91.939 12.0439C92.0173 11.7259 92.0957 11.4079 92.174 11.0104L93.1142 7.35352H94.1327L92.4482 13.2364H91.4298L90.4504 9.8577C90.3721 9.57946 90.2937 9.38071 90.2546 9.14222C90.2154 8.90372 90.1762 8.70498 90.0979 8.50624C90.0587 8.74473 89.9804 8.98322 89.9412 9.18197C89.902 9.38071 89.8237 9.57946 89.7453 9.81795L88.766 13.2364H87.7475L86.0239 7.35352Z" fill="white"/>
</svg>
