<svg width="112" height="38" viewBox="0 0 112 38" fill="none" xmlns="http://www.w3.org/2000/svg">
<path d="M103.087 0H7.88297H7.02165C6.39423 0.00236068 5.76803 0.0563983 5.14921 0.161581C4.53022 0.27018 3.93067 0.472005 3.37039 0.76038C2.81052 1.05199 2.29883 1.43038 1.85372 1.88194C1.4069 2.33206 1.03393 2.8519 0.748977 3.42171C0.467907 3.99094 0.272258 4.59964 0.16852 5.22761C0.0655586 5.85609 0.00922675 6.49153 0 7.12857C0 7.42321 0 7.71786 0 8.01251V29.997C0 30.2916 0 30.5768 0 30.8714C0.00922675 31.5085 0.0655586 32.1439 0.16852 32.7724C0.270107 33.3997 0.462556 34.0082 0.739615 34.5783C1.02702 35.1437 1.39977 35.6601 1.84435 36.1086C2.28709 36.5629 2.79925 36.9417 3.36103 37.2301C3.92131 37.5185 4.52086 37.7203 5.13985 37.8289C5.75901 37.9325 6.38485 37.9897 7.01229 38H104.969C105.596 37.9906 106.222 37.9334 106.841 37.8289C107.46 37.7203 108.06 37.5185 108.62 37.2301C109.184 36.9442 109.696 36.5651 110.137 36.1086C111.037 35.2054 111.628 34.0326 111.822 32.7629C111.928 32.1346 111.988 31.4992 112 30.8619V29.9875C112 29.6453 112 29.3032 112 28.9515V9.06753C112 8.71586 112 8.37369 112 8.03152V7.14757C111.988 6.5103 111.928 5.87487 111.822 5.24662C111.723 4.61758 111.527 4.00823 111.242 3.44072C110.664 2.29689 109.747 1.36604 108.62 0.779389C108.06 0.491014 107.46 0.28919 106.841 0.180591C106.223 0.0745219 105.596 0.0204781 104.969 0.0190099H104.098L103.087 0Z" fill="#B7B7B7"/>
<path d="M7.88291 37.1914H7.04032C6.45362 37.1814 5.86845 37.1274 5.28959 37.0298C4.74692 36.9275 4.22284 36.7416 3.73546 36.4786C3.25116 36.2352 2.8086 35.9142 2.42475 35.5281C2.0476 35.1357 1.73186 34.6869 1.48853 34.1974C1.2411 33.7194 1.06444 33.207 0.964248 32.6767C0.871978 32.0727 0.821921 31.4629 0.814453 30.8518C0.814453 30.6522 0.814453 29.9868 0.814453 29.9868V8.03084C0.814453 8.03084 0.814453 7.36551 0.814453 7.17541C0.826777 6.57992 0.879958 5.98601 0.973611 5.39802C1.06248 4.84914 1.23294 4.31715 1.47917 3.82024C1.71792 3.32796 2.03414 2.87851 2.41539 2.48957C2.79716 2.10092 3.24015 1.77968 3.7261 1.5391C4.21297 1.28884 4.73346 1.1127 5.27086 1.01633C5.85287 0.920039 6.44129 0.869198 7.03095 0.864258H104.95C105.534 0.868498 106.116 0.919346 106.692 1.01633C107.235 1.11405 107.761 1.29008 108.255 1.5391C108.735 1.785 109.174 2.10571 109.556 2.48957C109.935 2.88401 110.251 3.3362 110.493 3.82974C110.733 4.32491 110.9 4.85335 110.989 5.39802C111.086 5.99215 111.142 6.59239 111.157 7.19442V8.04035C111.157 8.39202 111.157 8.73419 111.157 9.07636V28.9603C111.157 29.3025 111.157 29.6351 111.157 29.9773C111.157 30.3195 111.157 30.5666 111.157 30.8613C111.15 31.4507 111.097 32.0387 110.998 32.6196C110.914 33.1726 110.743 33.7084 110.493 34.2069C110.249 34.6932 109.933 35.1387 109.556 35.5281C109.175 35.9167 108.732 36.238 108.246 36.4786C107.755 36.7344 107.227 36.9108 106.682 37.0013C106.103 37.0993 105.518 37.1533 104.931 37.1629H7.88291V37.1914Z" fill="#010101"/>
<path d="M23.162 19.2948C23.1772 18.5024 23.3872 17.7265 23.7731 17.0375C24.159 16.3486 24.7085 15.7686 25.3715 15.3503C24.9478 14.7358 24.3886 14.2302 23.7384 13.8738C23.0883 13.5174 22.3652 13.32 21.6266 13.2973C20.0538 13.1357 18.5277 14.2478 17.732 14.2478C16.9362 14.2478 15.6816 13.2973 14.3522 13.2973C13.4898 13.3302 12.6508 13.5913 11.9184 14.0548C11.186 14.5183 10.5856 15.168 10.1767 15.9396C8.3604 19.1237 9.70856 23.8 11.4499 26.3948C12.3112 27.659 13.3224 29.0657 14.6518 29.0182C15.9812 28.9706 16.44 28.1722 18.0035 28.1722C19.567 28.1722 20.0163 29.0182 21.3645 28.9801C22.7127 28.9421 23.6395 27.716 24.4821 26.4424C25.108 25.5482 25.5855 24.5561 25.8958 23.5054C25.0822 23.1551 24.3886 22.5686 23.9022 21.8195C23.4158 21.0703 23.1583 20.192 23.162 19.2948Z" fill="white"/>
<path d="M20.6062 11.605C21.3688 10.6806 21.7451 9.49012 21.6548 8.28784C20.4943 8.415 19.4225 8.97771 18.6495 9.86563C18.2726 10.3 17.9843 10.8059 17.8011 11.354C17.6179 11.9022 17.5435 12.4817 17.5822 13.0592C18.1618 13.065 18.7351 12.9371 19.259 12.6852C19.7828 12.4333 20.2434 12.0639 20.6062 11.605Z" fill="white"/>
<path d="M39.5834 25.7959H35.1457L34.0878 28.9895H32.2153L36.3909 17.1846H38.3569L42.5512 28.9895H40.6788L39.5834 25.7959ZM35.6044 24.3226H39.1246L37.3926 19.1425L35.6044 24.3226Z" fill="white"/>
<path d="M51.6232 24.6837C51.6232 27.3545 50.2095 29.0749 48.0842 29.0749C47.5457 29.1029 47.0101 28.9771 46.5385 28.7116C46.0668 28.4462 45.678 28.0517 45.416 27.5732V31.8313H43.6372V20.4256H45.3224V21.8608C45.5951 21.3764 45.9931 20.9769 46.4733 20.7055C46.9535 20.4342 47.4976 20.3012 48.0468 20.321C50.2001 20.321 51.6232 22.0224 51.6232 24.6837ZM49.835 24.6837C49.835 22.9443 48.8988 21.8323 47.5881 21.8323C46.2773 21.8323 45.3692 23.0014 45.3692 24.6837C45.3692 26.366 46.3054 27.5351 47.5881 27.5351C48.8707 27.5351 49.835 26.4421 49.835 24.6837Z" fill="white"/>
<path d="M60.9479 24.6836C60.9479 27.3544 59.5342 29.0748 57.409 29.0748C56.8706 29.1017 56.3355 28.9753 55.864 28.71C55.3926 28.4446 55.0035 28.0509 54.7407 27.573V31.8311H52.9619V20.4254H54.6471V21.8607C54.9206 21.3748 55.32 20.9744 55.802 20.7029C56.284 20.4314 56.8301 20.2993 57.3809 20.3209C59.5342 20.3209 60.9479 22.0222 60.9479 24.6836ZM59.1597 24.6836C59.1597 22.9442 58.2703 21.8321 56.9221 21.8321C55.574 21.8321 54.6939 23.0012 54.6939 24.6836C54.6939 26.3659 55.6301 27.535 56.9221 27.535C58.2141 27.535 59.1597 26.4419 59.1597 24.6836Z" fill="white"/>
<path d="M67.1178 25.7009C67.2395 26.87 68.3629 27.6018 69.9264 27.6018C71.4899 27.6018 72.4542 26.832 72.4542 25.7769C72.4542 24.7219 71.8176 24.3132 70.3103 23.933L68.803 23.5623C66.6684 23.0396 65.676 22.0321 65.676 20.3877C65.676 18.3442 67.4267 16.947 69.9077 16.947C72.3887 16.947 74.0458 18.3442 74.102 20.3877H72.3138C72.2015 19.2092 71.2465 18.4868 69.8422 18.4868C68.4378 18.4868 67.4829 19.2092 67.4829 20.2547C67.4829 21.0911 68.1008 21.5758 69.5988 21.956L70.872 22.2697C73.2594 22.8495 74.2518 23.819 74.2518 25.5488C74.2518 27.7539 72.5198 29.1321 69.7673 29.1321C67.1833 29.1321 65.4419 27.7824 65.3296 25.6534L67.1178 25.7009Z" fill="white"/>
<path d="M78.006 18.344V20.378H79.6163V21.7847H78.006V26.5371C78.006 27.269 78.3337 27.6111 79.0358 27.6111C79.226 27.6229 79.4168 27.6229 79.6069 27.6111V28.9988C79.2984 29.0588 78.9848 29.0874 78.6707 29.0844C76.9574 29.0844 76.2833 28.4285 76.2833 26.7557V21.7847H75.0288V20.378H76.2553V18.344H78.006Z" fill="white"/>
<path d="M80.5522 24.6839C80.5522 21.975 82.1251 20.2737 84.5686 20.2737C87.0122 20.2737 88.5944 21.975 88.5944 24.6839C88.5944 27.3927 87.0402 29.0941 84.5686 29.0941C82.097 29.0941 80.5522 27.4022 80.5522 24.6839ZM86.8249 24.6839C86.8249 22.7829 85.9823 21.7279 84.5686 21.7279C83.1549 21.7279 82.3217 22.84 82.3217 24.6839C82.3217 26.5278 83.1643 27.6399 84.5686 27.6399C85.973 27.6399 86.8249 26.5468 86.8249 24.6839Z" fill="white"/>
<path d="M90.0269 20.3783H91.684V21.842C91.8026 21.3829 92.0748 20.9801 92.4541 20.7026C92.8333 20.4251 93.2959 20.2903 93.7624 20.3213C93.964 20.3179 94.1653 20.3403 94.3615 20.3878V22.0416C94.1105 21.9605 93.8479 21.922 93.5845 21.9276C93.3312 21.9177 93.0787 21.9635 92.8445 22.0619C92.6102 22.1603 92.3996 22.3089 92.2271 22.4975C92.0547 22.6861 91.9244 22.9104 91.8452 23.1548C91.766 23.3993 91.7397 23.6583 91.7682 23.914V29.0181H90.0269V20.3783Z" fill="white"/>
<path d="M102.385 26.4611C102.151 28.0199 100.653 29.0939 98.734 29.0939C96.2717 29.0939 94.7363 27.4116 94.7363 24.7217C94.7363 22.0319 96.3092 20.321 98.6591 20.321C101.009 20.321 102.479 21.9559 102.479 24.5697V25.1685H96.4964V25.2825C96.4682 25.5987 96.5068 25.9173 96.6095 26.2172C96.7121 26.517 96.8766 26.7912 97.0919 27.0215C97.3072 27.2517 97.5683 27.4327 97.8579 27.5525C98.1475 27.6722 98.459 27.7278 98.7714 27.7157C99.1833 27.7552 99.5968 27.6592 99.9509 27.4419C100.305 27.2245 100.581 26.8973 100.738 26.5086L102.385 26.4611ZM96.5058 23.8948H100.738C100.753 23.6101 100.71 23.3251 100.612 23.0578C100.515 22.7905 100.363 22.5466 100.168 22.3414C99.973 22.1362 99.7383 21.974 99.4786 21.8652C99.219 21.7563 98.94 21.7031 98.6591 21.7087C98.376 21.7075 98.0954 21.7632 97.8336 21.8726C97.5718 21.982 97.3339 22.143 97.1337 22.3462C96.9335 22.5495 96.7749 22.791 96.6672 23.0568C96.5594 23.3226 96.5045 23.6074 96.5058 23.8948Z" fill="white"/>
<path d="M35.5579 8.29761C36.0545 8.29761 36.5307 8.49789 36.8819 8.85438C37.233 9.21088 37.4303 9.69439 37.4303 10.1986C37.4303 10.7027 37.233 11.1862 36.8819 11.5427C36.5307 11.8992 36.0545 12.0995 35.5579 12.0995H34.2378V14.0005H33.3765V8.29761H35.5579ZM34.2378 11.2821H35.3332C36.0821 11.2821 36.5128 10.8924 36.5128 10.1891C36.5128 9.4857 36.0915 9.077 35.3332 9.077H34.2378V11.2821Z" fill="white"/>
<path d="M38.2633 11.8333C38.2363 11.5522 38.2676 11.2685 38.3551 11.0005C38.4426 10.7324 38.5844 10.4859 38.7713 10.2768C38.9582 10.0677 39.1862 9.90058 39.4405 9.78622C39.6948 9.67187 39.9699 9.61279 40.2481 9.61279C40.5262 9.61279 40.8013 9.67187 41.0556 9.78622C41.3099 9.90058 41.5379 10.0677 41.7248 10.2768C41.9117 10.4859 42.0535 10.7324 42.141 11.0005C42.2285 11.2685 42.2598 11.5522 42.2328 11.8333C42.2598 12.1143 42.2285 12.398 42.141 12.666C42.0535 12.9341 41.9117 13.1806 41.7248 13.3897C41.5379 13.5988 41.3099 13.7659 41.0556 13.8803C40.8013 13.9946 40.5262 14.0537 40.2481 14.0537C39.9699 14.0537 39.6948 13.9946 39.4405 13.8803C39.1862 13.7659 38.9582 13.5988 38.7713 13.3897C38.5844 13.1806 38.4426 12.9341 38.3551 12.666C38.2676 12.398 38.2363 12.1143 38.2633 11.8333ZM41.3809 11.8333C41.3809 10.8828 40.9689 10.36 40.2481 10.36C39.5272 10.36 39.1246 10.9018 39.1246 11.8333C39.1246 12.7647 39.5272 13.3065 40.2481 13.3065C40.9689 13.3065 41.3341 12.7647 41.3341 11.8333H41.3809Z" fill="white"/>
<path d="M44.2085 13.2971H44.143V13.9719H43.3472V8.02197H44.1804V10.3696H44.2459C44.3703 10.1341 44.5574 9.93887 44.7859 9.8061C45.0143 9.67334 45.2749 9.60843 45.5379 9.61877C46.6052 9.61877 47.2793 10.4647 47.2793 11.8334C47.2793 13.2021 46.6052 14.0385 45.5379 14.0385C45.2707 14.0503 45.0054 13.9875 44.771 13.8567C44.5365 13.726 44.342 13.5324 44.2085 13.2971ZM44.2085 11.8334C44.2085 12.7268 44.6485 13.2876 45.3507 13.2876C46.0528 13.2876 46.4741 12.7363 46.4741 11.8334C46.4741 10.9304 46.0528 10.3792 45.3507 10.3792C44.6485 10.3792 44.1617 10.9399 44.1617 11.8334H44.2085Z" fill="white"/>
<path d="M48.2903 8.42134C48.2847 8.31127 48.3117 8.20202 48.3678 8.1077C48.424 8.01337 48.5067 7.93829 48.6053 7.89216C48.7039 7.84603 48.8138 7.83097 48.921 7.84891C49.0281 7.86685 49.1274 7.91697 49.2062 7.99281C49.285 8.06865 49.3396 8.16672 49.3629 8.27436C49.3862 8.382 49.3772 8.49427 49.3371 8.59667C49.2969 8.69908 49.2275 8.78691 49.1377 8.84884C49.0479 8.91077 48.9418 8.94396 48.8333 8.9441C48.7633 8.94798 48.6933 8.93733 48.6276 8.9128C48.5618 8.88827 48.5017 8.85038 48.4509 8.80145C48.4001 8.75251 48.3596 8.69356 48.332 8.62821C48.3044 8.56285 48.2902 8.49246 48.2903 8.42134ZM48.412 9.69498H49.2452V13.9721H48.412V9.69498Z" fill="white"/>
<path d="M54.1794 12.8124C54.0662 13.2134 53.8149 13.5598 53.4711 13.7883C53.1274 14.0169 52.7143 14.1124 52.307 14.0575C52.0266 14.0729 51.7464 14.0241 51.4871 13.9146C51.2278 13.8052 50.9961 13.638 50.8091 13.4253C50.6221 13.2126 50.4846 12.96 50.4068 12.6861C50.329 12.4122 50.3129 12.124 50.3596 11.8429C50.3219 11.5623 50.3442 11.2768 50.4251 11.0058C50.5061 10.7348 50.6437 10.4847 50.8286 10.2726C51.0135 10.0605 51.2413 9.8915 51.4964 9.77703C51.7515 9.66255 52.028 9.60535 52.307 9.60932C53.4866 9.60932 54.1794 10.4172 54.1794 11.7669V12.0615H51.2209V12.1091C51.2081 12.263 51.2265 12.418 51.275 12.5645C51.3234 12.7109 51.4009 12.8458 51.5027 12.9607C51.6044 13.0756 51.7283 13.1681 51.8666 13.2325C52.0049 13.2969 52.1548 13.3318 52.307 13.3352C52.5062 13.3587 52.7078 13.3216 52.8862 13.2285C53.0646 13.1354 53.2116 12.9906 53.3087 12.8124H54.1794ZM51.249 11.4342H53.3836C53.3947 11.2874 53.3745 11.1399 53.3245 11.0016C53.2744 10.8634 53.1956 10.7377 53.0935 10.6331C52.9914 10.5285 52.8683 10.4475 52.7326 10.3955C52.5968 10.3435 52.4517 10.3217 52.307 10.3317C52.164 10.3304 52.0222 10.3581 51.8899 10.413C51.7576 10.468 51.6373 10.5492 51.5362 10.6518C51.4351 10.7544 51.3552 10.8765 51.3011 11.0108C51.2469 11.1452 51.2197 11.2891 51.2209 11.4342H51.249Z" fill="white"/>
<path d="M55.3213 9.69488H56.1171V10.3507H56.1826C56.2711 10.1229 56.4284 9.9294 56.6319 9.79793C56.8354 9.66646 57.0747 9.60377 57.3154 9.61884C57.4397 9.60231 57.5656 9.60231 57.6899 9.61884V10.4553C57.5368 10.4169 57.3796 10.3977 57.2218 10.3982C57.0846 10.3864 56.9464 10.4036 56.8161 10.4489C56.6858 10.4942 56.5662 10.5665 56.465 10.6613C56.3637 10.7561 56.283 10.8712 56.2279 10.9993C56.1728 11.1275 56.1447 11.2659 56.1452 11.4057V13.934H55.3213V9.69488Z" fill="white"/>
<path d="M58.5137 13.4014L60.8355 10.474V10.4074H58.5324V9.69458H61.8279V10.3029L59.5622 13.1543V13.2208H61.8466V13.9337H58.5137V13.4014Z" fill="white"/>
<path d="M69.7017 13.9717H68.831L67.9603 10.8161H67.8948L67.0335 13.9717H66.1721L65.0112 9.69458H65.8538L66.6122 12.9547H66.6777L67.539 9.69458H68.3348L69.2055 12.9547H69.271L70.02 9.69458H70.8532L69.7017 13.9717Z" fill="white"/>
</svg>
