<svg width="127" height="38" viewBox="0 0 127 38" fill="none" xmlns="http://www.w3.org/2000/svg">
<path d="M122.296 38H4.7037C2.06963 38 0 35.815 0 33.25V4.75C0 2.09 2.1637 0 4.7037 0H122.296C124.93 0 127 2.185 127 4.75V33.25C127 35.815 124.93 38 122.296 38Z" fill="black"/>
<path d="M122.296 0.76C124.46 0.76 126.247 2.565 126.247 4.75V33.25C126.247 35.435 124.46 37.24 122.296 37.24H4.7037C2.54 37.24 0.752593 35.435 0.752593 33.25V4.75C0.752593 2.565 2.54 0.76 4.7037 0.76H122.296ZM122.296 0H4.7037C2.06963 0 0 2.185 0 4.75V33.25C0 35.91 2.1637 38 4.7037 38H122.296C124.93 38 127 35.815 127 33.25V4.75C127 2.185 124.93 0 122.296 0Z" fill="#A6A6A6"/>
<path d="M64.0645 20.7101C61.8068 20.7101 60.0194 22.4201 60.0194 24.7951C60.0194 27.0751 61.8068 28.8801 64.0645 28.8801C66.3223 28.8801 68.1097 27.1701 68.1097 24.7951C68.1097 22.3251 66.3223 20.7101 64.0645 20.7101ZM64.0645 27.1701C62.8416 27.1701 61.8068 26.1251 61.8068 24.7001C61.8068 23.2751 62.8416 22.2301 64.0645 22.2301C65.2875 22.2301 66.3223 23.1801 66.3223 24.7001C66.3223 26.1251 65.2875 27.1701 64.0645 27.1701ZM55.3157 20.7101C53.0579 20.7101 51.2705 22.4201 51.2705 24.7951C51.2705 27.0751 53.0579 28.8801 55.3157 28.8801C57.5734 28.8801 59.3608 27.1701 59.3608 24.7951C59.3608 22.3251 57.5734 20.7101 55.3157 20.7101ZM55.3157 27.1701C54.0927 27.1701 53.0579 26.1251 53.0579 24.7001C53.0579 23.2751 54.0927 22.2301 55.3157 22.2301C56.5386 22.2301 57.5734 23.1801 57.5734 24.7001C57.5734 26.1251 56.5386 27.1701 55.3157 27.1701ZM44.8734 21.9451V23.6551H48.9186C48.8246 24.6051 48.4483 25.3651 47.9779 25.8401C47.4134 26.4101 46.4727 27.0751 44.8734 27.0751C42.3334 27.0751 40.452 25.0801 40.452 22.5151C40.452 19.9501 42.4275 17.9551 44.8734 17.9551C46.1905 17.9551 47.2253 18.5251 47.9779 19.1901L49.2008 17.9551C48.166 17.0051 46.849 16.2451 44.9675 16.2451C41.5808 16.2451 38.6646 19.0951 38.6646 22.5151C38.6646 25.9351 41.5808 28.7851 44.9675 28.7851C46.849 28.7851 48.166 28.2151 49.2949 26.9801C50.4238 25.8401 50.8001 24.2251 50.8001 22.9901C50.8001 22.6101 50.8001 22.2301 50.706 21.9451H44.8734ZM87.5831 23.2751C87.2068 22.3251 86.266 20.7101 84.1964 20.7101C82.1268 20.7101 80.4334 22.3251 80.4334 24.7951C80.4334 27.0751 82.1268 28.8801 84.3845 28.8801C86.172 28.8801 87.3008 27.7401 87.6771 27.0751L86.3601 26.1251C85.8897 26.7901 85.3253 27.2651 84.3845 27.2651C83.4438 27.2651 82.8794 26.8851 82.409 26.0301L87.7712 23.7501L87.5831 23.2751ZM82.1268 24.6051C82.1268 23.0851 83.3497 22.2301 84.1964 22.2301C84.8549 22.2301 85.5134 22.6101 85.7016 23.0851L82.1268 24.6051ZM77.7053 28.5001H79.4927V16.6251H77.7053V28.5001ZM74.8831 21.5651C74.4127 21.0901 73.6601 20.6151 72.7194 20.6151C70.7438 20.6151 68.8623 22.4201 68.8623 24.7001C68.8623 26.9801 70.6497 28.6901 72.7194 28.6901C73.6601 28.6901 74.4127 28.2151 74.789 27.7401H74.8831V28.3101C74.8831 29.8301 74.0364 30.6851 72.7194 30.6851C71.6846 30.6851 70.932 29.9251 70.7438 29.2601L69.2386 29.9251C69.709 30.9701 70.8379 32.3001 72.8134 32.3001C74.8831 32.3001 76.5764 31.0651 76.5764 28.1201V20.9001H74.8831V21.5651ZM72.8134 27.1701C71.5905 27.1701 70.5557 26.1251 70.5557 24.7001C70.5557 23.2751 71.5905 22.2301 72.8134 22.2301C74.0364 22.2301 74.9771 23.2751 74.9771 24.7001C74.9771 26.1251 74.0364 27.1701 72.8134 27.1701ZM95.7675 16.6251H91.5342V28.5001H93.3216V24.0351H95.7675C97.7431 24.0351 99.6245 22.6101 99.6245 20.3301C99.6245 18.0501 97.7431 16.6251 95.7675 16.6251ZM95.8616 22.3251H93.3216V18.2401H95.8616C97.1786 18.2401 97.9312 19.3801 97.9312 20.2351C97.8371 21.2801 97.0845 22.3251 95.8616 22.3251ZM106.68 20.6151C105.363 20.6151 104.046 21.1851 103.576 22.4201L105.175 23.0851C105.551 22.4201 106.116 22.2301 106.774 22.2301C107.715 22.2301 108.562 22.8001 108.656 23.7501V23.8451C108.373 23.6551 107.621 23.3701 106.868 23.3701C105.175 23.3701 103.482 24.3201 103.482 26.0301C103.482 27.6451 104.893 28.6901 106.398 28.6901C107.621 28.6901 108.185 28.1201 108.656 27.5501H108.75V28.5001H110.443V23.9401C110.255 21.8501 108.656 20.6151 106.68 20.6151ZM106.492 27.1701C105.928 27.1701 105.081 26.8851 105.081 26.1251C105.081 25.1751 106.116 24.8901 106.962 24.8901C107.715 24.8901 108.091 25.0801 108.562 25.2701C108.373 26.4101 107.433 27.1701 106.492 27.1701ZM116.37 20.9001L114.394 26.0301H114.3L112.23 20.9001H110.349L113.453 28.1201L111.666 32.1101H113.453L118.251 20.9001H116.37ZM100.565 28.5001H102.353V16.6251H100.565V28.5001Z" fill="white"/>
<path d="M9.78385 7.125C9.50162 7.41 9.31348 7.885 9.31348 8.455V29.45C9.31348 30.02 9.50162 30.495 9.78385 30.78L9.87792 30.875L21.5431 19.095V19V18.905L9.78385 7.125Z" fill="url(#paint0_linear)"/>
<path d="M25.4 23.0848L21.543 19.1898V18.9998V18.9048L25.4 15.0098L25.4941 15.1048L30.1037 17.7648C31.4207 18.5248 31.4207 19.7598 30.1037 20.5198L25.4 23.0848Z" fill="url(#paint1_linear)"/>
<path d="M25.4941 22.99L21.543 19L9.78369 30.875C10.2541 31.35 10.9126 31.35 11.7592 30.97L25.4941 22.99Z" fill="url(#paint2_linear)"/>
<path d="M25.1176 14.8472L11.3828 6.96219C10.5361 6.48719 9.8776 6.58219 9.40723 7.05719L21.1665 18.8372L25.1176 14.8472Z" fill="url(#paint3_linear)"/>
<path opacity="0.2" d="M25.4 22.895L11.7592 30.685C11.0067 31.16 10.3481 31.065 9.87777 30.685L9.78369 30.78L9.87777 30.875C10.3481 31.255 11.0067 31.35 11.7592 30.875L25.4 22.895Z" fill="black"/>
<path opacity="0.12" d="M9.78352 30.685C9.5013 30.4 9.40723 29.925 9.40723 29.355V29.45C9.40723 30.02 9.59537 30.495 9.8776 30.78V30.685H9.78352Z" fill="black"/>
<path opacity="0.12" d="M30.1036 20.235L25.3999 22.895L25.494 22.99L30.1036 20.33C30.7621 19.95 31.0443 19.475 31.0443 19C31.0443 19.475 30.6681 19.855 30.1036 20.235Z" fill="black"/>
<path opacity="0.25" d="M11.7591 7.21986L30.1035 17.7649C30.668 18.1449 31.0443 18.5249 31.0443 18.9999C31.0443 18.5249 30.762 18.0499 30.1035 17.6699L11.7591 7.12486C10.442 6.36486 9.40723 7.02986 9.40723 8.54986V8.64486C9.40723 7.12486 10.442 6.45986 11.7591 7.21986Z" fill="white"/>
<path d="M39.6994 12.3499H38.9468V6.6499H40.8283C41.2986 6.6499 41.6749 6.8399 42.0512 7.1249C42.4275 7.4099 42.6157 7.8849 42.6157 8.3599C42.6157 8.8349 42.4275 9.2149 42.0512 9.5949C41.6749 9.8799 41.2986 10.0699 40.8283 10.0699H39.6053V12.3499H39.6994ZM39.6994 9.3099H40.9223C41.2046 9.3099 41.4868 9.2149 41.6749 9.0249C41.8631 8.8349 41.9571 8.5499 41.9571 8.3599C41.9571 8.0749 41.8631 7.8849 41.6749 7.6949C41.4868 7.5049 41.2046 7.4099 40.9223 7.4099H39.6994V9.3099Z" fill="white" stroke="white" stroke-width="0.2" stroke-miterlimit="10"/>
<path d="M48.1656 11.5899C47.6012 12.1599 46.9426 12.4449 46.096 12.4449C45.2493 12.4449 44.5908 12.1599 44.0264 11.5899C43.4619 11.0199 43.1797 10.3549 43.1797 9.49993C43.1797 8.64493 43.4619 7.97993 44.0264 7.40993C44.5908 6.83993 45.2493 6.55493 46.096 6.55493C46.9426 6.55493 47.6012 6.83993 48.1656 7.40993C48.7301 7.97993 49.0123 8.64493 49.0123 9.49993C49.0123 10.3549 48.7301 11.0199 48.1656 11.5899ZM44.5908 11.1149C44.9671 11.4949 45.5315 11.7799 46.096 11.7799C46.6604 11.7799 47.2249 11.5899 47.6012 11.1149C47.9775 10.7349 48.2597 10.1649 48.2597 9.49993C48.2597 8.83493 48.0715 8.26493 47.6012 7.88493C47.2249 7.50493 46.6604 7.21993 46.096 7.21993C45.5315 7.21993 44.9671 7.40993 44.5908 7.88493C44.2145 8.26493 43.9323 8.83493 43.9323 9.49993C43.9323 10.1649 44.1204 10.7349 44.5908 11.1149Z" fill="white" stroke="white" stroke-width="0.2" stroke-miterlimit="10"/>
<path d="M50.0474 12.3499V6.6499H52.117C52.5874 6.6499 52.9637 6.8399 53.2459 7.1249C53.5281 7.4099 53.7163 7.7899 53.7163 8.2649C53.7163 8.5499 53.6222 8.7399 53.5281 9.0249C53.434 9.2149 53.2459 9.4049 52.9637 9.4999C53.2459 9.5949 53.434 9.7849 53.6222 9.9749C53.8103 10.1649 53.9044 10.4499 53.9044 10.8299C53.9044 11.3049 53.7163 11.6849 53.434 11.9699C53.0577 12.2549 52.6814 12.4449 52.2111 12.4449H50.0474V12.3499ZM50.7059 9.1199H52.0229C52.3051 9.1199 52.4933 9.0249 52.6814 8.8349C52.8696 8.6449 52.9637 8.4549 52.9637 8.2649C52.9637 8.0749 52.8696 7.7899 52.6814 7.5999C52.4933 7.4099 52.3051 7.3149 52.0229 7.3149H50.7059V9.1199ZM50.7059 11.6849H52.2111C52.4933 11.6849 52.6814 11.5899 52.8696 11.3999C53.0577 11.2099 53.1518 11.0199 53.1518 10.7349C53.1518 10.5449 53.0577 10.2599 52.8696 10.0699C52.6814 9.8799 52.4933 9.7849 52.2111 9.7849H50.8V11.6849H50.7059Z" fill="white" stroke="white" stroke-width="0.2" stroke-miterlimit="10"/>
<path d="M54.8452 12.3499V6.6499H55.5978V12.3499H54.8452Z" fill="white" stroke="white" stroke-width="0.2" stroke-miterlimit="10"/>
<path d="M60.2076 7.3149H57.6676V9.1199H60.0195V9.7849H57.6676V11.5899H60.2076V12.3499H56.915V6.6499H60.2076V7.3149Z" fill="white" stroke="white" stroke-width="0.2" stroke-miterlimit="10"/>
<path d="M61.3359 12.3499V6.6499H63.2174C63.6878 6.6499 64.0641 6.8399 64.4404 7.1249C64.8167 7.4099 65.0048 7.8849 65.0048 8.3599C65.0048 8.7399 64.9108 9.1199 64.6285 9.4049C64.3463 9.6899 64.0641 9.8799 63.6878 9.9749L65.2871 12.2549H64.4404L62.9352 9.9749H62.0885V12.3499H61.3359ZM61.9945 9.3099H63.1233C63.4056 9.3099 63.6878 9.2149 63.8759 9.0249C64.0641 8.8349 64.1582 8.5499 64.1582 8.2649C64.1582 7.9799 64.0641 7.7899 63.8759 7.5999C63.6878 7.4099 63.4056 7.3149 63.1233 7.3149H61.9004V9.3099H61.9945Z" fill="white" stroke="white" stroke-width="0.2" stroke-miterlimit="10"/>
<path d="M65.6636 12.3499V11.5899L68.6739 7.3149H65.8517V6.6499H69.6147V7.4099L66.6043 11.6849H69.6147V12.3499H65.6636Z" fill="white" stroke="white" stroke-width="0.2" stroke-miterlimit="10"/>
<path d="M72.2485 12.3499V11.5899L75.2589 7.3149H72.3426V6.6499H76.1056V7.4099L73.0952 11.6849H76.1056V12.3499H72.2485Z" fill="white" stroke="white" stroke-width="0.2" stroke-miterlimit="10"/>
<defs>
<linearGradient id="paint0_linear" x1="20.508" y1="8.27421" x2="4.5655" y2="24.0613" gradientUnits="userSpaceOnUse">
<stop stop-color="#00A0FF"/>
<stop offset="0.00657445" stop-color="#00A1FF"/>
<stop offset="0.2601" stop-color="#00BEFF"/>
<stop offset="0.5122" stop-color="#00D2FF"/>
<stop offset="0.7604" stop-color="#00DFFF"/>
<stop offset="1" stop-color="#00E3FF"/>
</linearGradient>
<linearGradient id="paint1_linear" x1="31.8294" y1="19.0011" x2="9.0664" y2="19.0011" gradientUnits="userSpaceOnUse">
<stop stop-color="#FFE000"/>
<stop offset="0.4087" stop-color="#FFBD00"/>
<stop offset="0.7754" stop-color="#FFA500"/>
<stop offset="1" stop-color="#FF9C00"/>
</linearGradient>
<linearGradient id="paint2_linear" x1="23.3558" y1="21.1813" x2="1.73641" y2="42.5899" gradientUnits="userSpaceOnUse">
<stop stop-color="#FF3A44"/>
<stop offset="1" stop-color="#C31162"/>
</linearGradient>
<linearGradient id="paint3_linear" x1="6.48839" y1="0.00458144" x2="16.1424" y2="9.5644" gradientUnits="userSpaceOnUse">
<stop stop-color="#32A071"/>
<stop offset="0.0685" stop-color="#2DA771"/>
<stop offset="0.4762" stop-color="#15CF74"/>
<stop offset="0.8009" stop-color="#06E775"/>
<stop offset="1" stop-color="#00F076"/>
</linearGradient>
</defs>
</svg>
