<svg width="181" height="180" viewBox="0 0 181 180" fill="none" xmlns="http://www.w3.org/2000/svg">
	<path d="M7.24 0H0V7.2H7.24V0Z" fill="black"/>
	<path d="M14.4802 0H7.24023V7.2H14.4802V0Z" fill="black"/>
	<path d="M21.7205 0H14.4805V7.2H21.7205V0Z" fill="black"/>
	<path d="M28.9597 0H21.7197V7.2H28.9597V0Z" fill="black"/>
	<path d="M36.2 0H28.96V7.2H36.2V0Z" fill="black"/>
	<path d="M43.4402 0H36.2002V7.2H43.4402V0Z" fill="black"/>
	<path d="M50.6804 0H43.4404V7.2H50.6804V0Z" fill="black"/>
	<path d="M101.36 0H94.1201V7.2H101.36V0Z" fill="black"/>
	<path d="M137.56 0H130.32V7.2H137.56V0Z" fill="black"/>
	<path d="M144.8 0H137.56V7.2H144.8V0Z" fill="black"/>
	<path d="M152.04 0H144.8V7.2H152.04V0Z" fill="black"/>
	<path d="M159.28 0H152.04V7.2H159.28V0Z" fill="black"/>
	<path d="M166.52 0H159.28V7.2H166.52V0Z" fill="black"/>
	<path d="M173.76 0H166.52V7.2H173.76V0Z" fill="black"/>
	<path d="M181 0H173.76V7.2H181V0Z" fill="black"/>
	<path d="M7.24 7.20001H0V14.4H7.24V7.20001Z" fill="black"/>
	<path d="M50.6804 7.20001H43.4404V14.4H50.6804V7.20001Z" fill="black"/>
	<path d="M72.4002 7.20001H65.1602V14.4H72.4002V7.20001Z" fill="black"/>
	<path d="M86.8797 7.20001H79.6396V14.4H86.8797V7.20001Z" fill="black"/>
	<path d="M94.1199 7.20001H86.8799V14.4H94.1199V7.20001Z" fill="black"/>
	<path d="M101.36 7.20001H94.1201V14.4H101.36V7.20001Z" fill="black"/>
	<path d="M108.6 7.20001H101.36V14.4H108.6V7.20001Z" fill="black"/>
	<path d="M115.84 7.20001H108.6V14.4H115.84V7.20001Z" fill="black"/>
	<path d="M123.08 7.20001H115.84V14.4H123.08V7.20001Z" fill="black"/>
	<path d="M137.56 7.20001H130.32V14.4H137.56V7.20001Z" fill="black"/>
	<path d="M181 7.20001H173.76V14.4H181V7.20001Z" fill="black"/>
	<path d="M7.24 14.4H0V21.6H7.24V14.4Z" fill="black"/>
	<path d="M21.7205 14.4H14.4805V21.6H21.7205V14.4Z" fill="black"/>
	<path d="M28.9597 14.4H21.7197V21.6H28.9597V14.4Z" fill="black"/>
	<path d="M36.2 14.4H28.96V21.6H36.2V14.4Z" fill="black"/>
	<path d="M50.6804 14.4H43.4404V21.6H50.6804V14.4Z" fill="black"/>
	<path d="M65.1599 14.4H57.9199V21.6H65.1599V14.4Z" fill="black"/>
	<path d="M86.8797 14.4H79.6396V21.6H86.8797V14.4Z" fill="black"/>
	<path d="M115.84 14.4H108.6V21.6H115.84V14.4Z" fill="black"/>
	<path d="M123.08 14.4H115.84V21.6H123.08V14.4Z" fill="black"/>
	<path d="M137.56 14.4H130.32V21.6H137.56V14.4Z" fill="black"/>
	<path d="M152.04 14.4H144.8V21.6H152.04V14.4Z" fill="black"/>
	<path d="M159.28 14.4H152.04V21.6H159.28V14.4Z" fill="black"/>
	<path d="M166.52 14.4H159.28V21.6H166.52V14.4Z" fill="black"/>
	<path d="M181 14.4H173.76V21.6H181V14.4Z" fill="black"/>
	<path d="M7.24 21.6H0V28.8H7.24V21.6Z" fill="black"/>
	<path d="M21.7205 21.6H14.4805V28.8H21.7205V21.6Z" fill="black"/>
	<path d="M28.9597 21.6H21.7197V28.8H28.9597V21.6Z" fill="black"/>
	<path d="M36.2 21.6H28.96V28.8H36.2V21.6Z" fill="black"/>
	<path d="M50.6804 21.6H43.4404V28.8H50.6804V21.6Z" fill="black"/>
	<path d="M65.1599 21.6H57.9199V28.8H65.1599V21.6Z" fill="black"/>
	<path d="M72.4002 21.6H65.1602V28.8H72.4002V21.6Z" fill="black"/>
	<path d="M94.1199 21.6H86.8799V28.8H94.1199V21.6Z" fill="black"/>
	<path d="M101.36 21.6H94.1201V28.8H101.36V21.6Z" fill="black"/>
	<path d="M108.6 21.6H101.36V28.8H108.6V21.6Z" fill="black"/>
	<path d="M115.84 21.6H108.6V28.8H115.84V21.6Z" fill="black"/>
	<path d="M137.56 21.6H130.32V28.8H137.56V21.6Z" fill="black"/>
	<path d="M152.04 21.6H144.8V28.8H152.04V21.6Z" fill="black"/>
	<path d="M159.28 21.6H152.04V28.8H159.28V21.6Z" fill="black"/>
	<path d="M166.52 21.6H159.28V28.8H166.52V21.6Z" fill="black"/>
	<path d="M181 21.6H173.76V28.8H181V21.6Z" fill="black"/>
	<path d="M7.24 28.8H0V36H7.24V28.8Z" fill="black"/>
	<path d="M21.7205 28.8H14.4805V36H21.7205V28.8Z" fill="black"/>
	<path d="M28.9597 28.8H21.7197V36H28.9597V28.8Z" fill="black"/>
	<path d="M36.2 28.8H28.96V36H36.2V28.8Z" fill="black"/>
	<path d="M50.6804 28.8H43.4404V36H50.6804V28.8Z" fill="black"/>
	<path d="M65.1599 28.8H57.9199V36H65.1599V28.8Z" fill="black"/>
	<path d="M123.08 28.8H115.84V36H123.08V28.8Z" fill="black"/>
	<path d="M137.56 28.8H130.32V36H137.56V28.8Z" fill="black"/>
	<path d="M152.04 28.8H144.8V36H152.04V28.8Z" fill="black"/>
	<path d="M159.28 28.8H152.04V36H159.28V28.8Z" fill="black"/>
	<path d="M166.52 28.8H159.28V36H166.52V28.8Z" fill="black"/>
	<path d="M181 28.8H173.76V36H181V28.8Z" fill="black"/>
	<path d="M7.24 36H0V43.2H7.24V36Z" fill="black"/>
	<path d="M50.6804 36H43.4404V43.2H50.6804V36Z" fill="black"/>
	<path d="M65.1599 36H57.9199V43.2H65.1599V36Z" fill="black"/>
	<path d="M72.4002 36H65.1602V43.2H72.4002V36Z" fill="black"/>
	<path d="M101.36 36H94.1201V43.2H101.36V36Z" fill="black"/>
	<path d="M115.84 36H108.6V43.2H115.84V36Z" fill="black"/>
	<path d="M123.08 36H115.84V43.2H123.08V36Z" fill="black"/>
	<path d="M137.56 36H130.32V43.2H137.56V36Z" fill="black"/>
	<path d="M181 36H173.76V43.2H181V36Z" fill="black"/>
	<path d="M7.24 43.2H0V50.4H7.24V43.2Z" fill="black"/>
	<path d="M14.4802 43.2H7.24023V50.4H14.4802V43.2Z" fill="black"/>
	<path d="M21.7205 43.2H14.4805V50.4H21.7205V43.2Z" fill="black"/>
	<path d="M28.9597 43.2H21.7197V50.4H28.9597V43.2Z" fill="black"/>
	<path d="M36.2 43.2H28.96V50.4H36.2V43.2Z" fill="black"/>
	<path d="M43.4402 43.2H36.2002V50.4H43.4402V43.2Z" fill="black"/>
	<path d="M50.6804 43.2H43.4404V50.4H50.6804V43.2Z" fill="black"/>
	<path d="M65.1599 43.2H57.9199V50.4H65.1599V43.2Z" fill="black"/>
	<path d="M79.6404 43.2H72.4004V50.4H79.6404V43.2Z" fill="black"/>
	<path d="M94.1199 43.2H86.8799V50.4H94.1199V43.2Z" fill="black"/>
	<path d="M108.6 43.2H101.36V50.4H108.6V43.2Z" fill="black"/>
	<path d="M123.08 43.2H115.84V50.4H123.08V43.2Z" fill="black"/>
	<path d="M137.56 43.2H130.32V50.4H137.56V43.2Z" fill="black"/>
	<path d="M144.8 43.2H137.56V50.4H144.8V43.2Z" fill="black"/>
	<path d="M152.04 43.2H144.8V50.4H152.04V43.2Z" fill="black"/>
	<path d="M159.28 43.2H152.04V50.4H159.28V43.2Z" fill="black"/>
	<path d="M166.52 43.2H159.28V50.4H166.52V43.2Z" fill="black"/>
	<path d="M173.76 43.2H166.52V50.4H173.76V43.2Z" fill="black"/>
	<path d="M181 43.2H173.76V50.4H181V43.2Z" fill="black"/>
	<path d="M65.1599 50.4H57.9199V57.6H65.1599V50.4Z" fill="black"/>
	<path d="M72.4002 50.4H65.1602V57.6H72.4002V50.4Z" fill="black"/>
	<path d="M79.6404 50.4H72.4004V57.6H79.6404V50.4Z" fill="black"/>
	<path d="M86.8797 50.4H79.6396V57.6H86.8797V50.4Z" fill="black"/>
	<path d="M94.1199 50.4H86.8799V57.6H94.1199V50.4Z" fill="black"/>
	<path d="M108.6 50.4H101.36V57.6H108.6V50.4Z" fill="black"/>
	<path d="M115.84 50.4H108.6V57.6H115.84V50.4Z" fill="black"/>
	<path d="M7.24 57.6H0V64.8H7.24V57.6Z" fill="black"/>
	<path d="M21.7205 57.6H14.4805V64.8H21.7205V57.6Z" fill="black"/>
	<path d="M28.9597 57.6H21.7197V64.8H28.9597V57.6Z" fill="black"/>
	<path d="M36.2 57.6H28.96V64.8H36.2V57.6Z" fill="black"/>
	<path d="M43.4402 57.6H36.2002V64.8H43.4402V57.6Z" fill="black"/>
	<path d="M50.6804 57.6H43.4404V64.8H50.6804V57.6Z" fill="black"/>
	<path d="M94.1199 57.6H86.8799V64.8H94.1199V57.6Z" fill="black"/>
	<path d="M101.36 57.6H94.1201V64.8H101.36V57.6Z" fill="black"/>
	<path d="M108.6 57.6H101.36V64.8H108.6V57.6Z" fill="black"/>
	<path d="M123.08 57.6H115.84V64.8H123.08V57.6Z" fill="black"/>
	<path d="M137.56 57.6H130.32V64.8H137.56V57.6Z" fill="black"/>
	<path d="M144.8 57.6H137.56V64.8H144.8V57.6Z" fill="black"/>
	<path d="M152.04 57.6H144.8V64.8H152.04V57.6Z" fill="black"/>
	<path d="M159.28 57.6H152.04V64.8H159.28V57.6Z" fill="black"/>
	<path d="M166.52 57.6H159.28V64.8H166.52V57.6Z" fill="black"/>
	<path d="M7.24 64.8H0V72H7.24V64.8Z" fill="black"/>
	<path d="M21.7205 64.8H14.4805V72H21.7205V64.8Z" fill="black"/>
	<path d="M28.9597 64.8H21.7197V72H28.9597V64.8Z" fill="black"/>
	<path d="M86.8797 64.8H79.6396V72H86.8797V64.8Z" fill="black"/>
	<path d="M94.1199 64.8H86.8799V72H94.1199V64.8Z" fill="black"/>
	<path d="M101.36 64.8H94.1201V72H101.36V64.8Z" fill="black"/>
	<path d="M123.08 64.8H115.84V72H123.08V64.8Z" fill="black"/>
	<path d="M130.32 64.8H123.08V72H130.32V64.8Z" fill="black"/>
	<path d="M144.8 64.8H137.56V72H144.8V64.8Z" fill="black"/>
	<path d="M173.76 64.8H166.52V72H173.76V64.8Z" fill="black"/>
	<path d="M14.4802 72H7.24023V79.2H14.4802V72Z" fill="black"/>
	<path d="M28.9597 72H21.7197V79.2H28.9597V72Z" fill="black"/>
	<path d="M36.2 72H28.96V79.2H36.2V72Z" fill="black"/>
	<path d="M50.6804 72H43.4404V79.2H50.6804V72Z" fill="black"/>
	<path d="M57.9197 72H50.6797V79.2H57.9197V72Z" fill="black"/>
	<path d="M101.36 72H94.1201V79.2H101.36V72Z" fill="black"/>
	<path d="M108.6 72H101.36V79.2H108.6V72Z" fill="black"/>
	<path d="M115.84 72H108.6V79.2H115.84V72Z" fill="black"/>
	<path d="M123.08 72H115.84V79.2H123.08V72Z" fill="black"/>
	<path d="M144.8 72H137.56V79.2H144.8V72Z" fill="black"/>
	<path d="M159.28 72H152.04V79.2H159.28V72Z" fill="black"/>
	<path d="M173.76 72H166.52V79.2H173.76V72Z" fill="black"/>
	<path d="M181 72H173.76V79.2H181V72Z" fill="black"/>
	<path d="M36.2 79.2H28.96V86.4H36.2V79.2Z" fill="black"/>
	<path d="M43.4402 79.2H36.2002V86.4H43.4402V79.2Z" fill="black"/>
	<path d="M65.1599 79.2H57.9199V86.4H65.1599V79.2Z" fill="black"/>
	<path d="M72.4002 79.2H65.1602V86.4H72.4002V79.2Z" fill="black"/>
	<path d="M94.1199 79.2H86.8799V86.4H94.1199V79.2Z" fill="black"/>
	<path d="M108.6 79.2H101.36V86.4H108.6V79.2Z" fill="black"/>
	<path d="M115.84 79.2H108.6V86.4H115.84V79.2Z" fill="black"/>
	<path d="M123.08 79.2H115.84V86.4H123.08V79.2Z" fill="black"/>
	<path d="M130.32 79.2H123.08V86.4H130.32V79.2Z" fill="black"/>
	<path d="M137.56 79.2H130.32V86.4H137.56V79.2Z" fill="black"/>
	<path d="M144.8 79.2H137.56V86.4H144.8V79.2Z" fill="black"/>
	<path d="M152.04 79.2H144.8V86.4H152.04V79.2Z" fill="black"/>
	<path d="M181 79.2H173.76V86.4H181V79.2Z" fill="black"/>
	<path d="M14.4802 86.4H7.24023V93.6H14.4802V86.4Z" fill="black"/>
	<path d="M21.7205 86.4H14.4805V93.6H21.7205V86.4Z" fill="black"/>
	<path d="M28.9597 86.4H21.7197V93.6H28.9597V86.4Z" fill="black"/>
	<path d="M36.2 86.4H28.96V93.6H36.2V86.4Z" fill="black"/>
	<path d="M43.4402 86.4H36.2002V93.6H43.4402V86.4Z" fill="black"/>
	<path d="M50.6804 86.4H43.4404V93.6H50.6804V86.4Z" fill="black"/>
	<path d="M72.4002 86.4H65.1602V93.6H72.4002V86.4Z" fill="black"/>
	<path d="M86.8797 86.4H79.6396V93.6H86.8797V86.4Z" fill="black"/>
	<path d="M101.36 86.4H94.1201V93.6H101.36V86.4Z" fill="black"/>
	<path d="M108.6 86.4H101.36V93.6H108.6V86.4Z" fill="black"/>
	<path d="M115.84 86.4H108.6V93.6H115.84V86.4Z" fill="black"/>
	<path d="M137.56 86.4H130.32V93.6H137.56V86.4Z" fill="black"/>
	<path d="M152.04 86.4H144.8V93.6H152.04V86.4Z" fill="black"/>
	<path d="M166.52 86.4H159.28V93.6H166.52V86.4Z" fill="black"/>
	<path d="M173.76 86.4H166.52V93.6H173.76V86.4Z" fill="black"/>
	<path d="M181 86.4H173.76V93.6H181V86.4Z" fill="black"/>
	<path d="M7.24 93.6H0V100.8H7.24V93.6Z" fill="black"/>
	<path d="M14.4802 93.6H7.24023V100.8H14.4802V93.6Z" fill="black"/>
	<path d="M36.2 93.6H28.96V100.8H36.2V93.6Z" fill="black"/>
	<path d="M43.4402 93.6H36.2002V100.8H43.4402V93.6Z" fill="black"/>
	<path d="M57.9197 93.6H50.6797V100.8H57.9197V93.6Z" fill="black"/>
	<path d="M65.1599 93.6H57.9199V100.8H65.1599V93.6Z" fill="black"/>
	<path d="M72.4002 93.6H65.1602V100.8H72.4002V93.6Z" fill="black"/>
	<path d="M94.1199 93.6H86.8799V100.8H94.1199V93.6Z" fill="black"/>
	<path d="M101.36 93.6H94.1201V100.8H101.36V93.6Z" fill="black"/>
	<path d="M123.08 93.6H115.84V100.8H123.08V93.6Z" fill="black"/>
	<path d="M144.8 93.6H137.56V100.8H144.8V93.6Z" fill="black"/>
	<path d="M159.28 93.6H152.04V100.8H159.28V93.6Z" fill="black"/>
	<path d="M173.76 93.6H166.52V100.8H173.76V93.6Z" fill="black"/>
	<path d="M7.24 100.8H0V108H7.24V100.8Z" fill="black"/>
	<path d="M28.9597 100.8H21.7197V108H28.9597V100.8Z" fill="black"/>
	<path d="M36.2 100.8H28.96V108H36.2V100.8Z" fill="black"/>
	<path d="M43.4402 100.8H36.2002V108H43.4402V100.8Z" fill="black"/>
	<path d="M50.6804 100.8H43.4404V108H50.6804V100.8Z" fill="black"/>
	<path d="M72.4002 100.8H65.1602V108H72.4002V100.8Z" fill="black"/>
	<path d="M79.6404 100.8H72.4004V108H79.6404V100.8Z" fill="black"/>
	<path d="M108.6 100.8H101.36V108H108.6V100.8Z" fill="black"/>
	<path d="M115.84 100.8H108.6V108H115.84V100.8Z" fill="black"/>
	<path d="M123.08 100.8H115.84V108H123.08V100.8Z" fill="black"/>
	<path d="M130.32 100.8H123.08V108H130.32V100.8Z" fill="black"/>
	<path d="M144.8 100.8H137.56V108H144.8V100.8Z" fill="black"/>
	<path d="M152.04 100.8H144.8V108H152.04V100.8Z" fill="black"/>
	<path d="M159.28 100.8H152.04V108H159.28V100.8Z" fill="black"/>
	<path d="M173.76 100.8H166.52V108H173.76V100.8Z" fill="black"/>
	<path d="M181 100.8H173.76V108H181V100.8Z" fill="black"/>
	<path d="M7.24 108H0V115.2H7.24V108Z" fill="black"/>
	<path d="M28.9597 108H21.7197V115.2H28.9597V108Z" fill="black"/>
	<path d="M65.1599 108H57.9199V115.2H65.1599V108Z" fill="black"/>
	<path d="M72.4002 108H65.1602V115.2H72.4002V108Z" fill="black"/>
	<path d="M79.6404 108H72.4004V115.2H79.6404V108Z" fill="black"/>
	<path d="M94.1199 108H86.8799V115.2H94.1199V108Z" fill="black"/>
	<path d="M108.6 108H101.36V115.2H108.6V108Z" fill="black"/>
	<path d="M115.84 108H108.6V115.2H115.84V108Z" fill="black"/>
	<path d="M144.8 108H137.56V115.2H144.8V108Z" fill="black"/>
	<path d="M152.04 108H144.8V115.2H152.04V108Z" fill="black"/>
	<path d="M181 108H173.76V115.2H181V108Z" fill="black"/>
	<path d="M7.24 115.2H0V122.4H7.24V115.2Z" fill="black"/>
	<path d="M21.7205 115.2H14.4805V122.4H21.7205V115.2Z" fill="black"/>
	<path d="M50.6804 115.2H43.4404V122.4H50.6804V115.2Z" fill="black"/>
	<path d="M57.9197 115.2H50.6797V122.4H57.9197V115.2Z" fill="black"/>
	<path d="M94.1199 115.2H86.8799V122.4H94.1199V115.2Z" fill="black"/>
	<path d="M101.36 115.2H94.1201V122.4H101.36V115.2Z" fill="black"/>
	<path d="M123.08 115.2H115.84V122.4H123.08V115.2Z" fill="black"/>
	<path d="M130.32 115.2H123.08V122.4H130.32V115.2Z" fill="black"/>
	<path d="M137.56 115.2H130.32V122.4H137.56V115.2Z" fill="black"/>
	<path d="M144.8 115.2H137.56V122.4H144.8V115.2Z" fill="black"/>
	<path d="M152.04 115.2H144.8V122.4H152.04V115.2Z" fill="black"/>
	<path d="M166.52 115.2H159.28V122.4H166.52V115.2Z" fill="black"/>
	<path d="M65.1599 122.4H57.9199V129.6H65.1599V122.4Z" fill="black"/>
	<path d="M72.4002 122.4H65.1602V129.6H72.4002V122.4Z" fill="black"/>
	<path d="M101.36 122.4H94.1201V129.6H101.36V122.4Z" fill="black"/>
	<path d="M123.08 122.4H115.84V129.6H123.08V122.4Z" fill="black"/>
	<path d="M152.04 122.4H144.8V129.6H152.04V122.4Z" fill="black"/>
	<path d="M159.28 122.4H152.04V129.6H159.28V122.4Z" fill="black"/>
	<path d="M7.24 129.6H0V136.8H7.24V129.6Z" fill="black"/>
	<path d="M14.4802 129.6H7.24023V136.8H14.4802V129.6Z" fill="black"/>
	<path d="M21.7205 129.6H14.4805V136.8H21.7205V129.6Z" fill="black"/>
	<path d="M28.9597 129.6H21.7197V136.8H28.9597V129.6Z" fill="black"/>
	<path d="M36.2 129.6H28.96V136.8H36.2V129.6Z" fill="black"/>
	<path d="M43.4402 129.6H36.2002V136.8H43.4402V129.6Z" fill="black"/>
	<path d="M50.6804 129.6H43.4404V136.8H50.6804V129.6Z" fill="black"/>
	<path d="M79.6404 129.6H72.4004V136.8H79.6404V129.6Z" fill="black"/>
	<path d="M86.8797 129.6H79.6396V136.8H86.8797V129.6Z" fill="black"/>
	<path d="M94.1199 129.6H86.8799V136.8H94.1199V129.6Z" fill="black"/>
	<path d="M101.36 129.6H94.1201V136.8H101.36V129.6Z" fill="black"/>
	<path d="M108.6 129.6H101.36V136.8H108.6V129.6Z" fill="black"/>
	<path d="M123.08 129.6H115.84V136.8H123.08V129.6Z" fill="black"/>
	<path d="M137.56 129.6H130.32V136.8H137.56V129.6Z" fill="black"/>
	<path d="M152.04 129.6H144.8V136.8H152.04V129.6Z" fill="black"/>
	<path d="M166.52 129.6H159.28V136.8H166.52V129.6Z" fill="black"/>
	<path d="M173.76 129.6H166.52V136.8H173.76V129.6Z" fill="black"/>
	<path d="M181 129.6H173.76V136.8H181V129.6Z" fill="black"/>
	<path d="M7.24 136.8H0V144H7.24V136.8Z" fill="black"/>
	<path d="M50.6804 136.8H43.4404V144H50.6804V136.8Z" fill="black"/>
	<path d="M65.1599 136.8H57.9199V144H65.1599V136.8Z" fill="black"/>
	<path d="M79.6404 136.8H72.4004V144H79.6404V136.8Z" fill="black"/>
	<path d="M86.8797 136.8H79.6396V144H86.8797V136.8Z" fill="black"/>
	<path d="M108.6 136.8H101.36V144H108.6V136.8Z" fill="black"/>
	<path d="M123.08 136.8H115.84V144H123.08V136.8Z" fill="black"/>
	<path d="M152.04 136.8H144.8V144H152.04V136.8Z" fill="black"/>
	<path d="M159.28 136.8H152.04V144H159.28V136.8Z" fill="black"/>
	<path d="M7.24 144H0V151.2H7.24V144Z" fill="black"/>
	<path d="M21.7205 144H14.4805V151.2H21.7205V144Z" fill="black"/>
	<path d="M28.9597 144H21.7197V151.2H28.9597V144Z" fill="black"/>
	<path d="M36.2 144H28.96V151.2H36.2V144Z" fill="black"/>
	<path d="M50.6804 144H43.4404V151.2H50.6804V144Z" fill="black"/>
	<path d="M65.1599 144H57.9199V151.2H65.1599V144Z" fill="black"/>
	<path d="M72.4002 144H65.1602V151.2H72.4002V144Z" fill="black"/>
	<path d="M79.6404 144H72.4004V151.2H79.6404V144Z" fill="black"/>
	<path d="M86.8797 144H79.6396V151.2H86.8797V144Z" fill="black"/>
	<path d="M115.84 144H108.6V151.2H115.84V144Z" fill="black"/>
	<path d="M123.08 144H115.84V151.2H123.08V144Z" fill="black"/>
	<path d="M130.32 144H123.08V151.2H130.32V144Z" fill="black"/>
	<path d="M137.56 144H130.32V151.2H137.56V144Z" fill="black"/>
	<path d="M144.8 144H137.56V151.2H144.8V144Z" fill="black"/>
	<path d="M152.04 144H144.8V151.2H152.04V144Z" fill="black"/>
	<path d="M166.52 144H159.28V151.2H166.52V144Z" fill="black"/>
	<path d="M173.76 144H166.52V151.2H173.76V144Z" fill="black"/>
	<path d="M181 144H173.76V151.2H181V144Z" fill="black"/>
	<path d="M7.24 151.2H0V158.4H7.24V151.2Z" fill="black"/>
	<path d="M21.7205 151.2H14.4805V158.4H21.7205V151.2Z" fill="black"/>
	<path d="M28.9597 151.2H21.7197V158.4H28.9597V151.2Z" fill="black"/>
	<path d="M36.2 151.2H28.96V158.4H36.2V151.2Z" fill="black"/>
	<path d="M50.6804 151.2H43.4404V158.4H50.6804V151.2Z" fill="black"/>
	<path d="M65.1599 151.2H57.9199V158.4H65.1599V151.2Z" fill="black"/>
	<path d="M79.6404 151.2H72.4004V158.4H79.6404V151.2Z" fill="black"/>
	<path d="M94.1199 151.2H86.8799V158.4H94.1199V151.2Z" fill="black"/>
	<path d="M101.36 151.2H94.1201V158.4H101.36V151.2Z" fill="black"/>
	<path d="M130.32 151.2H123.08V158.4H130.32V151.2Z" fill="black"/>
	<path d="M137.56 151.2H130.32V158.4H137.56V151.2Z" fill="black"/>
	<path d="M152.04 151.2H144.8V158.4H152.04V151.2Z" fill="black"/>
	<path d="M159.28 151.2H152.04V158.4H159.28V151.2Z" fill="black"/>
	<path d="M166.52 151.2H159.28V158.4H166.52V151.2Z" fill="black"/>
	<path d="M173.76 151.2H166.52V158.4H173.76V151.2Z" fill="black"/>
	<path d="M181 151.2H173.76V158.4H181V151.2Z" fill="black"/>
	<path d="M7.24 158.4H0V165.6H7.24V158.4Z" fill="black"/>
	<path d="M21.7205 158.4H14.4805V165.6H21.7205V158.4Z" fill="black"/>
	<path d="M28.9597 158.4H21.7197V165.6H28.9597V158.4Z" fill="black"/>
	<path d="M36.2 158.4H28.96V165.6H36.2V158.4Z" fill="black"/>
	<path d="M50.6804 158.4H43.4404V165.6H50.6804V158.4Z" fill="black"/>
	<path d="M65.1599 158.4H57.9199V165.6H65.1599V158.4Z" fill="black"/>
	<path d="M101.36 158.4H94.1201V165.6H101.36V158.4Z" fill="black"/>
	<path d="M108.6 158.4H101.36V165.6H108.6V158.4Z" fill="black"/>
	<path d="M115.84 158.4H108.6V165.6H115.84V158.4Z" fill="black"/>
	<path d="M130.32 158.4H123.08V165.6H130.32V158.4Z" fill="black"/>
	<path d="M159.28 158.4H152.04V165.6H159.28V158.4Z" fill="black"/>
	<path d="M166.52 158.4H159.28V165.6H166.52V158.4Z" fill="black"/>
	<path d="M181 158.4H173.76V165.6H181V158.4Z" fill="black"/>
	<path d="M7.24 165.6H0V172.8H7.24V165.6Z" fill="black"/>
	<path d="M50.6804 165.6H43.4404V172.8H50.6804V165.6Z" fill="black"/>
	<path d="M72.4002 165.6H65.1602V172.8H72.4002V165.6Z" fill="black"/>
	<path d="M94.1199 165.6H86.8799V172.8H94.1199V165.6Z" fill="black"/>
	<path d="M101.36 165.6H94.1201V172.8H101.36V165.6Z" fill="black"/>
	<path d="M115.84 165.6H108.6V172.8H115.84V165.6Z" fill="black"/>
	<path d="M123.08 165.6H115.84V172.8H123.08V165.6Z" fill="black"/>
	<path d="M137.56 165.6H130.32V172.8H137.56V165.6Z" fill="black"/>
	<path d="M144.8 165.6H137.56V172.8H144.8V165.6Z" fill="black"/>
	<path d="M152.04 165.6H144.8V172.8H152.04V165.6Z" fill="black"/>
	<path d="M159.28 165.6H152.04V172.8H159.28V165.6Z" fill="black"/>
	<path d="M181 165.6H173.76V172.8H181V165.6Z" fill="black"/>
	<path d="M7.24 172.8H0V180H7.24V172.8Z" fill="black"/>
	<path d="M14.4802 172.8H7.24023V180H14.4802V172.8Z" fill="black"/>
	<path d="M21.7205 172.8H14.4805V180H21.7205V172.8Z" fill="black"/>
	<path d="M28.9597 172.8H21.7197V180H28.9597V172.8Z" fill="black"/>
	<path d="M36.2 172.8H28.96V180H36.2V172.8Z" fill="black"/>
	<path d="M43.4402 172.8H36.2002V180H43.4402V172.8Z" fill="black"/>
	<path d="M50.6804 172.8H43.4404V180H50.6804V172.8Z" fill="black"/>
	<path d="M65.1599 172.8H57.9199V180H65.1599V172.8Z" fill="black"/>
	<path d="M79.6404 172.8H72.4004V180H79.6404V172.8Z" fill="black"/>
	<path d="M94.1199 172.8H86.8799V180H94.1199V172.8Z" fill="black"/>
	<path d="M108.6 172.8H101.36V180H108.6V172.8Z" fill="black"/>
	<path d="M137.56 172.8H130.32V180H137.56V172.8Z" fill="black"/>
	<path d="M144.8 172.8H137.56V180H144.8V172.8Z" fill="black"/>
	<path d="M152.04 172.8H144.8V180H152.04V172.8Z" fill="black"/>
	<path d="M159.28 172.8H152.04V180H159.28V172.8Z" fill="black"/>
	<path d="M166.52 172.8H159.28V180H166.52V172.8Z" fill="black"/>
	<path d="M173.76 172.8H166.52V180H173.76V172.8Z" fill="black"/>
	<path d="M181 172.8H173.76V180H181V172.8Z" fill="black"/>
</svg>
