<svg width="22" height="24" viewBox="0 0 22 24" fill="none" xmlns="http://www.w3.org/2000/svg">
<path d="M11 7.6157C8.79 7.6157 7 9.47053 7 11.7606C7 14.0506 8.79 15.9054 11 15.9054C13.21 15.9054 15 14.0506 15 11.7606C15 9.47053 13.21 7.6157 11 7.6157ZM19.94 10.7243C19.48 6.40333 16.17 2.97345 12 2.49679V0.362183H10V2.49679C5.83 2.97345 2.52 6.40333 2.06 10.7243H0V12.7968H2.06C2.52 17.1178 5.83 20.5477 10 21.0243V23.159H12V21.0243C16.17 20.5477 19.48 17.1178 19.94 12.7968H22V10.7243H19.94ZM11 19.0141C7.13 19.0141 4 15.7707 4 11.7606C4 7.75041 7.13 4.50705 11 4.50705C14.87 4.50705 18 7.75041 18 11.7606C18 15.7707 14.87 19.0141 11 19.0141Z" fill="#272445"/>
</svg>
