<svg width="230" height="121" viewBox="0 0 230 121" fill="none" xmlns="http://www.w3.org/2000/svg">
<path d="M60.49 120.96L0 109.62V18.9L60.49 0V120.96Z" fill="#164194"/>
<path d="M0.0117188 87.82V64.26C3.01172 65.09 6.44175 65.48 8.67175 64.13C13.5618 61.22 20.9617 52.29 20.9617 52.29C20.9617 52.29 17.0617 61.92 18.5317 65.45C20.0817 69.2 29.3317 69.45 29.3317 69.45C29.3317 69.45 18.8817 75.81 14.0217 80.02C9.02173 84.31 5.54175 100.1 5.54175 100.1C5.54175 100.1 3.12172 89.98 0.0117188 87.87" fill="#FFED00"/>
<path d="M60.4781 46.26C58.7439 47.4592 56.8205 48.3583 54.7882 48.92C49.9382 49.86 44.7281 44.27 44.7281 44.27C44.7281 44.27 45.9582 52.44 42.8982 57.47C39.6782 62.77 29.3281 69.4 29.3281 69.4C29.3281 69.4 40.7682 67.19 42.9982 70.74C45.3582 74.54 45.6782 87.8 45.6782 87.8C45.6782 87.8 51.4982 71.88 56.7982 69.72C57.9982 69.2314 59.2271 68.8173 60.4781 68.48V46.26Z" fill="#E30613"/>
<path d="M20.959 52.29C20.959 52.29 26.7991 43.14 26.4491 39.88C26.1091 36.78 20.0391 35.67 20.0391 35.67C20.0391 35.67 27.9791 33.72 31.4391 30.6C34.8991 27.48 37.6991 21.36 37.6991 21.36C37.6991 21.36 38.4391 26.52 41.4091 27.26C44.3791 28 52.6591 24.73 52.6591 24.73C49.485 27.706 46.4803 30.8576 43.6591 34.17C41.0091 37.65 44.729 44.27 44.729 44.27C44.729 44.27 37.8691 41.89 34.0391 42.61C30.2091 43.33 20.959 52.29 20.959 52.29Z" fill="white"/>
<path d="M90.7109 45.36V22.67H105.271V26.17H94.8309V31.76H104.131V35.2H94.8309V41.84H106.061V45.36H90.7109Z" fill="#1D1D1B"/>
<path d="M122.979 44.47C122.219 44.67 121.219 44.87 119.979 45.08C118.657 45.2958 117.318 45.3995 115.979 45.39C114.798 45.4223 113.622 45.2218 112.519 44.8C111.65 44.4537 110.885 43.8888 110.299 43.16C109.719 42.4256 109.309 41.5718 109.099 40.66C108.85 39.6151 108.73 38.544 108.739 37.47V27.88H112.739V36.88C112.634 38.239 112.911 39.6002 113.539 40.81C113.87 41.2243 114.3 41.5486 114.789 41.7531C115.279 41.9576 115.811 42.0356 116.339 41.98C116.819 41.98 117.329 41.96 117.869 41.92C118.268 41.8901 118.666 41.8367 119.059 41.76V27.88H123.059L122.979 44.47Z" fill="#1D1D1B"/>
<path d="M137.578 31.81C137.132 31.6675 136.678 31.5507 136.218 31.46C135.559 31.333 134.889 31.2727 134.218 31.28C133.752 31.2859 133.287 31.3294 132.828 31.41C132.491 31.4692 132.157 31.546 131.828 31.64V45.36H127.828V29.06C128.762 28.7247 129.717 28.4541 130.688 28.25C131.941 27.9916 133.219 27.8676 134.498 27.88C134.806 27.8788 135.113 27.8955 135.418 27.93C135.768 27.93 136.118 28 136.418 28.06C136.718 28.12 137.098 28.18 137.418 28.25C137.738 28.32 138.008 28.4 138.208 28.47L137.578 31.81Z" fill="#1D1D1B"/>
<path d="M156.298 36.3601C156.315 37.614 156.119 38.8618 155.718 40.0501C155.361 41.1035 154.793 42.0732 154.048 42.9001C153.323 43.7011 152.432 44.3356 151.438 44.7601C150.377 45.2015 149.237 45.4226 148.088 45.4101C146.942 45.4235 145.806 45.2023 144.748 44.7601C143.765 44.336 142.882 43.709 142.158 42.9201C141.411 42.0939 140.839 41.1242 140.478 40.07C140.057 38.886 139.851 37.6365 139.868 36.3801C139.85 35.1235 140.057 33.8739 140.478 32.6901C140.849 31.6423 141.428 30.6799 142.178 29.86C142.907 29.0789 143.793 28.4619 144.778 28.0501C145.827 27.6139 146.953 27.3961 148.088 27.4101C149.227 27.3962 150.356 27.6139 151.408 28.0501C152.398 28.4543 153.286 29.0724 154.008 29.86C154.749 30.6854 155.323 31.6465 155.698 32.6901C156.109 33.8694 156.312 35.1112 156.298 36.3601ZM152.248 36.3601C152.313 34.944 151.928 33.5437 151.148 32.36C150.801 31.8779 150.34 31.4894 149.806 31.2294C149.272 30.9693 148.682 30.8459 148.088 30.8701C147.495 30.8459 146.905 30.9693 146.37 31.2294C145.836 31.4894 145.375 31.8779 145.028 32.36C144.248 33.5437 143.863 34.944 143.928 36.3601C143.852 37.8056 144.237 39.238 145.028 40.4501C145.373 40.9353 145.833 41.3268 146.368 41.5887C146.902 41.8507 147.494 41.9749 148.088 41.9501C148.683 41.9749 149.274 41.8507 149.809 41.5887C150.343 41.3268 150.804 40.9353 151.148 40.4501C151.94 39.238 152.325 37.8056 152.248 36.3601Z" fill="#1D1D1B"/>
<path d="M175.621 36.81C175.634 38.029 175.462 39.2429 175.111 40.41C174.812 41.4362 174.316 42.3942 173.651 43.23C173.019 44.0214 172.206 44.649 171.281 45.06C170.269 45.5135 169.169 45.7389 168.061 45.72C167.307 45.7275 166.556 45.6265 165.831 45.42C165.244 45.2648 164.677 45.0434 164.141 44.76V51.4H160.141V28.76C160.951 28.54 161.941 28.33 163.141 28.13C164.374 27.934 165.622 27.837 166.871 27.84C168.109 27.8164 169.34 28.0268 170.501 28.46C171.531 28.8503 172.465 29.4573 173.241 30.24C174.009 31.0478 174.599 32.0087 174.971 33.06C175.412 34.2605 175.632 35.531 175.621 36.81ZM171.561 36.88C171.65 35.4061 171.226 33.9467 170.361 32.75C169.876 32.227 169.278 31.8224 168.612 31.5675C167.946 31.3127 167.231 31.2143 166.521 31.28C166.151 31.28 165.761 31.28 165.361 31.28C164.955 31.3091 164.552 31.3795 164.161 31.49V41.28C164.592 41.5641 165.06 41.7894 165.551 41.95C166.145 42.1605 166.771 42.2654 167.401 42.26C168.009 42.3074 168.62 42.197 169.173 41.9395C169.727 41.682 170.205 41.2861 170.561 40.79C171.276 39.6153 171.624 38.2539 171.561 36.88Z" fill="#1D1D1B"/>
<path d="M178.57 36.49C178.535 35.1261 178.763 33.7682 179.24 32.49C179.634 31.432 180.239 30.4656 181.02 29.65C181.741 28.9107 182.61 28.3315 183.57 27.95C184.524 27.5677 185.542 27.3741 186.57 27.38C187.594 27.3236 188.617 27.4902 189.57 27.8683C190.524 28.2464 191.383 28.827 192.09 29.57C193.4 31.03 194.09 33.22 194.09 36.12C194.09 36.34 194.09 36.58 194.09 36.86C194.09 37.14 194.09 37.38 194.09 37.59H182.8C182.814 38.1921 182.949 38.7851 183.198 39.3334C183.448 39.8816 183.805 40.3737 184.25 40.78C185.318 41.6049 186.653 42.0072 188 41.91C188.887 41.9207 189.772 41.8335 190.64 41.65C191.281 41.5215 191.91 41.3375 192.52 41.1L193.04 44.34C192.749 44.4756 192.448 44.5892 192.14 44.68C191.709 44.8124 191.272 44.9226 190.83 45.01C190.34 45.11 189.83 45.19 189.25 45.25C188.672 45.3188 188.091 45.3521 187.51 45.35C186.169 45.3804 184.835 45.153 183.58 44.68C182.532 44.2753 181.591 43.6355 180.83 42.81C180.1 41.9993 179.555 41.0408 179.23 40C178.827 38.8717 178.605 37.6873 178.57 36.49ZM190.05 34.72C190.054 34.192 189.98 33.6663 189.83 33.16C189.687 32.697 189.456 32.2658 189.15 31.89C188.86 31.5269 188.491 31.2359 188.07 31.04C187.594 30.8202 187.074 30.7141 186.55 30.73C185.997 30.7161 185.449 30.8326 184.95 31.07C184.505 31.2866 184.11 31.5931 183.79 31.97C183.466 32.347 183.215 32.7811 183.05 33.25C182.871 33.7238 182.75 34.2173 182.69 34.72H190.05Z" fill="#1D1D1B"/>
<path d="M203.7 27.48C204.824 27.4517 205.944 27.6209 207.01 27.98C207.826 28.2515 208.561 28.7224 209.15 29.35C209.698 29.9616 210.092 30.6953 210.3 31.49C210.535 32.3942 210.649 33.3257 210.64 34.26V44.64C210.03 44.77 209.11 44.93 207.88 45.11C206.495 45.3084 205.098 45.402 203.7 45.39C202.755 45.3983 201.812 45.2977 200.89 45.09C200.107 44.9268 199.365 44.607 198.71 44.15C198.108 43.7065 197.624 43.123 197.3 42.45C196.945 41.6337 196.774 40.7495 196.8 39.86C196.771 38.9946 196.967 38.1366 197.37 37.37C197.744 36.7021 198.277 36.1358 198.92 35.72C199.618 35.2779 200.39 34.9662 201.2 34.8C202.088 34.6137 202.992 34.5199 203.9 34.52C204.361 34.5231 204.821 34.5498 205.28 34.6C205.794 34.6655 206.305 34.759 206.81 34.88V34.23C206.814 33.7882 206.76 33.3478 206.65 32.92C206.545 32.5148 206.35 32.1387 206.08 31.82C205.782 31.4948 205.412 31.2446 205 31.09C204.458 30.8943 203.885 30.8027 203.31 30.82C202.466 30.8159 201.623 30.8828 200.79 31.02C200.154 31.1163 199.528 31.2703 198.92 31.48L198.43 28.27C199.15 28.0454 199.885 27.8716 200.63 27.75C201.642 27.5651 202.67 27.4747 203.7 27.48ZM204.03 42.25C204.961 42.2714 205.891 42.2044 206.81 42.05V37.67C206.483 37.574 206.148 37.5071 205.81 37.47C205.357 37.3985 204.898 37.3651 204.44 37.37C203.994 37.3688 203.55 37.4023 203.11 37.47C202.689 37.5231 202.281 37.6447 201.9 37.83C201.548 37.9941 201.248 38.2497 201.03 38.57C200.806 38.9255 200.694 39.3402 200.71 39.76C200.657 40.1421 200.712 40.5311 200.867 40.8841C201.023 41.2371 201.273 41.5402 201.59 41.76C202.342 42.1459 203.187 42.3155 204.03 42.25Z" fill="#1D1D1B"/>
<path d="M215.291 28.76C216.278 28.4937 217.279 28.2834 218.291 28.13C219.634 27.9295 220.992 27.8326 222.35 27.84C223.543 27.8053 224.731 27.9987 225.85 28.41C226.723 28.7453 227.497 29.2957 228.1 30.01C228.675 30.7403 229.075 31.5919 229.271 32.5C229.51 33.5462 229.628 34.6167 229.62 35.69V45.36H225.62V36.36C225.631 35.5762 225.571 34.793 225.441 34.02C225.354 33.4618 225.153 32.9274 224.85 32.45C224.578 32.0493 224.191 31.7393 223.74 31.56C223.19 31.3587 222.606 31.2637 222.021 31.28C221.492 31.2797 220.965 31.3131 220.441 31.38L219.23 31.54V45.36H215.23L215.291 28.76Z" fill="#1D1D1B"/>
<path d="M90.7109 75.6V52.91H105.041V56.42H94.8309V62.21H103.901V65.76H94.8309V75.65L90.7109 75.6Z" fill="#1D1D1B"/>
<path d="M121.67 74.76C120.91 74.95 119.92 75.15 118.67 75.36C117.348 75.5758 116.01 75.6795 114.67 75.67C113.489 75.7023 112.314 75.5018 111.21 75.08C110.343 74.7309 109.579 74.1665 108.99 73.44C108.41 72.7056 108.001 71.8518 107.79 70.94C107.541 69.8952 107.42 68.824 107.43 67.75V58.12H111.43V67.12C111.321 68.4772 111.602 69.8373 112.24 71.04C112.566 71.4582 112.994 71.7861 113.482 71.9927C113.97 72.1992 114.503 72.2774 115.03 72.22C115.51 72.22 116.02 72.2 116.56 72.16C116.96 72.1301 117.357 72.0767 117.75 72V58.12H121.75L121.67 74.76Z" fill="#1D1D1B"/>
<path d="M126.521 59.03C127.509 58.7705 128.511 58.5635 129.521 58.41C130.865 58.2092 132.222 58.1122 133.581 58.12C134.773 58.086 135.961 58.2795 137.081 58.69C137.951 59.0253 138.722 59.5758 139.321 60.29C139.898 61.0197 140.302 61.8712 140.501 62.78C140.737 63.8266 140.851 64.8971 140.841 65.97V75.6H136.841V66.6C136.852 65.8195 136.791 65.0397 136.661 64.27C136.574 63.7118 136.373 63.1774 136.071 62.7C135.806 62.2921 135.417 61.9801 134.961 61.81C134.411 61.6077 133.827 61.5127 133.241 61.53C132.716 61.5297 132.192 61.5631 131.671 61.63C131.121 61.7 130.671 61.75 130.461 61.8V75.61H126.461L126.521 59.03Z" fill="#1D1D1B"/>
<path d="M159.938 74.6799C158.953 74.9624 157.951 75.1828 156.938 75.34C155.698 75.5356 154.444 75.6325 153.188 75.63C151.95 75.6498 150.719 75.4396 149.558 75.0099C148.524 74.6223 147.588 74.0111 146.818 73.2199C146.047 72.4176 145.457 71.4594 145.088 70.41C144.664 69.2164 144.457 67.9565 144.478 66.6899C144.463 65.4447 144.635 64.2042 144.988 63.0099C145.289 61.9759 145.796 61.0134 146.478 60.1799C147.127 59.4005 147.944 58.7782 148.868 58.3599C149.903 57.9294 151.018 57.7248 152.138 57.7599C152.879 57.7474 153.618 57.8486 154.328 58.06C154.891 58.234 155.439 58.4514 155.968 58.7099V53.6099L159.968 52.95L159.938 74.6799ZM148.578 66.59C148.49 68.0638 148.929 69.5209 149.818 70.7C150.238 71.196 150.767 71.5884 151.364 71.8468C151.961 72.1053 152.609 72.2227 153.258 72.1899C153.799 72.1929 154.34 72.1662 154.878 72.1099C155.247 72.0686 155.615 72.0085 155.978 71.9299V62.1099C155.543 61.8318 155.076 61.6069 154.588 61.4399C153.994 61.2295 153.368 61.1246 152.738 61.13C152.129 61.0816 151.518 61.1915 150.965 61.4491C150.411 61.7067 149.933 62.1032 149.578 62.5999C148.853 63.7998 148.504 65.1898 148.578 66.59Z" fill="#1D1D1B"/>
<path d="M169.07 72.36C169.852 72.4075 170.635 72.2776 171.36 71.98C171.594 71.8603 171.787 71.6738 171.916 71.4442C172.044 71.2146 172.101 70.9522 172.08 70.69C172.081 70.4091 172.012 70.1323 171.877 69.8857C171.742 69.6391 171.547 69.4307 171.31 69.28C170.519 68.7753 169.669 68.369 168.78 68.07C168.097 67.8296 167.43 67.5491 166.78 67.23C166.217 66.9693 165.692 66.6329 165.22 66.23C164.789 65.8338 164.448 65.3495 164.22 64.81C163.957 64.1765 163.828 63.4957 163.84 62.81C163.811 62.0974 163.954 61.3881 164.256 60.7423C164.559 60.0965 165.013 59.5332 165.58 59.1C166.951 58.1269 168.611 57.6474 170.29 57.74C171.257 57.7342 172.222 57.828 173.17 58.02C173.874 58.1421 174.566 58.3228 175.24 58.56L174.51 61.77C173.971 61.536 173.412 61.3518 172.84 61.22C172.069 61.0497 171.28 60.9691 170.49 60.98C169.8 60.9493 169.113 61.0902 168.49 61.39C168.256 61.5045 168.061 61.6846 167.927 61.9084C167.794 62.1321 167.729 62.3899 167.74 62.65C167.735 62.9079 167.787 63.1638 167.89 63.4C168.009 63.6413 168.184 63.8504 168.4 64.01C168.711 64.2309 169.047 64.4155 169.4 64.56C169.869 64.7803 170.349 64.9739 170.84 65.14C171.655 65.4282 172.453 65.7621 173.23 66.14C173.823 66.4393 174.368 66.8233 174.85 67.28C175.263 67.693 175.58 68.1913 175.78 68.74C175.994 69.3843 176.092 70.0615 176.07 70.74C176.112 71.4632 175.968 72.185 175.651 72.8364C175.334 73.4878 174.855 74.0468 174.26 74.46C172.697 75.3955 170.888 75.8348 169.07 75.72C167.845 75.75 166.622 75.6223 165.43 75.34C164.777 75.1724 164.133 74.9722 163.5 74.74L164.19 71.43C164.879 71.703 165.583 71.9335 166.3 72.12C167.209 72.3189 168.14 72.3996 169.07 72.36Z" fill="#1D1D1B"/>
<path d="M94.2106 104.05C96.4006 104.05 97.4906 103.3 97.4906 101.8C97.5066 101.387 97.4062 100.978 97.2007 100.62C96.9973 100.289 96.7285 100.003 96.4106 99.78C96.0606 99.5282 95.6811 99.32 95.2806 99.16L93.9307 98.64C93.3983 98.4621 92.8772 98.2517 92.3706 98.01C91.9086 97.7893 91.4808 97.503 91.1006 97.16C90.7378 96.8423 90.4479 96.4501 90.2506 96.01C90.0265 95.5 89.9173 94.9469 89.9307 94.39C89.9016 93.8095 90.0074 93.2302 90.2399 92.6975C90.4724 92.1649 90.8252 91.6933 91.2706 91.32C92.3343 90.5334 93.6398 90.1442 94.9606 90.22C95.7961 90.2127 96.6294 90.3101 97.4407 90.51C98.0129 90.6409 98.5623 90.8566 99.0707 91.15L98.4006 92.85C97.974 92.6138 97.5209 92.4292 97.0507 92.3C96.3708 92.1088 95.6667 92.0179 94.9606 92.03C94.5835 92.031 94.2078 92.0746 93.8406 92.16C93.5185 92.2409 93.2114 92.3726 92.9307 92.55C92.6759 92.7162 92.4663 92.943 92.3207 93.21C92.1642 93.4982 92.0848 93.8221 92.0906 94.15C92.082 94.4986 92.1648 94.8433 92.3306 95.15C92.5016 95.4339 92.7298 95.6791 93.0006 95.87C93.3134 96.094 93.6485 96.2851 94.0006 96.44C94.3806 96.62 94.8106 96.79 95.2706 96.96C95.9206 97.22 96.5107 97.48 97.0507 97.74C97.5628 97.9753 98.0352 98.2891 98.4507 98.67C98.8494 99.0223 99.1637 99.4598 99.3706 99.95C99.6041 100.521 99.7166 101.134 99.7007 101.75C99.7258 102.33 99.6075 102.907 99.3563 103.43C99.1051 103.954 98.7288 104.407 98.2606 104.75C97.0723 105.516 95.6723 105.887 94.2606 105.81C93.715 105.814 93.1699 105.773 92.6306 105.69C92.1306 105.61 91.6907 105.51 91.3007 105.41C90.9601 105.315 90.626 105.198 90.3007 105.06C90.0739 104.972 89.8533 104.868 89.6406 104.75L90.2606 103.02C90.7445 103.274 91.2498 103.485 91.7706 103.65C92.5576 103.912 93.3812 104.047 94.2106 104.05Z" fill="#1D1D1B"/>
<path d="M101.988 94.95C102.448 94.84 103.048 94.71 103.808 94.58C104.678 94.4432 105.558 94.3797 106.438 94.39C107.054 94.3743 107.668 94.4727 108.248 94.68C108.718 94.8646 109.139 95.1555 109.478 95.53L109.958 95.23C110.212 95.0781 110.48 94.9509 110.758 94.85C111.101 94.72 111.452 94.6131 111.808 94.53C112.221 94.4308 112.644 94.3838 113.068 94.39C113.791 94.3649 114.51 94.4944 115.178 94.77C115.701 94.9969 116.149 95.3681 116.468 95.84C116.792 96.3325 117.006 96.8882 117.098 97.47C117.205 98.1582 117.259 98.8536 117.258 99.55V105.86H115.258V99.98C115.266 99.4117 115.232 98.8436 115.158 98.28C115.114 97.8643 114.992 97.4607 114.798 97.09C114.628 96.7873 114.37 96.5433 114.058 96.39C113.682 96.2199 113.271 96.1411 112.858 96.16C112.289 96.1417 111.722 96.2334 111.188 96.43C110.866 96.545 110.563 96.7067 110.288 96.91C110.411 97.3151 110.498 97.73 110.548 98.15C110.61 98.6142 110.64 99.0819 110.638 99.55V105.86H108.638V99.98C108.643 99.4115 108.606 98.8433 108.528 98.28C108.478 97.863 108.349 97.4592 108.148 97.09C107.985 96.7856 107.729 96.5406 107.418 96.39C107.048 96.2219 106.644 96.1431 106.238 96.16H105.588H104.928L104.358 96.24L104.008 96.31V105.79H102.008L101.988 94.95Z" fill="#1D1D1B"/>
<path d="M124.141 94.13C124.82 94.1162 125.497 94.2211 126.141 94.44C126.652 94.6249 127.112 94.9302 127.481 95.33C127.826 95.719 128.073 96.1855 128.201 96.69C128.355 97.2569 128.429 97.8426 128.421 98.43V105.43L127.691 105.54C127.381 105.6 127.031 105.64 126.691 105.69L125.431 105.81C124.981 105.81 124.531 105.86 124.081 105.86C123.492 105.861 122.905 105.798 122.331 105.67C121.835 105.553 121.367 105.343 120.951 105.05C120.557 104.764 120.244 104.382 120.041 103.94C119.816 103.413 119.706 102.843 119.721 102.27C119.701 101.715 119.833 101.166 120.101 100.68C120.337 100.241 120.681 99.8694 121.101 99.6C121.564 99.3095 122.075 99.103 122.611 98.99C123.208 98.86 123.819 98.7963 124.431 98.8H125.061C125.266 98.8188 125.469 98.8488 125.671 98.89L126.181 98.98L126.481 99.05V98.49C126.484 98.1535 126.448 97.8177 126.371 97.49C126.305 97.1783 126.172 96.8848 125.981 96.63C125.783 96.3654 125.522 96.1554 125.221 96.02C124.818 95.858 124.385 95.783 123.951 95.8C123.368 95.7902 122.785 95.8371 122.211 95.94C121.832 96.0017 121.461 96.0988 121.101 96.23L120.861 94.57C121.28 94.4092 121.716 94.2952 122.161 94.23C122.816 94.1372 123.479 94.1037 124.141 94.13ZM124.311 104.2C124.781 104.2 125.211 104.2 125.571 104.2C125.88 104.186 126.187 104.149 126.491 104.09V100.74C126.267 100.644 126.032 100.58 125.791 100.55C125.4 100.498 125.005 100.474 124.611 100.48C124.276 100.48 123.942 100.5 123.611 100.54C123.289 100.585 122.976 100.676 122.681 100.81C122.41 100.945 122.172 101.136 121.981 101.37C121.782 101.642 121.683 101.974 121.701 102.31C121.67 102.599 121.717 102.891 121.839 103.155C121.96 103.419 122.151 103.646 122.391 103.81C122.974 104.109 123.627 104.244 124.281 104.2H124.311Z" fill="#1D1D1B"/>
<path d="M135.788 94.39H136.388C136.608 94.39 136.828 94.42 137.048 94.48L137.638 94.59C137.774 94.61 137.908 94.6401 138.038 94.68L137.698 96.43C137.538 96.43 137.268 96.31 136.908 96.23C136.441 96.141 135.965 96.1008 135.488 96.11C135.115 96.1103 134.743 96.1505 134.378 96.23L133.648 96.39V105.83H131.648V95.1C132.227 94.9002 132.818 94.7398 133.418 94.62C134.197 94.4554 134.992 94.3782 135.788 94.39Z" fill="#1D1D1B"/>
<path d="M141.761 94.37H146.011V96.05H141.761V101.23C141.75 101.7 141.794 102.17 141.891 102.63C141.948 102.943 142.078 103.238 142.271 103.49C142.443 103.697 142.667 103.852 142.921 103.94C143.216 104.029 143.523 104.073 143.831 104.07C144.326 104.086 144.821 104.015 145.291 103.86L146.051 103.57L146.441 105.23C146.099 105.385 145.744 105.512 145.381 105.61C144.822 105.77 144.243 105.847 143.661 105.84C143.019 105.859 142.378 105.761 141.771 105.55C141.298 105.372 140.883 105.067 140.571 104.67C140.248 104.247 140.029 103.754 139.931 103.23C139.801 102.571 139.741 101.901 139.751 101.23V91.23L141.751 90.89L141.761 94.37Z" fill="#1D1D1B"/>
<path d="M162.601 98.19H164.701V105.19C164.521 105.25 164.271 105.31 163.951 105.38C163.631 105.45 163.251 105.53 162.831 105.6C162.411 105.67 161.941 105.73 161.431 105.78C160.921 105.83 160.431 105.86 159.901 105.86C158.92 105.875 157.945 105.698 157.031 105.34C156.185 105.007 155.424 104.491 154.801 103.83C154.156 103.128 153.668 102.296 153.371 101.39C153.014 100.317 152.841 99.1908 152.861 98.06C152.842 96.9209 153.035 95.7882 153.431 94.72C153.776 93.8064 154.303 92.9727 154.981 92.27C155.62 91.6087 156.394 91.0936 157.251 90.76C158.142 90.4092 159.093 90.2326 160.051 90.24C160.657 90.2379 161.262 90.2814 161.861 90.37C162.316 90.4454 162.767 90.5456 163.211 90.67C163.523 90.7628 163.827 90.8798 164.121 91.02C164.29 91.0944 164.454 91.1813 164.611 91.28L163.941 93.03C163.429 92.714 162.868 92.4843 162.281 92.35C161.589 92.1698 160.876 92.0791 160.161 92.08C159.446 92.0664 158.737 92.2062 158.081 92.49C157.462 92.7513 156.913 93.1557 156.481 93.67C156.032 94.2315 155.692 94.8727 155.481 95.56C155.228 96.369 155.103 97.2125 155.111 98.06C155.103 98.8842 155.211 99.7055 155.431 100.5C155.629 101.193 155.97 101.836 156.431 102.39C156.851 102.914 157.389 103.332 158.001 103.61C158.7 103.916 159.458 104.066 160.221 104.05C160.736 104.053 161.251 104.019 161.761 103.95C162.071 103.906 162.379 103.843 162.681 103.76L162.601 98.19Z" fill="#1D1D1B"/>
<path d="M171.89 94.39H172.48C172.701 94.4088 172.922 94.4388 173.14 94.48L173.74 94.59C173.875 94.6101 174.009 94.6401 174.14 94.68L173.79 96.43C173.63 96.43 173.37 96.31 173 96.23C172.535 96.1414 172.063 96.1012 171.59 96.11C171.217 96.1092 170.844 96.1495 170.48 96.23L169.75 96.39V105.83H167.75V95.1C168.329 94.9028 168.92 94.7424 169.52 94.62C170.299 94.4567 171.094 94.3795 171.89 94.39Z" fill="#1D1D1B"/>
<path d="M185.888 99.98C185.901 100.803 185.769 101.622 185.498 102.4C185.26 103.085 184.89 103.717 184.408 104.26C183.942 104.777 183.369 105.187 182.728 105.46C182.062 105.745 181.343 105.888 180.618 105.88C179.89 105.888 179.169 105.745 178.498 105.46C177.86 105.189 177.289 104.779 176.828 104.26C176.343 103.72 175.973 103.087 175.738 102.4C175.468 101.622 175.336 100.803 175.348 99.98C175.339 99.1602 175.471 98.3449 175.738 97.57C175.97 96.8818 176.341 96.2486 176.828 95.71C177.289 95.1909 177.86 94.781 178.498 94.51C179.166 94.2173 179.889 94.0707 180.618 94.08C181.344 94.0706 182.064 94.2173 182.728 94.51C183.369 94.7831 183.942 95.1926 184.408 95.71C184.892 96.2511 185.263 96.8835 185.498 97.57C185.766 98.3449 185.898 99.1602 185.888 99.98ZM183.788 99.98C183.845 98.9135 183.546 97.8585 182.939 96.98C182.67 96.6212 182.319 96.3328 181.915 96.1394C181.511 95.9461 181.066 95.8537 180.618 95.87C180.169 95.8537 179.723 95.9461 179.317 96.1394C178.912 96.3327 178.559 96.621 178.288 96.98C177.685 97.8605 177.387 98.9141 177.439 99.98C177.389 101.046 177.687 102.099 178.288 102.98C178.559 103.339 178.912 103.627 179.317 103.821C179.723 104.014 180.169 104.106 180.618 104.09C181.066 104.106 181.511 104.014 181.915 103.821C182.319 103.627 182.67 103.339 182.939 102.98C183.544 102.101 183.842 101.046 183.788 99.98Z" fill="#1D1D1B"/>
<path d="M197.508 105.86C197.108 104.86 196.678 103.64 196.228 102.3C195.778 100.96 195.358 99.59 194.978 98.15C194.608 99.59 194.198 100.97 193.748 102.3C193.298 103.63 192.878 104.82 192.478 105.86H190.728C190.068 104.38 189.418 102.68 188.778 100.78C188.138 98.88 187.548 96.78 186.988 94.63H189.148C189.288 95.3 189.468 96.04 189.668 96.83C189.868 97.62 190.078 98.41 190.308 99.21C190.538 100.01 190.758 100.76 191.008 101.49C191.258 102.22 191.478 102.87 191.698 103.42C191.948 102.74 192.188 102.02 192.418 101.27C192.648 100.52 192.888 99.75 193.098 98.98C193.308 98.21 193.528 97.45 193.718 96.71C193.908 95.97 194.078 95.27 194.228 94.63H195.888C196.018 95.27 196.178 95.97 196.368 96.71C196.558 97.45 196.758 98.21 196.968 98.98C197.178 99.75 197.408 100.51 197.648 101.27C197.888 102.03 198.128 102.74 198.378 103.42C198.588 102.87 198.818 102.23 199.048 101.49C199.278 100.75 199.528 100 199.758 99.21C199.988 98.42 200.198 97.62 200.408 96.83C200.618 96.04 200.778 95.3 200.918 94.63H202.998C202.438 96.83 201.838 98.88 201.198 100.78C200.568 102.68 199.918 104.38 199.258 105.86H197.508Z" fill="#1D1D1B"/>
<path d="M206.89 94.37H211.14V96.05H206.89V101.23C206.879 101.7 206.922 102.17 207.02 102.63C207.074 102.945 207.208 103.242 207.41 103.49C207.576 103.698 207.798 103.854 208.05 103.94C208.345 104.029 208.652 104.073 208.96 104.07C209.455 104.087 209.95 104.016 210.42 103.86L211.19 103.57L211.58 105.23C211.236 105.381 210.882 105.508 210.52 105.61C209.957 105.769 209.375 105.847 208.79 105.84C208.148 105.858 207.507 105.76 206.9 105.55C206.427 105.372 206.012 105.067 205.7 104.67C205.381 104.245 205.162 103.752 205.06 103.23C204.93 102.571 204.87 101.901 204.88 101.23V91.23L206.88 90.89L206.89 94.37Z" fill="#1D1D1B"/>
<path d="M213.578 105.86V89.44L215.578 89.09V94.84C215.968 94.6971 216.37 94.5868 216.778 94.51C217.194 94.4313 217.615 94.3912 218.038 94.39C218.799 94.3672 219.557 94.4964 220.268 94.77C220.815 94.9782 221.301 95.3224 221.678 95.77C222.05 96.2524 222.306 96.8133 222.428 97.41C222.578 98.0965 222.651 98.7974 222.648 99.5V105.81H220.648V99.93C220.655 99.337 220.608 98.7446 220.508 98.16C220.439 97.7341 220.279 97.3282 220.038 96.97C219.824 96.6686 219.525 96.4386 219.178 96.31C218.746 96.1676 218.293 96.0999 217.838 96.11C217.615 96.0953 217.391 96.0953 217.168 96.11L216.508 96.21L215.948 96.33C215.825 96.3568 215.705 96.3936 215.588 96.44V105.77L213.578 105.86Z" fill="#1D1D1B"/>
</svg>
