<svg width="395" height="116" viewBox="0 0 395 116" fill="none" xmlns="http://www.w3.org/2000/svg">
<path d="M172.859 0.0133057H0.015625V59.8481H172.859V0.0133057Z" fill="white"/>
<path d="M172.859 57.6315H0.015625V115.25H172.859V57.6315Z" fill="#B61F2B"/>
<path d="M172.844 0H0V115.237H172.844V0ZM172.299 114.693H0.544597V0.557195H172.299V114.693Z" fill="#878787"/>
<path d="M361.065 46.3609C361.482 47.7195 362.181 48.9751 363.116 50.0459C364.079 51.1053 365.27 51.9323 366.598 52.4646C368.171 53.0777 369.85 53.3746 371.537 53.3384C372.727 53.3407 373.915 53.2262 375.083 52.9965C375.955 52.8474 376.806 52.5923 377.616 52.2367L376.907 47.9944C376.188 48.2706 375.446 48.4825 374.69 48.6276C373.856 48.7914 373.008 48.8762 372.158 48.8809C371.221 48.9838 370.274 48.863 369.393 48.5284C368.513 48.1937 367.724 47.6548 367.092 46.956C366.031 45.4209 365.51 43.5768 365.611 41.7134C365.488 39.8105 366.044 37.9258 367.181 36.3947C367.746 35.7495 368.453 35.2436 369.246 34.9163C370.039 34.589 370.897 34.4492 371.752 34.5079C372.557 34.499 373.361 34.584 374.146 34.7611C374.84 34.9077 375.518 35.1198 376.172 35.3943L377.274 31.2027C375.39 30.4299 373.371 30.0383 371.335 30.0503C369.761 30.0233 368.2 30.3253 366.75 30.9368C365.429 31.5221 364.25 32.386 363.293 33.4695C362.324 34.5464 361.583 35.8086 361.115 37.1798C360.591 38.6551 360.329 40.211 360.343 41.7767C360.328 43.3519 360.559 44.9198 361.027 46.4242L361.065 46.3609ZM354.695 21.8444C354.093 21.2861 353.299 20.9821 352.479 20.9959C351.65 20.9768 350.846 21.2811 350.237 21.8444C349.922 22.1421 349.675 22.5045 349.513 22.9067C349.352 23.3089 349.279 23.7415 349.3 24.1745C349.282 24.6015 349.356 25.0275 349.518 25.4231C349.68 25.8187 349.925 26.1747 350.237 26.4666C350.846 27.0298 351.65 27.3342 352.479 27.315C353.299 27.3289 354.093 27.0249 354.695 26.4666C355.005 26.1741 355.249 25.8177 355.409 25.422C355.568 25.0263 355.64 24.6006 355.619 24.1745C355.642 23.7424 355.572 23.3105 355.412 22.9083C355.252 22.5061 355.008 22.1432 354.695 21.8444ZM355.075 30.7088H350.009V52.7812H355.075V30.7088ZM345.742 49.0835C345.169 49.0233 344.604 48.9001 344.058 48.7163C343.65 48.5666 343.291 48.3082 343.019 47.9691C342.748 47.6597 342.565 47.2838 342.487 46.8801C342.376 46.3643 342.325 45.8373 342.335 45.3098V19.8689L337.207 20.7174V46.2469C337.19 47.2419 337.309 48.2346 337.561 49.1975C337.782 50.0195 338.219 50.7673 338.827 51.3629C339.513 51.97 340.333 52.4042 341.221 52.6293C342.456 52.9817 343.735 53.1565 345.02 53.1485L345.742 49.0835ZM331.343 37.1039C330.956 35.77 330.315 34.5232 329.457 33.4315C328.63 32.4157 327.576 31.6089 326.379 31.0761C325.06 30.5109 323.636 30.2304 322.2 30.2529C321.233 30.2423 320.269 30.3702 319.338 30.6328C318.582 30.8422 317.848 31.1265 317.148 31.4813V19.8689L312.019 20.7174V52.1101C313.269 52.4634 314.537 52.7466 315.818 52.9585C317.426 53.2168 319.052 53.3438 320.681 53.3384C322.287 53.359 323.884 53.0843 325.392 52.528C326.727 52.0215 327.933 51.2258 328.925 50.1979C329.922 49.143 330.69 47.8925 331.179 46.5255C331.72 44.9797 331.986 43.351 331.964 41.7134C331.978 40.1151 331.756 38.5234 331.305 36.9899L331.343 37.1039ZM325.088 46.956C324.541 47.5961 323.855 48.1024 323.082 48.4361C322.31 48.7697 321.471 48.9219 320.63 48.8809C319.932 48.8845 319.235 48.8507 318.541 48.7796C317.958 48.7036 317.49 48.6276 317.11 48.539V35.7742C317.686 35.4123 318.308 35.1271 318.959 34.9257C319.73 34.6686 320.539 34.5403 321.352 34.5458C322.141 34.4832 322.933 34.6265 323.65 34.9617C324.367 35.2969 324.984 35.8125 325.442 36.458C326.37 38.0155 326.811 39.8148 326.709 41.6247C326.822 43.5364 326.252 45.4262 325.1 46.956H325.088ZM305.472 30.5948H300.331V48.539C299.823 48.6547 299.306 48.7267 298.786 48.7542C298.089 48.7542 297.431 48.8429 296.81 48.8429C296.126 48.9172 295.434 48.8154 294.8 48.5472C294.166 48.279 293.612 47.8534 293.188 47.3106C292.371 45.7539 292.011 43.9978 292.15 42.2452V30.5948H287.009V43.0304C287.001 44.4202 287.158 45.806 287.477 47.1587C287.756 48.3429 288.288 49.453 289.035 50.4132C289.797 51.352 290.786 52.0801 291.909 52.528C293.337 53.0797 294.862 53.3382 296.392 53.2878C298.139 53.3011 299.884 53.1698 301.61 52.8952C303.193 52.6166 304.472 52.3633 305.409 52.1101L305.472 30.5948ZM281.183 36.9266C280.701 35.564 279.932 34.3205 278.929 33.2795C277.931 32.2634 276.726 31.4732 275.396 30.9621C273.888 30.4103 272.291 30.1399 270.685 30.1643C269.065 30.1584 267.447 30.2854 265.848 30.5442C264.328 30.7975 263.037 31.0634 262.049 31.342V60.6326H267.178V52.0214C267.863 52.38 268.585 52.6644 269.33 52.8699C270.27 53.1304 271.242 53.2582 272.218 53.2498C273.656 53.2766 275.083 52.987 276.397 52.4013C277.594 51.8592 278.648 51.0438 279.474 50.0206C280.327 48.9395 280.968 47.7062 281.361 46.3862C281.81 44.8696 282.032 43.2949 282.019 41.7134C282.041 40.0757 281.775 38.447 281.234 36.9013L281.183 36.9266ZM275.46 46.9307C275.002 47.5762 274.384 48.0918 273.667 48.427C272.95 48.7622 272.158 48.9055 271.369 48.8429C270.554 48.8464 269.744 48.7093 268.976 48.4377C268.34 48.2287 267.735 47.9348 267.178 47.5639V34.9004C267.682 34.7576 268.2 34.6643 268.723 34.6218C269.242 34.6218 269.748 34.6218 270.23 34.6218C271.15 34.5356 272.079 34.6634 272.942 34.9951C273.805 35.3268 274.58 35.8534 275.206 36.534C276.331 38.0799 276.882 39.9697 276.764 41.878C276.863 43.6756 276.422 45.4619 275.498 47.0067L275.46 46.9307ZM241.977 39.5859C242.058 38.9324 242.216 38.2906 242.446 37.6737C242.659 37.0712 242.981 36.5131 243.396 36.0275C243.811 35.5379 244.324 35.141 244.903 34.8624C245.548 34.5461 246.261 34.3898 246.979 34.4065C247.66 34.392 248.335 34.5305 248.955 34.8118C249.495 35.0722 249.97 35.4484 250.348 35.9135C250.74 36.4073 251.036 36.9699 251.222 37.5724C251.423 38.2243 251.521 38.9037 251.513 39.5859H241.977ZM237.305 46.4748C237.73 47.824 238.438 49.0672 239.381 50.1219C240.37 51.1917 241.592 52.0193 242.952 52.5406C244.57 53.1521 246.289 53.4487 248.018 53.4144C248.767 53.4108 249.515 53.3685 250.259 53.2878C250.994 53.1991 251.678 53.0978 252.323 52.9712C252.969 52.8445 253.526 52.6926 254.02 52.5406C254.419 52.4216 254.808 52.2735 255.185 52.0974L254.502 47.8931C253.714 48.2047 252.9 48.4462 252.07 48.615C250.946 48.8517 249.8 48.9663 248.651 48.9569C246.907 49.0785 245.178 48.5608 243.788 47.5006C243.213 46.9714 242.75 46.3323 242.426 45.6211C242.102 44.9098 241.923 44.1409 241.901 43.3596H256.54C256.54 43.081 256.54 42.7644 256.54 42.4099C256.54 42.0553 256.54 41.7387 256.54 41.4474C256.54 37.6822 255.696 34.8582 254.008 32.9756C253.097 32.0091 251.985 31.2533 250.752 30.7612C249.518 30.269 248.192 30.0523 246.865 30.1263C245.563 30.1338 244.274 30.3873 243.066 30.8734C241.823 31.3691 240.697 32.1197 239.761 33.0769C238.747 34.1302 237.958 35.38 237.444 36.7493C236.85 38.3709 236.558 40.0878 236.583 41.8147C236.563 43.3727 236.789 44.9242 237.254 46.4115L237.305 46.4748ZM222.286 27.9608C223.082 28.0869 223.849 28.3527 224.552 28.746C225.167 29.0983 225.674 29.6103 226.021 30.2276C226.375 30.9388 226.549 31.7258 226.528 32.5197C226.555 33.3426 226.381 34.1598 226.021 34.9004C225.669 35.5269 225.147 36.0406 224.515 36.382C223.724 36.7883 222.865 37.0458 221.982 37.1419C220.845 37.2991 219.698 37.371 218.55 37.3571H216.207V27.8595C217.17 27.7709 218.221 27.7329 219.348 27.7329C220.315 27.7262 221.281 27.8024 222.235 27.9608H222.286ZM215.03 23.2627C213.628 23.3409 212.235 23.5315 210.863 23.8326V52.7812H216.207V41.6374H219.601C219.88 41.6374 220.222 41.6374 220.627 41.6374C221.159 42.3212 221.741 43.0937 222.362 43.9548C222.982 44.8159 223.628 45.7403 224.248 46.7154C224.869 47.6905 225.515 48.6909 226.135 49.7167C226.756 50.7424 227.402 51.7808 227.87 52.7939H233.86C233.341 51.6922 232.771 50.5651 232.113 49.4254C231.454 48.2857 230.846 47.1586 230.086 46.0696C229.327 44.9805 228.681 43.9801 227.997 43.043C227.313 42.1059 226.731 41.3208 226.186 40.6623C230.112 39.2567 232.075 36.5467 232.075 32.5703C232.168 31.1933 231.907 29.8154 231.317 28.5675C230.728 27.3196 229.829 26.2433 228.706 25.4408C226.452 23.879 223.206 23.1023 218.968 23.1107C217.803 23.1107 216.499 23.1107 215.03 23.2627Z" fill="#1D1D1B"/>
<path d="M394.003 61.8991L388.862 62.7475V73.3975C388.184 73.0506 387.476 72.7666 386.747 72.549C385.825 72.2825 384.869 72.1544 383.91 72.1691C382.466 72.1407 381.033 72.4213 379.706 72.9923C378.508 73.5343 377.447 74.3394 376.603 75.3477C375.721 76.4296 375.066 77.6787 374.678 79.0201C374.22 80.5692 373.998 82.1787 374.02 83.7942C373.993 85.4322 374.259 87.0618 374.805 88.6063C375.284 89.9678 376.048 91.2112 377.047 92.2534C378.05 93.2695 379.259 94.0596 380.592 94.5708C382.1 95.1237 383.697 95.3941 385.303 95.3686C386.927 95.3745 388.55 95.2474 390.153 94.9887C391.437 94.7895 392.706 94.5061 393.952 94.1402L394.003 61.8991ZM380.567 78.4882C381.029 77.8435 381.649 77.3287 382.368 76.9938C383.086 76.6588 383.879 76.5149 384.67 76.576C385.485 76.5725 386.295 76.7096 387.063 76.9812C387.696 77.1982 388.3 77.4917 388.862 77.855V90.5185C388.393 90.6228 387.92 90.7031 387.443 90.7591C386.745 90.8372 386.043 90.871 385.341 90.8604C384.502 90.9014 383.665 90.7491 382.895 90.4154C382.124 90.0816 381.44 89.5753 380.896 88.9355C379.743 87.4108 379.168 85.5258 379.275 83.6169C379.172 81.8028 379.613 79.9992 380.542 78.4375L380.567 78.4882ZM350.441 94.8241H355.506V76.8926C355.848 76.8926 356.367 76.766 357.076 76.69C357.752 76.6012 358.433 76.5547 359.115 76.5507C359.874 76.5328 360.63 76.6573 361.344 76.9179C361.928 77.1452 362.431 77.5422 362.787 78.0576C363.167 78.6834 363.425 79.3751 363.547 80.0965C363.713 81.1009 363.789 82.1179 363.775 83.1357V94.8241H368.841V82.3632C368.856 80.9703 368.707 79.5804 368.397 78.2223C368.145 77.0475 367.625 75.9468 366.878 75.0057C366.099 74.0776 365.096 73.3629 363.965 72.9289C362.516 72.3922 360.977 72.1385 359.432 72.1818C357.668 72.1702 355.907 72.2972 354.164 72.5617C352.883 72.7605 351.615 73.0311 350.365 73.3722L350.441 94.8241ZM331.179 72.4351C330.219 72.5933 329.27 72.8219 328.343 73.1189L328.976 77.2725C329.763 77.0013 330.572 76.8021 331.395 76.6773C332.475 76.5032 333.568 76.4185 334.662 76.4241C335.403 76.4014 336.142 76.5173 336.84 76.766C337.379 76.9641 337.861 77.2901 338.246 77.7157C338.596 78.1262 338.847 78.6114 338.98 79.134C339.13 79.6871 339.202 80.2581 339.195 80.8309V81.6794C338.539 81.526 337.876 81.4077 337.207 81.3248C336.615 81.251 336.019 81.2129 335.422 81.2108C334.247 81.2082 333.075 81.3313 331.927 81.5781C330.878 81.789 329.877 82.1926 328.976 82.7684C328.139 83.3052 327.447 84.0403 326.963 84.9086C326.439 85.8979 326.181 87.0063 326.215 88.1251C326.177 89.2792 326.402 90.4269 326.874 91.4809C327.294 92.3524 327.92 93.1086 328.697 93.6843C329.542 94.2957 330.503 94.7268 331.521 94.9507C332.719 95.2142 333.942 95.3417 335.168 95.3306C336.977 95.3457 338.785 95.2272 340.576 94.976C342.171 94.7354 343.374 94.5328 344.16 94.3555V80.8942C344.169 79.6813 344.02 78.4722 343.716 77.2978C343.443 76.2715 342.936 75.3224 342.235 74.5245C341.465 73.714 340.509 73.1052 339.449 72.7516C338.07 72.2905 336.621 72.0762 335.168 72.1185C333.832 72.1074 332.496 72.2176 331.179 72.4477V72.4351ZM332.446 90.5311C332.044 90.252 331.726 89.8689 331.525 89.4227C331.324 88.9766 331.249 88.4843 331.306 87.9984C331.284 87.4529 331.43 86.9137 331.724 86.4535C332.01 86.0435 332.399 85.716 332.851 85.5037C333.346 85.2634 333.876 85.1051 334.421 85.0352C334.991 84.9489 335.567 84.9066 336.144 84.9086C336.737 84.9025 337.33 84.9448 337.916 85.0352C338.345 85.0842 338.768 85.169 339.183 85.2885V90.9744C337.99 91.1697 336.782 91.2545 335.574 91.2276C334.498 91.2775 333.43 91.0323 332.484 90.5185L332.446 90.5311ZM323.619 91.0123C323.052 90.951 322.492 90.8323 321.948 90.6578C321.547 90.5264 321.188 90.2903 320.909 89.9739C320.644 89.6662 320.46 89.2957 320.378 88.8976C320.267 88.3816 320.216 87.8548 320.226 87.3273V61.8991L315.16 62.7475V88.2897C315.145 89.2806 315.264 90.2689 315.515 91.2276C315.733 92.0547 316.17 92.8074 316.781 93.4057C317.469 94.0084 318.289 94.4421 319.174 94.6721C320.412 95.0116 321.69 95.182 322.974 95.1786L323.619 91.0123ZM303.193 89.0242C302.747 89.6534 302.151 90.1613 301.459 90.5019C300.767 90.8424 300 91.0048 299.23 90.9744C298.459 91.0037 297.693 90.8408 297.001 90.5003C296.309 90.1599 295.713 89.6526 295.266 89.0242C294.243 87.4503 293.747 85.5924 293.848 83.7182C293.744 81.8676 294.242 80.0331 295.266 78.4882C295.713 77.8613 296.31 77.3559 297.002 77.0176C297.694 76.6793 298.46 76.5188 299.23 76.5507C299.999 76.5177 300.765 76.6776 301.457 77.016C302.15 77.3544 302.746 77.8605 303.193 78.4882C304.217 80.0331 304.715 81.8676 304.612 83.7182C304.712 85.5924 304.216 87.4503 303.193 89.0242ZM309.094 78.8934C308.607 77.5399 307.863 76.293 306.904 75.221C305.968 74.1999 304.818 73.3997 303.535 72.8783C302.17 72.3156 300.706 72.0356 299.23 72.0552C297.762 72.0344 296.305 72.3145 294.949 72.8783C293.67 73.4059 292.521 74.2052 291.581 75.221C290.609 76.2885 289.856 77.5362 289.365 78.8934C288.831 80.4276 288.569 82.0433 288.592 83.6675C288.568 85.296 288.829 86.9162 289.365 88.4543C289.843 89.8196 290.588 91.0764 291.555 92.1521C292.494 93.1679 293.632 93.9785 294.899 94.5328C296.269 95.1075 297.743 95.3962 299.23 95.3812C300.724 95.3947 302.206 95.1061 303.586 94.5328C304.862 93.9821 306.009 93.1713 306.954 92.1521C307.914 91.0751 308.65 89.8182 309.12 88.4543C309.644 86.9137 309.901 85.2948 309.88 83.6675C309.898 82.0426 309.633 80.4268 309.094 78.8934ZM275.967 69.953C276.778 70.0814 277.562 70.3469 278.284 70.7382C278.921 71.0956 279.446 71.6214 279.804 72.2578C280.195 73.0024 280.387 73.8357 280.361 74.6765C280.451 75.4865 280.303 76.3053 279.934 77.0321C279.565 77.7588 278.992 78.3618 278.284 78.7668C276.416 79.5858 274.382 79.9586 272.345 79.8558H269.749V69.839C270.635 69.7504 271.75 69.7124 273.105 69.7124C274.064 69.7117 275.021 69.7921 275.967 69.953ZM268.546 65.2422C267.153 65.3276 265.769 65.5181 264.405 65.8121V94.8241H269.749V84.44H272.421C274.347 84.4644 276.27 84.2818 278.158 83.8955C279.664 83.5949 281.099 83.0105 282.387 82.1733C283.528 81.4256 284.447 80.3845 285.046 79.1594C285.689 77.7724 286.001 76.2552 285.958 74.7271C286.062 73.3201 285.802 71.9099 285.204 70.6324C284.605 69.3549 283.687 68.2531 282.539 67.433C280.26 65.8881 276.993 65.1029 272.725 65.1029C271.45 65.1029 270.057 65.1536 268.546 65.2549V65.2422ZM239.559 64.3178C237.969 66.1847 237.162 68.5939 237.305 71.0421V94.8241H242.434V76.8926H250.501V72.6123H242.434V71.1307C242.431 70.4662 242.504 69.8036 242.649 69.1552C242.767 68.5912 243.014 68.0622 243.371 67.6103C243.732 67.169 244.198 66.8251 244.726 66.6099C245.388 66.354 246.094 66.2335 246.803 66.2553C247.496 66.2487 248.188 66.3166 248.867 66.4579C249.443 66.5802 250.004 66.7671 250.539 67.0151L251.514 62.7728C250.848 62.5346 250.167 62.3441 249.475 62.203C248.444 61.9716 247.39 61.8611 246.334 61.8737C245.096 61.7795 243.853 61.9486 242.685 62.3699C241.517 62.7911 240.452 63.455 239.559 64.3178ZM225.326 88.9862C224.879 89.6146 224.282 90.1219 223.59 90.4623C222.898 90.8028 222.133 90.9657 221.362 90.9364C220.591 90.9668 219.825 90.8044 219.133 90.4639C218.441 90.1233 217.845 89.6154 217.398 88.9862C216.376 87.4123 215.879 85.5544 215.98 83.6802C215.877 81.8296 216.374 79.9951 217.398 78.4502C217.845 77.8225 218.442 77.3164 219.134 76.978C219.826 76.6396 220.592 76.4797 221.362 76.5127C222.132 76.4808 222.897 76.6413 223.589 76.9796C224.281 77.3179 224.878 77.8233 225.326 78.4502C226.35 79.9951 226.847 81.8296 226.744 83.6802C226.845 85.5544 226.348 87.4123 225.326 88.9862ZM231.227 78.8554C230.739 77.5019 229.995 76.255 229.036 75.183C228.096 74.1672 226.947 73.3679 225.667 72.8403C224.303 72.2776 222.838 71.9976 221.362 72.0172C219.894 71.995 218.437 72.2752 217.082 72.8403C215.8 73.3709 214.647 74.1697 213.701 75.183C212.728 76.2478 211.979 77.4965 211.497 78.8554C210.959 80.3888 210.693 82.0046 210.712 83.6296C210.692 85.2588 210.957 86.8789 211.497 88.4163C211.971 89.784 212.716 91.0417 213.688 92.1141C214.621 93.1356 215.761 93.9471 217.031 94.4948C218.402 95.0695 219.876 95.3583 221.362 95.3433C222.852 95.3568 224.33 95.0682 225.706 94.4948C226.985 93.9505 228.134 93.1388 229.074 92.1141C230.042 91.0435 230.78 89.7847 231.239 88.4163C231.764 86.8757 232.021 85.2568 231.999 83.6296C232.022 82.0053 231.761 80.3896 231.227 78.8554Z" fill="#1D1D1B"/>
</svg>
