<svg width="554" height="678" viewBox="0 0 554 678" fill="none" xmlns="http://www.w3.org/2000/svg">
<path fill-rule="evenodd" clip-rule="evenodd" d="M104.11 332.04V16.29H480.6V297.36L543.65 330.88L480.6 363.85V671.55L289.3 632.58L104.11 671.55V332.04Z" fill="#004993" stroke="#004993" stroke-width="9.2407" stroke-miterlimit="22.9256"/>
<path fill-rule="evenodd" clip-rule="evenodd" d="M88.9099 4.26001H465.4V285.32L528.45 318.85L465.4 351.82V660.06L274.1 621.09L88.9099 660.06V449.22L5.13989 317.05L88.9099 187.54V4.26001Z" fill="white" stroke="#004993" stroke-width="7.8647" stroke-miterlimit="22.9256"/>
<path d="M367.43 165.84H114.97V172.79H367.43V165.84Z" fill="#004993"/>
<path fill-rule="evenodd" clip-rule="evenodd" d="M413.98 181.13C420.25 181.13 425.36 175.98 425.36 169.66C425.36 163.34 420.25 158.19 413.98 158.19C407.71 158.19 402.6 163.34 402.6 169.66C402.6 175.98 407.72 181.13 413.98 181.13Z" fill="#E3000F"/>
<path fill-rule="evenodd" clip-rule="evenodd" d="M164.95 433.9L430.78 319.53L164.95 205.55H226.23L492.07 319.53L226.23 433.9H164.95Z" fill="#E5202E"/>
<path fill-rule="evenodd" clip-rule="evenodd" d="M44.0801 314.37C44.0801 303.66 46.9701 295.26 52.7301 289.19C58.4901 283.13 65.9301 280.1 75.0501 280.1C81.0201 280.1 86.4001 281.53 91.2001 284.37C95.9901 287.21 99.6401 291.19 102.16 296.29C104.67 301.38 105.94 307.16 105.94 313.61C105.94 320.16 104.62 326.03 101.97 331.19C99.3201 336.37 95.5701 340.28 90.7301 342.93C85.8701 345.59 80.6301 346.92 75.0201 346.92C68.9301 346.92 63.4901 345.45 58.6901 342.51C53.9001 339.58 50.2601 335.57 47.7901 330.49C45.3201 325.41 44.0801 320.04 44.0801 314.37ZM52.9301 314.52C52.9301 322.3 55.0201 328.43 59.2101 332.89C63.3901 337.36 68.6501 339.6 74.9701 339.6C81.4101 339.6 86.6901 337.34 90.8601 332.83C95.0101 328.32 97.0901 321.9 97.0901 313.6C97.0901 308.35 96.2001 303.76 94.4301 299.85C92.6501 295.94 90.0501 292.9 86.6301 290.75C83.2001 288.6 79.3601 287.51 75.1001 287.51C69.0501 287.51 63.8401 289.59 59.4801 293.74C55.1201 297.89 52.9301 304.81 52.9301 314.52Z" fill="#004993"/>
<path fill-rule="evenodd" clip-rule="evenodd" d="M110.11 325.07L118.15 324.35C118.53 327.6 119.41 330.26 120.81 332.36C122.21 334.44 124.38 336.12 127.31 337.42C130.24 338.7 133.56 339.35 137.23 339.35C140.5 339.35 143.37 338.87 145.87 337.89C148.37 336.91 150.22 335.57 151.44 333.87C152.66 332.17 153.28 330.32 153.28 328.33C153.28 326.31 152.69 324.55 151.52 323.03C150.35 321.53 148.4 320.26 145.7 319.22C143.97 318.56 140.13 317.5 134.19 316.07C128.25 314.64 124.09 313.3 121.71 312.04C118.62 310.41 116.34 308.4 114.83 306.01C113.31 303.62 112.56 300.92 112.56 297.96C112.56 294.68 113.49 291.62 115.34 288.8C117.19 285.96 119.88 283.8 123.45 282.33C127 280.86 130.96 280.12 135.31 280.12C140.1 280.12 144.32 280.89 147.98 282.44C151.64 283.98 154.45 286.25 156.42 289.26C158.39 292.25 159.44 295.66 159.6 299.45L151.38 300.08C150.94 296 149.45 292.92 146.91 290.84C144.37 288.75 140.6 287.71 135.64 287.71C130.46 287.71 126.69 288.66 124.32 290.55C121.96 292.45 120.77 294.73 120.77 297.41C120.77 299.73 121.61 301.64 123.28 303.14C124.94 304.63 129.22 306.18 136.18 307.74C143.13 309.32 147.9 310.69 150.49 311.86C154.24 313.59 157.02 315.77 158.81 318.44C160.6 321.09 161.49 324.14 161.49 327.6C161.49 331.05 160.51 334.27 158.54 337.31C156.57 340.35 153.75 342.71 150.07 344.4C146.38 346.09 142.24 346.93 137.62 346.93C131.78 346.93 126.89 346.07 122.95 344.37C118.99 342.67 115.91 340.11 113.66 336.68C111.4 333.25 110.23 329.39 110.11 325.07Z" fill="#004993"/>
<path fill-rule="evenodd" clip-rule="evenodd" d="M215.16 323.16L223.74 325.33C221.95 332.36 218.73 337.7 214.08 341.39C209.43 345.08 203.74 346.93 197.01 346.93C190.06 346.93 184.4 345.52 180.04 342.67C175.68 339.84 172.37 335.73 170.09 330.36C167.82 324.97 166.67 319.21 166.67 313.04C166.67 306.31 167.95 300.44 170.52 295.43C173.09 290.42 176.75 286.61 181.49 284.01C186.23 281.41 191.45 280.11 197.14 280.11C203.61 280.11 209.04 281.75 213.44 285.05C217.85 288.35 220.92 292.97 222.65 298.92L214.25 300.91C212.76 296.21 210.58 292.78 207.73 290.65C204.89 288.5 201.3 287.43 196.99 287.43C192.04 287.43 187.89 288.62 184.56 291C181.23 293.38 178.89 296.58 177.55 300.59C176.2 304.61 175.52 308.75 175.52 313.01C175.52 318.5 176.32 323.3 177.91 327.4C179.51 331.51 181.99 334.56 185.36 336.6C188.73 338.63 192.37 339.64 196.3 339.64C201.09 339.64 205.12 338.26 208.43 335.5C211.74 332.7 213.98 328.6 215.16 323.16Z" fill="#004993"/>
<path fill-rule="evenodd" clip-rule="evenodd" d="M261.26 330.67L269.48 331.75C268.2 336.52 265.81 340.24 262.32 342.87C258.83 345.5 254.37 346.83 248.94 346.83C242.11 346.83 236.69 344.72 232.69 340.51C228.69 336.31 226.69 330.4 226.69 322.8C226.69 314.94 228.71 308.83 232.75 304.5C236.8 300.15 242.05 297.98 248.51 297.98C254.76 297.98 259.86 300.1 263.81 304.36C267.77 308.62 269.75 314.61 269.75 322.33C269.75 322.8 269.74 323.5 269.7 324.44H234.8C235.1 329.57 236.55 333.51 239.16 336.24C241.76 338.96 245.03 340.33 248.93 340.33C251.83 340.33 254.32 339.56 256.36 338.03C258.43 336.49 260.05 334.04 261.26 330.67ZM235.25 317.94H261.34C260.99 314 259.99 311.05 258.35 309.08C255.84 306.03 252.56 304.49 248.54 304.49C244.9 304.49 241.84 305.71 239.36 308.15C236.89 310.58 235.52 313.84 235.25 317.94Z" fill="#004993"/>
<path fill-rule="evenodd" clip-rule="evenodd" d="M275.39 345.84V298.98H282.52V306.16C284.34 302.83 286.03 300.64 287.58 299.58C289.13 298.51 290.83 297.98 292.68 297.98C295.36 297.98 298.08 298.82 300.85 300.49L298.02 307.82C296.09 306.74 294.17 306.19 292.24 306.19C290.51 306.19 288.96 306.72 287.59 307.76C286.22 308.8 285.24 310.24 284.66 312.09C283.77 314.9 283.34 317.99 283.34 321.35V345.83H275.39V345.84Z" fill="#004993"/>
<path fill-rule="evenodd" clip-rule="evenodd" d="M325.99 338.75L327.07 345.76C324.84 346.23 322.84 346.47 321.1 346.47C318.23 346.47 316 346.02 314.4 345.1C312.82 344.18 311.71 342.99 311.06 341.5C310.41 340.01 310.1 336.88 310.1 332.11V305.11H304.23V298.97H310.1V287.38L318.05 282.61V298.97H326V305.11H318.05V332.56C318.05 334.83 318.19 336.29 318.47 336.94C318.74 337.59 319.19 338.1 319.82 338.49C320.45 338.87 321.35 339.06 322.53 339.06C323.4 339.06 324.56 338.96 325.99 338.75Z" fill="#004993"/>
<path d="M80.3716 319.107L73.9441 325.535L98.8906 350.481L105.318 344.054L80.3716 319.107Z" fill="#004993"/>
<path fill-rule="evenodd" clip-rule="evenodd" d="M147.28 121.78V123.65H121.69V121.78H123.81C126.29 121.78 128.07 120.95 129.2 119.3C129.91 118.21 130.25 115.61 130.25 111.48V66.86C130.25 63.38 130.06 61.07 129.68 59.96C129.38 59.11 128.78 58.38 127.86 57.78C126.57 56.97 125.22 56.57 123.81 56.57H121.69V54.7H147.28V56.57H145.13C142.7 56.57 140.92 57.4 139.81 59.05C139.07 60.14 138.71 62.7399 138.71 66.8699V111.49C138.71 114.97 138.91 117.28 139.28 118.39C139.57 119.24 140.18 119.97 141.13 120.57C142.39 121.38 143.71 121.78 145.12 121.78H147.28Z" fill="#004993"/>
<path fill-rule="evenodd" clip-rule="evenodd" d="M190.8 53.14V76.96H189.18C188.65 72.38 187.71 68.74 186.34 66.04C184.97 63.34 183.02 61.19 180.48 59.59C177.96 58 175.34 57.2 172.64 57.2C169.58 57.2 167.05 58.27 165.06 60.42C163.06 62.57 162.06 65.03 162.06 67.77C162.06 69.87 162.69 71.79 163.95 73.53C165.78 76.06 170.11 79.46 176.96 83.69C182.55 87.16 186.36 89.81 188.4 91.65C190.44 93.5 192.02 95.67 193.12 98.18C194.22 100.69 194.77 103.31 194.77 106.07C194.77 111.29 193.01 115.78 189.51 119.56C186 123.34 181.48 125.23 175.96 125.23C174.22 125.23 172.6 125.07 171.06 124.76C170.14 124.59 168.27 123.96 165.4 122.89C162.55 121.82 160.73 121.28 159.96 121.28C159.22 121.28 158.64 121.54 158.22 122.04C157.8 122.56 157.48 123.62 157.27 125.23H155.65V101.6H157.27C158.04 106.54 159.06 110.25 160.35 112.69C161.64 115.15 163.62 117.2 166.28 118.81C168.94 120.44 171.85 121.25 175.02 121.25C178.68 121.25 181.6 120.12 183.72 117.89C185.85 115.64 186.92 112.98 186.92 109.93C186.92 108.23 186.51 106.51 185.72 104.78C184.91 103.05 183.66 101.43 181.97 99.93C180.83 98.91 177.69 96.76 172.57 93.46C167.45 90.18 163.8 87.55 161.64 85.59C159.48 83.63 157.83 81.45 156.71 79.09C155.58 76.72 155.03 74.1 155.03 71.25C155.03 66.31 156.68 62.05 159.97 58.47C163.26 54.9 167.46 53.11 172.54 53.11C175.72 53.11 179.09 54.01 182.65 55.8C184.3 56.65 185.46 57.07 186.13 57.07C186.9 57.07 187.53 56.81 188.01 56.29C188.49 55.75 188.88 54.71 189.18 53.12H190.8V53.14Z" fill="#004993"/>
<path fill-rule="evenodd" clip-rule="evenodd" d="M232.48 53.14C240.21 53.14 246.93 56.54 252.59 63.33C258.27 70.13 261.11 78.6 261.11 88.78C261.11 99.25 258.26 107.93 252.53 114.85C246.82 121.77 239.9 125.22 231.77 125.22C223.57 125.22 216.68 121.84 211.09 115.1C205.5 108.36 202.71 99.64 202.71 88.92C202.71 77.98 205.94 69.05 212.38 62.14C217.99 56.13 224.69 53.14 232.48 53.14ZM231.64 56.78C226.32 56.78 222.04 59.07 218.83 63.64C214.82 69.34 212.81 77.68 212.81 88.67C212.81 99.92 214.88 108.59 219.04 114.65C222.24 119.26 226.44 121.57 231.69 121.57C237.29 121.57 241.9 119.04 245.55 113.99C249.2 108.93 251.02 100.97 251.02 90.09C251.02 78.29 249.01 69.48 245 63.69C241.78 59.08 237.33 56.78 231.64 56.78Z" fill="#004993"/>
<path fill-rule="evenodd" clip-rule="evenodd" d="M289.86 51.37L268.24 125H264.72L286.35 51.37H289.86Z" fill="#004993"/>
<path fill-rule="evenodd" clip-rule="evenodd" d="M317.51 121.78V123.65H291.92V121.78H294.04C296.52 121.78 298.31 120.95 299.43 119.3C300.14 118.21 300.48 115.61 300.48 111.48V66.86C300.48 63.38 300.29 61.07 299.91 59.96C299.61 59.11 299.01 58.38 298.09 57.78C296.8 56.97 295.45 56.57 294.04 56.57H291.92V54.7H317.51V56.57H315.36C312.93 56.57 311.15 57.4 310.04 59.05C309.3 60.14 308.94 62.7399 308.94 66.8699V111.49C308.94 114.97 309.14 117.28 309.51 118.39C309.8 119.24 310.41 119.97 311.36 120.57C312.62 121.38 313.94 121.78 315.35 121.78H317.51Z" fill="#004993"/>
<path fill-rule="evenodd" clip-rule="evenodd" d="M338.51 58.44V85.69H351.67C355.08 85.69 357.35 85.1 358.49 83.92C360.02 82.36 360.86 79.62 361.04 75.7H362.66V99.7299H361.04C360.63 96.37 360.21 94.2 359.81 93.25C359.28 92.07 358.41 91.14 357.21 90.46C356.01 89.78 354.16 89.44 351.67 89.44H338.51V112.18C338.51 115.23 338.63 117.09 338.86 117.74C339.1 118.4 339.51 118.94 340.09 119.32C340.68 119.72 341.8 119.91 343.44 119.91H353.55C356.91 119.91 359.36 119.63 360.89 119.1C362.41 118.56 363.88 117.49 365.28 115.89C367.1 113.79 368.96 110.62 370.87 106.39H372.67L367.52 123.66H321.49V121.79H323.61C325.02 121.79 326.36 121.39 327.62 120.61C328.57 120.07 329.21 119.26 329.54 118.17C329.89 117.08 330.05 114.86 330.05 111.5V66.67C330.05 62.3 329.67 59.61 328.91 58.61C327.84 57.26 326.09 56.58 323.61 56.58H321.49V54.71H367.54L368.17 69.89H366.46C365.84 66.23 365.17 63.72 364.42 62.35C363.67 60.98 362.56 59.94 361.1 59.21C359.93 58.71 357.86 58.45 354.9 58.45H338.51V58.44Z" fill="#004993"/>
<path fill-rule="evenodd" clip-rule="evenodd" d="M428.96 53.14L430.31 76.54H428.96C427.14 69.54 424.56 64.48 421.2 61.41C417.84 58.32 413.81 56.78 409.1 56.78C405.17 56.78 401.59 57.94 398.41 60.26C395.23 62.58 392.72 66.28 390.89 71.37C389.07 76.45 388.16 82.78 388.16 90.33C388.16 96.57 389.02 101.98 390.74 106.56C392.47 111.14 395.07 114.64 398.52 117.08C401.99 119.52 405.94 120.74 410.37 120.74C414.23 120.74 417.64 119.79 420.58 117.88C423.54 115.97 426.78 112.18 430.31 106.49L431.68 107.53C428.69 113.65 425.21 118.12 421.23 120.96C417.25 123.79 412.52 125.21 407.05 125.21C397.18 125.21 389.54 120.98 384.13 112.5C380.09 106.19 378.06 98.77 378.06 90.24C378.06 83.36 379.4 77.03 382.05 71.28C384.71 65.51 388.37 61.05 393.03 57.88C397.7 54.71 402.79 53.13 408.32 53.13C412.62 53.13 416.85 54.34 421.04 56.79C422.26 57.54 423.14 57.92 423.67 57.92C424.45 57.92 425.14 57.59 425.73 56.95C426.5 56.03 427.04 54.77 427.35 53.14H428.96Z" fill="#004993"/>
<path fill-rule="evenodd" clip-rule="evenodd" d="M166.21 598.31H105.02V596.52C123.86 573.06 135.28 557.27 139.25 549.16C143.23 541.05 145.22 533.12 145.22 525.4C145.22 519.76 143.54 515.06 140.22 511.34C136.9 507.6 132.84 505.73 128.02 505.73C120.14 505.73 114.04 509.88 109.7 518.16L106.85 517.11C109.62 506.77 113.81 499.12 119.44 494.17C125.07 489.22 131.56 486.74 138.91 486.74C144.17 486.74 148.99 488.03 153.33 490.62C157.68 493.18 161.08 496.73 163.51 501.21C165.97 505.69 167.2 509.9 167.2 513.84C167.2 520.96 165.32 528.22 161.55 535.6C156.39 545.53 145.11 559.39 127.76 577.19H150.22C155.74 577.19 159.33 576.94 160.98 576.47C162.66 575.98 164.02 575.18 165.09 574.02C166.16 572.86 167.55 570.47 169.3 566.79H172.07L166.21 598.31Z" fill="#004993"/>
<path fill-rule="evenodd" clip-rule="evenodd" d="M195.66 600.62L223.93 510.18H202.39C193.96 510.18 187.63 511.34 183.39 513.65C180.43 515.25 178 518.27 176.04 522.73H173.13L180.64 488.9H242.64L207.73 600.63H195.66V600.62Z" fill="#004993"/>
<path fill-rule="evenodd" clip-rule="evenodd" d="M311.75 543.68C311.75 554.6 310.28 564.78 307.38 574.24C305.65 580.04 303.3 584.8 300.37 588.52C297.44 592.23 294.11 595.18 290.37 597.35C286.65 599.52 282.57 600.62 278.2 600.62C273.17 600.62 268.67 599.27 264.62 596.58C260.59 593.91 257 590.06 253.89 585.06C251.67 581.4 249.68 576.53 248 570.45C245.8 562.23 244.7 553.73 244.7 544.98C244.7 533.1 246.3 522.18 249.46 512.25C252.05 504 256 497.7 261.32 493.33C266.63 488.96 272.26 486.76 278.2 486.76C284.22 486.76 289.85 488.93 295.08 493.25C300.31 497.57 304.16 503.4 306.62 510.72C310.04 520.74 311.75 531.75 311.75 543.68ZM288.19 543.52C288.19 524.4 288.09 513.26 287.88 510.07C287.38 502.62 286.15 497.55 284.22 494.94C282.94 493.21 280.87 492.35 277.99 492.35C275.79 492.35 274.06 492.98 272.78 494.28C270.87 496.18 269.61 499.48 268.93 504.24C268.28 509 267.94 525.58 267.94 554C267.94 569.46 268.46 579.83 269.48 585.08C270.24 588.9 271.34 591.46 272.78 592.75C274.19 594.04 276.1 594.68 278.46 594.68C281 594.68 282.94 593.83 284.22 592.09C286.37 589.09 287.6 584.44 287.88 578.17L288.19 543.52Z" fill="#004993"/>
<path fill-rule="evenodd" clip-rule="evenodd" d="M387.71 543.68C387.71 554.6 386.24 564.78 383.34 574.24C381.61 580.04 379.26 584.8 376.33 588.52C373.4 592.23 370.07 595.18 366.33 597.35C362.61 599.52 358.53 600.62 354.16 600.62C349.13 600.62 344.63 599.27 340.58 596.58C336.55 593.91 332.96 590.06 329.85 585.06C327.63 581.4 325.64 576.53 323.96 570.45C321.76 562.23 320.66 553.73 320.66 544.98C320.66 533.1 322.26 522.18 325.42 512.25C328.01 504 331.96 497.7 337.28 493.33C342.59 488.96 348.22 486.76 354.16 486.76C360.18 486.76 365.81 488.93 371.04 493.25C376.27 497.57 380.12 503.4 382.58 510.72C386 520.74 387.71 531.75 387.71 543.68ZM364.15 543.52C364.15 524.4 364.05 513.26 363.84 510.07C363.34 502.62 362.11 497.55 360.18 494.94C358.9 493.21 356.83 492.35 353.95 492.35C351.75 492.35 350.02 492.98 348.74 494.28C346.83 496.18 345.57 499.48 344.89 504.24C344.24 509 343.9 525.58 343.9 554C343.9 569.46 344.42 579.83 345.44 585.08C346.2 588.9 347.3 591.46 348.74 592.75C350.15 594.04 352.06 594.68 354.42 594.68C356.96 594.68 358.9 593.83 360.18 592.09C362.33 589.09 363.56 584.44 363.84 578.17L364.15 543.52Z" fill="#004993"/>
<path fill-rule="evenodd" clip-rule="evenodd" d="M431.16 486.75V576.2C431.16 582.97 431.45 587.28 432 589.13C432.58 591 433.75 592.54 435.56 593.72C437.34 594.9 440.22 595.51 444.17 595.51H446.55V598.32H391.74V595.51H394.51C398.96 595.51 402.13 594.96 404.01 593.89C405.92 592.82 407.18 591.33 407.86 589.43C408.51 587.53 408.85 583.13 408.85 576.2V519.43C408.85 514.34 408.61 511.15 408.17 509.86C407.7 508.59 406.84 507.52 405.58 506.64C404.32 505.73 402.88 505.29 401.24 505.29C398.62 505.29 395.46 506.14 391.71 507.88L390.32 505.07L428.61 486.75H431.16V486.75Z" fill="#004993"/>
<path fill-rule="evenodd" clip-rule="evenodd" d="M104.11 332.04V16.29H480.6V297.36L543.65 330.88L480.6 363.85V671.55L289.3 632.58L104.11 671.55V332.04Z" fill="#004993" stroke="#004993" stroke-width="9.2407" stroke-miterlimit="22.9256"/>
<path fill-rule="evenodd" clip-rule="evenodd" d="M88.9099 4.26001H465.4V285.32L528.45 318.85L465.4 351.82V660.06L274.1 621.09L88.9099 660.06V449.22L5.13989 317.05L88.9099 187.54V4.26001Z" fill="white" stroke="#004993" stroke-width="7.8647" stroke-miterlimit="22.9256"/>
<path d="M367.43 165.84H114.97V172.79H367.43V165.84Z" fill="#004993"/>
<path fill-rule="evenodd" clip-rule="evenodd" d="M413.98 181.13C420.25 181.13 425.36 175.98 425.36 169.66C425.36 163.34 420.25 158.19 413.98 158.19C407.71 158.19 402.6 163.34 402.6 169.66C402.6 175.98 407.72 181.13 413.98 181.13Z" fill="#E3000F"/>
<path fill-rule="evenodd" clip-rule="evenodd" d="M164.95 433.9L430.78 319.53L164.95 205.55H226.23L492.07 319.53L226.23 433.9H164.95Z" fill="#E5202E"/>
<path fill-rule="evenodd" clip-rule="evenodd" d="M139.74 121.88V123.65H108.65V121.88H110.62C112.35 121.88 113.74 121.52 114.8 120.81C115.57 120.32 116.15 119.51 116.56 118.35C116.88 117.54 117.04 115.39 117.04 111.9V66.4499C117.04 62.8999 116.87 60.6799 116.56 59.7899C116.23 58.9099 115.58 58.1299 114.61 57.4699C113.63 56.7899 112.31 56.4599 110.63 56.4599H108.66V54.6899H139.75V56.4599H137.78C136.07 56.4599 134.69 56.8199 133.63 57.5299C132.88 58.0199 132.28 58.8299 131.84 59.9899C131.52 60.7999 131.36 62.9499 131.36 66.4399V111.89C131.36 115.44 131.53 117.66 131.86 118.55C132.21 119.43 132.85 120.21 133.83 120.87C134.81 121.55 136.13 121.87 137.78 121.87H139.74V121.88Z" fill="#004993"/>
<path fill-rule="evenodd" clip-rule="evenodd" d="M184.27 53.14L184.72 76.13H182.92C182.06 70.38 179.98 65.75 176.64 62.25C173.29 58.75 169.69 57 165.81 57C162.81 57 160.43 57.92 158.69 59.77C156.93 61.61 156.06 63.74 156.06 66.13C156.06 67.66 156.38 69.01 156.99 70.2C157.83 71.78 159.2 73.35 161.09 74.91C162.47 76.02 165.66 78.01 170.64 80.86C177.64 84.81 182.35 88.56 184.79 92.08C187.21 95.6 188.41 99.62 188.41 104.16C188.41 109.92 186.46 114.86 182.57 119C178.68 123.14 173.74 125.22 167.75 125.22C165.87 125.22 164.09 124.99 162.42 124.56C160.74 124.13 158.64 123.29 156.11 122.06C154.7 121.38 153.54 121.06 152.63 121.06C151.86 121.06 151.07 121.41 150.21 122.08C149.35 122.77 148.66 123.81 148.14 125.22H146.61V99.22H148.14C149.43 106.52 151.92 112.1 155.6 115.93C159.29 119.76 163.26 121.68 167.52 121.68C170.81 121.68 173.44 120.64 175.39 118.58C177.34 116.52 178.32 114.13 178.32 111.37C178.32 109.76 177.94 108.18 177.19 106.65C176.44 105.12 175.31 103.69 173.78 102.3C172.25 100.93 169.54 99.14 165.67 96.94C160.23 93.87 156.33 91.24 153.96 89.07C151.6 86.9 149.79 84.48 148.51 81.81C147.23 79.12 146.6 76.18 146.6 72.97C146.6 67.47 148.34 62.79 151.84 58.93C155.32 55.06 159.72 53.14 165.04 53.14C166.98 53.14 168.85 53.4 170.67 53.94C172.05 54.36 173.73 55.1 175.72 56.19C177.7 57.28 179.08 57.82 179.88 57.82C180.65 57.82 181.25 57.56 181.68 57.02C182.12 56.48 182.54 55.18 182.91 53.14H184.27V53.14Z" fill="#004993"/>
<path fill-rule="evenodd" clip-rule="evenodd" d="M226.79 53.86C236.3 53.46 244.03 56.65 249.98 63.45C255.93 70.26 258.9 78.76 258.9 88.98C258.9 97.7 256.68 105.38 252.25 112.02C246.38 120.81 238.09 125.21 227.36 125.21C216.61 125.21 208.3 121.02 202.43 112.63C197.79 105.99 195.46 98.14 195.46 89.04C195.46 78.81 198.48 70.3 204.52 63.49C210.55 56.66 217.97 53.47 226.79 53.86ZM227.31 57.09C221.83 57.09 217.67 60.3 214.8 66.73C212.47 72 211.32 79.57 211.32 89.46C211.32 101.19 213.12 109.88 216.71 115.5C219.22 119.42 222.72 121.38 227.22 121.38C230.25 121.38 232.79 120.53 234.82 118.85C237.4 116.68 239.43 113.22 240.87 108.47C242.31 103.72 243.03 97.51 243.03 89.89C243.03 80.79 242.29 73.98 240.82 69.47C239.35 64.95 237.47 61.76 235.19 59.9C232.92 58.02 230.29 57.09 227.31 57.09Z" fill="#004993"/>
<path fill-rule="evenodd" clip-rule="evenodd" d="M287.49 53.14L267.85 125.21H262.22L281.86 53.14H287.49Z" fill="#004993"/>
<path fill-rule="evenodd" clip-rule="evenodd" d="M320.05 121.88V123.65H288.96V121.88H290.93C292.66 121.88 294.05 121.52 295.11 120.81C295.88 120.32 296.46 119.51 296.87 118.35C297.19 117.54 297.35 115.39 297.35 111.9V66.4499C297.35 62.8999 297.18 60.6799 296.87 59.7899C296.54 58.9099 295.89 58.1299 294.92 57.4699C293.94 56.7899 292.62 56.4599 290.94 56.4599H288.97V54.6899H320.06V56.4599H318.09C316.38 56.4599 315 56.8199 313.94 57.5299C313.19 58.0199 312.59 58.8299 312.15 59.9899C311.83 60.7999 311.67 62.9499 311.67 66.4399V111.89C311.67 115.44 311.84 117.66 312.17 118.55C312.52 119.43 313.16 120.21 314.14 120.87C315.12 121.55 316.44 121.87 318.09 121.87H320.05V121.88Z" fill="#004993"/>
<path fill-rule="evenodd" clip-rule="evenodd" d="M346.74 58.6499V86.7299H347.93C351.73 86.7299 354.48 85.3599 356.19 82.6199C357.89 79.8799 358.98 75.8399 359.45 70.4999H361.16V106.59H359.45C359.1 102.65 358.35 99.4299 357.23 96.9299C356.09 94.4199 354.78 92.7399 353.28 91.8699C351.78 90.9999 349.6 90.5699 346.75 90.5699V109.95C346.75 113.75 346.89 116.05 347.17 116.9C347.44 117.75 347.97 118.44 348.73 118.98C349.5 119.52 350.73 119.79 352.42 119.79H355.99C361.56 119.79 366.04 118.3 369.4 115.34C372.76 112.38 375.18 107.85 376.64 101.75H378.28L375.59 123.64H324.03V121.87H326C327.73 121.87 329.12 121.51 330.18 120.8C330.95 120.31 331.53 119.5 331.94 118.34C332.26 117.53 332.42 115.38 332.42 111.89V66.4399C332.42 63.2999 332.35 61.3799 332.19 60.6499C331.9 59.4499 331.36 58.5399 330.57 57.8899C329.46 56.9399 327.94 56.4499 326 56.4499H324.03V54.6799H373.95V75.0699H372.24C371.4 70.0799 370.2 66.5099 368.67 64.3399C367.14 62.1699 364.98 60.5799 362.17 59.5599C360.53 58.9499 357.47 58.6399 352.96 58.6399H346.74V58.6499Z" fill="#004993"/>
<path fill-rule="evenodd" clip-rule="evenodd" d="M442.44 53.14V77.06H440.73C439.44 70.78 437.05 65.97 433.54 62.62C430.03 59.27 426.05 57.61 421.6 57.61C417.89 57.61 414.48 58.84 411.37 61.32C408.28 63.8 406.01 67.04 404.57 71.04C402.72 76.17 401.81 81.87 401.81 88.15C401.81 94.32 402.49 99.95 403.82 105.03C405.17 110.09 407.27 113.94 410.14 116.52C413.01 119.12 416.73 120.42 421.3 120.42C425.05 120.42 428.48 119.47 431.6 117.58C434.71 115.67 438 112.41 441.45 107.77V113.7C438.12 117.74 434.63 120.67 431.01 122.49C427.39 124.31 423.17 125.21 418.33 125.21C411.96 125.21 406.32 123.74 401.39 120.79C396.45 117.84 392.63 113.6 389.96 108.08C387.27 102.55 385.94 96.67 385.94 90.43C385.94 83.86 387.43 77.62 390.4 71.73C393.37 65.84 397.38 61.26 402.44 58C407.49 54.76 412.85 53.13 418.54 53.13C422.73 53.13 427.15 54.19 431.8 56.28C434.5 57.51 436.22 58.12 436.94 58.12C437.89 58.12 438.7 57.72 439.39 56.92C440.08 56.12 440.52 54.86 440.73 53.12H442.44V53.14Z" fill="#004993"/>
<path fill-rule="evenodd" clip-rule="evenodd" d="M166.21 598.31H105.02V596.52C123.86 573.06 135.28 557.27 139.25 549.16C143.23 541.05 145.22 533.12 145.22 525.4C145.22 519.76 143.54 515.06 140.22 511.34C136.9 507.6 132.84 505.73 128.02 505.73C120.14 505.73 114.04 509.88 109.7 518.16L106.85 517.11C109.62 506.77 113.81 499.12 119.44 494.17C125.07 489.22 131.56 486.74 138.91 486.74C144.17 486.74 148.99 488.03 153.33 490.62C157.68 493.18 161.08 496.73 163.51 501.21C165.97 505.69 167.2 509.9 167.2 513.84C167.2 520.96 165.32 528.22 161.55 535.6C156.39 545.53 145.11 559.39 127.76 577.19H150.22C155.74 577.19 159.33 576.94 160.98 576.47C162.66 575.98 164.02 575.18 165.09 574.02C166.16 572.86 167.55 570.47 169.3 566.79H172.07L166.21 598.31Z" fill="#004993"/>
<path fill-rule="evenodd" clip-rule="evenodd" d="M195.66 600.62L223.93 510.18H202.39C193.96 510.18 187.63 511.34 183.39 513.65C180.43 515.25 178 518.27 176.04 522.73H173.13L180.64 488.9H242.64L207.73 600.63H195.66V600.62Z" fill="#004993"/>
<path fill-rule="evenodd" clip-rule="evenodd" d="M311.75 543.68C311.75 554.6 310.28 564.78 307.38 574.24C305.65 580.04 303.3 584.8 300.37 588.52C297.44 592.23 294.11 595.18 290.37 597.35C286.65 599.52 282.57 600.62 278.2 600.62C273.17 600.62 268.67 599.27 264.62 596.58C260.59 593.91 257 590.06 253.89 585.06C251.67 581.4 249.68 576.53 248 570.45C245.8 562.23 244.7 553.73 244.7 544.98C244.7 533.1 246.3 522.18 249.46 512.25C252.05 504 256 497.7 261.32 493.33C266.63 488.96 272.26 486.76 278.2 486.76C284.22 486.76 289.85 488.93 295.08 493.25C300.31 497.57 304.16 503.4 306.62 510.72C310.04 520.74 311.75 531.75 311.75 543.68ZM288.19 543.52C288.19 524.4 288.09 513.26 287.88 510.07C287.38 502.62 286.15 497.55 284.22 494.94C282.94 493.21 280.87 492.35 277.99 492.35C275.79 492.35 274.06 492.98 272.78 494.28C270.87 496.18 269.61 499.48 268.93 504.24C268.28 509 267.94 525.58 267.94 554C267.94 569.46 268.46 579.83 269.48 585.08C270.24 588.9 271.34 591.46 272.78 592.75C274.19 594.04 276.1 594.68 278.46 594.68C281 594.68 282.94 593.83 284.22 592.09C286.37 589.09 287.6 584.44 287.88 578.17L288.19 543.52Z" fill="#004993"/>
<path fill-rule="evenodd" clip-rule="evenodd" d="M387.71 543.68C387.71 554.6 386.24 564.78 383.34 574.24C381.61 580.04 379.26 584.8 376.33 588.52C373.4 592.23 370.07 595.18 366.33 597.35C362.61 599.52 358.53 600.62 354.16 600.62C349.13 600.62 344.63 599.27 340.58 596.58C336.55 593.91 332.96 590.06 329.85 585.06C327.63 581.4 325.64 576.53 323.96 570.45C321.76 562.23 320.66 553.73 320.66 544.98C320.66 533.1 322.26 522.18 325.42 512.25C328.01 504 331.96 497.7 337.28 493.33C342.59 488.96 348.22 486.76 354.16 486.76C360.18 486.76 365.81 488.93 371.04 493.25C376.27 497.57 380.12 503.4 382.58 510.72C386 520.74 387.71 531.75 387.71 543.68ZM364.15 543.52C364.15 524.4 364.05 513.26 363.84 510.07C363.34 502.62 362.11 497.55 360.18 494.94C358.9 493.21 356.83 492.35 353.95 492.35C351.75 492.35 350.02 492.98 348.74 494.28C346.83 496.18 345.57 499.48 344.89 504.24C344.24 509 343.9 525.58 343.9 554C343.9 569.46 344.42 579.83 345.44 585.08C346.2 588.9 347.3 591.46 348.74 592.75C350.15 594.04 352.06 594.68 354.42 594.68C356.96 594.68 358.9 593.83 360.18 592.09C362.33 589.09 363.56 584.44 363.84 578.17L364.15 543.52Z" fill="#004993"/>
<path fill-rule="evenodd" clip-rule="evenodd" d="M431.16 486.75V576.2C431.16 582.97 431.45 587.28 432 589.13C432.58 591 433.75 592.54 435.56 593.72C437.34 594.9 440.22 595.51 444.17 595.51H446.55V598.32H391.74V595.51H394.51C398.96 595.51 402.13 594.96 404.01 593.89C405.92 592.82 407.18 591.33 407.86 589.43C408.51 587.53 408.85 583.13 408.85 576.2V519.43C408.85 514.34 408.61 511.15 408.17 509.86C407.7 508.59 406.84 507.52 405.58 506.64C404.32 505.73 402.88 505.29 401.24 505.29C398.62 505.29 395.46 506.14 391.71 507.88L390.32 505.07L428.61 486.75H431.16V486.75Z" fill="#004993"/>
<path fill-rule="evenodd" clip-rule="evenodd" d="M74.77 282.91C84.46 282.91 92.27 285.82 98.2 291.62C104.11 297.42 107.08 305.05 107.08 314.52C107.08 324.02 104.12 331.66 98.17 337.47C92.25 343.28 84.43 346.17 74.77 346.17C65.1 346.17 57.29 343.27 51.36 337.47C45.42 331.66 42.45 324.02 42.45 314.52C42.45 305.05 45.41 297.42 51.36 291.62C57.28 285.81 65.08 282.91 74.77 282.91ZM74.77 297.38C70.67 297.38 67.42 298.93 65.02 302.04C62.61 305.14 61.41 309.33 61.41 314.57C61.41 319.78 62.61 323.95 65.02 327.05C67.43 330.15 70.68 331.71 74.77 331.71C78.85 331.71 82.1 330.16 84.51 327.05C86.92 323.95 88.12 319.78 88.12 314.57C88.12 309.32 86.92 305.14 84.51 302.04C82.09 298.93 78.84 297.38 74.77 297.38Z" fill="#004993"/>
<path fill-rule="evenodd" clip-rule="evenodd" d="M164.22 293.88L151.88 302.75C148.54 298.96 143.6 297.07 137.07 297.07C134.63 297.07 132.71 297.46 131.3 298.24C129.89 299.02 129.18 300.09 129.18 301.45C129.18 302.72 129.75 303.65 130.88 304.24C132.01 304.83 134.51 305.48 138.39 306.21C147.09 307.89 152.99 309.55 156.1 311.19C161.59 314.15 164.35 318.74 164.35 325.01C164.35 331.53 161.78 336.7 156.63 340.49C151.5 344.28 144.49 346.18 135.61 346.18C121.3 346.18 111.08 341.79 104.97 333.01L120.09 324.83C123.37 329.42 128.82 331.72 136.4 331.72C142.85 331.72 146.09 330.09 146.09 326.83C146.09 325.5 145.51 324.52 144.35 323.89C143.19 323.25 140.81 322.59 137.19 321.9L131.56 320.86C123.85 319.41 118.38 317.3 115.11 314.54C111.84 311.76 110.22 307.83 110.22 302.72C110.22 296.66 112.6 291.84 117.37 288.28C122.13 284.72 128.55 282.93 136.63 282.93C142.3 282.92 147.32 283.8 151.67 285.53C156.02 287.24 160.21 290.04 164.22 293.88Z" fill="#004993"/>
<path fill-rule="evenodd" clip-rule="evenodd" d="M226.69 299.15L210.81 306.78C208.87 303.25 206.96 300.81 205.06 299.44C203.16 298.06 200.78 297.39 197.9 297.39C193.91 297.39 190.77 298.91 188.46 301.95C186.17 304.99 185.03 309.18 185.03 314.48C185.03 320.01 186.21 324.27 188.55 327.25C190.91 330.22 194.27 331.71 198.65 331.71C201.55 331.71 203.93 330.99 205.78 329.55C207.63 328.1 209.32 325.66 210.81 322.22L226.69 329.88C220.7 340.74 211.11 346.17 197.95 346.17C188.45 346.17 180.77 343.32 174.89 337.61C169.01 331.9 166.07 324.43 166.07 315.16C166.07 305.66 169.05 297.92 175.02 291.9C180.98 285.89 188.68 282.9 198.12 282.9C204.61 282.89 210.08 284.16 214.54 286.69C219 289.22 223.05 293.38 226.69 299.15Z" fill="#004993"/>
<path fill-rule="evenodd" clip-rule="evenodd" d="M276.16 325.17H244.94C244.94 328.02 245.65 330.27 247.06 331.9C248.48 333.54 250.42 334.35 252.89 334.35C256.35 334.35 259.04 332.25 260.96 328.07L275.42 333.66C273.01 337.71 269.79 340.8 265.79 342.95C261.78 345.09 257.26 346.17 252.23 346.17C244.62 346.17 238.49 344 233.84 339.65C229.19 335.31 226.87 329.57 226.87 322.44C226.87 315.11 229.14 309.25 233.7 304.86C238.26 300.47 244.33 298.28 251.91 298.28C261.03 298.28 267.77 301.68 272.15 308.46C274.81 312.64 276.16 318.22 276.16 325.17ZM258.25 316.29C257.9 313.78 257.22 311.99 256.25 310.94C255.26 309.89 253.8 309.36 251.86 309.36C248.01 309.36 245.67 311.66 244.86 316.29H258.25Z" fill="#004993"/>
<path fill-rule="evenodd" clip-rule="evenodd" d="M296.64 344.09H279.18V300.37H296.64V305.26C298.55 303.32 300.46 302.02 302.37 301.36C304.28 300.69 307.03 300.37 310.66 300.37V314.61C309.27 314.49 308.25 314.44 307.62 314.44C300.29 314.43 296.63 317.7 296.63 324.22V344.09H296.64Z" fill="#004993"/>
<path fill-rule="evenodd" clip-rule="evenodd" d="M345.12 310.41H337.45V326.34C337.45 328.94 337.74 330.67 338.29 331.53C338.85 332.4 339.96 332.83 341.63 332.83C342.7 332.83 343.96 332.71 345.43 332.49L345.73 343.62C341.78 344.71 337.87 345.26 333.96 345.26C328.51 345.26 324.67 343.96 322.4 341.36C320.79 339.51 319.98 335.64 319.98 329.72V310.42H313.06V301.54H320V288.26H337.46V301.54H345.13V310.41H345.12Z" fill="#004993"/>
<path fill-rule="evenodd" clip-rule="evenodd" d="M80.3599 317.85L105.31 342.35L98.8899 348.65L73.9399 324.15L80.3599 317.85Z" fill="#004993"/>
</svg>
