<svg width="402" height="91" viewBox="0 0 402 91" fill="none" xmlns="http://www.w3.org/2000/svg">
<path d="M401.5 0H265.43V90.72H401.5V0Z" fill="#164194"/>
<path d="M330.562 19.77L333.442 17.68L336.312 19.77L335.212 16.38L338.132 14.29H334.542L333.442 10.86L332.342 14.29H328.742L331.652 16.38L330.562 19.77Z" fill="#FFED00"/>
<path d="M315.701 23.76L318.581 21.66L321.451 23.76L320.351 20.37L323.271 18.27H319.681L318.571 14.84L317.481 18.29L313.891 18.27L316.801 20.37L315.701 23.76Z" fill="#FFED00"/>
<path d="M307.702 25.74L306.602 29.18L303.012 29.17L305.922 31.27L304.832 34.66L307.702 32.57L310.582 34.66L309.482 31.27L312.402 29.17H308.812L307.702 25.74Z" fill="#FFED00"/>
<path d="M303.719 47.39L306.579 49.49L305.49 46.11L308.41 44.01H304.819L303.719 40.58L302.599 44.02L299.02 44.01L301.93 46.11L300.839 49.49L303.719 47.39Z" fill="#FFED00"/>
<path d="M308.802 58.89L307.702 55.47L306.612 58.89H303.012L305.922 61L304.832 64.38L307.702 62.28L310.582 64.38L309.482 61L312.402 58.89H308.802Z" fill="#FFED00"/>
<path d="M319.691 69.78L318.591 66.36L317.491 69.8L313.891 69.78L316.821 71.89L315.731 75.27L318.591 73.17L321.471 75.27L320.381 71.89L323.301 69.78H319.691Z" fill="#FFED00"/>
<path d="M334.542 73.7399L333.442 70.2999L332.342 73.7399H328.742L331.662 75.8299L330.562 79.2199L333.442 77.1199L336.312 79.2199L335.212 75.8299L338.142 73.7399H334.542Z" fill="#FFED00"/>
<path d="M349.38 69.78L348.27 66.36L347.17 69.8L343.59 69.78L346.49 71.89L345.4 75.27L348.27 73.17L351.15 75.27L350.05 71.89L352.99 69.78H349.38Z" fill="#FFED00"/>
<path d="M360.271 58.89L359.171 55.47L358.08 58.89H354.48L357.401 61L356.291 64.38L359.171 62.28L362.051 64.38L360.95 61L363.87 58.89H360.271Z" fill="#FFED00"/>
<path d="M367.81 43.97H364.21L363.12 40.53L362.01 43.97H358.43L361.35 46.07L360.24 49.45L363.12 47.36L366 49.45L364.9 46.07L367.81 43.97Z" fill="#FFED00"/>
<path d="M356.292 34.5999L359.172 32.5199L362.052 34.5999L360.952 31.2199L363.872 29.1299H360.282L359.172 25.6899L358.082 29.1399L354.492 29.1299L357.402 31.2199L356.292 34.5999Z" fill="#FFED00"/>
<path d="M348.323 14.84L347.233 18.29L343.633 18.27L346.543 20.37L345.463 23.77L348.333 21.66L351.193 23.77L350.113 20.37L353.013 18.27H349.423L348.323 14.84Z" fill="#FFED00"/>
<path d="M54.8125 59.0499V44.0499H63.9525V45.8699H56.9525V50.3199H63.2125V52.0699H56.9525V57.2599H64.5325V59.0499H54.8125Z" fill="#1D1D1B"/>
<path d="M75.4415 58.49C74.9815 58.6 74.3715 58.73 73.6215 58.85C72.752 58.9905 71.8722 59.0574 70.9915 59.05C70.2468 59.0696 69.5056 58.9404 68.8115 58.67C68.2539 58.4415 67.7648 58.0729 67.3915 57.6C67.0198 57.1175 66.7539 56.5621 66.6115 55.97C66.4453 55.2893 66.3647 54.5906 66.3715 53.89V47.58H68.3715V53.45C68.288 54.473 68.5145 55.4975 69.0215 56.39C69.285 56.7046 69.6213 56.9501 70.0012 57.1052C70.3811 57.2603 70.7931 57.3203 71.2015 57.28H71.8715L72.5215 57.22L73.0715 57.16C73.1903 57.1435 73.3073 57.1167 73.4215 57.08V47.58H75.4215L75.4415 58.49Z" fill="#1D1D1B"/>
<path d="M82.9408 47.58H83.5408C83.7608 47.58 83.9808 47.63 84.1908 47.67L84.7908 47.77L85.1908 47.87L84.8408 49.62C84.5832 49.5324 84.319 49.4655 84.0508 49.42C83.5863 49.3309 83.1137 49.2907 82.6408 49.3C82.2675 49.2993 81.8953 49.3395 81.5308 49.42C81.1608 49.49 80.9208 49.55 80.8008 49.58V59.02H78.8008V48.29C79.3797 48.089 79.9709 47.9253 80.5708 47.8C81.3511 47.6452 82.1453 47.5715 82.9408 47.58Z" fill="#1D1D1B"/>
<path d="M96.9431 53.17C96.9552 53.9932 96.8232 54.8122 96.5531 55.59C96.315 56.2754 95.9447 56.9073 95.4631 57.45C94.9986 57.9647 94.4292 58.3739 93.7931 58.65C93.1227 58.9338 92.4011 59.0768 91.6731 59.07C90.9451 59.0768 90.2235 58.9338 89.5531 58.65C88.9142 58.379 88.3437 57.9691 87.8831 57.45C87.398 56.9099 87.0272 56.2772 86.7931 55.59C86.523 54.8122 86.391 53.9932 86.4031 53.17C86.3934 52.3502 86.5253 51.5348 86.7931 50.76C87.0212 50.0611 87.3924 49.4174 87.8831 48.87C88.3437 48.3508 88.9142 47.9409 89.5531 47.67C90.2213 47.3782 90.9439 47.2316 91.6731 47.24C92.4022 47.2316 93.1249 47.3782 93.7931 47.67C94.4292 47.946 94.9986 48.3552 95.4631 48.87C95.9469 49.411 96.3175 50.0435 96.5531 50.73C96.8243 51.5143 96.9563 52.3401 96.9431 53.17ZM94.8431 53.17C94.8992 52.1035 94.6003 51.0485 93.9931 50.17C93.7249 49.8111 93.3738 49.5227 92.9697 49.3294C92.5656 49.1361 92.1207 49.0436 91.6731 49.06C91.2253 49.0428 90.7801 49.1348 90.3759 49.3282C89.9717 49.5216 89.6207 49.8105 89.3531 50.17C88.7424 51.0472 88.4399 52.1023 88.4931 53.17C88.4406 54.2375 88.7431 55.2924 89.3531 56.17C89.6207 56.5294 89.9717 56.8183 90.3759 57.0117C90.7801 57.2051 91.2253 57.2972 91.6731 57.28C92.1207 57.2963 92.5656 57.2039 92.9697 57.0105C93.3738 56.8172 93.7249 56.5288 93.9931 56.17C94.5996 55.2911 94.8985 54.2363 94.8431 53.17Z" fill="#1D1D1B"/>
<path d="M109.562 53.45C109.567 54.2492 109.452 55.0445 109.222 55.81C109.016 56.4905 108.676 57.1229 108.222 57.67C107.789 58.1862 107.245 58.5995 106.632 58.88C105.954 59.1739 105.221 59.3205 104.482 59.31C103.899 59.3183 103.318 59.2304 102.762 59.05C102.375 58.9254 102.002 58.7577 101.652 58.55V63.05H99.6523V48.16C100.132 48.05 100.722 47.92 101.432 47.78C102.251 47.6399 103.081 47.5729 103.912 47.58C104.708 47.5697 105.498 47.7088 106.242 47.99C106.911 48.2458 107.515 48.6452 108.012 49.16C108.519 49.6851 108.908 50.3124 109.152 51C109.428 51.7871 109.567 52.6159 109.562 53.45ZM107.462 53.45C107.522 52.3593 107.165 51.2867 106.462 50.45C106.133 50.096 105.731 49.8178 105.284 49.6347C104.837 49.4517 104.355 49.3682 103.872 49.39C103.398 49.3838 102.924 49.4038 102.452 49.45C102.179 49.4849 101.908 49.5383 101.642 49.61V56.69C101.967 56.9348 102.323 57.1333 102.702 57.28C103.184 57.4676 103.696 57.5626 104.212 57.56C104.724 57.5733 105.232 57.4635 105.692 57.24C106.091 57.0397 106.435 56.7444 106.692 56.38C106.96 55.9863 107.15 55.545 107.252 55.08C107.383 54.5462 107.453 53.9995 107.462 53.45Z" fill="#1D1D1B"/>
<path d="M111.649 53.19C111.635 52.3045 111.78 51.4236 112.079 50.59C112.334 49.9021 112.725 49.2728 113.229 48.74C113.691 48.2601 114.25 47.885 114.869 47.64C115.474 47.3993 116.119 47.2738 116.769 47.27C117.419 47.2314 118.068 47.339 118.671 47.5847C119.273 47.8305 119.812 48.2082 120.249 48.69C121.152 49.9373 121.581 51.4652 121.459 53V53.33C121.459 53.47 121.459 53.6 121.459 53.71H113.759C113.764 54.6877 114.119 55.6313 114.759 56.37C115.137 56.6989 115.577 56.9489 116.052 57.1052C116.528 57.2615 117.03 57.3209 117.529 57.28C118.128 57.2931 118.727 57.2292 119.309 57.09C119.682 57.0046 120.047 56.8875 120.399 56.74L120.679 58.42C120.271 58.6074 119.841 58.745 119.399 58.83C118.714 58.9858 118.012 59.0596 117.309 59.05C116.442 59.0678 115.58 58.9185 114.769 58.61C114.098 58.3413 113.497 57.9243 113.009 57.39C112.549 56.8512 112.208 56.2206 112.009 55.54C111.767 54.7803 111.646 53.9873 111.649 53.19ZM119.359 52.09C119.412 51.2887 119.17 50.4958 118.679 49.86C118.451 49.5698 118.157 49.3385 117.821 49.1854C117.486 49.0322 117.118 48.9618 116.749 48.98C116.327 48.9711 115.909 49.0636 115.529 49.25C115.187 49.4236 114.882 49.6613 114.629 49.95C114.384 50.2483 114.191 50.5865 114.059 50.95C113.92 51.3166 113.83 51.6999 113.789 52.09H119.359Z" fill="#1D1D1B"/>
<path d="M127.881 47.3199C128.561 47.3061 129.238 47.411 129.881 47.6299C130.393 47.8148 130.853 48.1201 131.221 48.5199C131.567 48.9089 131.814 49.3754 131.941 49.8799C132.095 50.4469 132.169 51.0325 132.161 51.6199V58.6199L131.431 58.7399L130.431 58.8799L129.161 58.9999C128.711 58.9999 128.261 58.9999 127.811 58.9999C127.223 59.0066 126.635 58.9428 126.061 58.8099C125.566 58.6929 125.098 58.4825 124.681 58.1899C124.288 57.904 123.975 57.5218 123.771 57.0799C123.548 56.5557 123.439 55.9898 123.451 55.4199C123.431 54.862 123.562 54.309 123.831 53.8199C124.068 53.381 124.412 53.0093 124.831 52.7399C125.295 52.4494 125.806 52.2429 126.341 52.1299C126.939 51.9994 127.55 51.9357 128.161 51.9399H128.791L129.401 52.0199L129.911 52.1199L130.211 52.1899V51.6299C130.216 51.2934 130.179 50.9575 130.101 50.6299C130.038 50.3571 129.922 50.0991 129.761 49.8699C129.564 49.6053 129.302 49.3953 129.001 49.2599C128.598 49.0979 128.165 49.0229 127.731 49.0399C127.148 49.0301 126.565 49.077 125.991 49.1799C125.613 49.2416 125.241 49.3387 124.881 49.4699L124.641 47.7999C125.063 47.6482 125.498 47.5377 125.941 47.4699C126.582 47.3631 127.232 47.3129 127.881 47.3199ZM128.051 57.3899C128.521 57.3899 128.951 57.3899 129.311 57.3899C129.621 57.3785 129.929 57.3384 130.231 57.2699V53.8699C130.01 53.7692 129.773 53.705 129.531 53.6799C129.141 53.6239 128.746 53.5971 128.351 53.5999C128.017 53.6032 127.683 53.6266 127.351 53.6699C127.029 53.709 126.715 53.8002 126.421 53.9399C126.151 54.0751 125.913 54.2659 125.721 54.4999C125.522 54.7716 125.423 55.1037 125.441 55.4399C125.41 55.729 125.458 56.021 125.579 56.2851C125.701 56.5492 125.892 56.7755 126.131 56.9399C126.715 57.2703 127.381 57.4265 128.051 57.3899Z" fill="#1D1D1B"/>
<path d="M135.422 48.14C135.882 48.02 136.492 47.9 137.252 47.77C138.125 47.6336 139.008 47.57 139.892 47.58C140.649 47.5551 141.404 47.6809 142.112 47.95C142.666 48.1791 143.155 48.5436 143.532 49.01C143.897 49.4953 144.149 50.0554 144.272 50.65C144.426 51.3358 144.5 52.0372 144.492 52.74V59.05H142.492V53.17C142.498 52.577 142.451 51.9846 142.352 51.4C142.283 50.9756 142.126 50.5703 141.892 50.21C141.672 49.91 141.37 49.6806 141.022 49.55C140.59 49.4076 140.137 49.34 139.682 49.35H139.012H138.352L137.792 49.43L137.442 49.49V58.98H135.442L135.422 48.14Z" fill="#1D1D1B"/>
<path d="M160.042 52.78C160.272 53.07 160.572 53.45 160.922 53.92C161.272 54.39 161.642 54.92 162.012 55.47C162.382 56.02 162.752 56.64 163.122 57.26C163.47 57.8378 163.784 58.4355 164.062 59.05H161.762C161.472 58.5 161.162 57.95 160.822 57.39C160.482 56.83 160.142 56.29 159.822 55.78C159.502 55.27 159.132 54.78 158.822 54.34C158.512 53.9 158.182 53.5 157.902 53.17C157.712 53.18 157.522 53.18 157.332 53.17H154.862V59.03H152.762V44.29C153.419 44.1382 154.088 44.0412 154.762 44C155.482 44 156.152 43.92 156.762 43.92C158.449 43.8105 160.13 44.2262 161.572 45.11C162.122 45.5168 162.562 46.0545 162.852 46.6744C163.142 47.2944 163.272 47.9769 163.232 48.66C163.253 49.5733 162.975 50.4685 162.442 51.21C161.827 51.9731 160.987 52.5226 160.042 52.78ZM156.872 45.78C155.972 45.78 155.292 45.78 154.822 45.85V51.49H156.312C156.96 51.4923 157.608 51.4556 158.252 51.38C158.758 51.3285 159.252 51.1898 159.712 50.97C160.096 50.7796 160.416 50.4806 160.632 50.11C160.864 49.6597 160.974 49.1563 160.952 48.65C160.965 48.1638 160.855 47.682 160.632 47.25C160.419 46.8835 160.116 46.5773 159.752 46.36C159.353 46.1232 158.917 45.9574 158.462 45.87C157.936 45.7911 157.404 45.7543 156.872 45.76V45.78Z" fill="#1D1D1B"/>
<path d="M165.451 53.19C165.431 52.3041 165.577 51.4224 165.881 50.59C166.136 49.9046 166.523 49.276 167.021 48.74C167.484 48.2623 168.043 47.8875 168.661 47.64C169.269 47.3992 169.917 47.2737 170.571 47.27C171.219 47.2301 171.868 47.337 172.468 47.5829C173.069 47.8288 173.607 48.2072 174.041 48.69C174.944 49.9373 175.372 51.4652 175.251 53V53.33C175.262 53.4564 175.262 53.5836 175.251 53.71H167.561C167.571 54.6867 167.925 55.6286 168.561 56.37C168.937 56.6987 169.375 56.9485 169.849 57.1049C170.323 57.2612 170.823 57.3207 171.321 57.28C171.92 57.294 172.518 57.2301 173.101 57.09C173.474 57.0062 173.839 56.8891 174.191 56.74L174.481 58.42C174.068 58.6055 173.635 58.743 173.191 58.83C172.509 58.9859 171.811 59.0597 171.111 59.05C170.244 59.0689 169.381 58.9195 168.571 58.61C167.898 58.3442 167.296 57.9267 166.811 57.39C166.35 56.8512 166.009 56.2206 165.811 55.54C165.574 54.7792 165.452 53.987 165.451 53.19ZM173.161 52.09C173.208 51.2893 172.966 50.4984 172.481 49.86C172.25 49.5703 171.954 49.3394 171.617 49.1864C171.28 49.0335 170.911 48.9627 170.541 48.98C170.119 48.9722 169.701 49.0648 169.321 49.25C168.98 49.4203 168.677 49.6585 168.431 49.95C168.179 50.2454 167.982 50.5842 167.851 50.95C167.721 51.3194 167.631 51.7016 167.581 52.09H173.161Z" fill="#1D1D1B"/>
<path d="M185.082 57.92C184.767 58.1082 184.432 58.2592 184.082 58.37C183.522 58.5596 182.933 58.651 182.342 58.64C181.691 58.6444 181.044 58.5327 180.432 58.31C179.839 58.1005 179.302 57.7585 178.862 57.31C178.393 56.8246 178.031 56.2452 177.802 55.61C177.525 54.8342 177.392 54.0138 177.412 53.19C177.406 52.4244 177.531 51.6635 177.782 50.94C178.012 50.2792 178.376 49.6732 178.852 49.16C179.338 48.6574 179.924 48.2622 180.572 48C181.3 47.7098 182.078 47.5671 182.862 47.58C183.683 47.5723 184.503 47.6393 185.312 47.78C186.012 47.92 186.602 48.05 187.072 48.16V58.16C187.136 58.8465 187.049 59.5386 186.817 60.188C186.586 60.8374 186.215 61.4285 185.732 61.92C184.565 62.7894 183.122 63.2052 181.672 63.09C181.002 63.0915 180.332 63.0346 179.672 62.92C179.12 62.8227 178.575 62.6856 178.042 62.51L178.412 60.76C178.892 60.9435 179.387 61.0841 179.892 61.18C180.491 61.3017 181.101 61.362 181.712 61.36C182.63 61.4477 183.548 61.1951 184.292 60.65C184.578 60.3498 184.796 59.9919 184.932 59.6004C185.069 59.2089 185.12 58.7928 185.082 58.38V57.92ZM185.082 49.59C184.816 49.5143 184.546 49.4575 184.272 49.42C183.818 49.3654 183.36 49.342 182.902 49.35C182.432 49.3224 181.962 49.4037 181.528 49.5875C181.094 49.7714 180.709 50.0529 180.402 50.41C179.788 51.2141 179.48 52.2099 179.532 53.22C179.513 53.7792 179.59 54.3375 179.762 54.87C179.903 55.2927 180.132 55.681 180.432 56.01C180.705 56.3127 181.048 56.543 181.432 56.68C181.791 56.8256 182.175 56.9003 182.562 56.9C183.061 56.9049 183.558 56.8272 184.032 56.67C184.414 56.5572 184.773 56.3777 185.092 56.14L185.082 49.59Z" fill="#1D1D1B"/>
<path d="M191.411 45.7799C191.071 45.7842 190.742 45.6591 190.491 45.4299C190.361 45.3 190.26 45.1433 190.196 44.9706C190.132 44.798 190.107 44.6135 190.121 44.4299C190.107 44.2464 190.132 44.0619 190.196 43.8892C190.26 43.7166 190.361 43.5598 190.491 43.4299C190.742 43.2008 191.071 43.0757 191.411 43.0799C191.751 43.0736 192.081 43.199 192.331 43.4299C192.463 43.5593 192.565 43.7157 192.631 43.8883C192.696 44.061 192.724 44.2457 192.711 44.4299C192.724 44.6142 192.697 44.7992 192.632 44.9719C192.566 45.1446 192.463 45.3009 192.331 45.4299C192.081 45.6609 191.751 45.7863 191.411 45.7799ZM192.411 59.0499H190.411V47.8099H192.411V59.0499Z" fill="#1D1D1B"/>
<path d="M205.693 53.17C205.705 53.9932 205.573 54.8122 205.303 55.59C205.065 56.2754 204.695 56.9073 204.213 57.45C203.751 57.9669 203.181 58.3764 202.543 58.65C201.873 58.9338 201.151 59.0768 200.423 59.07C199.695 59.0768 198.973 58.9338 198.303 58.65C197.667 58.3739 197.098 57.9647 196.633 57.45C196.151 56.9073 195.781 56.2754 195.543 55.59C195.273 54.8122 195.141 53.9932 195.153 53.17C195.143 52.3502 195.275 51.5348 195.543 50.76C195.775 50.0628 196.146 49.4199 196.633 48.87C197.098 48.3552 197.667 47.946 198.303 47.67C198.971 47.3782 199.694 47.2316 200.423 47.24C201.152 47.2316 201.875 47.3782 202.543 47.67C203.181 47.9435 203.751 48.3531 204.213 48.87C204.697 49.411 205.067 50.0435 205.303 50.73C205.574 51.5143 205.706 52.3401 205.693 53.17ZM203.603 53.17C203.656 52.1023 203.354 51.0472 202.743 50.17C202.475 49.8111 202.124 49.5227 201.72 49.3294C201.316 49.1361 200.871 49.0436 200.423 49.06C199.975 49.0436 199.531 49.1361 199.126 49.3294C198.722 49.5227 198.371 49.8111 198.103 50.17C197.496 51.0485 197.197 52.1035 197.253 53.17C197.198 54.2363 197.497 55.2911 198.103 56.17C198.371 56.5288 198.722 56.8172 199.126 57.0105C199.531 57.2039 199.975 57.2963 200.423 57.28C200.871 57.2963 201.316 57.2039 201.72 57.0105C202.124 56.8172 202.475 56.5288 202.743 56.17C203.353 55.2924 203.656 54.2375 203.603 53.17Z" fill="#1D1D1B"/>
<path d="M208.422 48.14C208.882 48.02 209.492 47.9 210.252 47.77C211.125 47.6332 212.008 47.5697 212.892 47.58C213.649 47.5551 214.404 47.6809 215.112 47.95C215.665 48.1817 216.153 48.5457 216.532 49.01C216.897 49.4953 217.149 50.0554 217.272 50.65C217.426 51.3358 217.5 52.0372 217.492 52.74V59.05H215.492V53.17C215.498 52.577 215.451 51.9846 215.352 51.4C215.285 50.9736 215.124 50.5673 214.882 50.21C214.668 49.9086 214.368 49.6786 214.022 49.55C213.59 49.4076 213.137 49.34 212.682 49.35H212.012H211.352L210.792 49.43L210.432 49.49V58.98H208.432L208.422 48.14Z" fill="#1D1D1B"/>
<path d="M224.342 47.3199C225.022 47.3061 225.699 47.411 226.342 47.6299C226.854 47.8148 227.313 48.1201 227.682 48.5199C228.028 48.9089 228.275 49.3754 228.402 49.8799C228.556 50.4469 228.63 51.0325 228.622 51.6199V58.6199L227.892 58.74L226.892 58.8799L225.622 58.9999C225.172 58.9999 224.722 58.9999 224.272 58.9999C223.683 59.0066 223.096 58.9428 222.522 58.8099C222.027 58.6929 221.559 58.4825 221.142 58.1899C220.749 57.904 220.436 57.5218 220.232 57.0799C220.009 56.5557 219.899 55.9898 219.912 55.42C219.892 54.862 220.023 54.309 220.292 53.8199C220.529 53.381 220.873 53.0093 221.292 52.7399C221.756 52.4494 222.267 52.2429 222.802 52.1299C223.4 51.9999 224.01 51.9362 224.622 51.9399H225.252L225.862 52.0199L226.372 52.1199L226.672 52.1899V51.6299C226.672 51.2936 226.635 50.9584 226.562 50.6299C226.497 50.3182 226.363 50.0247 226.172 49.7699C225.975 49.5053 225.713 49.2953 225.412 49.1599C225.009 48.9979 224.576 48.9229 224.142 48.9399C223.559 48.9301 222.976 48.977 222.402 49.0799C222.024 49.1416 221.652 49.2387 221.292 49.3699L221.052 47.6999C221.474 47.5482 221.909 47.4377 222.352 47.3699C223.013 47.2936 223.679 47.2768 224.342 47.3199ZM224.512 57.3899C224.982 57.3899 225.412 57.3899 225.772 57.3899C226.082 57.3785 226.39 57.3384 226.692 57.2699V53.8699C226.471 53.7692 226.234 53.705 225.992 53.6799C225.601 53.6235 225.207 53.5968 224.812 53.6C224.478 53.6032 224.144 53.6266 223.812 53.67C223.49 53.709 223.176 53.8002 222.882 53.9399C222.612 54.0751 222.373 54.266 222.182 54.4999C221.983 54.7716 221.884 55.1037 221.902 55.4399C221.871 55.729 221.919 56.021 222.04 56.2851C222.162 56.5492 222.353 56.7755 222.592 56.9399C223.176 57.2703 223.842 57.4265 224.512 57.3899Z" fill="#1D1D1B"/>
<path d="M235.252 59.0499C234.303 59.1147 233.364 58.8302 232.612 58.2499C232.329 57.9316 232.114 57.5591 231.98 57.1551C231.846 56.7511 231.796 56.3241 231.832 55.8999V42.41L233.832 42.0699V55.5699C233.826 55.846 233.856 56.1217 233.922 56.3899C233.967 56.585 234.064 56.7645 234.202 56.91C234.346 57.051 234.526 57.1511 234.722 57.2C234.983 57.2784 235.25 57.332 235.522 57.3599L235.252 59.0499Z" fill="#1D1D1B"/>
<path d="M65.0114 77.87C65.0382 79.0263 64.8308 80.1761 64.4014 81.25C64.0323 82.1645 63.4493 82.9772 62.7014 83.62C61.9286 84.2678 61.0296 84.7479 60.0614 85.03C58.967 85.349 57.8313 85.504 56.6914 85.49C56.0914 85.49 55.4214 85.49 54.6914 85.42C54.0179 85.3787 53.3489 85.2817 52.6914 85.13V70.64C53.3476 70.4798 54.017 70.3794 54.6914 70.34C55.4214 70.34 56.0914 70.27 56.6914 70.27C57.8313 70.2561 58.967 70.4111 60.0614 70.73C61.0296 71.0121 61.9286 71.4923 62.7014 72.14C63.4473 72.7846 64.0299 73.5968 64.4014 74.51C64.8276 75.5779 65.035 76.7205 65.0114 77.87ZM56.8614 83.65C57.6678 83.7165 58.4793 83.6158 59.245 83.3543C60.0107 83.0927 60.7142 82.6759 61.3114 82.13C62.3405 80.9585 62.8621 79.4261 62.7614 77.87C62.8093 77.0966 62.7042 76.3213 62.4519 75.5886C62.1997 74.8558 61.8053 74.1801 61.2914 73.6C60.695 73.0523 59.9919 72.6337 59.2261 72.3705C58.4604 72.1072 57.6485 72.0049 56.8414 72.07C56.2514 72.07 55.8414 72.07 55.4714 72.07H54.7914V83.52H55.4714C55.8214 83.68 56.2714 83.68 56.8614 83.68V83.65Z" fill="#1D1D1B"/>
<path d="M67.2597 79.67C67.2392 78.7808 67.3851 77.8957 67.6897 77.06C67.9448 76.3776 68.3322 75.7523 68.8297 75.22C69.2964 74.7391 69.8584 74.3611 70.4797 74.11C71.0847 73.8716 71.7294 73.7495 72.3797 73.75C73.0269 73.7089 73.6751 73.8143 74.2759 74.0584C74.8767 74.3025 75.4147 74.6791 75.8497 75.16C76.7507 76.4081 77.1794 77.9354 77.0597 79.47V79.81C77.0702 79.9331 77.0702 80.0569 77.0597 80.18H69.3697C69.3779 81.1571 69.7322 82.0996 70.3697 82.84C70.7442 83.1706 71.1819 83.4218 71.6564 83.5782C72.1308 83.7346 72.632 83.7931 73.1297 83.75C73.7281 83.7618 74.3258 83.7013 74.9097 83.57C75.2861 83.4819 75.6541 83.3615 76.0097 83.21L76.2897 84.89C75.8768 85.0755 75.4439 85.213 74.9997 85.3C74.3176 85.4559 73.6193 85.5297 72.9197 85.52C72.0525 85.5389 71.19 85.3895 70.3797 85.08C69.707 84.8142 69.1047 84.3967 68.6197 83.86C68.159 83.3212 67.8181 82.6906 67.6197 82.01C67.3831 81.2525 67.2618 80.4637 67.2597 79.67ZM74.9697 78.57C75.0171 77.7662 74.776 76.9719 74.2897 76.33C74.058 76.0415 73.7616 75.8116 73.4246 75.6587C73.0876 75.5058 72.7194 75.4344 72.3497 75.45C71.9274 75.4423 71.5093 75.5348 71.1297 75.72C70.7926 75.8967 70.4909 76.134 70.2397 76.42C69.9872 76.7154 69.7908 77.0543 69.6597 77.42C69.528 77.7918 69.4407 78.1778 69.3997 78.57H74.9697Z" fill="#1D1D1B"/>
<path d="M88.6219 74.29C88.0669 76.3255 87.3992 78.3286 86.6219 80.29C85.8619 82.23 85.1319 83.95 84.4219 85.48H82.6119C81.9019 83.95 81.1719 82.23 80.4219 80.29C79.6402 78.3302 78.9724 76.3269 78.4219 74.29H80.5819C80.7519 74.99 80.9619 75.75 81.1919 76.54C81.4219 77.33 81.6819 78.14 81.9519 78.92C82.2219 79.7 82.4919 80.47 82.7619 81.2C83.0319 81.93 83.2919 82.59 83.5419 83.2C83.7819 82.62 84.0419 81.96 84.3219 81.2C84.6019 80.44 84.8619 79.71 85.1319 78.92C85.4019 78.13 85.6519 77.34 85.8819 76.54C86.1119 75.74 86.3319 74.99 86.5019 74.29H88.6219Z" fill="#1D1D1B"/>
<path d="M89.662 79.67C89.6416 78.7808 89.7874 77.8957 90.092 77.06C90.3467 76.3751 90.7379 75.7491 91.242 75.22C91.703 74.737 92.2623 74.3585 92.882 74.11C93.4873 73.8725 94.1318 73.7504 94.782 73.75C95.4307 73.7095 96.0801 73.8152 96.6824 74.0592C97.2847 74.3032 97.8245 74.6794 98.262 75.16C99.1582 76.4104 99.5866 77.9359 99.472 79.47V79.81C99.472 79.94 99.472 80.07 99.472 80.18H91.762C91.7702 81.1571 92.1245 82.0996 92.762 82.84C93.138 83.1714 93.5774 83.4229 94.0536 83.5794C94.5298 83.7358 95.0328 83.7939 95.532 83.75C96.1304 83.7612 96.728 83.7007 97.312 83.57C97.6847 83.4806 98.0494 83.3602 98.402 83.21L98.682 84.89C98.2696 85.077 97.8367 85.2146 97.392 85.3C96.71 85.4564 96.0117 85.5303 95.312 85.52C94.4449 85.5389 93.5823 85.3895 92.772 85.08C92.1008 84.8114 91.4991 84.3943 91.012 83.86C90.555 83.3187 90.2146 82.6889 90.012 82.01C89.7789 81.2519 89.6609 80.4632 89.662 79.67ZM97.372 78.57C97.4239 77.7657 97.1823 76.9698 96.692 76.33C96.4618 76.0423 96.1672 75.8127 95.832 75.6599C95.4967 75.507 95.1302 75.4351 94.762 75.45C94.3396 75.4411 93.9213 75.5337 93.5421 75.72C93.202 75.8967 92.897 76.1339 92.642 76.42C92.3928 76.7159 92.1996 77.0548 92.072 77.42C91.9328 77.7901 91.842 78.1766 91.802 78.57H97.372Z" fill="#1D1D1B"/>
<path d="M105.62 85.52C104.675 85.588 103.738 85.303 102.99 84.72C102.708 84.4016 102.493 84.0291 102.359 83.6251C102.225 83.2212 102.174 82.7941 102.211 82.37V68.87L104.211 68.52V82.02C104.204 82.2961 104.234 82.5719 104.3 82.84C104.339 83.0376 104.437 83.2188 104.581 83.36C104.725 83.501 104.905 83.6011 105.101 83.65C105.362 83.7285 105.629 83.782 105.901 83.81L105.62 85.52Z" fill="#1D1D1B"/>
<path d="M117.963 79.65C117.973 80.4731 117.841 81.2918 117.573 82.07C117.332 82.7513 116.962 83.3796 116.483 83.92C116.018 84.4348 115.449 84.844 114.813 85.12C114.142 85.4038 113.421 85.5468 112.693 85.54C111.965 85.5468 111.243 85.4038 110.573 85.12C109.934 84.849 109.363 84.4391 108.903 83.92C108.423 83.3796 108.053 82.7513 107.813 82.07C107.544 81.2918 107.412 80.4731 107.423 79.65C107.41 78.83 107.542 78.0143 107.813 77.24C108.046 76.5494 108.417 75.9132 108.903 75.37C109.363 74.8509 109.934 74.4409 110.573 74.17C111.243 73.8861 111.965 73.7432 112.693 73.75C113.421 73.7432 114.142 73.8861 114.813 74.17C115.449 74.446 116.018 74.8552 116.483 75.37C116.969 75.9132 117.34 76.5494 117.573 77.24C117.843 78.0143 117.975 78.83 117.963 79.65ZM115.863 79.65C115.918 78.5836 115.619 77.5288 115.013 76.65C114.745 76.2912 114.393 76.0027 113.989 75.8094C113.585 75.6161 113.14 75.5236 112.693 75.54C112.245 75.5228 111.8 75.6149 111.395 75.8082C110.991 76.0016 110.64 76.2905 110.373 76.65C109.763 77.5276 109.46 78.5825 109.513 79.65C109.459 80.7176 109.762 81.7727 110.373 82.65C110.64 83.0094 110.991 83.2983 111.395 83.4917C111.8 83.6851 112.245 83.7772 112.693 83.76C113.14 83.7763 113.585 83.6839 113.989 83.4906C114.393 83.2972 114.745 83.0088 115.013 82.65C115.62 81.7715 115.919 80.7165 115.863 79.65Z" fill="#1D1D1B"/>
<path d="M130.582 79.92C130.592 80.7195 130.477 81.5158 130.242 82.28C130.036 82.9605 129.696 83.5929 129.242 84.14C128.811 84.6591 128.267 85.073 127.652 85.35C126.975 85.6487 126.241 85.7955 125.502 85.78C124.918 85.7883 124.337 85.7004 123.782 85.52C123.394 85.3954 123.022 85.2276 122.672 85.02V89.52H120.672V74.63C121.152 74.52 121.742 74.39 122.452 74.25C123.271 74.1098 124.101 74.0429 124.932 74.05C125.727 74.0397 126.518 74.1788 127.262 74.46C127.93 74.7157 128.535 75.1151 129.032 75.63C129.537 76.1567 129.925 76.7836 130.172 77.47C130.448 78.2571 130.587 79.0858 130.582 79.92ZM128.482 79.92C128.54 78.8295 128.182 77.7576 127.482 76.92C127.151 76.5681 126.749 76.2913 126.302 76.1084C125.855 75.9255 125.374 75.8408 124.892 75.86C124.418 75.8511 123.943 75.8745 123.472 75.93C123.198 75.9573 122.927 76.0075 122.662 76.08V83.16C122.986 83.4047 123.343 83.6033 123.722 83.75C124.203 83.9376 124.715 84.0326 125.232 84.03C125.744 84.0432 126.251 83.9335 126.712 83.71C127.113 83.5129 127.457 83.2169 127.712 82.85C127.978 82.4589 128.168 82.0213 128.272 81.56C128.402 81.0227 128.472 80.4727 128.482 79.92Z" fill="#1D1D1B"/>
<path d="M133.301 74.61C133.761 74.5 134.371 74.37 135.121 74.24C135.991 74.1035 136.87 74.04 137.751 74.05C138.367 74.0343 138.98 74.1326 139.561 74.34C140.033 74.5269 140.456 74.8174 140.801 75.19C140.901 75.12 141.051 75.02 141.271 74.89C141.528 74.744 141.795 74.617 142.071 74.51C142.417 74.3799 142.771 74.273 143.131 74.19C143.54 74.0909 143.96 74.0438 144.381 74.05C145.107 74.0211 145.83 74.1508 146.501 74.43C147.02 74.6584 147.464 75.0294 147.781 75.5C148.106 75.9953 148.321 76.5545 148.411 77.14C148.523 77.8241 148.577 78.5166 148.571 79.21V85.52H146.571V79.65C146.576 79.0786 146.546 78.5075 146.481 77.94C146.432 77.5239 146.306 77.1204 146.111 76.75C145.944 76.4448 145.685 76.2 145.371 76.05C144.996 75.8854 144.59 75.8068 144.181 75.82C143.609 75.8018 143.038 75.8935 142.501 76.09C142.176 76.2032 141.872 76.3688 141.601 76.58C141.729 76.9801 141.816 77.3922 141.861 77.81C141.922 78.2741 141.952 78.7418 141.951 79.21V85.52H139.951V79.65C139.956 79.078 139.919 78.5065 139.841 77.94C139.793 77.5222 139.664 77.1179 139.461 76.75C139.297 76.4455 139.042 76.2006 138.731 76.05C138.36 75.8853 137.956 75.8066 137.551 75.82H136.911C136.671 75.82 136.451 75.82 136.251 75.88L135.671 75.95L135.331 76.02V85.5H133.331L133.301 74.61Z" fill="#1D1D1B"/>
<path d="M151.17 79.67C151.149 78.7808 151.295 77.8957 151.6 77.06C151.855 76.3776 152.242 75.7523 152.74 75.22C153.203 74.7394 153.762 74.3612 154.38 74.11C154.989 73.8724 155.636 73.7503 156.29 73.75C156.937 73.7089 157.585 73.8143 158.186 74.0584C158.787 74.3025 159.325 74.6791 159.76 75.16C160.661 76.4081 161.09 77.9354 160.97 79.47V79.81C160.98 79.9331 160.98 80.0569 160.97 80.18H153.28C153.288 81.1571 153.642 82.0996 154.28 82.84C154.654 83.1706 155.092 83.4218 155.567 83.5782C156.041 83.7346 156.542 83.7931 157.04 83.75C157.638 83.7618 158.236 83.7013 158.82 83.57C159.194 83.4838 159.558 83.3633 159.91 83.21L160.2 84.89C159.787 85.0755 159.354 85.213 158.91 85.3C158.228 85.4559 157.53 85.5297 156.83 85.52C155.963 85.5389 155.1 85.3895 154.29 85.08C153.617 84.8142 153.015 84.3967 152.53 83.86C152.069 83.3212 151.728 82.6906 151.53 82.01C151.293 81.2525 151.172 80.4637 151.17 79.67ZM158.88 78.57C158.927 77.7662 158.686 76.9719 158.2 76.33C157.968 76.0421 157.671 75.8126 157.334 75.6598C156.997 75.507 156.629 75.4351 156.26 75.45C155.838 75.4423 155.42 75.5348 155.04 75.72C154.703 75.8967 154.401 76.134 154.15 76.42C153.897 76.7154 153.701 77.0543 153.57 77.42C153.44 77.7929 153.35 78.1783 153.3 78.57H158.88Z" fill="#1D1D1B"/>
<path d="M163.762 74.6099C164.222 74.4999 164.832 74.37 165.602 74.24C166.472 74.1035 167.351 74.0399 168.232 74.05C168.993 74.0222 169.752 74.1515 170.462 74.4299C171.017 74.6522 171.504 75.018 171.872 75.49C172.242 75.9695 172.498 76.5268 172.622 77.12C172.767 77.8069 172.838 78.5077 172.832 79.2099V85.5199H170.832V79.65C170.844 79.0535 170.797 78.4573 170.692 77.87C170.627 77.4444 170.47 77.0382 170.232 76.6799C170.016 76.3807 169.717 76.1513 169.372 76.02C168.94 75.8776 168.487 75.8099 168.032 75.8199H167.362C167.132 75.8199 166.912 75.82 166.702 75.88C166.492 75.94 166.302 75.88 166.142 75.95L165.782 76.02V85.5H163.782L163.762 74.6099Z" fill="#1D1D1B"/>
<path d="M177.929 74.03H182.189V75.71H177.929V80.87C177.924 81.3366 177.967 81.8026 178.059 82.26C178.122 82.5727 178.255 82.8669 178.449 83.12C178.619 83.3285 178.844 83.4846 179.099 83.57C179.394 83.6588 179.701 83.7026 180.009 83.7C180.501 83.7172 180.992 83.6461 181.459 83.49L182.229 83.2L182.619 84.86C182.276 85.0131 181.922 85.1401 181.559 85.24C180.997 85.4006 180.414 85.4781 179.829 85.47C179.187 85.4874 178.547 85.3892 177.939 85.18C177.469 84.9965 177.056 84.6931 176.739 84.3C176.423 83.8774 176.208 83.3884 176.109 82.87C175.972 82.2125 175.908 81.5417 175.919 80.87V70.87L177.919 70.52L177.929 74.03Z" fill="#1D1D1B"/>
<path d="M189.641 85.52V70.52H198.641V72.31H191.761V76.87H197.911V78.64H191.761V85.53L189.641 85.52Z" fill="#1D1D1B"/>
<path d="M209.411 84.9599C208.951 85.0799 208.341 85.1999 207.581 85.3299C206.714 85.4668 205.838 85.5303 204.961 85.5199C204.216 85.5454 203.473 85.416 202.781 85.1399C202.22 84.9117 201.728 84.5433 201.351 84.0699C200.979 83.5875 200.713 83.0321 200.571 82.4399C200.408 81.7589 200.33 81.0601 200.341 80.3599V74.0499H202.341V79.9199C202.257 80.943 202.484 81.9675 202.991 82.8599C203.255 83.1732 203.592 83.4178 203.971 83.5728C204.351 83.7278 204.763 83.7886 205.171 83.7499H205.841L206.491 83.6899L207.041 83.6299C207.164 83.6194 207.285 83.5925 207.401 83.5499V74.0699H209.401L209.411 84.9599Z" fill="#1D1D1B"/>
<path d="M212.762 74.61C213.222 74.5 213.832 74.37 214.592 74.24C215.465 74.1039 216.348 74.0403 217.232 74.05C217.99 74.023 218.746 74.1524 219.452 74.43C220.01 74.652 220.5 75.0177 220.872 75.49C221.238 75.9705 221.491 76.5277 221.612 77.12C221.766 77.8058 221.84 78.5072 221.832 79.21V85.52H219.832V79.65C219.838 79.0537 219.791 78.458 219.692 77.87C219.623 77.4457 219.466 77.0403 219.232 76.68C219.012 76.38 218.71 76.1506 218.362 76.02C217.93 75.8765 217.477 75.8088 217.022 75.82H216.352C216.122 75.82 215.902 75.82 215.692 75.88L215.132 75.95L214.782 76.02V85.5H212.782L212.762 74.61Z" fill="#1D1D1B"/>
<path d="M232.311 68.87L234.311 68.53V84.97C233.851 85.0967 233.261 85.2267 232.541 85.36C231.718 85.4965 230.885 85.5601 230.051 85.55C229.255 85.5603 228.465 85.4212 227.721 85.14C227.052 84.8843 226.448 84.4849 225.951 83.97C225.446 83.4433 225.058 82.8164 224.811 82.13C224.538 81.3423 224.403 80.5136 224.411 79.68C224.4 78.8739 224.515 78.071 224.751 77.3C224.957 76.6195 225.297 75.9871 225.751 75.44C226.182 74.9209 226.726 74.507 227.341 74.23C228.017 73.9313 228.751 73.7845 229.491 73.8C230.075 73.7868 230.657 73.8747 231.211 74.06C231.596 74.1863 231.968 74.3504 232.321 74.55L232.311 68.87ZM232.311 76.43C231.986 76.189 231.629 75.9938 231.251 75.85C230.771 75.6575 230.258 75.5624 229.741 75.57C229.23 75.5589 228.724 75.6649 228.261 75.88C227.861 76.0838 227.518 76.3826 227.261 76.75C226.991 77.1428 226.801 77.5844 226.701 78.05C226.586 78.5858 226.529 79.1322 226.531 79.68C226.474 80.7703 226.831 81.8419 227.531 82.68C227.859 83.0353 228.261 83.315 228.708 83.4998C229.155 83.6845 229.637 83.7699 230.121 83.75C230.582 83.7538 231.043 83.7271 231.501 83.67C231.788 83.6365 232.072 83.583 232.351 83.51L232.311 76.43Z" fill="#1D1D1B"/>
<path d="M0 28.87V6.13H14.57V9.63H4.13V15.23H13.43V18.67H4.13V25.31H15.36V28.87H0Z" fill="#1D1D1B"/>
<path d="M32.2795 27.93C31.5195 28.13 30.5295 28.33 29.2795 28.54C27.9573 28.7557 26.6192 28.8594 25.2795 28.85C24.0987 28.8823 22.9229 28.6818 21.8195 28.26C20.9526 27.9101 20.1887 27.3458 19.5995 26.62C19.0216 25.8843 18.612 25.031 18.3995 24.12C18.1513 23.075 18.0304 22.0039 18.0395 20.93V11.33H22.0395V20.33C21.9319 21.6891 22.2091 23.0511 22.8395 24.26C23.1683 24.6775 23.5976 25.0048 24.0873 25.2112C24.577 25.4176 25.1111 25.4963 25.6395 25.44C26.1195 25.44 26.6295 25.42 27.1695 25.38C27.5698 25.3529 27.9676 25.2961 28.3595 25.21V11.33H32.3595L32.2795 27.93Z" fill="#1D1D1B"/>
<path d="M46.8828 15.2599C46.4361 15.1215 45.9821 15.008 45.5228 14.9199C44.864 14.7925 44.1939 14.7322 43.5228 14.7399C43.0565 14.7409 42.5912 14.7844 42.1328 14.8699C41.7948 14.9244 41.4607 15.0012 41.1328 15.0999V28.8699H37.1328V12.5099C38.0673 12.1798 39.0227 11.9126 39.9928 11.7099C41.2457 11.4482 42.5229 11.3208 43.8028 11.3299C44.0728 11.3299 44.3728 11.3299 44.7228 11.3299C45.0728 11.3299 45.4228 11.4099 45.7228 11.4699C46.0592 11.5163 46.3929 11.5797 46.7228 11.6599L47.5128 11.8699L46.8828 15.2599Z" fill="#1D1D1B"/>
<path d="M65.6129 19.81C65.6275 21.0679 65.428 22.319 65.0229 23.51C64.6672 24.5643 64.0988 25.5343 63.353 26.36C62.6293 27.1514 61.7421 27.7759 60.7529 28.19C59.6902 28.6386 58.5464 28.8633 57.3929 28.85C56.2459 28.8643 55.1083 28.6395 54.0529 28.19C53.0712 27.7728 52.1912 27.1486 51.473 26.36C50.7173 25.5345 50.1357 24.5652 49.7629 23.51C49.346 22.3215 49.1396 21.0694 49.153 19.81C49.1397 18.5571 49.3461 17.3116 49.7629 16.13C50.1316 15.081 50.7101 14.1181 51.463 13.3C52.1909 12.516 53.0771 11.8956 54.0629 11.48C55.1127 11.0486 56.238 10.831 57.3729 10.84C58.5111 10.831 59.6397 11.0486 60.6929 11.48C61.6859 11.8879 62.5769 12.5093 63.3029 13.3C64.046 14.1219 64.6172 15.0841 64.9829 16.13C65.4115 17.3091 65.6249 18.5555 65.6129 19.81ZM61.5529 19.81C61.6201 18.3937 61.2348 16.9928 60.4529 15.81C60.106 15.3279 59.6448 14.9394 59.1107 14.6793C58.5767 14.4193 57.9865 14.2958 57.3929 14.32C56.7994 14.2958 56.2092 14.4193 55.6752 14.6793C55.1411 14.9394 54.6799 15.3279 54.3329 15.81C53.5511 16.9928 53.1658 18.3937 53.2329 19.81C53.1562 21.2587 53.5414 22.6943 54.3329 23.91C54.6775 24.3953 55.138 24.7867 55.6724 25.0487C56.2069 25.3107 56.7983 25.4349 57.3929 25.41C57.9876 25.4349 58.579 25.3107 59.1135 25.0487C59.6479 24.7867 60.1084 24.3953 60.4529 23.91C61.2445 22.6943 61.6297 21.2587 61.5529 19.81Z" fill="#1D1D1B"/>
<path d="M84.9209 20.27C84.9347 21.4889 84.7628 22.7028 84.4109 23.87C84.1119 24.8939 83.6197 25.8511 82.9609 26.69C82.3177 27.4737 81.5036 28.0997 80.5809 28.52C79.5693 28.9744 78.4697 29.1998 77.3609 29.18C76.607 29.1874 75.856 29.0864 75.1309 28.88C74.5537 28.7205 73.9941 28.5027 73.4609 28.23V34.87H69.4609V12.25C70.2709 12.03 71.2609 11.83 72.4609 11.63C73.6937 11.4255 74.9414 11.3252 76.1909 11.33C77.4331 11.3095 78.6679 11.5232 79.8309 11.96C80.8601 12.3466 81.792 12.9542 82.5609 13.74C83.3314 14.5482 83.9241 15.5088 84.3009 16.56C84.7228 17.7509 84.9326 19.0066 84.9209 20.27ZM80.8609 20.34C80.9497 18.8675 80.5295 17.4094 79.6709 16.21C79.1839 15.6874 78.5838 15.2832 77.9164 15.0284C77.2491 14.7736 76.5323 14.6749 75.8209 14.74C75.4509 14.74 75.0609 14.74 74.6609 14.79C74.2551 14.821 73.8532 14.8913 73.4609 15V24.79C73.8983 25.07 74.3685 25.295 74.8609 25.46C75.4543 25.672 76.0808 25.777 76.7109 25.77C77.3183 25.8185 77.9279 25.7086 78.48 25.4509C79.0322 25.1932 79.508 24.7967 79.8609 24.3C80.5856 23.1109 80.9342 21.7306 80.8609 20.34Z" fill="#1D1D1B"/>
<path d="M87.8703 19.94C87.8375 18.5762 88.065 17.2186 88.5403 15.94C88.9378 14.8868 89.5431 13.9243 90.3203 13.11C91.0471 12.3727 91.9188 11.7939 92.8803 11.41C93.8151 11.0347 94.813 10.8413 95.8203 10.84C96.8442 10.7822 97.8685 10.9481 98.8218 11.3263C99.775 11.7045 100.635 12.2859 101.34 13.03C102.674 14.49 103.34 16.6733 103.34 19.58C103.34 19.79 103.34 20.04 103.34 20.31C103.34 20.58 103.34 20.83 103.34 21.05H92.0403C92.0582 21.6522 92.1967 22.2448 92.4474 22.7927C92.6982 23.3406 93.0562 23.8327 93.5003 24.24C94.5714 25.0598 95.9045 25.4615 97.2503 25.37C98.1336 25.3757 99.0152 25.2886 99.8803 25.11C100.523 24.9817 101.152 24.7942 101.76 24.55L102.29 27.79C102 27.9294 101.699 28.0464 101.39 28.14C100.961 28.2733 100.523 28.3802 100.08 28.46C99.5903 28.56 99.0803 28.64 98.4903 28.71C97.9129 28.7787 97.3318 28.8121 96.7503 28.81C95.4127 28.8406 94.0818 28.6131 92.8303 28.14C91.7813 27.7378 90.8399 27.0977 90.0803 26.27C89.35 25.4584 88.8011 24.5004 88.4703 23.46C88.0884 22.325 87.886 21.1374 87.8703 19.94ZM99.3603 18.18C99.3618 17.6514 99.2843 17.1256 99.1303 16.62C98.9906 16.1545 98.7632 15.72 98.4603 15.34C98.1637 14.9842 97.7958 14.6946 97.3803 14.49C96.9027 14.2758 96.3836 14.17 95.8603 14.18C95.3049 14.171 94.7546 14.2872 94.2503 14.52C93.8068 14.7429 93.4124 15.0523 93.0903 15.43C92.7695 15.8055 92.5189 16.2357 92.3503 16.7C92.1811 17.18 92.0605 17.6758 91.9903 18.18H99.3603Z" fill="#1D1D1B"/>
<path d="M113.011 10.94C114.134 10.9098 115.254 11.0756 116.321 11.43C117.136 11.7089 117.871 12.1826 118.461 12.81C119.011 13.4203 119.405 14.1545 119.611 14.95C119.847 15.854 119.962 16.7857 119.951 17.72V28.1C119.341 28.23 118.421 28.39 117.181 28.57C115.8 28.7688 114.406 28.8624 113.011 28.85C112.066 28.8589 111.123 28.7583 110.201 28.55C109.412 28.3748 108.669 28.0339 108.021 27.55C107.415 27.1115 106.93 26.5267 106.611 25.85C106.248 25.0397 106.074 24.1575 106.101 23.27C106.069 22.4032 106.27 21.5437 106.681 20.78C107.055 20.1093 107.587 19.5396 108.231 19.12C108.929 18.6795 109.701 18.371 110.511 18.21C111.398 18.0189 112.303 17.925 113.211 17.93C113.669 17.9332 114.126 17.9599 114.581 18.01C115.099 18.0746 115.613 18.168 116.121 18.29V17.64C116.125 17.1982 116.071 16.7578 115.961 16.33C115.86 15.9217 115.661 15.5442 115.381 15.23C115.088 14.8976 114.717 14.6432 114.301 14.49C113.761 14.3028 113.192 14.2147 112.621 14.23C111.777 14.2257 110.934 14.2926 110.101 14.43C109.466 14.5273 108.84 14.6778 108.231 14.88L107.741 11.68C108.457 11.4498 109.189 11.2727 109.931 11.15C110.949 10.9904 111.98 10.9201 113.011 10.94ZM113.341 25.71C114.272 25.7314 115.203 25.6645 116.121 25.51V21.12C115.792 21.035 115.458 20.9715 115.121 20.93C114.67 20.8725 114.215 20.8524 113.761 20.87C113.316 20.8689 112.871 20.9023 112.431 20.97C112.01 21.0217 111.601 21.1434 111.221 21.33C110.872 21.4938 110.573 21.7454 110.351 22.06C110.12 22.4167 110.005 22.8356 110.021 23.26C109.971 23.643 110.028 24.0323 110.185 24.3852C110.342 24.738 110.593 25.0407 110.911 25.26C111.665 25.6265 112.505 25.782 113.341 25.71Z" fill="#1D1D1B"/>
<path d="M124.601 12.25C125.588 11.9867 126.59 11.7797 127.601 11.63C128.944 11.4205 130.302 11.3202 131.661 11.33C132.854 11.2989 134.042 11.4958 135.161 11.91C136.034 12.2392 136.806 12.7907 137.401 13.51C137.978 14.2397 138.382 15.0912 138.581 16C138.821 17.046 138.939 18.1166 138.931 19.19V28.87H134.931V19.87C134.948 19.0664 134.891 18.2631 134.761 17.47C134.675 16.9115 134.474 16.3769 134.171 15.9C133.902 15.4976 133.514 15.1898 133.061 15.02C132.511 14.8177 131.927 14.7226 131.341 14.74C130.812 14.7495 130.284 14.7929 129.761 14.87C129.221 14.93 128.761 14.99 128.551 15.03V28.87H124.551L124.601 12.25Z" fill="#1D1D1B"/>
<path d="M159.922 28.87C158.558 28.906 157.2 28.6785 155.922 28.2C154.866 27.7922 153.918 27.1453 153.152 26.31C152.413 25.4919 151.86 24.5229 151.532 23.47C151.174 22.3041 150.999 21.0897 151.012 19.87V5.67004H155.162V19.45C155.145 20.3427 155.263 21.2328 155.512 22.09C155.707 22.7515 156.049 23.3601 156.512 23.87C156.933 24.3144 157.449 24.6565 158.022 24.87C158.645 25.0903 159.302 25.1986 159.962 25.19C160.643 25.2003 161.319 25.092 161.962 24.87C162.542 24.6629 163.063 24.32 163.482 23.87C163.946 23.3601 164.288 22.7515 164.482 22.09C164.732 21.2328 164.85 20.3427 164.832 19.45V5.67004H168.982V19.87C168.994 21.0911 168.812 22.3062 168.442 23.47C168.09 24.519 167.517 25.4804 166.762 26.29C165.988 27.1281 165.029 27.775 163.962 28.18C162.671 28.6625 161.301 28.8966 159.922 28.87Z" fill="#1D1D1B"/>
<path d="M173.763 12.25C174.75 11.9877 175.752 11.7807 176.763 11.63C178.106 11.421 179.463 11.3206 180.823 11.33C182.016 11.298 183.204 11.4949 184.323 11.91C185.197 12.2418 185.972 12.7928 186.573 13.51C187.15 14.2408 187.557 15.0916 187.763 16C188.003 17.0461 188.12 18.1167 188.113 19.19V28.87H184.113V19.87C184.123 19.0862 184.063 18.3031 183.933 17.53C183.842 16.9728 183.641 16.4391 183.343 15.96C183.068 15.5592 182.677 15.2522 182.223 15.08C181.676 14.8785 181.095 14.7835 180.513 14.8C179.984 14.7997 179.457 14.8331 178.933 14.9C178.393 14.96 177.993 15.02 177.723 15.06V28.87H173.723L173.763 12.25Z" fill="#1D1D1B"/>
<path d="M197.181 6.69002C197.196 7.01816 197.14 7.34577 197.016 7.64982C196.891 7.95388 196.702 8.22701 196.461 8.45002C195.997 8.88299 195.384 9.11956 194.751 9.11002C194.11 9.12162 193.49 8.88512 193.021 8.45002C192.779 8.22701 192.59 7.95388 192.466 7.64982C192.341 7.34577 192.285 7.01816 192.301 6.69002C192.282 6.35559 192.336 6.02108 192.461 5.71007C192.585 5.39906 192.776 5.11913 193.021 4.89002C193.49 4.45492 194.11 4.21842 194.751 4.23002C195.384 4.22048 195.997 4.45706 196.461 4.89002C196.705 5.11913 196.896 5.39906 197.02 5.71007C197.145 6.02108 197.199 6.35559 197.181 6.69002ZM196.761 28.87H192.761V11.69H196.761V28.87Z" fill="#1D1D1B"/>
<path d="M217.079 19.8099C217.094 21.0678 216.894 22.319 216.489 23.5099C216.134 24.5642 215.565 25.5342 214.819 26.3599C214.096 27.1514 213.209 27.7758 212.219 28.1899C211.157 28.6386 210.013 28.8633 208.859 28.8499C207.712 28.8643 206.575 28.6395 205.519 28.1899C204.538 27.7727 203.658 27.1485 202.939 26.3599C202.191 25.5327 201.616 24.5635 201.249 23.5099C200.836 22.3208 200.633 21.0688 200.649 19.8099C200.633 18.5576 200.836 17.3121 201.249 16.1299C201.618 15.081 202.196 14.1181 202.949 13.2999C203.679 12.5136 204.569 11.8929 205.559 11.4799C206.605 11.0475 207.728 10.8298 208.859 10.8399C210.001 10.832 211.132 11.0495 212.189 11.4799C213.178 11.8906 214.065 12.5116 214.789 13.2999C215.532 14.1218 216.104 15.084 216.469 16.1299C216.891 17.3103 217.098 18.5567 217.079 19.8099ZM213.019 19.8099C213.087 18.3937 212.701 16.9927 211.919 15.8099C211.572 15.3278 211.111 14.9393 210.577 14.6793C210.043 14.4192 209.453 14.2958 208.859 14.3199C208.263 14.2845 207.667 14.3986 207.125 14.6518C206.584 14.905 206.115 15.2893 205.759 15.7699C204.977 16.9527 204.592 18.3537 204.659 19.7699C204.583 21.2186 204.968 22.6542 205.759 23.8699C206.104 24.3552 206.564 24.7467 207.099 25.0086C207.633 25.2706 208.225 25.3948 208.819 25.3699C209.414 25.3948 210.005 25.2706 210.54 25.0086C211.074 24.7467 211.535 24.3552 211.879 23.8699C212.677 22.6702 213.076 21.2495 213.019 19.8099Z" fill="#1D1D1B"/>
<path d="M220.972 12.25C221.96 11.9877 222.961 11.7807 223.972 11.63C225.315 11.4213 226.673 11.321 228.032 11.33C229.228 11.2981 230.42 11.495 231.542 11.91C232.412 12.2444 233.183 12.7951 233.782 13.51C234.359 14.2397 234.763 15.0912 234.962 16C235.199 17.0465 235.313 18.1171 235.302 19.19V28.87H231.302V19.87C231.312 19.0862 231.252 18.303 231.122 17.53C231.031 16.9727 230.831 16.4391 230.532 15.96C230.263 15.5576 229.875 15.2498 229.422 15.08C228.871 14.8786 228.288 14.7836 227.702 14.8C227.177 14.7997 226.653 14.8331 226.132 14.9C225.582 14.96 225.182 15.02 224.922 15.06V28.87H220.922L220.972 12.25Z" fill="#1D1D1B"/>
</svg>
