<svg width="150" height="50" viewBox="0 0 150 50" fill="none" xmlns="http://www.w3.org/2000/svg">
<path d="M48.8928 44L29 40.2314V10.2479L48.8928 4V44Z" fill="#164194"/>
<path d="M29 33.0248V25.2562C29.9864 25.5207 31.1044 25.6529 31.8606 25.2232C33.4718 24.2315 35.9049 21.2893 35.9049 21.2893C35.9049 21.2893 34.6226 24.4629 35.1158 25.6529C35.6419 26.8761 38.6669 26.9753 38.6669 26.9753C38.6669 26.9753 35.2144 29.0579 33.6033 30.4463C31.9593 31.8678 30.8084 37.091 30.8084 37.091C30.8084 37.091 30.0193 33.7191 29 33.0248Z" fill="#FFED00"/>
<path d="M48.893 19.3058C48.2025 19.7356 47.5449 20.0992 47.0188 20.1984C45.4077 20.4959 43.6979 18.6777 43.6979 18.6777C43.6979 18.6777 44.0925 21.3885 43.106 23.0414C42.0539 24.7934 38.6343 26.9753 38.6343 26.9753C38.6343 26.9753 42.3827 26.248 43.1389 27.405C43.9281 28.6612 44.0267 33.0579 44.0267 33.0579C44.0267 33.0579 45.9338 27.8017 47.6764 27.0744C48.0053 26.9422 48.4327 26.81 48.893 26.6777V19.3058Z" fill="#E30613"/>
<path d="M35.9048 21.2893C35.9048 21.2893 37.8119 18.248 37.7132 17.1902C37.6146 16.1654 35.6089 15.8017 35.6089 15.8017C35.6089 15.8017 38.2065 15.1406 39.3573 14.1158C40.4423 13.1241 41.4288 11.0745 41.4288 11.0745C41.4288 11.0745 41.6589 12.7935 42.6453 13.0249C43.6646 13.2893 46.3609 12.1984 46.3609 12.1984C46.3609 12.1984 44.2236 14.215 43.4016 15.3059C42.5467 16.4629 43.7633 18.6447 43.7633 18.6447C43.7633 18.6447 41.4945 17.8513 40.2451 18.0827C38.9627 18.3141 35.9048 21.2893 35.9048 21.2893Z" fill="white"/>
<path d="M58.8228 19.0083V11.5042H63.5576V12.6612H60.1709V14.5785H63.163V15.7356H60.1709V19.0083H58.8228Z" fill="black"/>
<path d="M69.0159 18.7107C68.7529 18.7769 68.424 18.843 68.0295 18.9091C67.6349 18.9752 67.1746 19.0083 66.7143 19.0083C66.2539 19.0083 65.8922 18.9422 65.5634 18.8099C65.2675 18.6777 65.0045 18.5124 64.8401 18.281C64.6428 18.0496 64.5112 17.7851 64.4455 17.4546C64.3797 17.124 64.314 16.7934 64.314 16.3967V13.2231H65.6292V16.1984C65.6292 16.7934 65.7278 17.2231 65.8922 17.4876C66.0566 17.7521 66.3854 17.8843 66.8129 17.8843C66.9773 17.8843 67.1417 17.8843 67.3061 17.8512C67.4705 17.8512 67.602 17.8182 67.7007 17.7851V13.2231H69.0159V18.7107Z" fill="black"/>
<path d="M70.5939 13.5207C70.857 13.4545 71.1858 13.3884 71.5803 13.3223C71.9749 13.2562 72.4352 13.2231 72.9284 13.2231C73.3888 13.2231 73.7833 13.2893 74.0793 13.4215C74.3752 13.5537 74.6382 13.719 74.8026 13.9504C74.9999 14.1818 75.1314 14.4463 75.1972 14.7769C75.263 15.1074 75.2958 15.438 75.2958 15.8347V19.0083H73.9806V16.0331C73.9806 15.7355 73.9477 15.4711 73.9149 15.2727C73.882 15.0744 73.8162 14.876 73.7176 14.7438C73.6189 14.6116 73.5203 14.5124 73.3559 14.4463C73.1915 14.3802 73.0271 14.3471 72.7969 14.3471C72.6325 14.3471 72.4681 14.3471 72.2708 14.3802C72.1064 14.4132 71.9749 14.4132 71.8763 14.4463V19.0083H70.561V13.5207H70.5939Z" fill="black"/>
<path d="M77.8605 16.033C77.8605 16.595 77.992 17.0578 78.255 17.3883C78.5181 17.7189 78.9126 17.8842 79.373 17.8842C79.5703 17.8842 79.7675 17.8842 79.8991 17.8512C80.0306 17.8181 80.1621 17.8181 80.2608 17.785V14.5454C80.1292 14.4793 79.9977 14.3801 79.8004 14.314C79.6031 14.2479 79.4059 14.2148 79.2086 14.2148C78.7482 14.2148 78.3866 14.3801 78.1564 14.7107C77.9591 15.0082 77.8605 15.471 77.8605 16.033ZM81.6089 18.6776C81.3458 18.7437 81.017 18.8429 80.6224 18.909C80.2279 18.9751 79.8333 19.0082 79.4059 19.0082C78.9455 19.0082 78.551 18.9421 78.2222 18.8098C77.8605 18.6776 77.5645 18.4793 77.3344 18.2148C77.0713 17.9503 76.9069 17.6528 76.7754 17.2892C76.6439 16.9255 76.5781 16.5288 76.5781 16.066C76.5781 15.6363 76.6439 15.2065 76.7425 14.8429C76.8412 14.4793 77.0056 14.1817 77.2357 13.9173C77.4659 13.6528 77.7289 13.4545 78.0249 13.3222C78.3208 13.19 78.6825 13.1239 79.0771 13.1239C79.3401 13.1239 79.6031 13.1569 79.8004 13.2231C79.9977 13.2892 80.195 13.3553 80.3265 13.4545V11.7685L81.6417 11.5371V18.6776H81.6089Z" fill="black"/>
<path d="M87.7903 18.7107C87.5273 18.7769 87.1985 18.843 86.8039 18.9091C86.4093 18.9752 85.949 19.0083 85.4887 19.0083C85.0283 19.0083 84.6667 18.9422 84.3378 18.8099C84.0419 18.6777 83.7789 18.5124 83.6145 18.281C83.4172 18.0496 83.2857 17.7851 83.2199 17.4546C83.1541 17.124 83.0884 16.7934 83.0884 16.3967V13.2231H84.4036V16.1984C84.4036 16.7934 84.5022 17.2231 84.6667 17.4876C84.8311 17.7521 85.1599 17.8843 85.5873 17.8843C85.7517 17.8843 85.9161 17.8843 86.0805 17.8512C86.2449 17.8512 86.3764 17.8182 86.4751 17.7851V13.2231H87.7903V18.7107Z" fill="black"/>
<path d="M90.8154 17.9173C91.1443 17.9173 91.4073 17.8842 91.5717 17.785C91.7361 17.6859 91.8019 17.5536 91.8019 17.3553C91.8019 17.1569 91.7032 17.0247 91.5388 16.8925C91.3744 16.7602 91.0785 16.628 90.7168 16.4958C90.4866 16.3966 90.2565 16.3305 90.0592 16.2313C89.8619 16.1321 89.6975 16.033 89.5331 15.9007C89.4016 15.7685 89.2701 15.6032 89.2043 15.4379C89.1057 15.2396 89.0728 15.0412 89.0728 14.7768C89.0728 14.2478 89.2701 13.8512 89.6317 13.5536C90.0263 13.2561 90.5195 13.0908 91.1771 13.0908C91.5059 13.0908 91.8347 13.1239 92.1307 13.19C92.4266 13.2561 92.6568 13.3222 92.8212 13.3553L92.591 14.4131C92.4595 14.347 92.2622 14.2809 92.032 14.2478C91.8019 14.1817 91.5388 14.1817 91.2429 14.1817C90.9799 14.1817 90.7497 14.2148 90.5853 14.314C90.4209 14.4131 90.3222 14.5454 90.3222 14.7437C90.3222 14.8429 90.3551 14.909 90.3551 15.0082C90.388 15.0743 90.4538 15.1404 90.5195 15.2065C90.5853 15.2726 90.7168 15.3388 90.8154 15.4049C90.947 15.471 91.1114 15.5371 91.2758 15.6032C91.5717 15.7354 91.8347 15.8346 92.0649 15.9338C92.2951 16.033 92.4595 16.1652 92.591 16.2974C92.7225 16.4297 92.8212 16.595 92.8869 16.7933C92.9527 16.9586 92.9856 17.19 92.9856 17.4545C92.9856 17.9834 92.7883 18.4131 92.3937 18.6776C91.9992 18.9421 91.4402 19.1074 90.6839 19.1074C90.1907 19.1074 89.7961 19.0743 89.5002 18.9751C89.2043 18.8759 88.9741 18.8098 88.8755 18.7768L89.1057 17.6859C89.3029 17.752 89.5331 17.8512 89.7961 17.9173C90.1578 17.8842 90.4538 17.9173 90.8154 17.9173Z" fill="black"/>
<path d="M98.1809 14.2479C98.0494 14.4132 97.8521 14.6115 97.6219 14.876C97.3918 15.1404 97.1287 15.471 96.8657 15.8016C96.6026 16.1322 96.3396 16.4958 96.0765 16.8595C95.8135 17.2231 95.5505 17.5867 95.3532 17.9173H98.2467V19.0082H93.7749V18.1818C93.9393 17.8842 94.1366 17.5867 94.3668 17.2561C94.5969 16.9256 94.86 16.5619 95.0901 16.2314C95.3532 15.9008 95.5833 15.5702 95.8464 15.2396C96.1094 14.9421 96.3067 14.6446 96.504 14.4132H93.9064V13.3223H98.1809V14.2479Z" fill="black"/>
<path d="M102.686 15.4711C102.686 15.3058 102.653 15.1074 102.62 14.9422C102.554 14.7769 102.488 14.6446 102.39 14.5124C102.291 14.3802 102.159 14.3141 102.028 14.2479C101.896 14.1818 101.732 14.1488 101.535 14.1488C101.337 14.1488 101.173 14.1818 101.009 14.2479C100.844 14.3141 100.746 14.4132 100.614 14.5455C100.515 14.6777 100.417 14.8099 100.384 14.9752C100.318 15.1405 100.285 15.3058 100.252 15.4711H102.686ZM98.9043 16.0661C98.9043 15.5703 98.9701 15.1405 99.1345 14.7438C99.266 14.3802 99.4633 14.0496 99.7263 13.8182C99.9565 13.5537 100.252 13.3884 100.581 13.2562C100.91 13.124 101.206 13.0579 101.535 13.0579C102.324 13.0579 102.916 13.2893 103.343 13.7851C103.771 14.281 104.001 14.9752 104.001 15.9339C104.001 16 104.001 16.0992 104.001 16.1653C104.001 16.2645 104.001 16.3306 103.968 16.3967H100.252C100.285 16.8595 100.45 17.1901 100.746 17.4546C101.042 17.686 101.436 17.8182 101.962 17.8182C102.291 17.8182 102.554 17.7851 102.817 17.719C103.08 17.6529 103.277 17.5868 103.442 17.5207L103.606 18.5785C103.54 18.6116 103.442 18.6446 103.31 18.6777C103.179 18.7108 103.047 18.7438 102.883 18.7769C102.718 18.8099 102.554 18.843 102.357 18.843C102.159 18.876 101.995 18.876 101.798 18.876C101.305 18.876 100.877 18.8099 100.515 18.6446C100.154 18.4794 99.8578 18.281 99.6277 18.0165C99.3975 17.7521 99.2002 17.4546 99.1016 17.0909C98.9701 16.8926 98.9043 16.4959 98.9043 16.0661Z" fill="black"/>
<path d="M58.8228 28.9919V21.4878H63.6233V22.6448H60.1709V24.4961H63.2288V25.6531H60.1709V27.8349H63.8864V28.9919H58.8228Z" fill="black"/>
<path d="M69.4431 28.6941C69.1801 28.7603 68.8513 28.8264 68.4567 28.8925C68.0622 28.9586 67.6018 28.9917 67.1415 28.9917C66.6812 28.9917 66.3195 28.9256 65.9907 28.7933C65.6947 28.6611 65.4317 28.4958 65.2673 28.2644C65.07 28.033 64.9385 27.7685 64.8727 27.438C64.807 27.1074 64.7412 26.7768 64.7412 26.3801V23.2065H66.0564V26.1818C66.0564 26.7768 66.1551 27.2065 66.3195 27.471C66.4839 27.7355 66.8127 27.8677 67.2401 27.8677C67.4045 27.8677 67.5689 27.8677 67.7333 27.8346C67.8978 27.8346 68.0293 27.8016 68.1279 27.7685V23.2065H69.4431V28.6941Z" fill="black"/>
<path d="M74.2438 24.4958C74.1451 24.4627 73.9807 24.4297 73.7835 24.3966C73.5862 24.3636 73.3889 24.3305 73.1258 24.3305C72.9943 24.3305 72.8299 24.3305 72.6655 24.3636C72.5011 24.3966 72.4025 24.4297 72.3367 24.4297V28.9586H71.0215V23.6032C71.2845 23.5041 71.5805 23.4379 71.975 23.3388C72.3367 23.2396 72.7642 23.2065 73.2245 23.2065C73.3231 23.2065 73.4218 23.2065 73.5204 23.2065C73.6191 23.2065 73.7506 23.2396 73.8492 23.2396C73.9479 23.2727 74.0794 23.2727 74.178 23.3057C74.2767 23.3388 74.3753 23.3388 74.4411 23.3718L74.2438 24.4958Z" fill="black"/>
<path d="M79.0774 26.0166C79.0774 25.4546 78.9458 25.0249 78.7157 24.6943C78.4855 24.3637 78.1567 24.1984 77.6964 24.1984C77.2689 24.1984 76.9401 24.3637 76.6771 24.6943C76.4469 25.0249 76.3154 25.4546 76.3154 26.0166C76.3154 26.5786 76.4469 27.0414 76.6771 27.372C76.9072 27.7026 77.2689 27.8678 77.6964 27.8678C78.1238 27.8678 78.4526 27.7026 78.7157 27.372C78.9458 27.0414 79.0774 26.5786 79.0774 26.0166ZM80.3926 26.0166C80.3926 26.4794 80.3268 26.8761 80.1953 27.2398C80.0638 27.6034 79.8994 27.934 79.6363 28.1984C79.4062 28.4629 79.1103 28.6612 78.7814 28.7935C78.4526 28.9257 78.091 29.0249 77.6635 29.0249C77.2689 29.0249 76.9072 28.9588 76.5784 28.7935C76.2496 28.6612 75.9537 28.4629 75.7235 28.1984C75.4934 27.934 75.2961 27.6364 75.1646 27.2398C75.033 26.8761 74.9673 26.4794 74.9673 26.0166C74.9673 25.5869 75.033 25.1571 75.1646 24.7935C75.2961 24.4298 75.4934 24.1323 75.7235 23.8679C75.9537 23.6034 76.2496 23.405 76.5784 23.2728C76.9072 23.1406 77.2689 23.0745 77.6635 23.0745C78.0581 23.0745 78.4198 23.1406 78.7486 23.2728C79.0774 23.405 79.3733 23.6034 79.6035 23.8679C79.8336 24.1323 80.0309 24.4298 80.1624 24.7935C80.3268 25.1571 80.3926 25.5538 80.3926 26.0166Z" fill="black"/>
<path d="M85.4234 26.1818C85.4234 25.5867 85.2918 25.157 85.0288 24.8264C84.7657 24.4958 84.3383 24.3305 83.7793 24.3305C83.6478 24.3305 83.5163 24.3305 83.3848 24.3636C83.2532 24.3636 83.1217 24.3966 82.9902 24.4297V27.6694C83.0888 27.7355 83.2532 27.8346 83.4505 27.9008C83.6478 27.9669 83.8451 27.9999 84.0753 27.9999C84.5356 27.9999 84.8973 27.8346 85.1274 27.5041C85.2918 27.1735 85.4234 26.7437 85.4234 26.1818ZM86.7386 26.1818C86.7386 26.6115 86.6728 27.0082 86.5742 27.3718C86.4755 27.7355 86.3111 28.033 86.081 28.2975C85.8837 28.5619 85.6206 28.7603 85.2918 28.8925C84.9959 29.0247 84.6342 29.1239 84.2397 29.1239C83.9766 29.1239 83.7464 29.0908 83.5163 29.0247C83.2861 28.9586 83.1217 28.8925 82.9573 28.7933V30.9751H81.6421V23.5041C81.9051 23.4379 82.2339 23.3718 82.6285 23.3057C83.0231 23.2396 83.4176 23.2065 83.8451 23.2065C84.3054 23.2065 84.7 23.2727 85.0288 23.4049C85.3905 23.5371 85.6864 23.7355 85.9166 23.9999C86.1796 24.2644 86.344 24.5619 86.4755 24.9256C86.6728 25.2892 86.7386 25.7189 86.7386 26.1818Z" fill="black"/>
<path d="M91.5059 25.4875C91.5059 25.3223 91.473 25.1239 91.4401 24.9586C91.3744 24.7933 91.3086 24.6611 91.21 24.5289C91.1113 24.3966 90.9798 24.3305 90.8483 24.2644C90.7167 24.1983 90.5523 24.1652 90.3551 24.1652C90.1578 24.1652 89.9934 24.1983 89.829 24.2644C89.6646 24.3305 89.5659 24.4297 89.4344 24.5619C89.3358 24.6942 89.2371 24.8264 89.2042 24.9917C89.1385 25.157 89.1056 25.3223 89.0727 25.4875H91.5059ZM87.7246 26.0495C87.7246 25.5537 87.7904 25.1239 87.9548 24.7272C88.0863 24.3636 88.2836 24.033 88.5466 23.8016C88.7768 23.5371 89.0727 23.3718 89.4015 23.2396C89.7303 23.1074 90.0263 23.0413 90.3551 23.0413C91.1442 23.0413 91.736 23.2727 92.1635 23.7685C92.5909 24.2644 92.8211 24.9586 92.8211 25.9173C92.8211 25.9834 92.8211 26.0826 92.8211 26.1487C92.8211 26.2479 92.8211 26.314 92.7882 26.3801H89.0727C89.1056 26.8429 89.27 27.1735 89.5659 27.438C89.8618 27.7024 90.2564 27.8016 90.7825 27.8016C91.1113 27.8016 91.3744 27.7685 91.6374 27.7024C91.9004 27.6363 92.0977 27.5702 92.2621 27.5041L92.4265 28.5619C92.3608 28.595 92.2621 28.628 92.1306 28.6611C91.9991 28.6942 91.8676 28.7272 91.7032 28.7603C91.5388 28.7933 91.3744 28.8264 91.1771 28.8264C90.9798 28.8594 90.8154 28.8594 90.6181 28.8594C90.1249 28.8594 89.6974 28.7933 89.3358 28.628C88.9741 28.4958 88.6781 28.2644 88.448 27.9999C88.2178 27.7355 88.0205 27.438 87.9219 27.0743C87.7904 26.876 87.7246 26.4793 87.7246 26.0495Z" fill="black"/>
<path d="M95.5504 21.6858C95.5504 21.9172 95.4846 22.1156 95.3202 22.2809C95.1558 22.4131 94.9914 22.5123 94.7613 22.5123C94.5311 22.5123 94.3338 22.4462 94.2023 22.2809C94.0379 22.1486 93.9721 21.9503 93.9721 21.6858C93.9721 21.4214 94.0379 21.223 94.2023 21.0908C94.3667 20.9585 94.564 20.8594 94.7613 20.8594C94.9914 20.8594 95.1558 20.9255 95.3202 21.0908C95.4846 21.223 95.5504 21.4214 95.5504 21.6858ZM93.3803 31.0081C93.2816 31.0081 93.1501 31.0081 92.9857 30.9751C92.8213 30.942 92.6569 30.909 92.5254 30.8759L92.6898 29.8181C92.8542 29.8511 93.0515 29.8842 93.2488 29.8842C93.5447 29.8842 93.7749 29.785 93.8735 29.6197C94.005 29.4544 94.0708 29.19 94.0708 28.8263V23.3387H95.386V28.8594C95.386 29.5866 95.2216 30.1486 94.8599 30.4792C94.5311 30.8428 94.0379 31.0081 93.3803 31.0081Z" fill="black"/>
<path d="M98.4112 27.9339C98.74 27.9339 99.003 27.9008 99.1674 27.8016C99.3318 27.7025 99.3976 27.5702 99.3976 27.3719C99.3976 27.1735 99.2989 27.0413 99.1345 26.9091C98.9701 26.7768 98.6742 26.6446 98.3125 26.5124C98.0823 26.4132 97.8522 26.3471 97.6549 26.2479C97.4576 26.1487 97.2932 26.0496 97.1288 25.9173C96.9973 25.7851 96.8658 25.6198 96.8 25.4545C96.7014 25.2562 96.6685 25.0578 96.6685 24.7934C96.6685 24.2644 96.8658 23.8678 97.2274 23.5702C97.622 23.2727 98.1152 23.1074 98.7728 23.1074C99.1016 23.1074 99.4304 23.1405 99.7264 23.2066C100.022 23.2727 100.252 23.3388 100.417 23.3719L100.187 24.4297C100.055 24.3636 99.8579 24.2975 99.6277 24.2644C99.3976 24.1983 99.1345 24.1983 98.8386 24.1983C98.5755 24.1983 98.3454 24.2314 98.181 24.3306C98.0166 24.4297 97.9179 24.562 97.9179 24.7603C97.9179 24.8595 97.9508 24.9256 97.9508 25.0248C97.9837 25.0909 98.0495 25.157 98.1152 25.2231C98.181 25.2892 98.3125 25.3554 98.4112 25.4215C98.5427 25.4876 98.7071 25.5537 98.8715 25.6198C99.1674 25.7521 99.4304 25.8512 99.6606 25.9504C99.8908 26.0496 100.055 26.1818 100.187 26.314C100.318 26.4463 100.417 26.6116 100.483 26.8099C100.548 26.9752 100.581 27.2066 100.581 27.4711C100.581 28 100.384 28.4297 99.9894 28.6942C99.5948 28.9587 99.0359 29.124 98.2796 29.124C97.7864 29.124 97.3919 29.0909 97.0959 28.9917C96.8 28.8925 96.5698 28.8264 96.4712 28.7934L96.7014 27.7025C96.8986 27.7686 97.1288 27.8678 97.3918 27.9339C97.7535 27.9008 98.0823 27.9339 98.4112 27.9339Z" fill="black"/>
<path d="M103.179 25.5539C103.343 25.3886 103.508 25.1903 103.705 24.9919C103.902 24.7936 104.067 24.5952 104.264 24.3969C104.428 24.1985 104.626 24.0002 104.79 23.8349C104.954 23.6366 105.086 23.5043 105.217 23.339H106.763C106.401 23.7357 106.039 24.1655 105.612 24.5952C105.217 25.025 104.823 25.4547 104.428 25.8514C104.658 26.0167 104.856 26.2481 105.119 26.5126C105.349 26.777 105.579 27.0415 105.809 27.339C106.039 27.6366 106.237 27.901 106.434 28.1985C106.631 28.4961 106.796 28.7605 106.927 28.9919H105.415C105.283 28.7605 105.152 28.5291 104.954 28.2977C104.79 28.0663 104.593 27.8018 104.395 27.5704C104.198 27.339 104.001 27.1076 103.804 26.9093C103.606 26.7109 103.409 26.5126 103.212 26.3804V28.9919H101.896V21.7192L103.212 21.4878V25.5539H103.179Z" fill="black"/>
<path d="M109.032 28.9916H107.716V23.3387H109.032V28.9916ZM109.196 21.6858C109.196 21.9172 109.13 22.1156 108.966 22.2809C108.801 22.4131 108.637 22.5123 108.407 22.5123C108.177 22.5123 107.979 22.4462 107.848 22.2809C107.683 22.1486 107.618 21.9503 107.618 21.6858C107.618 21.4214 107.683 21.223 107.848 21.0908C108.012 20.9585 108.21 20.8594 108.407 20.8594C108.637 20.8594 108.801 20.9255 108.966 21.0908C109.097 21.223 109.196 21.4214 109.196 21.6858Z" fill="black"/>
<path d="M114.095 25.4875C114.095 25.3223 114.062 25.1239 114.029 24.9586C113.964 24.7933 113.898 24.6611 113.799 24.5289C113.701 24.3966 113.569 24.3305 113.438 24.2644C113.306 24.1983 113.142 24.1652 112.944 24.1652C112.747 24.1652 112.583 24.1983 112.418 24.2644C112.254 24.3305 112.155 24.4297 112.024 24.5619C111.925 24.6942 111.826 24.8264 111.794 24.9917C111.728 25.157 111.695 25.3223 111.662 25.4875H114.095ZM110.314 26.0495C110.314 25.5537 110.38 25.1239 110.544 24.7272C110.676 24.3636 110.873 24.033 111.136 23.8016C111.366 23.5371 111.662 23.3718 111.991 23.2396C112.32 23.1074 112.616 23.0413 112.944 23.0413C113.734 23.0413 114.325 23.2727 114.753 23.7685C115.18 24.2644 115.41 24.9586 115.41 25.9173C115.41 25.9834 115.41 26.0826 115.41 26.1487C115.41 26.2479 115.41 26.314 115.378 26.3801H111.662C111.695 26.8429 111.859 27.1735 112.155 27.438C112.451 27.7024 112.846 27.8016 113.405 27.8016C113.734 27.8016 113.997 27.7685 114.26 27.7024C114.523 27.6363 114.72 27.5702 114.884 27.5041L115.049 28.5619C114.983 28.595 114.884 28.628 114.753 28.6611C114.621 28.6942 114.49 28.7272 114.325 28.7603C114.161 28.7933 113.997 28.8264 113.799 28.8264C113.602 28.8594 113.438 28.8594 113.24 28.8594C112.747 28.8594 112.32 28.7933 111.958 28.628C111.596 28.4958 111.3 28.2644 111.07 27.9999C110.84 27.7355 110.643 27.438 110.544 27.0743C110.38 26.876 110.314 26.4793 110.314 26.0495Z" fill="black"/>
<path d="M59.5133 34.0496H58.8228V39.0082H59.5133V34.0496Z" fill="black"/>
<path d="M60.6641 35.4049C60.8285 35.3718 61.0258 35.3388 61.2559 35.2727C61.519 35.2396 61.782 35.2065 62.1108 35.2065C62.4067 35.2065 62.6369 35.2396 62.8342 35.3388C63.0315 35.4379 63.1959 35.5371 63.2945 35.7024C63.426 35.8677 63.4918 36.033 63.5247 36.2313C63.5576 36.4297 63.5904 36.6611 63.5904 36.9255V39.0082H62.9328V37.0578C62.9328 36.8264 62.9328 36.628 62.8999 36.4627C62.8671 36.2975 62.8342 36.1652 62.7355 36.066C62.6698 35.9669 62.5711 35.9008 62.4396 35.8346C62.3081 35.8016 62.1766 35.7685 62.0122 35.7685C61.9464 35.7685 61.8807 35.7685 61.782 35.7685C61.7162 35.7685 61.6505 35.7685 61.5518 35.8016C61.4861 35.8016 61.4203 35.8016 61.3546 35.8346C61.2888 35.8346 61.2559 35.8346 61.223 35.8677V39.0082H60.5654V35.4049H60.6641Z" fill="black"/>
<path d="M65.3329 35.2067H66.7468V35.7687H65.3329V37.4877C65.3329 37.6861 65.3329 37.8183 65.3658 37.9505C65.3987 38.0828 65.4315 38.1819 65.4973 38.2481C65.5631 38.3142 65.6288 38.3803 65.6946 38.3803C65.7932 38.4133 65.8919 38.4133 65.9905 38.4133C66.1878 38.4133 66.3522 38.3803 66.4837 38.3472C66.6152 38.3142 66.681 38.2811 66.7468 38.2481L66.8783 38.81C66.8125 38.8431 66.681 38.8762 66.5166 38.9423C66.3522 39.0084 66.1549 39.0084 65.9576 39.0084C65.6946 39.0084 65.4973 38.9753 65.3329 38.9092C65.1685 38.8431 65.037 38.7439 64.9383 38.6117C64.8397 38.4795 64.7739 38.3142 64.7411 38.1489C64.7082 37.9505 64.6753 37.7522 64.6753 37.4877V34.1819L65.3329 34.0828V35.2067Z" fill="black"/>
<path d="M69.8049 36.6942C69.8049 36.3967 69.7392 36.1322 69.5748 35.9669C69.4104 35.7686 69.2131 35.6694 68.95 35.6694C68.7856 35.6694 68.6541 35.7025 68.5555 35.7686C68.4239 35.8347 68.3253 35.9008 68.2595 36C68.1938 36.0992 68.128 36.1983 68.0622 36.3306C68.0294 36.4628 67.9965 36.595 67.9636 36.6942H69.8049ZM67.2402 37.0578C67.2402 36.7273 67.2731 36.4297 67.3718 36.1983C67.4704 35.9669 67.6019 35.7355 67.7334 35.6033C67.8978 35.438 68.0622 35.3058 68.2595 35.2397C68.4568 35.1735 68.687 35.1074 68.8843 35.1074C69.3775 35.1074 69.772 35.2727 70.0351 35.5702C70.2981 35.8678 70.4297 36.3636 70.4297 36.9917V37.0909C70.4297 37.1239 70.4297 37.1901 70.4297 37.2231H67.8978C67.9307 37.6198 68.0294 37.8843 68.2267 38.1157C68.4239 38.314 68.7199 38.4132 69.1473 38.4132C69.3775 38.4132 69.5748 38.3801 69.7392 38.3471C69.9036 38.314 70.0022 38.281 70.1008 38.2149L70.1995 38.7768C70.1337 38.8099 69.9693 38.876 69.772 38.9091C69.5748 38.9421 69.3446 38.9752 69.0815 38.9752C68.7527 38.9752 68.4897 38.9421 68.2595 38.843C68.0294 38.7438 67.8321 38.6116 67.6677 38.4463C67.5033 38.281 67.4046 38.0826 67.3389 37.8512C67.306 37.5868 67.2402 37.3554 67.2402 37.0578Z" fill="black"/>
<path d="M72.5012 39.0083C72.1067 39.0083 71.8107 38.9091 71.6463 38.7438C71.4819 38.5785 71.3833 38.314 71.3833 37.9504V33.4876L72.0409 33.3884V37.8512C72.0409 37.9504 72.0409 38.0496 72.0738 38.1157C72.1067 38.1818 72.1067 38.2479 72.1724 38.281C72.2053 38.314 72.2711 38.3471 72.3368 38.3802C72.4026 38.4132 72.5012 38.4132 72.5999 38.4463L72.5012 39.0083Z" fill="black"/>
<path d="M73.9482 39.0084H73.2905V35.2728H73.9482V39.0084ZM73.6193 34.6117C73.4878 34.6117 73.3892 34.5786 73.3234 34.4794C73.2248 34.4133 73.1919 34.2811 73.1919 34.1488C73.1919 34.0166 73.2248 33.9174 73.3234 33.8183C73.4221 33.7521 73.5207 33.686 73.6193 33.686C73.7509 33.686 73.8495 33.7191 73.9153 33.8183C74.0139 33.8844 74.0468 34.0166 74.0468 34.1488C74.0468 34.2811 74.0139 34.3802 73.9153 34.4794C73.8495 34.5786 73.7509 34.6117 73.6193 34.6117Z" fill="black"/>
<path d="M77.3673 35.8678C77.3015 35.8347 77.2029 35.8347 77.1042 35.8017C77.0056 35.7686 76.8412 35.7686 76.6439 35.7686C76.2822 35.7686 76.0191 35.9009 75.8219 36.1323C75.6246 36.3637 75.5259 36.6612 75.5259 37.0579C75.5259 37.2562 75.5588 37.4546 75.5917 37.6199C75.6575 37.7852 75.7232 37.8843 75.8219 37.9835C75.9205 38.0827 76.0191 38.1488 76.1507 38.2149C76.2822 38.248 76.3808 38.281 76.5124 38.281C76.6768 38.281 76.8412 38.248 77.0056 38.2149C77.1371 38.1818 77.2686 38.1157 77.3673 38.0496V35.8678ZM77.3673 38.6116C77.3015 38.6447 77.2029 38.7108 77.0384 38.7438C76.874 38.8099 76.6768 38.843 76.4795 38.843C76.2493 38.843 76.052 38.8099 75.8547 38.7438C75.6575 38.6777 75.4931 38.5785 75.3287 38.4133C75.1971 38.248 75.0656 38.0827 74.967 37.8513C74.8683 37.6199 74.8354 37.3554 74.8354 37.0579C74.8354 36.7934 74.8683 36.529 74.967 36.2975C75.0327 36.0661 75.1643 35.8678 75.3287 35.7025C75.4931 35.5372 75.6575 35.405 75.8876 35.3058C76.1178 35.2066 76.348 35.1736 76.6439 35.1736C76.9398 35.1736 77.2357 35.2066 77.4659 35.2397C77.6961 35.2728 77.8933 35.3389 78.0577 35.3719V38.6777C78.0577 39.2397 77.9262 39.6694 77.6303 39.9339C77.3344 40.1984 76.9069 40.3306 76.2822 40.3306C76.052 40.3306 75.8219 40.2975 75.6246 40.2645C75.4273 40.2314 75.23 40.1653 75.0985 40.1323L75.23 39.5372C75.3615 39.6033 75.5259 39.6364 75.7232 39.6695C75.9205 39.7025 76.1178 39.7356 76.3151 39.7356C76.7096 39.7356 77.0056 39.6695 77.17 39.5042C77.3344 39.3389 77.433 39.1075 77.433 38.7438V38.6116H77.3673Z" fill="black"/>
<path d="M81.4449 36.6942C81.4449 36.3967 81.3791 36.1322 81.2147 35.9669C81.0503 35.7686 80.853 35.6694 80.59 35.6694C80.4256 35.6694 80.2941 35.7025 80.1954 35.7686C80.0639 35.8347 79.9653 35.9008 79.8995 36C79.8337 36.0992 79.768 36.1983 79.7022 36.3306C79.6693 36.4628 79.6365 36.595 79.6036 36.6942H81.4449ZM78.9131 37.0578C78.9131 36.7273 78.946 36.4297 79.0446 36.1983C79.1432 35.9669 79.2748 35.7355 79.4063 35.6033C79.5707 35.438 79.7351 35.3058 79.9324 35.2397C80.1297 35.1735 80.3598 35.1074 80.5571 35.1074C81.0503 35.1074 81.4449 35.2727 81.7079 35.5702C81.971 35.8678 82.1025 36.3636 82.1025 36.9917V37.0909C82.1025 37.1239 82.1025 37.1901 82.1025 37.2231H79.5707C79.6036 37.6198 79.7022 37.8843 79.8995 38.1157C80.0968 38.314 80.3927 38.4132 80.8202 38.4132C81.0503 38.4132 81.2476 38.3801 81.412 38.3471C81.5764 38.314 81.6751 38.281 81.7737 38.2149L81.8723 38.7768C81.8066 38.8099 81.6422 38.876 81.4449 38.9091C81.2476 38.9421 81.0174 38.9752 80.7544 38.9752C80.4256 38.9752 80.1625 38.9421 79.9324 38.843C79.7022 38.7438 79.5049 38.6116 79.3405 38.4463C79.1761 38.281 79.0775 38.0826 79.0117 37.8512C78.946 37.5868 78.9131 37.3554 78.9131 37.0578Z" fill="black"/>
<path d="M83.0557 35.4049C83.2201 35.3718 83.4174 35.3388 83.6475 35.2727C83.9106 35.2396 84.1736 35.2065 84.5024 35.2065C84.7983 35.2065 85.0285 35.2396 85.2258 35.3388C85.4231 35.4379 85.5875 35.5371 85.6861 35.7024C85.8176 35.8677 85.8834 36.033 85.9163 36.2313C85.9492 36.4297 85.982 36.6611 85.982 36.9255V39.0082H85.3244V37.0578C85.3244 36.8264 85.3244 36.628 85.2916 36.4627C85.2587 36.2975 85.2258 36.1652 85.1271 36.066C85.0614 35.9669 84.9627 35.9008 84.8312 35.8346C84.6997 35.8016 84.5682 35.7685 84.4038 35.7685C84.338 35.7685 84.2723 35.7685 84.1736 35.7685C84.1079 35.7685 84.0421 35.7685 83.9435 35.8016C83.8777 35.8016 83.8119 35.8016 83.7462 35.8346C83.6804 35.8346 83.6475 35.8346 83.6146 35.8677V39.0082H82.957V35.4049H83.0557Z" fill="black"/>
<path d="M87.725 35.2067H89.1388V35.7687H87.725V37.4877C87.725 37.6861 87.725 37.8183 87.7579 37.9505C87.7908 38.0828 87.8236 38.1819 87.8894 38.2481C87.9552 38.3142 88.0209 38.3803 88.0867 38.3803C88.1853 38.4133 88.284 38.4133 88.3826 38.4133C88.5799 38.4133 88.7443 38.3803 88.8758 38.3472C89.0073 38.3142 89.0731 38.2811 89.1388 38.2481L89.2704 38.81C89.2046 38.8431 89.0731 38.8762 88.9087 38.9423C88.7443 39.0084 88.547 39.0084 88.3497 39.0084C88.0867 39.0084 87.8894 38.9753 87.725 38.9092C87.5606 38.8431 87.4291 38.7439 87.3304 38.6117C87.2318 38.4795 87.166 38.3142 87.1331 38.1489C87.1003 37.9505 87.0674 37.7522 87.0674 37.4877V34.1819L87.725 34.0828V35.2067Z" fill="black"/>
<path d="M89.9277 35.4049C90.0921 35.3718 90.2894 35.3388 90.5196 35.2727C90.7826 35.2396 91.0457 35.2065 91.3745 35.2065C91.6704 35.2065 91.9006 35.2396 92.0979 35.3388C92.2951 35.4379 92.4595 35.5371 92.5582 35.7024C92.6897 35.8677 92.7555 36.033 92.7884 36.2313C92.8212 36.4297 92.8541 36.6611 92.8541 36.9255V39.0082H92.1965V37.0578C92.1965 36.8264 92.1965 36.628 92.1636 36.4627C92.1307 36.2975 92.0979 36.1652 91.9992 36.066C91.9335 35.9669 91.8348 35.9008 91.7033 35.8346C91.5718 35.8016 91.4402 35.7685 91.2758 35.7685C91.2101 35.7685 91.1443 35.7685 91.0457 35.7685C90.9799 35.7685 90.9142 35.7685 90.8155 35.8016C90.7498 35.8016 90.684 35.8016 90.6182 35.8346C90.5525 35.8346 90.5196 35.8346 90.4867 35.8677V39.0082H89.8291V35.4049H89.9277Z" fill="black"/>
<path d="M93.4129 39.7026C93.4787 39.7357 93.5445 39.7357 93.6102 39.7687C93.676 39.8018 93.7746 39.8018 93.8404 39.8018C94.1034 39.8018 94.3007 39.7357 94.4651 39.6365C94.5966 39.5043 94.7282 39.339 94.8597 39.0745C94.5638 38.5125 94.2678 37.8844 94.0377 37.2563C93.7746 36.6282 93.5773 35.9671 93.3801 35.3059H94.1034C94.1692 35.5373 94.235 35.7357 94.3007 36.0001C94.3665 36.2646 94.4651 36.496 94.5309 36.7605C94.6295 37.0249 94.7282 37.2894 94.8268 37.5538C94.9254 37.8183 95.0241 38.0828 95.1556 38.3142C95.32 37.8183 95.4844 37.3224 95.6159 36.8266C95.7475 36.3307 95.879 35.8348 95.9776 35.3059H96.6681C96.5037 36.0001 96.3064 36.6943 96.1092 37.3224C95.9119 37.9505 95.6817 38.5786 95.4187 39.1406C95.32 39.372 95.2214 39.5373 95.1227 39.7026C95.0241 39.8679 94.8926 39.9671 94.7939 40.0993C94.6624 40.1985 94.5309 40.2646 94.3665 40.3307C94.2021 40.3638 94.0377 40.3968 93.8404 40.3968C93.7746 40.3968 93.7417 40.3968 93.676 40.3968C93.6102 40.3968 93.5773 40.3638 93.5116 40.3638C93.4458 40.3638 93.4129 40.3307 93.3472 40.3307C93.3143 40.3307 93.2814 40.2976 93.2485 40.2976L93.4129 39.7026Z" fill="black"/>
<path d="M100.351 34.6115C100.055 34.6115 99.8249 34.6115 99.6605 34.6446V36.4958H100.154C100.384 36.4958 100.614 36.4958 100.778 36.4627C100.976 36.4297 101.14 36.3966 101.272 36.3305C101.403 36.2644 101.502 36.1652 101.568 36.033C101.633 35.9008 101.666 35.7355 101.666 35.5371C101.666 35.3388 101.633 35.2065 101.568 35.0743C101.502 34.9421 101.403 34.8429 101.272 34.7768C101.14 34.7107 101.009 34.6446 100.844 34.6115C100.713 34.6115 100.548 34.6115 100.351 34.6115ZM101.403 36.9255C101.469 37.0247 101.568 37.157 101.699 37.2892C101.831 37.4545 101.929 37.6198 102.061 37.8181C102.192 38.0165 102.291 38.2148 102.423 38.4132C102.554 38.6115 102.653 38.8098 102.718 39.0082H101.962C101.864 38.8098 101.765 38.6446 101.666 38.4462C101.568 38.2479 101.436 38.0826 101.337 37.9173C101.239 37.752 101.107 37.5867 101.009 37.4545C100.91 37.3222 100.811 37.19 100.713 37.0578C100.647 37.0578 100.581 37.0578 100.515 37.0578H100.318H99.6934V39.0082H99.0029V34.1156C99.2002 34.0826 99.3975 34.0495 99.6605 34.0165C99.8907 34.0165 100.121 33.9834 100.318 33.9834C101.009 33.9834 101.535 34.1156 101.896 34.3801C102.258 34.6446 102.455 35.0413 102.455 35.5371C102.455 35.8677 102.357 36.1322 102.192 36.3636C101.995 36.628 101.732 36.8264 101.403 36.9255Z" fill="black"/>
<path d="M105.941 37.0578C105.941 36.6281 105.842 36.2975 105.645 36.0661C105.448 35.8347 105.217 35.7025 104.889 35.7025C104.56 35.7025 104.297 35.8347 104.132 36.0661C103.935 36.2975 103.836 36.6281 103.836 37.0578C103.836 37.4876 103.935 37.8182 104.132 38.0496C104.33 38.281 104.56 38.4132 104.889 38.4132C105.217 38.4132 105.481 38.281 105.645 38.0496C105.842 37.8182 105.941 37.4545 105.941 37.0578ZM106.631 37.0578C106.631 37.3554 106.598 37.6198 106.5 37.8512C106.401 38.0826 106.303 38.281 106.138 38.4793C105.974 38.6446 105.809 38.7768 105.579 38.876C105.382 38.9752 105.119 39.0082 104.889 39.0082C104.626 39.0082 104.395 38.9752 104.198 38.876C104.001 38.7768 103.804 38.6446 103.639 38.4793C103.475 38.314 103.376 38.1157 103.278 37.8512C103.179 37.6198 103.146 37.3554 103.146 37.0578C103.146 36.7603 103.179 36.4959 103.278 36.2644C103.376 36.033 103.475 35.8347 103.639 35.6363C103.804 35.4711 103.968 35.3388 104.198 35.2397C104.395 35.1405 104.659 35.1074 104.889 35.1074C105.152 35.1074 105.382 35.1405 105.579 35.2397C105.776 35.3388 105.974 35.4711 106.138 35.6363C106.303 35.8016 106.401 36 106.5 36.2644C106.598 36.4959 106.631 36.7603 106.631 37.0578Z" fill="black"/>
<path d="M109.853 35.7686C109.755 35.8677 109.623 36.033 109.459 36.2314C109.294 36.4297 109.13 36.6611 108.933 36.8925C108.735 37.1239 108.571 37.3884 108.374 37.6529C108.176 37.9173 108.012 38.1818 107.88 38.4132H109.919V38.9752H107.091V38.5454C107.19 38.3471 107.354 38.1157 107.519 37.8512C107.683 37.5868 107.848 37.3553 108.045 37.0909C108.242 36.8264 108.407 36.595 108.571 36.3967C108.735 36.1653 108.9 36 109.031 35.8347H107.19V35.2727H109.853V35.7686Z" fill="black"/>
<path d="M113.7 39.0083C113.569 38.6778 113.437 38.2811 113.273 37.8183C113.108 37.3885 112.977 36.9257 112.878 36.4298C112.747 36.8926 112.615 37.3554 112.484 37.8183C112.352 38.248 112.188 38.6447 112.056 39.0083H111.497C111.267 38.5125 111.07 37.9505 110.873 37.3224C110.675 36.6943 110.478 36.0001 110.281 35.2728H111.004C111.037 35.5042 111.103 35.7356 111.169 36.0001C111.234 36.2645 111.3 36.529 111.366 36.7935C111.432 37.0579 111.53 37.3224 111.596 37.5538C111.662 37.7852 111.76 38.0166 111.826 38.1819C111.892 37.9505 111.991 37.7191 112.056 37.4546C112.122 37.1902 112.221 36.9588 112.286 36.6943C112.352 36.4298 112.418 36.1984 112.484 35.934C112.55 35.7026 112.615 35.4712 112.648 35.2397H113.207C113.24 35.4712 113.306 35.6695 113.372 35.934C113.437 36.1654 113.503 36.4298 113.569 36.6943C113.635 36.9588 113.7 37.1902 113.799 37.4546C113.865 37.7191 113.963 37.9505 114.029 38.1819C114.095 37.9835 114.161 37.7852 114.259 37.5538C114.325 37.3224 114.424 37.0579 114.489 36.7935C114.555 36.529 114.621 36.2645 114.687 36.0001C114.753 35.7356 114.818 35.5042 114.851 35.2728H115.542C115.344 36.0001 115.147 36.6943 114.95 37.3224C114.753 37.9505 114.522 38.5125 114.325 39.0083H113.7Z" fill="black"/>
<path d="M118.468 33.8842L117.482 34.876L117.153 34.5785L118.074 33.4875L118.468 33.8842ZM118.665 37.0578C118.665 36.628 118.567 36.2975 118.37 36.0661C118.172 35.8347 117.942 35.7024 117.613 35.7024C117.284 35.7024 117.021 35.8347 116.857 36.0661C116.66 36.2975 116.561 36.628 116.561 37.0578C116.561 37.4876 116.66 37.8181 116.857 38.0495C117.054 38.2809 117.284 38.4132 117.613 38.4132C117.942 38.4132 118.205 38.2809 118.37 38.0495C118.567 37.8181 118.665 37.4545 118.665 37.0578ZM119.356 37.0578C119.356 37.3553 119.323 37.6198 119.224 37.8512C119.126 38.0826 119.027 38.2809 118.863 38.4793C118.698 38.6446 118.534 38.7768 118.304 38.876C118.106 38.9752 117.843 39.0082 117.613 39.0082C117.35 39.0082 117.12 38.9752 116.923 38.876C116.725 38.7768 116.528 38.6446 116.364 38.4793C116.199 38.314 116.101 38.1157 116.002 37.8512C115.903 37.6198 115.871 37.3553 115.871 37.0578C115.871 36.7603 115.903 36.4958 116.002 36.2644C116.101 36.033 116.199 35.8347 116.364 35.6363C116.528 35.471 116.693 35.3388 116.923 35.2396C117.12 35.1404 117.383 35.1074 117.613 35.1074C117.876 35.1074 118.106 35.1404 118.304 35.2396C118.501 35.3388 118.698 35.471 118.863 35.6363C119.027 35.8016 119.126 35.9999 119.224 36.2644C119.323 36.4958 119.356 36.7603 119.356 37.0578Z" fill="black"/>
<path d="M120.572 34.6117C120.441 34.6117 120.342 34.5786 120.276 34.4794C120.211 34.4133 120.145 34.2811 120.145 34.1488C120.145 34.0166 120.178 33.9174 120.276 33.8183C120.375 33.7521 120.474 33.686 120.572 33.686C120.704 33.686 120.803 33.7191 120.868 33.8183C120.967 33.8844 121 34.0166 121 34.1488C121 34.2811 120.967 34.3802 120.868 34.4794C120.803 34.5786 120.704 34.6117 120.572 34.6117ZM119.652 40.3307C119.586 40.3307 119.52 40.3307 119.422 40.2976C119.323 40.2976 119.257 40.2645 119.191 40.2315L119.29 39.7026C119.323 39.7026 119.389 39.7356 119.454 39.7356C119.52 39.7356 119.586 39.7356 119.619 39.7356C119.849 39.7356 120.013 39.6695 120.112 39.5373C120.211 39.405 120.244 39.2067 120.244 38.9092V35.2728H120.901V38.9092C120.901 39.372 120.803 39.7356 120.572 39.967C120.375 40.2315 120.046 40.3307 119.652 40.3307Z" fill="black"/>
</svg>
