<svg width="150" height="50" viewBox="0 0 150 50" fill="none" xmlns="http://www.w3.org/2000/svg">
<path fill-rule="evenodd" clip-rule="evenodd" d="M57.6816 19.4431C62.1053 19.4332 62.1213 15.8611 62.1213 15.8611H46.4697V34.3632H50.5304V27.0391H54.3989C58.9025 27.0391 58.9025 23.4586 58.9025 23.4586H58.8912L58.894 23.4562H50.5304V19.4431H57.6816V19.4431Z" fill="#282878"/>
<path fill-rule="evenodd" clip-rule="evenodd" d="M16.4654 25.2687C22.0965 21.6797 22.6874 15.8608 22.6874 15.8608H18.2613C18.2613 15.8608 16.8811 22.4349 10.0588 23.5875V15.8608H6V34.363H10.0588V27.5558C10.9302 27.4181 11.7955 27.2341 12.6241 26.9963C12.8191 27.2458 18.0884 34.3597 18.0884 34.3597H23.0905C23.0905 34.3597 16.6895 25.5819 16.4654 25.2687" fill="#282878"/>
<path fill-rule="evenodd" clip-rule="evenodd" d="M72.8467 40.0235H73.891V10.2927H72.8467V40.0235Z" fill="#282878"/>
<path fill-rule="evenodd" clip-rule="evenodd" d="M84.5967 14.0503H85.4258V16.2713L87.4223 14.0503H88.4375L86.6134 16.0531L88.5681 18.5916H87.5482L86.0426 16.6351L85.4258 17.2961V18.5916H84.5967V14.0503Z" fill="#282878"/>
<path fill-rule="evenodd" clip-rule="evenodd" d="M93.4627 16.3177C93.4627 15.4515 92.7604 14.7245 91.9247 14.7245C91.081 14.7245 90.3731 15.4515 90.3731 16.3177C90.3731 17.1903 91.081 17.9174 91.9247 17.9174C92.7604 17.9174 93.4627 17.1903 93.4627 16.3177ZM89.5308 16.3177C89.5308 15.0424 90.6248 13.9712 91.9247 13.9712C93.2179 13.9712 94.3125 15.0424 94.3125 16.3177C94.3125 17.5934 93.2179 18.6707 91.9247 18.6707C90.6248 18.6707 89.5308 17.5934 89.5308 16.3177Z" fill="#282878"/>
<path fill-rule="evenodd" clip-rule="evenodd" d="M95.9243 14.0503H96.753L98.252 16.82L99.7571 14.0503H100.58V18.5916H99.7571V15.5573L98.252 18.327L96.753 15.5573V18.5916H95.9243V14.0503Z" fill="#282878"/>
<path fill-rule="evenodd" clip-rule="evenodd" d="M102.397 18.5918H103.22V14.0505H102.397V18.5918Z" fill="#282878"/>
<path fill-rule="evenodd" clip-rule="evenodd" d="M104.704 17.9307L105.182 17.3422C105.6 17.7191 106.084 17.9569 106.681 17.9569C107.245 17.9569 107.537 17.6793 107.537 17.3553C107.537 16.9789 107.212 16.853 106.482 16.6812C105.54 16.4635 104.883 16.1924 104.883 15.3398C104.883 14.5463 105.56 13.9644 106.523 13.9644C107.245 13.9644 107.788 14.2092 108.246 14.5992L107.796 15.2074C107.397 14.8637 106.94 14.6722 106.489 14.6722C106.031 14.6722 105.719 14.9494 105.719 15.2673C105.719 15.6371 106.057 15.7692 106.78 15.9344C107.728 16.146 108.366 16.4499 108.366 17.2767C108.366 18.0894 107.743 18.6643 106.654 18.6643C105.871 18.6643 105.209 18.3998 104.704 17.9307" fill="#282878"/>
<path fill-rule="evenodd" clip-rule="evenodd" d="M109.559 17.9176L110.116 17.3755C110.275 17.6924 110.627 17.9242 110.972 17.9242C111.424 17.9242 111.742 17.567 111.742 17.0581V14.0505H112.564V17.111C112.564 18.0234 111.934 18.6709 111.045 18.6709C110.474 18.6709 109.858 18.3601 109.559 17.9176" fill="#282878"/>
<path fill-rule="evenodd" clip-rule="evenodd" d="M117.14 17.0578L116.338 15.1477L115.535 17.0578H117.14ZM117.439 17.7718H115.236L114.891 18.5916H113.97L115.874 14.0503H116.794L118.698 18.5916H117.784L117.439 17.7718Z" fill="#282878"/>
<path fill-rule="evenodd" clip-rule="evenodd" d="M84.5967 22.845H85.4253L87.8324 26.0379V22.845H88.6554V27.3862H87.8324L85.4253 24.1933V27.3862H84.5967V22.845Z" fill="#282878"/>
<path fill-rule="evenodd" clip-rule="evenodd" d="M93.2783 25.8525L92.4755 23.9419L91.6731 25.8525H93.2783ZM93.5766 26.5665H91.3744L91.0296 27.3858H90.1074L92.0114 22.845H92.9335L94.8365 27.3858H93.9214L93.5766 26.5665V26.5665Z" fill="#282878"/>
<path fill-rule="evenodd" clip-rule="evenodd" d="M97.9865 26.6393C98.9482 26.6393 99.6237 26.0049 99.6237 25.1126C99.6237 24.2202 98.9482 23.5919 97.9865 23.5919H97.1245V26.6393H97.9865ZM96.2949 22.8452H97.9006C99.4062 22.8452 100.467 23.7834 100.467 25.1126C100.467 26.4412 99.4062 27.386 97.9006 27.386H96.2949V22.8452Z" fill="#282878"/>
<path fill-rule="evenodd" clip-rule="evenodd" d="M101.946 26.7579L104.46 23.5983H101.992V22.845H105.587V23.4728L103.08 26.6325H105.62V27.3858H101.946V26.7579Z" fill="#282878"/>
<path fill-rule="evenodd" clip-rule="evenodd" d="M110.965 25.1123C110.965 24.2462 110.262 23.5191 109.426 23.5191C108.584 23.5191 107.874 24.2462 107.874 25.1123C107.874 25.9845 108.584 26.7121 109.426 26.7121C110.262 26.7121 110.965 25.9845 110.965 25.1123ZM107.032 25.1123C107.032 23.8366 108.126 22.7654 109.426 22.7654C110.72 22.7654 111.814 23.8366 111.814 25.1123C111.814 26.3881 110.72 27.4654 109.426 27.4654C108.126 27.4654 107.032 26.3881 107.032 25.1123Z" fill="#282878"/>
<path fill-rule="evenodd" clip-rule="evenodd" d="M114.201 25.0987H115.263C115.827 25.0987 116.218 24.8146 116.218 24.352C116.218 23.8895 115.827 23.6048 115.263 23.6048H114.201V25.0987V25.0987ZM116.158 27.3858L115.084 25.8591H114.201V27.3858H113.372V22.845H115.356C116.33 22.845 117.061 23.4662 117.061 24.352C117.061 25.0393 116.616 25.5679 115.959 25.7729L117.1 27.3858H116.158Z" fill="#282878"/>
<path fill-rule="evenodd" clip-rule="evenodd" d="M118.618 25.4494V22.845H119.448V25.4232C119.448 26.1765 119.939 26.7186 120.628 26.7186C121.324 26.7186 121.815 26.1765 121.815 25.4232V22.845H122.637V25.4494C122.637 26.6325 121.809 27.4654 120.628 27.4654C119.454 27.4654 118.618 26.6325 118.618 25.4494" fill="#282878"/>
<path fill-rule="evenodd" clip-rule="evenodd" d="M85.4258 32.39V33.5403H87.7798V34.2936H85.4258V36.1775H84.5967V31.6362H88.0255V32.39H85.4258Z" fill="#282878"/>
<path fill-rule="evenodd" clip-rule="evenodd" d="M89.5576 36.178H90.3797V31.6367H89.5576V36.178Z" fill="#282878"/>
<path fill-rule="evenodd" clip-rule="evenodd" d="M92.1899 31.6365H93.0191L95.4271 34.8294V31.6365H96.2487V36.1777H95.4271L93.0191 32.9848V36.1777H92.1899V31.6365Z" fill="#282878"/>
<path fill-rule="evenodd" clip-rule="evenodd" d="M100.871 34.6442L100.069 32.7336L99.2664 34.6442H100.871ZM101.17 35.3577H98.9677L98.6233 36.1775H97.7012L99.6042 31.6367H100.526L102.43 36.1775H101.515L101.17 35.3577V35.3577Z" fill="#282878"/>
<path fill-rule="evenodd" clip-rule="evenodd" d="M103.889 31.6365H104.718L107.125 34.8294V31.6365H107.948V36.1777H107.125L104.718 32.9848V36.1777H103.889V31.6365Z" fill="#282878"/>
<path fill-rule="evenodd" clip-rule="evenodd" d="M109.479 35.5164L109.957 34.9284C110.374 35.3048 110.859 35.5426 111.457 35.5426C112.02 35.5426 112.312 35.265 112.312 34.941C112.312 34.5646 111.986 34.4387 111.258 34.2673C110.315 34.0491 109.659 33.7781 109.659 32.9251C109.659 32.132 110.335 31.55 111.297 31.55C112.02 31.55 112.564 31.7954 113.022 32.1849L112.571 32.7935C112.172 32.4494 111.715 32.2579 111.264 32.2579C110.806 32.2579 110.495 32.5351 110.495 32.853C110.495 33.2228 110.833 33.3548 111.555 33.5201C112.503 33.7317 113.141 34.0356 113.141 34.8624C113.141 35.6751 112.517 36.2496 111.43 36.2496C110.647 36.2496 109.984 35.986 109.479 35.5164" fill="#282878"/>
<path fill-rule="evenodd" clip-rule="evenodd" d="M118.452 33.9041C118.452 33.0375 117.749 32.3104 116.914 32.3104C116.072 32.3104 115.362 33.0375 115.362 33.9041C115.362 34.7763 116.072 35.5033 116.914 35.5033C117.749 35.5033 118.452 34.7763 118.452 33.9041ZM114.52 33.9041C114.52 32.6278 115.614 31.5571 116.914 31.5571C118.207 31.5571 119.301 32.6278 119.301 33.9041C119.301 35.1794 118.207 36.2566 116.914 36.2566C115.614 36.2566 114.52 35.1794 114.52 33.9041Z" fill="#282878"/>
<path fill-rule="evenodd" clip-rule="evenodd" d="M120.395 31.6365H121.304L122.28 34.8884L123.36 31.6365H124.263L125.337 34.8884L126.312 31.6365H127.221L125.783 36.1777H124.952L123.812 32.8069L122.664 36.1777H121.842L120.395 31.6365Z" fill="#282878"/>
<path fill-rule="evenodd" clip-rule="evenodd" d="M129.482 32.39V33.4874H131.835V34.2407H129.482V35.4242H132.081V36.1775H128.652V31.6362H132.081V32.39H129.482Z" fill="#282878"/>
<path fill-rule="evenodd" clip-rule="evenodd" d="M135.777 33.6789H137.719V35.5165C137.281 35.9725 136.571 36.2566 135.909 36.2566C134.602 36.2566 133.501 35.1794 133.501 33.9041C133.501 32.6278 134.602 31.5571 135.909 31.5571C136.571 31.5571 137.281 31.8348 137.719 32.2908L137.129 32.8395C136.844 32.5089 136.353 32.3104 135.909 32.3104C135.06 32.3104 134.344 33.0375 134.344 33.9041C134.344 34.7763 135.06 35.5033 135.909 35.5033C136.254 35.5033 136.625 35.3844 136.911 35.1794V34.3535H135.777V33.6789V33.6789Z" fill="#282878"/>
<path fill-rule="evenodd" clip-rule="evenodd" d="M143.151 33.9041C143.151 33.0375 142.447 32.3104 141.612 32.3104C140.77 32.3104 140.06 33.0375 140.06 33.9041C140.06 34.7763 140.77 35.5033 141.612 35.5033C142.447 35.5033 143.151 34.7763 143.151 33.9041ZM139.217 33.9041C139.217 32.6278 140.312 31.5571 141.612 31.5571C142.905 31.5571 144 32.6278 144 33.9041C144 35.1794 142.905 36.2566 141.612 36.2566C140.312 36.2566 139.217 35.1794 139.217 33.9041Z" fill="#282878"/>
<path fill-rule="evenodd" clip-rule="evenodd" d="M39.3055 27.8179L30.2268 15.8608H26.1953V34.363H30.2268V22.4049L39.3055 34.363H43.3671V15.8608H39.3055V27.8179Z" fill="#282878"/>
</svg>
