<svg width="150" height="50" viewBox="0 0 150 50" fill="none" xmlns="http://www.w3.org/2000/svg">
<path d="M142.803 10.2309V38.7691H99.9687V10.2309H142.803ZM144 9H98.7715V40H144V9Z" fill="black"/>
<path d="M120.455 15.747L121.386 15.0632L122.361 15.747L121.962 14.6073L122.938 13.8779H121.741L121.386 12.6926L121.031 13.8779H119.834L120.809 14.6073L120.455 15.747Z" fill="black"/>
<path d="M115.488 17.1147L116.464 16.3853L117.395 17.1147L117.04 15.975L118.016 15.2456H116.819L116.464 14.0603L116.065 15.2456H114.868L115.843 15.975L115.488 17.1147Z" fill="black"/>
<path d="M112.828 17.7986L112.473 18.9839H111.276L112.251 19.6677L111.897 20.853L112.828 20.1236L113.803 20.853L113.404 19.6677L114.38 18.9839H113.183L112.828 17.7986Z" fill="black"/>
<path d="M111.498 25.1839L112.473 25.9133L112.074 24.7736L113.05 24.0442H111.852L111.498 22.8589L111.143 24.0442H109.946L110.921 24.7736L110.567 25.9133L111.498 25.1839Z" fill="black"/>
<path d="M113.183 29.1499L112.828 27.9646L112.473 29.1499H111.276L112.251 29.8337L111.897 31.019L112.828 30.2896L113.803 31.019L113.404 29.8337L114.38 29.1499H113.183Z" fill="black"/>
<path d="M116.819 32.8426L116.464 31.7029L116.065 32.8426H114.912L115.843 33.572L115.489 34.7117L116.464 34.0279L117.395 34.7117L117.041 33.572L118.016 32.8426H116.819Z" fill="black"/>
<path d="M121.741 34.2104L121.386 33.0251L121.031 34.2104H119.834L120.809 34.9399L120.41 36.0796L121.386 35.3501L122.361 36.0796L121.962 34.9399L122.938 34.2104H121.741Z" fill="black"/>
<path d="M126.707 32.8426L126.308 31.7029L125.953 32.8426H124.756L125.731 33.572L125.377 34.7117L126.308 34.0279L127.283 34.7117L126.929 33.572L127.904 32.8426H126.707Z" fill="black"/>
<path d="M130.298 29.1499L129.944 27.9646L129.589 29.1499H128.392L129.367 29.8337L128.968 31.019L129.944 30.2896L130.919 31.019L130.52 29.8337L131.496 29.1499H130.298Z" fill="black"/>
<path d="M132.826 24.0442H131.629L131.274 22.8589L130.875 24.0442H129.678L130.653 24.728L130.299 25.9133L131.274 25.1839L132.205 25.9133L131.85 24.728L132.826 24.0442Z" fill="black"/>
<path d="M128.968 20.853L129.944 20.1236L130.919 20.853L130.52 19.6677L131.496 18.9383H130.298L129.944 17.7986L129.589 18.9839L128.392 18.9383L129.367 19.6677L128.968 20.853Z" fill="black"/>
<path d="M126.352 14.0603L125.953 15.2456H124.756L125.731 15.975L125.377 17.1147L126.352 16.3853L127.283 17.1147L126.929 15.975L127.904 15.2456H126.707L126.352 14.0603Z" fill="black"/>
<path d="M12.9709 28.1015C12.4388 28.1015 11.9954 28.0104 11.6406 27.8736C11.2859 27.7368 10.9755 27.5089 10.7095 27.2354C10.4878 26.9618 10.266 26.6427 10.1774 26.278C10.0443 25.8677 10 25.4574 10 25.0471V20.1692H11.3746V24.8648C11.3746 25.2295 11.4189 25.503 11.5076 25.7765C11.5963 26.0045 11.685 26.2324 11.818 26.3692C11.951 26.506 12.1284 26.6427 12.3058 26.7339C12.4831 26.8251 12.7048 26.8251 12.9709 26.8251C13.2369 26.8251 13.4143 26.7795 13.636 26.7339C13.8134 26.6427 13.9907 26.5515 14.1238 26.3692C14.2568 26.2324 14.3898 26.0045 14.4341 25.7765C14.5228 25.5486 14.5672 25.2295 14.5672 24.8648V20.1692H15.9418V25.0015C15.9418 25.4574 15.8974 25.8677 15.7644 26.2324C15.6314 26.5971 15.454 26.9162 15.2323 27.1898C15.0106 27.4633 14.7002 27.6912 14.3011 27.828C13.9021 28.0104 13.4586 28.1015 12.9709 28.1015Z" fill="black"/>
<path d="M17.5825 22.4488C17.8486 22.3576 18.159 22.312 18.558 22.2208C18.9571 22.1752 19.4005 22.1296 19.8883 22.1296C20.3317 22.1296 20.7308 22.1752 21.0412 22.312C21.3515 22.4488 21.6176 22.6311 21.795 22.8591C21.9723 23.087 22.1054 23.3605 22.194 23.7252C22.2827 24.0443 22.3271 24.4091 22.3271 24.8193V28.1017H20.9968V25.0017C20.9968 24.6826 20.9968 24.4091 20.9525 24.1811C20.9081 23.9532 20.8638 23.7708 20.7751 23.6341C20.6864 23.4973 20.5534 23.4061 20.4204 23.3149C20.243 23.2693 20.0656 23.2238 19.8439 23.2238C19.6666 23.2238 19.4892 23.2238 19.3118 23.2693C19.1345 23.2693 19.0014 23.3149 18.9128 23.3149V28.0561H17.5825V22.4488Z" fill="black"/>
<path d="M25.3424 20.5339C25.3424 20.8074 25.2537 20.9898 25.1207 21.1265C24.9433 21.2633 24.7659 21.3545 24.5442 21.3545C24.3225 21.3545 24.1452 21.2633 23.9678 21.1265C23.7904 20.9898 23.7461 20.7618 23.7461 20.5339C23.7461 20.2604 23.8348 20.078 23.9678 19.8957C24.1452 19.7589 24.3225 19.6677 24.5442 19.6677C24.7659 19.6677 24.9433 19.7589 25.1207 19.8957C25.2537 20.078 25.3424 20.2604 25.3424 20.5339ZM25.2094 28.1016H23.8791V22.2207H25.2094V28.1016Z" fill="black"/>
<path d="M28.7121 21.9927C29.1555 21.9927 29.5102 22.0383 29.8206 22.175C30.131 22.2662 30.3527 22.4486 30.5301 22.6309C30.7075 22.8133 30.8405 23.0868 30.9292 23.3603C31.0179 23.6339 31.0622 23.953 31.0622 24.3177V27.8736C30.8405 27.9191 30.5744 27.9647 30.131 28.0559C29.732 28.1015 29.2442 28.1471 28.7564 28.1471C28.4017 28.1471 28.0913 28.1015 27.8253 28.0559C27.5592 28.0103 27.2932 27.8736 27.1158 27.7368C26.8941 27.6 26.7611 27.3721 26.6281 27.1441C26.495 26.9162 26.4507 26.5971 26.4507 26.278C26.4507 25.9589 26.495 25.6397 26.6281 25.4118C26.7611 25.1839 26.9384 25.0015 27.1601 24.8647C27.3819 24.728 27.6479 24.6368 27.914 24.5456C28.18 24.5 28.4904 24.4544 28.8008 24.4544C28.9338 24.4544 29.1112 24.4544 29.2442 24.5C29.4216 24.5 29.5546 24.5456 29.7763 24.5912V24.3633C29.7763 24.2265 29.7763 24.0441 29.732 23.9074C29.6876 23.7706 29.6433 23.6339 29.5546 23.5427C29.4659 23.4515 29.3329 23.3603 29.1999 23.2691C29.0668 23.2236 28.8451 23.178 28.6234 23.178C28.313 23.178 28.047 23.178 27.7809 23.2236C27.5149 23.2691 27.3375 23.3147 27.1601 23.3603L26.9828 22.2662C27.1601 22.2206 27.3819 22.1294 27.6922 22.0839C28.0026 21.9927 28.3574 21.9927 28.7121 21.9927ZM28.8008 27.053C29.1999 27.053 29.5102 27.053 29.732 27.0074V25.503C29.6433 25.503 29.5546 25.4574 29.4216 25.4574C29.2885 25.4574 29.1112 25.4118 28.9781 25.4118C28.8451 25.4118 28.6678 25.4118 28.5347 25.4574C28.4017 25.4574 28.2687 25.503 28.1357 25.5941C28.0026 25.6397 27.914 25.7309 27.8253 25.8677C27.7809 25.8677 27.7366 26.0044 27.7366 26.1868C27.7366 26.5059 27.8253 26.7339 28.047 26.8706C28.2243 26.9618 28.4904 27.053 28.8008 27.053Z" fill="black"/>
<path d="M35.0972 28.1016V20.3516H39.9304V21.5369H36.4718V23.4516H39.5757V24.6369H36.4718V26.9163H40.1964V28.1016H35.0972Z" fill="black"/>
<path d="M45.828 27.7826C45.562 27.8282 45.2516 27.9193 44.8525 28.0105C44.4535 28.1017 44.01 28.1017 43.5223 28.1017C43.0789 28.1017 42.6798 28.0561 42.3694 27.9193C42.059 27.7826 41.793 27.6002 41.6156 27.3723C41.4382 27.1443 41.3052 26.8708 41.2165 26.5061C41.1278 26.187 41.0835 25.8223 41.0835 25.412V22.1296H42.4137V25.1841C42.4137 25.8223 42.5024 26.2782 42.6798 26.5061C42.8572 26.7796 43.1675 26.9164 43.611 26.9164C43.7883 26.9164 43.9214 26.9164 44.0987 26.9164C44.2761 26.9164 44.4091 26.8708 44.4978 26.8708V22.1296H45.828V27.7826V27.7826Z" fill="black"/>
<path d="M50.7057 23.4517C50.617 23.4061 50.4396 23.3605 50.2623 23.3149C50.0849 23.2693 49.8632 23.2693 49.5971 23.2693C49.4641 23.2693 49.2868 23.2693 49.1537 23.3149C48.9764 23.3605 48.8877 23.3605 48.799 23.4061V28.1017H47.4688V22.5399C47.7348 22.4488 48.0452 22.3576 48.3999 22.2664C48.799 22.1752 49.1981 22.1296 49.6858 22.1296C49.7745 22.1296 49.8632 22.1296 49.9962 22.1296C50.1292 22.1296 50.2179 22.1752 50.3509 22.1752C50.484 22.1752 50.5727 22.2208 50.7057 22.2208C50.7944 22.2664 50.883 22.2664 50.9717 22.312L50.7057 23.4517Z" fill="black"/>
<path d="M56.9134 25.0016C56.9134 25.4575 56.869 25.8678 56.736 26.2781C56.603 26.6428 56.4256 26.9619 56.1596 27.2354C55.9379 27.509 55.6275 27.6913 55.2727 27.8737C54.918 28.0104 54.5633 28.1016 54.1642 28.1016C53.7651 28.1016 53.3661 28.0104 53.0557 27.8737C52.7009 27.7369 52.4349 27.509 52.2132 27.2354C51.9915 26.9619 51.7698 26.6428 51.6367 26.2781C51.5037 25.9134 51.415 25.4575 51.415 25.0016C51.415 24.5457 51.5037 24.1354 51.6367 23.7251C51.7698 23.3604 51.9471 23.0413 52.2132 22.7678C52.4349 22.4943 52.7453 22.3119 53.1 22.1296C53.4547 21.9928 53.8095 21.9016 54.2086 21.9016C54.6076 21.9016 54.9624 21.9928 55.3171 22.1296C55.6718 22.2663 55.9379 22.4943 56.2039 22.7678C56.4256 23.0413 56.6473 23.3604 56.7804 23.7251C56.8247 24.1354 56.9134 24.5457 56.9134 25.0016ZM55.5831 25.0016C55.5831 24.409 55.4501 23.9531 55.2284 23.634C55.0067 23.3148 54.652 23.1325 54.2086 23.1325C53.7651 23.1325 53.4547 23.3148 53.1887 23.634C52.967 23.9531 52.834 24.4546 52.834 25.0016C52.834 25.5943 52.967 26.0501 53.1887 26.4148C53.4104 26.7796 53.7651 26.9163 54.2086 26.9163C54.652 26.9163 54.9624 26.734 55.2284 26.4148C55.4501 26.0957 55.5831 25.5943 55.5831 25.0016Z" fill="black"/>
<path d="M63.3427 25.1841C63.3427 25.6399 63.2984 26.0502 63.1654 26.4149C63.0324 26.7796 62.8993 27.0988 62.6776 27.3723C62.4559 27.6458 62.1899 27.8282 61.8795 28.0105C61.5691 28.1473 61.2143 28.2385 60.8153 28.2385C60.5492 28.2385 60.2832 28.1929 60.0615 28.1473C59.8398 28.1017 59.6624 28.0105 59.485 27.9193V30.1988H58.1548V22.4488C58.4208 22.3576 58.7756 22.312 59.1303 22.2208C59.5294 22.1752 59.9284 22.1296 60.3719 22.1296C60.8153 22.1296 61.2144 22.2208 61.5691 22.3576C61.9238 22.4943 62.2342 22.7223 62.4559 22.9502C62.722 23.2238 62.8993 23.5429 63.0324 23.9076C63.2541 24.2723 63.3427 24.6826 63.3427 25.1841ZM61.9682 25.1841C61.9682 24.5914 61.8351 24.0899 61.5691 23.7708C61.303 23.4517 60.8596 23.2693 60.2832 23.2693C60.1502 23.2693 60.0171 23.2693 59.8841 23.2693C59.7511 23.2693 59.6181 23.3149 59.485 23.3605V26.6885C59.6181 26.7796 59.7511 26.8252 59.9284 26.9164C60.1058 27.0076 60.3275 27.0076 60.5492 27.0076C61.037 27.0076 61.3917 26.8252 61.6134 26.5061C61.8795 26.2326 61.9682 25.7767 61.9682 25.1841Z" fill="black"/>
<path d="M64.3184 25.047C64.3184 24.5456 64.407 24.0897 64.5401 23.6794C64.6731 23.2691 64.8948 22.95 65.1165 22.722C65.3826 22.4485 65.6486 22.2661 65.959 22.1294C66.2694 21.9926 66.6241 21.947 66.9345 21.947C67.7327 21.947 68.3091 22.175 68.7525 22.6764C69.1959 23.1779 69.4176 23.9073 69.4176 24.9103C69.4176 25.0014 69.4176 25.047 69.4176 25.1838C69.4176 25.275 69.4176 25.3661 69.4176 25.4573H65.6486C65.6929 25.9132 65.826 26.2779 66.1364 26.5514C66.4024 26.825 66.8458 26.9161 67.3779 26.9161C67.6883 26.9161 67.9987 26.8706 68.2647 26.825C68.5308 26.7794 68.7525 26.6882 68.8855 26.6426L69.0629 27.7367C68.9742 27.7823 68.8855 27.8279 68.7525 27.8735C68.6195 27.9191 68.4865 27.9647 68.3091 27.9647C68.1317 28.0103 67.9544 28.0103 67.777 28.0558C67.5996 28.0558 67.3779 28.1014 67.2006 28.1014C66.7128 28.1014 66.2694 28.0103 65.9147 27.8735C65.5599 27.7367 65.2495 27.5088 64.9835 27.2353C64.7618 26.9617 64.5844 26.6426 64.4514 26.2779C64.3627 25.9132 64.3184 25.5029 64.3184 25.047ZM68.1317 24.4544C68.1317 24.272 68.0874 24.0897 68.043 23.9073C67.9987 23.725 67.91 23.5882 67.8213 23.4514C67.7327 23.3147 67.5996 23.2235 67.4666 23.1779C67.3336 23.0867 67.1562 23.0867 66.9788 23.0867C66.7571 23.0867 66.5798 23.1323 66.4468 23.2235C66.3137 23.3147 66.1807 23.4058 66.0477 23.5426C65.959 23.6794 65.8703 23.8161 65.7816 23.9985C65.7373 24.1808 65.6929 24.3176 65.6486 24.5H68.1317V24.4544Z" fill="black"/>
<path d="M70.0383 30.1986C69.9496 30.1986 69.8166 30.1986 69.6392 30.153C69.4618 30.153 69.3288 30.1074 69.1958 30.0618L69.3732 28.9677C69.5505 29.0133 69.7279 29.0589 69.9496 29.0589C70.26 29.0589 70.4817 28.9677 70.5704 28.7854C70.7034 28.603 70.7478 28.3295 70.7478 27.9648V22.2207H72.078V27.9192C72.078 28.6942 71.9006 29.2413 71.5459 29.606C71.2355 30.0163 70.7034 30.1986 70.0383 30.1986ZM72.2554 20.5339C72.2554 20.8074 72.1667 20.9898 72.0336 21.1265C71.8563 21.2633 71.6789 21.3545 71.4572 21.3545C71.2355 21.3545 71.0581 21.2633 70.8808 21.1265C70.7034 20.9898 70.6591 20.7618 70.6591 20.5339C70.6591 20.2604 70.7478 20.078 70.8808 19.8957C71.0581 19.7589 71.2355 19.6677 71.4572 19.6677C71.6789 19.6677 71.8563 19.7589 72.0336 19.8957C72.1667 20.078 72.2554 20.2604 72.2554 20.5339Z" fill="black"/>
<path d="M75.1379 27.0073C75.4927 27.0073 75.7587 26.9617 75.8918 26.8706C76.0691 26.7794 76.1135 26.6426 76.1135 26.4147C76.1135 26.2323 76.0248 26.05 75.8474 25.9132C75.67 25.7764 75.404 25.6397 75.0049 25.5029C74.7832 25.4117 74.5615 25.3206 74.3398 25.2294C74.1181 25.1382 73.9851 25.0014 73.8077 24.8647C73.6747 24.7279 73.5417 24.5456 73.453 24.3632C73.3643 24.1808 73.3199 23.9529 73.3199 23.6794C73.3199 23.1323 73.4973 22.722 73.8964 22.4029C74.2955 22.0838 74.7832 21.947 75.4483 21.947C75.8031 21.947 76.1135 21.9926 76.4238 22.0382C76.7342 22.0838 76.9559 22.175 77.089 22.2206L76.8673 23.3147C76.7342 23.2691 76.5569 23.1779 76.2908 23.1323C76.0691 23.0867 75.8031 23.0411 75.4927 23.0411C75.2266 23.0411 75.0049 23.0867 74.8276 23.1779C74.6502 23.2691 74.5615 23.4058 74.5615 23.5882C74.5615 23.6794 74.5615 23.7706 74.6058 23.8617C74.6502 23.9529 74.6945 23.9985 74.7832 24.0897C74.8719 24.1353 74.9606 24.2264 75.0936 24.272C75.2266 24.3176 75.404 24.4088 75.5814 24.4544C75.8917 24.5911 76.1578 24.6823 76.3795 24.8191C76.6012 24.9558 76.7786 25.047 76.9116 25.2294C77.0446 25.3661 77.1777 25.5485 77.222 25.7308C77.2663 25.9132 77.3107 26.1411 77.3107 26.4147C77.3107 26.9617 77.089 27.4176 76.6899 27.6911C76.2908 27.9647 75.7144 28.1014 74.9606 28.1014C74.4728 28.1014 74.0738 28.0558 73.7634 27.9647C73.453 27.8735 73.2313 27.8279 73.1426 27.7367L73.3643 26.597C73.5417 26.6882 73.8077 26.7794 74.0738 26.825C74.4728 26.9617 74.7832 27.0073 75.1379 27.0073Z" fill="black"/>
<path d="M79.9264 24.5457C80.1038 24.3633 80.2812 24.181 80.4585 23.953C80.6359 23.7707 80.8133 23.5427 81.035 23.3148C81.2123 23.1324 81.3897 22.9045 81.5671 22.7222C81.7444 22.5398 81.8775 22.3574 81.9661 22.2207H83.5181C83.1634 22.631 82.7643 23.0869 82.3652 23.4972C81.9661 23.953 81.5671 24.3633 81.168 24.8192C81.3897 25.0016 81.6114 25.2295 81.8331 25.503C82.0548 25.7766 82.3209 26.0501 82.5426 26.3692C82.7643 26.6883 82.986 26.9619 83.1634 27.281C83.3407 27.6001 83.5181 27.8736 83.6511 28.1016H82.1435C82.0105 27.8736 81.8775 27.6457 81.7001 27.3722C81.5227 27.0986 81.3454 26.8707 81.168 26.6427C80.9906 26.4148 80.7689 26.1869 80.5472 25.9589C80.3255 25.731 80.1481 25.5486 79.9264 25.4119V28.1016H78.5962V20.5795L79.9264 20.3516V24.5457Z" fill="black"/>
<path d="M86.445 21.9927C86.8884 21.9927 87.2432 22.0383 87.5535 22.175C87.8639 22.2662 88.0856 22.4486 88.263 22.6309C88.4404 22.8133 88.5734 23.0868 88.6621 23.3603C88.7508 23.6339 88.7951 23.953 88.7951 24.3177V27.8736C88.5734 27.9191 88.3074 27.9647 87.8639 28.0559C87.4649 28.1015 86.9771 28.1471 86.4893 28.1471C86.1346 28.1471 85.8242 28.1015 85.5582 28.0559C85.2921 28.0103 85.0261 27.8736 84.8487 27.7368C84.627 27.6 84.494 27.3721 84.361 27.1441C84.2279 26.9162 84.1836 26.5971 84.1836 26.278C84.1836 25.9589 84.2279 25.6397 84.361 25.4118C84.494 25.1839 84.6713 25.0015 84.8931 24.8647C85.1148 24.728 85.3808 24.6368 85.6469 24.5456C85.9129 24.5 86.2233 24.4544 86.5337 24.4544C86.6667 24.4544 86.8441 24.4544 86.9771 24.5C87.1545 24.5 87.2875 24.5456 87.5092 24.5912V24.3633C87.5092 24.2265 87.5092 24.0441 87.4649 23.9074C87.4205 23.7706 87.3762 23.6339 87.2875 23.5427C87.1988 23.4515 87.0658 23.3603 86.9328 23.2691C86.7997 23.2236 86.578 23.178 86.3563 23.178C86.0459 23.178 85.7799 23.178 85.5138 23.2236C85.2478 23.2691 85.0704 23.3147 84.8931 23.3603L84.7157 22.2662C84.8931 22.2206 85.1148 22.1294 85.4252 22.0839C85.7355 21.9927 86.0903 21.9927 86.445 21.9927ZM86.5337 27.053C86.9328 27.053 87.2432 27.053 87.4649 27.0074V25.503C87.3762 25.503 87.2875 25.4574 87.1545 25.4574C87.0214 25.4574 86.8441 25.4118 86.7111 25.4118C86.578 25.4118 86.4007 25.4118 86.2676 25.4574C86.1346 25.4574 86.0016 25.503 85.8686 25.5941C85.7355 25.6397 85.6469 25.7309 85.5582 25.8677C85.4695 25.9589 85.4695 26.0956 85.4695 26.278C85.4695 26.5971 85.5582 26.825 85.7799 26.9618C85.9572 26.9618 86.2233 27.053 86.5337 27.053Z" fill="black"/>
</svg>
