<svg width="80" height="80" viewBox="0 0 80 80" fill="none" xmlns="http://www.w3.org/2000/svg">
<rect width="80" height="80" rx="8" fill="#F2F4F5"/>
<path fill-rule="evenodd" clip-rule="evenodd" d="M56.9813 44.7393C54.6793 40.6461 48.3913 38.5099 43.0654 41.1879C37.7401 43.8652 35.4988 49.7274 38.0589 54.2813C40.6197 58.8352 47.0128 60.3563 52.3387 57.679C57.664 55.0016 59.2825 48.8325 56.9813 44.7393Z" fill="#E3E8E9"/>
<path fill-rule="evenodd" clip-rule="evenodd" d="M55.8971 31.8115C59.9367 32.7646 61.7144 27.5908 57.8612 25.0472C54.0086 22.503 44.2766 18.3432 30.8533 23.3563C25.3154 25.4246 22.7661 27.8382 21.3041 29.8964C19.8421 31.9547 19.4722 35.0137 20.9047 37.7878C22.3378 40.5624 28.1797 43.1223 33.5589 38.2869C43.5241 29.3288 51.8568 30.8584 55.8971 31.8115Z" fill="#E3E8E9"/>
</svg>
