<svg width="124" height="37" viewBox="0 0 124 37" fill="none" xmlns="http://www.w3.org/2000/svg">
<path d="M115.247 0H8.77744C8.43031 0 8.10798 0 7.76085 0C7.4881 0 7.19056 0 6.91782 0C6.29794 0.0246996 5.67806 0.0493994 5.08298 0.172897C4.46311 0.271696 3.89282 0.469292 3.34733 0.740988C2.80184 1.01268 2.30594 1.38318 1.85963 1.82777C1.41332 2.27236 1.06619 2.76636 0.768646 3.30975C0.471105 3.87784 0.29754 4.44593 0.19836 5.03872C0.09918 5.65621 0.0495897 6.249 0.0247947 6.86649C0.0247947 7.13818 0.024795 7.43458 0 7.70627C0 8.02737 0 8.37316 0 8.69426V28.3057C0 28.6515 0 28.9726 0 29.2937C0 29.5654 -3.78712e-07 29.8618 0.0247947 30.1335C0.0495897 30.751 0.0743849 31.3685 0.19836 31.9613C0.29754 32.5788 0.4959 33.1469 0.768646 33.6903C1.04139 34.2336 1.41332 34.7276 1.85963 35.1722C2.30594 35.6168 2.80184 35.9626 3.34733 36.259C3.91762 36.5554 4.4879 36.7283 5.08298 36.8271C5.70286 36.9259 6.32274 36.9753 6.91782 37C7.19056 37 7.4881 37 7.76085 37C8.10798 37 8.43031 37 8.77744 37H115.247C115.57 37 115.917 37 116.239 37C116.512 37 116.809 37 117.082 37C117.702 36.9753 118.322 36.9506 118.917 36.8271C119.537 36.7283 120.107 36.5307 120.677 36.259C121.223 35.9873 121.719 35.6168 122.165 35.1722C122.611 34.7523 122.959 34.2336 123.256 33.6903C123.529 33.1469 123.727 32.5541 123.826 31.9613C123.95 31.3438 123.975 30.751 124 30.1335C124 29.8618 124 29.5654 124 29.2937C124 28.9726 124 28.6268 124 28.3057V8.71896C124 8.37316 124 8.05207 124 7.73098C124 7.45928 124 7.16288 124 6.89119C123.975 6.2737 123.95 5.65621 123.826 5.06342C123.727 4.44593 123.529 3.87784 123.256 3.33445C122.983 2.79105 122.611 2.29706 122.165 1.85247C121.744 1.40788 121.223 1.06208 120.677 0.765687C120.107 0.493992 119.537 0.296395 118.917 0.197597C118.322 0.0987982 117.702 0.0493988 117.082 0.0246992C116.809 0.0246992 116.512 0.0246992 116.239 0.0246992C115.917 -3.77254e-07 115.594 0 115.247 0V0Z" fill="#B6B6B6"/>
<path d="M7.78539 36.259C7.51264 36.259 7.23989 36.259 6.96715 36.259C6.44645 36.2343 5.85137 36.2096 5.25629 36.1108C4.686 36.012 4.1901 35.8391 3.74379 35.6168C3.27269 35.3698 2.82638 35.0734 2.45445 34.6782C2.08253 34.3077 1.76019 33.8878 1.51224 33.3938C1.26429 32.9245 1.11552 32.4306 1.01634 31.8872C0.892364 31.2697 0.867569 30.6522 0.867569 30.1829C0.867569 29.9853 0.842773 29.3431 0.842773 29.3431V7.73095C0.842773 7.73095 0.842774 7.08876 0.867569 6.91586C0.867569 6.44657 0.917159 5.80438 1.01634 5.21159C1.11552 4.6435 1.28908 4.14951 1.51224 3.68022C1.76019 3.21093 2.05773 2.76633 2.45445 2.39584C2.82638 2.02534 3.27269 1.70425 3.74379 1.45725C4.2149 1.21026 4.7108 1.06206 5.25629 0.963262C5.87617 0.864463 6.49604 0.815063 6.96715 0.815063H7.78539H116.264H117.107C117.578 0.815063 118.198 0.864463 118.818 0.963262C119.363 1.06206 119.859 1.23496 120.355 1.45725C120.826 1.70425 121.248 2.00064 121.644 2.39584C122.016 2.76633 122.338 3.18623 122.586 3.68022C122.834 4.14951 122.983 4.6435 123.082 5.18689C123.182 5.75498 123.231 6.34777 123.231 6.91586C123.231 7.16286 123.231 7.45926 123.231 7.73095C123.231 8.07675 123.231 8.39784 123.231 8.71894V28.3304C123.231 28.6515 123.231 28.9973 123.231 29.3184C123.231 29.6148 123.231 29.8865 123.231 30.1582C123.206 30.7016 123.182 31.2944 123.082 31.8625C122.983 32.4305 122.834 32.9245 122.586 33.3938C122.338 33.8631 122.016 34.3077 121.644 34.6535C121.272 35.024 120.826 35.3451 120.355 35.5921C119.884 35.8391 119.388 35.9873 118.818 36.0861C118.222 36.1849 117.627 36.2096 117.107 36.2343C116.834 36.2343 116.561 36.2343 116.288 36.2343H115.297L7.78539 36.259Z" fill="black"/>
<path d="M46.0444 25.0208H41.6805L40.6143 27.9106H38.7051L42.9698 17.0675H44.7799L49.1438 27.9106H47.1354L46.0444 25.0208ZM42.226 23.5388H45.4741L44.3088 20.4266C44.16 20.0068 43.9864 19.5128 43.8377 18.9941C43.6889 19.4634 43.5401 19.9327 43.3913 20.402L42.226 23.5388Z" fill="white"/>
<path d="M49.9129 21.8098C49.9129 21.217 49.8881 20.5501 49.8633 19.8338H51.5989C51.6733 20.1796 51.6981 20.5007 51.7229 20.8465C52.442 20.0561 53.2602 19.6609 54.2024 19.6609C54.7479 19.6609 55.2438 19.7844 55.7149 20.0561C56.186 20.3278 56.5579 20.7477 56.8307 21.3405C57.1034 21.9332 57.2522 22.6742 57.2522 23.5634C57.2522 24.502 57.0786 25.3171 56.7563 25.984C56.434 26.6509 55.9877 27.1696 55.3926 27.4907C54.8223 27.8365 54.1528 28.0093 53.3842 28.0093C52.8387 28.0093 52.2932 27.9106 51.7477 27.7377V31.1215L49.8881 31.2697V21.8098H49.9129ZM54.7975 25.9346C55.1694 25.4406 55.3678 24.6996 55.3678 23.7116C55.3678 22.7977 55.219 22.1555 54.8967 21.7604C54.5743 21.3652 54.1776 21.1429 53.6569 21.1429C53.285 21.1429 52.9627 21.217 52.6651 21.3899C52.3676 21.5628 52.07 21.7851 51.7973 22.0814V26.4039C51.9709 26.5027 52.194 26.5768 52.442 26.6262C52.6899 26.6756 52.9379 26.7003 53.161 26.7003C53.8553 26.7003 54.4008 26.4533 54.7975 25.9346V25.9346Z" fill="white"/>
<path d="M58.3679 21.8098C58.3679 21.217 58.3432 20.5501 58.3184 19.8338H60.054C60.1284 20.1796 60.1532 20.5007 60.178 20.8465C60.897 20.0561 61.7153 19.6609 62.6575 19.6609C63.203 19.6609 63.6989 19.7844 64.17 20.0561C64.6411 20.3278 65.013 20.7477 65.2858 21.3405C65.5585 21.9332 65.7073 22.6742 65.7073 23.5634C65.7073 24.502 65.5337 25.3171 65.2114 25.984C64.889 26.6509 64.4427 27.1696 63.8477 27.4907C63.2774 27.8365 62.6079 28.0093 61.8393 28.0093C61.2938 28.0093 60.7483 27.9106 60.2028 27.7377V31.1215L58.3432 31.2697V21.8098H58.3679ZM63.2526 25.9346C63.6245 25.4406 63.8229 24.6996 63.8229 23.7116C63.8229 22.7977 63.6741 22.1555 63.3517 21.7604C63.0294 21.3652 62.6327 21.1429 62.112 21.1429C61.7401 21.1429 61.4177 21.217 61.1202 21.3899C60.8227 21.5628 60.5251 21.7851 60.2524 22.0814V26.4039C60.4259 26.5027 60.6491 26.5768 60.897 26.6262C61.145 26.6756 61.3929 26.7003 61.6161 26.7003C62.3104 26.7003 62.8806 26.4533 63.2526 25.9346V25.9346Z" fill="white"/>
<path d="M69.1035 27.3919C68.3101 26.9473 67.6902 26.3298 67.2687 25.49C66.8472 24.6749 66.624 23.687 66.624 22.5755C66.624 21.3652 66.872 20.3278 67.3679 19.488C67.8638 18.6482 68.5332 18.0061 69.4011 17.5862C70.2441 17.1663 71.2111 16.944 72.2773 16.944C72.8972 16.944 73.4922 17.0181 74.0625 17.1416C74.6328 17.2898 75.1535 17.4627 75.6494 17.7097L75.1783 19.1422C74.1865 18.6729 73.2443 18.4506 72.3517 18.4506C71.6078 18.4506 70.9384 18.6235 70.3681 18.9446C69.7978 19.2657 69.3515 19.735 69.0539 20.3525C68.7316 20.97 68.5828 21.7357 68.5828 22.6002C68.5828 23.3659 68.7068 24.0575 68.9548 24.6502C69.2027 25.243 69.5746 25.7123 70.0953 26.0828C70.616 26.4286 71.2855 26.6015 72.0789 26.6015C72.4509 26.6015 72.798 26.5768 73.1699 26.5027C73.5418 26.4533 73.8642 26.3545 74.1865 26.231V24.0328H71.6822V22.6002H75.9965V27.1696C75.3767 27.466 74.732 27.6883 74.0377 27.8365C73.3435 27.9847 72.674 28.0588 72.0045 28.0588C70.864 28.0588 69.9218 27.8365 69.1035 27.3919Z" fill="white"/>
<path d="M82.5175 27.9106C82.4431 27.5895 82.4183 27.2437 82.3935 26.8485C82.0959 27.1943 81.7488 27.466 81.2777 27.713C80.8314 27.96 80.3107 28.0588 79.7156 28.0588C79.2445 28.0588 78.823 27.96 78.4511 27.7871C78.0791 27.6142 77.7568 27.3425 77.5337 26.972C77.3105 26.6015 77.1865 26.1569 77.1865 25.6382C77.1865 24.8478 77.4593 24.2304 78.0296 23.7611C78.5998 23.2918 79.542 23.0695 80.8562 23.0695C81.3521 23.0695 81.848 23.0942 82.3191 23.1683V23.0201C82.3191 22.3038 82.1703 21.8098 81.8728 21.5134C81.5752 21.217 81.1289 21.0688 80.5586 21.0688C80.1619 21.0688 79.7404 21.1182 79.2941 21.2417C78.8478 21.3652 78.4511 21.4887 78.1039 21.6616L77.8064 20.3278C78.1287 20.1796 78.575 20.0314 79.1205 19.9079C79.666 19.7844 80.2363 19.7103 80.8314 19.7103C81.5257 19.7103 82.1207 19.8091 82.6166 20.0314C83.1125 20.2537 83.4845 20.5995 83.7572 21.1182C84.03 21.6369 84.1787 22.3285 84.1787 23.193V26.4039C84.1787 26.7497 84.2035 27.2437 84.2283 27.9106H82.5175ZM81.4265 26.4039C81.8232 26.231 82.1207 25.984 82.3687 25.7123V24.2057C81.8728 24.1563 81.4513 24.1316 81.1289 24.1316C80.3603 24.1316 79.8396 24.2551 79.5421 24.502C79.2445 24.749 79.0957 25.0701 79.0957 25.49C79.0957 25.8852 79.1949 26.1816 79.4181 26.3792C79.6412 26.5768 79.914 26.6756 80.2859 26.6756C80.6578 26.7003 81.0297 26.6015 81.4265 26.4039V26.4039Z" fill="white"/>
<path d="M85.6416 25.984V16.45L87.4764 16.3018V25.6629C87.4764 26.0087 87.526 26.2557 87.65 26.4039C87.774 26.5521 87.9475 26.6262 88.2203 26.6262C88.3443 26.6262 88.493 26.6015 88.7162 26.5521L88.9393 27.8859C88.7658 27.96 88.5426 28.0094 88.2947 28.0588C88.0467 28.1082 87.7988 28.1329 87.5756 28.1329C86.2863 28.0588 85.6416 27.3672 85.6416 25.984V25.984Z" fill="white"/>
<path d="M90.2539 25.984V16.45L92.0887 16.3018V25.6629C92.0887 26.0087 92.1383 26.2557 92.2623 26.4039C92.3863 26.5521 92.5598 26.6262 92.8326 26.6262C92.9566 26.6262 93.1053 26.6015 93.3285 26.5521L93.5517 27.8859C93.3781 27.96 93.1549 28.0094 92.907 28.0588C92.659 28.1082 92.4111 28.1329 92.1879 28.1329C90.8986 28.0588 90.2539 27.3672 90.2539 25.984V25.984Z" fill="white"/>
<path d="M101.139 24.1068H95.8327C95.9071 25.7864 96.7253 26.6509 98.2626 26.6509C98.6345 26.6509 99.0312 26.6015 99.4279 26.5027C99.8247 26.4039 100.197 26.2804 100.569 26.1322L100.965 27.3919C100.048 27.8365 99.0312 28.0588 97.9154 28.0588C97.0476 28.0588 96.3286 27.8859 95.7335 27.5648C95.1384 27.2437 94.6921 26.7744 94.3946 26.1569C94.097 25.5394 93.9482 24.8231 93.9482 23.9586C93.9482 23.0694 94.097 22.3037 94.4194 21.6616C94.7417 21.0194 95.1632 20.5254 95.7335 20.1796C96.3038 19.8338 96.9484 19.6609 97.6923 19.6609C98.4609 19.6609 99.1056 19.8338 99.6015 20.2043C100.122 20.5501 100.494 21.0441 100.742 21.6369C100.99 22.2296 101.114 22.8965 101.114 23.6128V24.1068H101.139ZM99.3288 22.9459C99.304 22.3037 99.1304 21.8098 98.8329 21.4887C98.5353 21.1676 98.1634 20.9947 97.6675 20.9947C97.1964 20.9947 96.7997 21.1676 96.5021 21.4887C96.1798 21.8098 95.9814 22.3037 95.8823 22.9212H99.3288V22.9459Z" fill="white"/>
<path d="M102.527 21.8592C102.527 21.4146 102.502 20.7477 102.478 19.8338H104.213C104.238 20.0561 104.263 20.3278 104.288 20.6489C104.312 20.97 104.337 21.217 104.337 21.4146C104.56 21.0688 104.759 20.7724 104.982 20.5254C105.18 20.2784 105.428 20.0808 105.701 19.9326C105.974 19.7844 106.296 19.7103 106.643 19.7103C106.941 19.7103 107.164 19.735 107.387 19.8091L107.164 21.4146C106.99 21.3652 106.792 21.3405 106.569 21.3405C106.122 21.3405 105.75 21.4393 105.428 21.6616C105.106 21.8839 104.759 22.2544 104.387 22.7484V27.9353H102.552V21.8592H102.527Z" fill="white"/>
<path d="M108.428 31.2203C108.156 31.1709 107.932 31.1215 107.759 31.0474L108.106 29.7136C108.23 29.7383 108.379 29.7877 108.577 29.8124C108.775 29.8371 108.949 29.8618 109.123 29.8618C109.941 29.8618 110.561 29.3431 110.957 28.281L111.081 27.9846L108.106 19.8584H110.09L111.602 24.4032C111.85 25.1689 111.999 25.7863 112.073 26.1815C112.222 25.5887 112.371 25.0207 112.569 24.4279L114.082 19.8337H115.941L112.966 28.0093C112.693 28.775 112.371 29.4172 112.048 29.8865C111.726 30.3558 111.329 30.7016 110.908 30.9486C110.461 31.1709 109.941 31.2944 109.296 31.2944C108.999 31.2944 108.701 31.2697 108.428 31.2203Z" fill="white"/>
<path d="M38.7051 6.7677H42.0028L41.9036 7.55809H39.6721V9.08946H41.7797V9.83045H39.6721V11.5347H42.0276L41.9532 12.3251H38.7051V6.7677Z" fill="white"/>
<path d="M44.2842 9.50936L42.5486 6.7677H43.6395L44.8297 8.76837L46.0695 6.7677H47.1356L45.4 9.45996L47.2596 12.3498H46.1438L44.8049 10.1515L43.4412 12.3498H42.375L44.2842 9.50936Z" fill="white"/>
<path d="M47.9785 6.7677H49.491C50.2101 6.7677 50.7556 6.9159 51.1275 7.21229C51.4994 7.50869 51.6978 7.92858 51.6978 8.47197C51.6978 8.84247 51.6234 9.16356 51.4498 9.43526C51.2763 9.70695 51.0531 9.92925 50.7308 10.0774C50.4332 10.2256 50.0861 10.2997 49.6894 10.2997C49.4662 10.2997 49.2183 10.275 48.9455 10.2256V12.3745H47.9785V6.7677ZM50.4084 9.26236C50.6068 9.06476 50.706 8.81777 50.706 8.47197C50.706 8.12618 50.6068 7.87918 50.3836 7.73098C50.1853 7.58279 49.8629 7.50869 49.4662 7.50869H48.9455V9.48466C49.1935 9.53406 49.367 9.53405 49.491 9.53405C49.9125 9.53405 50.2101 9.43526 50.4084 9.26236V9.26236Z" fill="white"/>
<path d="M52.665 6.7677H53.6321V11.5347H55.9628L55.8884 12.3498H52.6898V6.7677H52.665Z" fill="white"/>
<path d="M57.4257 12.0782C57.0042 11.8559 56.7066 11.5101 56.4835 11.0902C56.2603 10.6703 56.1611 10.1763 56.1611 9.6082C56.1611 9.01541 56.2851 8.49672 56.5083 8.05212C56.7314 7.60753 57.0785 7.26174 57.5001 7.03944C57.9464 6.79244 58.4423 6.66895 59.0374 6.66895C59.6076 6.66895 60.0787 6.79244 60.5003 7.01474C60.897 7.23704 61.2193 7.58283 61.4425 8.00272C61.6656 8.42262 61.7648 8.91661 61.7648 9.46C61.7648 10.0528 61.6408 10.5715 61.4177 11.0161C61.1945 11.4607 60.8474 11.8065 60.4259 12.0288C60.0044 12.2758 59.4837 12.3993 58.9134 12.3993C58.3183 12.424 57.8224 12.3005 57.4257 12.0782V12.0782ZM59.93 11.3866C60.2027 11.2137 60.4011 10.9667 60.5499 10.6456C60.6738 10.3245 60.7482 9.95399 60.7482 9.5588C60.7482 9.1636 60.6986 8.79311 60.5747 8.49672C60.4507 8.17562 60.2771 7.92863 60.0044 7.75573C59.7316 7.55813 59.4093 7.48403 58.9878 7.48403C58.591 7.48403 58.2687 7.58283 57.996 7.75573C57.7232 7.95332 57.5249 8.20032 57.3761 8.52142C57.2273 8.84251 57.1777 9.1883 57.1777 9.5835C57.1777 9.97869 57.2521 10.3492 57.3761 10.6703C57.5001 10.9914 57.6984 11.2384 57.9712 11.436C58.2439 11.6336 58.5663 11.7077 58.963 11.7077C59.3349 11.6583 59.6572 11.5842 59.93 11.3866V11.3866Z" fill="white"/>
<path d="M62.8311 6.7677H64.5915C65.2362 6.7677 65.7073 6.8912 66.0544 7.13819C66.3767 7.38519 66.5503 7.75568 66.5503 8.22498C66.5503 8.52137 66.5007 8.79307 66.3768 9.01536C66.2528 9.23766 66.104 9.43526 65.9304 9.55875C65.7569 9.70695 65.5833 9.80575 65.3849 9.87985L67.1206 12.3498H65.98L64.5171 10.1268H63.7981V12.3498H62.8311V6.7677ZM64.3436 9.41056C64.5667 9.41056 64.7899 9.36116 64.9634 9.26236C65.137 9.16356 65.2858 9.04006 65.3849 8.86717C65.4841 8.69427 65.5337 8.49667 65.5337 8.29907C65.5337 8.02738 65.4345 7.80508 65.261 7.68158C65.0874 7.55809 64.8147 7.48399 64.4923 7.48399H63.7981V9.38586H64.3436V9.41056Z" fill="white"/>
<path d="M67.8643 6.7677H71.162L71.0628 7.55809H68.8313V9.08946H70.9388V9.83045H68.8313V11.5347H71.1868L71.1124 12.3251H67.8643V6.7677Z" fill="white"/>
<path d="M74.7568 6.7677H75.7238V12.3498H74.7568V6.7677Z" fill="white"/>
<path d="M78.303 7.55813H76.5674L76.6418 6.74304H81.0057L80.9065 7.55813H79.2452V12.3499H78.2782V7.55813H78.303Z" fill="white"/>
<path d="M85.2206 12.0782C84.7991 11.8559 84.5015 11.5101 84.2784 11.0902C84.0552 10.6703 83.9561 10.1763 83.9561 9.6082C83.9561 9.01541 84.08 8.49672 84.3032 8.05212C84.5263 7.60753 84.8735 7.26174 85.295 7.03944C85.7413 6.79244 86.2372 6.66895 86.8323 6.66895C87.4026 6.66895 87.8737 6.79244 88.2952 7.01474C88.6919 7.23704 89.0142 7.58283 89.2374 8.00272C89.4606 8.42262 89.5597 8.91661 89.5597 9.46C89.5597 10.0528 89.4358 10.5715 89.2126 11.0161C88.9895 11.4607 88.6423 11.8065 88.2208 12.0288C87.7993 12.2758 87.2786 12.3993 86.7083 12.3993C86.1132 12.424 85.6173 12.3005 85.2206 12.0782V12.0782ZM87.7249 11.3866C87.9976 11.2137 88.196 10.9667 88.3448 10.6456C88.4688 10.3245 88.5431 9.95399 88.5431 9.5588C88.5431 9.1636 88.4935 8.79311 88.3696 8.49672C88.2456 8.17562 88.072 7.92863 87.7993 7.75573C87.5265 7.55813 87.2042 7.48403 86.7827 7.48403C86.386 7.48403 86.0636 7.58283 85.7909 7.75573C85.5181 7.95332 85.3198 8.20032 85.171 8.52142C85.0222 8.84251 84.9727 9.1883 84.9727 9.5835C84.9727 9.97869 85.047 10.3492 85.171 10.6703C85.295 10.9914 85.4933 11.2384 85.7661 11.436C86.0388 11.6336 86.3612 11.7077 86.7579 11.7077C87.105 11.6583 87.4522 11.5842 87.7249 11.3866V11.3866Z" fill="white"/>
<path d="M90.626 6.7677H91.7418L94.5188 11.0901C94.494 10.6702 94.494 10.2997 94.494 9.95395V6.7677H95.3866V12.3498H94.3204L91.4938 7.95328C91.5186 8.44727 91.5434 8.89186 91.5434 9.28706V12.3498H90.6508V6.7677H90.626Z" fill="white"/>
<path fill-rule="evenodd" clip-rule="evenodd" d="M25.0674 6.79236H14.7775C9.91767 6.79236 8.15723 8.57073 8.15723 13.3872V23.6375C8.15723 28.4786 9.94247 30.2323 14.7775 30.2323H25.0674C29.9273 30.2323 31.6877 28.4539 31.6877 23.6375V13.3872C31.7125 8.57073 29.9273 6.79236 25.0674 6.79236Z" fill="#C8102E"/>
<path d="M12.8183 18.5247H13.4382V21.5874H12.8183V20.3524H11.405V21.5874H10.7852V18.5247H11.405V19.7596H12.8183V18.5247ZM16.3392 20.2783C16.3392 20.7723 16.0913 21.044 15.645 21.044C15.1987 21.044 14.9507 20.7723 14.9507 20.2536V18.5247H14.3308V20.2783C14.3308 21.1428 14.802 21.6368 15.645 21.6368C16.488 21.6368 16.9839 21.1428 16.9839 20.2536V18.5247H16.364V20.2783H16.3392ZM23.5546 20.6241L22.8603 18.5247H22.3396L21.6454 20.6241L20.9759 18.5247H20.3065L21.3726 21.5874H21.8933L22.5876 19.562L23.2819 21.5874H23.8026L24.8687 18.5247H24.2241L23.5546 20.6241ZM26.0093 20.2783H27.1499V19.7102H26.0093V19.0927H27.6706V18.5247H25.4142V21.5874H27.745V21.0193H26.0341V20.2783H26.0093ZM28.464 21.5874H29.0839V18.5247H28.464V21.5874ZM18.1989 20.9452L17.9261 21.5874H17.2815L18.6204 18.5247H19.1659L20.5048 21.5874H19.8601L19.5874 20.9452H18.1989ZM18.422 20.4018H19.3642L18.8931 19.315L18.422 20.4018Z" fill="white"/>
<path d="M19.9342 14.6221C17.7771 14.6221 16.0166 12.8685 16.0166 10.7196H16.5621C16.5621 12.5721 18.0746 14.0787 19.9342 14.0787C21.7938 14.0787 23.3063 12.5721 23.3063 10.7196H23.8518C23.8518 12.8685 22.0914 14.6221 19.9342 14.6221V14.6221Z" fill="white"/>
</svg>
