<svg width="39" height="31" viewBox="0 0 39 31" fill="none" xmlns="http://www.w3.org/2000/svg">
<path opacity="0.75" d="M22.8378 21.1725C22.8378 14.9814 24.8288 9.30132 28.8108 4.13211C31.3288 1.00654 33.3491 -0.345871 34.8716 0.0748792C36.277 0.615843 36.9797 1.42729 36.9797 2.50922C36.9797 3.53104 36.5113 4.61297 35.5743 5.755C34.6959 6.89704 33.9932 7.8287 33.4662 8.54998C32.9392 9.27127 32.5 10.0527 32.1486 10.8942C31.3288 12.5772 30.9189 14.6208 30.9189 17.0251C32.3243 16.6043 33.7297 16.7847 35.1351 17.5661C37.7117 19.0687 39 20.9922 39 23.3363C39 25.6204 38.2973 27.4837 36.8919 28.9263C35.545 30.3088 33.6712 31 31.2703 31C28.8694 31 26.8491 30.0683 25.2095 28.205C23.6284 26.2816 22.8378 23.9374 22.8378 21.1725ZM0 21.1725C0 14.741 1.96171 9.06089 5.88514 4.13211C8.87162 0.465576 11.3604 -0.646406 13.3514 0.796165C13.7613 1.0967 13.9662 1.57756 13.9662 2.23874C13.9662 3.44088 13.527 4.61297 12.6486 5.755C11.8288 6.89704 11.1554 7.8287 10.6284 8.54998C10.1014 9.27127 9.66216 10.0527 9.31081 10.8942C8.49099 12.5772 8.08108 14.6208 8.08108 17.0251C9.48649 16.6043 10.8626 16.7847 12.2095 17.5661C14.7275 19.0687 15.9865 20.9922 15.9865 23.3363C15.9865 25.6204 15.3131 27.4837 13.9662 28.9263C12.6194 30.3088 10.7455 31 8.34459 31C5.94369 31 3.9527 30.0683 2.37162 28.205C0.790541 26.2816 0 23.9374 0 21.1725Z" fill="#272445" fill-opacity="0.1"/>
</svg>
