<svg width="32" height="32" viewBox="0 0 32 32" fill="none" xmlns="http://www.w3.org/2000/svg">
<path fill-rule="evenodd" clip-rule="evenodd" d="M8.92886 6.41416C8.14781 5.63311 6.88148 5.63311 6.10043 6.41416C5.31939 7.1952 5.31939 8.46153 6.10044 9.24258L13.3284 16.4706L6.41421 23.3848C5.63316 24.1658 5.63316 25.4322 6.41421 26.2132C7.19526 26.9943 8.46159 26.9943 9.24264 26.2132L16.1569 19.299L23.071 26.2131C23.852 26.9942 25.1184 26.9942 25.8994 26.2131C26.6805 25.4321 26.6805 24.1658 25.8994 23.3847L18.9853 16.4706L26.2132 9.24267C26.9943 8.46162 26.9943 7.19529 26.2132 6.41424C25.4322 5.63319 24.1658 5.63319 23.3848 6.41424L16.1569 13.6422L8.92886 6.41416Z" fill="white"/>
</svg>
