<svg width="24" height="24" viewBox="0 0 24 24" fill="none" xmlns="http://www.w3.org/2000/svg">
<g clip-path="url(#clip0)">
<path fill-rule="evenodd" clip-rule="evenodd" d="M12 0.875C5.57967 0.875 0.375 6.07967 0.375 12.5C0.375 18.9203 5.57967 24.125 12 24.125C18.4203 24.125 23.625 18.9203 23.625 12.5C23.625 6.07967 18.4203 0.875 12 0.875ZM12 3.125C17.1812 3.125 21.375 7.31802 21.375 12.5C21.375 17.6812 17.182 21.875 12 21.875C6.81881 21.875 2.625 17.682 2.625 12.5C2.625 7.31881 6.81802 3.125 12 3.125ZM17.5155 8.16636L18.5719 9.23126C18.7907 9.45181 18.7893 9.80797 18.5688 10.0268L10.4786 18.052C10.2581 18.2708 9.90194 18.2693 9.68318 18.0488L5.42782 13.759C5.20901 13.5384 5.21046 13.1822 5.43101 12.9635L6.49596 11.9071C6.71651 11.6883 7.07266 11.6898 7.29143 11.9103L10.0942 14.7358L16.7201 8.16317C16.9406 7.94436 17.2968 7.94581 17.5155 8.16636Z" fill="#00AD93"/>
</g>
<defs>
<clipPath id="clip0">
<rect width="24" height="24" fill="white"/>
</clipPath>
</defs>
</svg>
