<svg width="148" height="26" viewBox="0 0 148 26" fill="none" xmlns="http://www.w3.org/2000/svg">
<mask id="mask0" mask-type="alpha" maskUnits="userSpaceOnUse" x="112" y="3" width="17" height="23">
<path fill-rule="evenodd" clip-rule="evenodd" d="M112.665 3.28174H128.907V25.7762H112.665V3.28174Z" fill="white"/>
</mask>
<g mask="url(#mask0)">
<path fill-rule="evenodd" clip-rule="evenodd" d="M116.851 3.28174C117.329 3.28174 117.757 3.5764 117.928 4.02116L117.937 4.04283L121.226 13.1078L123.994 4.09759C124.141 3.62013 124.577 3.29198 125.075 3.28174H125.099H127.752C127.883 3.28174 128.013 3.30419 128.136 3.34753C128.731 3.5575 129.046 4.20513 128.848 4.80116L128.841 4.82125L123.892 18.8557C122.192 23.6807 119.545 25.7528 115.464 25.7761L115.34 25.7765H113.82C113.182 25.7765 112.665 25.2592 112.665 24.621V22.4193C112.665 21.7811 113.182 21.2639 113.82 21.2639H114.738C116.964 21.2639 118.025 20.5717 118.731 18.6572L118.753 18.5985L113.029 4.88192C112.97 4.74089 112.94 4.58962 112.94 4.43677C112.94 3.80607 113.445 3.29277 114.074 3.28174H114.095H116.851Z" fill="#00AD93"/>
</g>
<mask id="mask1" mask-type="alpha" maskUnits="userSpaceOnUse" x="130" y="2" width="18" height="18">
<path fill-rule="evenodd" clip-rule="evenodd" d="M130.478 2.79553H147.186V19.7574H130.478V2.79553Z" fill="white"/>
</mask>
<g mask="url(#mask1)">
<path fill-rule="evenodd" clip-rule="evenodd" d="M139.03 2.79553C143.725 2.79553 147.185 6.42568 147.185 11.2767L147.186 11.5059C147.187 11.8656 147.17 12.3289 146.972 12.6747C146.861 12.869 146.682 13.0222 146.486 13.1006C146.261 13.19 146.018 13.1916 145.864 13.1916L140.813 13.1955C139.272 13.1975 137.531 13.2007 135.591 13.2038C136.201 14.8745 137.68 15.4528 139.448 15.4528C139.979 15.4528 140.478 15.3693 140.927 15.2239C141.06 15.1806 141.19 15.1321 141.314 15.0786C141.542 14.9797 142.139 14.4684 142.625 14.4684C143.096 14.4684 143.347 14.6866 143.996 15.0463L144.063 15.0833C144.486 15.3137 144.843 15.5277 145.143 15.714L145.263 15.79C145.318 15.8243 145.371 15.8578 145.421 15.8901C145.851 16.165 146.121 17.1129 144.793 18.0422C144.745 18.076 144.698 18.1115 144.65 18.1458C143.208 19.1665 141.485 19.7574 139.384 19.7574C133.886 19.7574 130.478 16.063 130.478 11.2767C130.478 6.4899 133.95 2.79553 139.03 2.79553ZM139.147 7.17259C137.328 7.17259 136.109 8.03887 135.647 9.61738L135.634 9.66544H142.564C142.048 7.8352 140.598 7.17259 139.147 7.17259Z" fill="#00AD93"/>
</g>
<mask id="mask2" mask-type="alpha" maskUnits="userSpaceOnUse" x="38" y="2" width="18" height="24">
<path fill-rule="evenodd" clip-rule="evenodd" d="M38.3848 2.79565H55.7114V25.7763H38.3848V2.79565Z" fill="white"/>
</mask>
<g mask="url(#mask2)">
<path fill-rule="evenodd" clip-rule="evenodd" d="M55.7114 11.2925C55.7114 6.49671 52.2329 2.79565 48.0142 2.79565C45.8562 2.79565 44.2785 3.53587 43.2153 4.75905V4.40135V4.38087C43.2042 3.75214 42.6913 3.24593 42.0602 3.24593H39.5394L39.5189 3.24632C38.8906 3.25735 38.3848 3.77026 38.3848 4.40135V24.6211V24.6416C38.3958 25.2703 38.9087 25.7765 39.5394 25.7765H42.0602L42.0807 25.7761C42.709 25.7651 43.2153 25.2522 43.2153 24.6211V17.8264L43.2472 17.863C44.31 19.0642 45.8779 19.7898 48.0142 19.7898C52.2329 19.7898 55.7114 16.0884 55.7114 11.2925ZM43.2479 11.3374C43.2479 8.92653 44.8572 7.41617 47.0782 7.41617C49.2992 7.41617 50.9085 8.92653 50.9085 11.3374C50.9085 13.748 49.2992 15.2587 47.0782 15.2587C44.8572 15.2587 43.2479 13.748 43.2479 11.3374Z" fill="#272445"/>
</g>
<mask id="mask3" mask-type="alpha" maskUnits="userSpaceOnUse" x="77" y="3" width="17" height="23">
<path fill-rule="evenodd" clip-rule="evenodd" d="M77.0508 3.28174H93.2927V25.7762H77.0508V3.28174Z" fill="white"/>
</mask>
<g mask="url(#mask3)">
<path fill-rule="evenodd" clip-rule="evenodd" d="M81.2368 3.28174C81.715 3.28174 82.1428 3.5764 82.3142 4.02116L82.3225 4.04283L85.6111 13.1078L88.3801 4.09759C88.5266 3.62013 88.9631 3.29198 89.4611 3.28174H89.4843H92.1375C92.2683 3.28174 92.3983 3.30419 92.5216 3.34753C93.1164 3.5575 93.432 4.20513 93.2334 4.80116L93.2267 4.82125L88.2773 18.8557C86.5778 23.6807 83.9309 25.7528 79.8497 25.7761L79.7256 25.7765H78.2058C77.568 25.7765 77.0508 25.2592 77.0508 24.621V22.4193C77.0508 21.7811 77.568 21.2639 78.2058 21.2639H79.1237C81.3494 21.2639 82.4103 20.5717 83.1167 18.6572L83.1383 18.5985L77.4144 4.88192C77.3553 4.74089 77.3254 4.58962 77.3254 4.43677C77.3254 3.80607 77.8312 3.29277 78.4599 3.28174H78.4804H81.2368Z" fill="#272445"/>
</g>
<path fill-rule="evenodd" clip-rule="evenodd" d="M70.1206 4.71862C69.0585 3.51986 67.4903 2.79541 65.3539 2.79541C61.1348 2.79541 57.6567 6.48977 57.6567 11.2765C57.6567 16.0629 61.1348 19.7573 65.3539 19.7573C67.5119 19.7573 69.09 19.0186 70.1525 17.7978V18.1527L70.1529 18.1732C70.1635 18.8016 70.6768 19.3078 71.3079 19.3078H73.8283L73.8488 19.3074C74.4776 19.2964 74.9838 18.7838 74.9838 18.1527V4.40032L74.9834 4.37983C74.9723 3.75111 74.4598 3.24529 73.8283 3.24529H71.3079H71.2874C70.6587 3.25632 70.1525 3.76923 70.1525 4.40032V4.75486L70.1206 4.71862ZM62.4596 11.3372C62.4596 8.92668 64.0689 7.41593 66.2895 7.41593C68.5106 7.41593 70.1198 8.92668 70.1198 11.3372C70.1198 13.7477 68.5106 15.2585 66.2895 15.2585C64.0689 15.2585 62.4596 13.7477 62.4596 11.3372Z" fill="#272445"/>
<path fill-rule="evenodd" clip-rule="evenodd" d="M103.416 2.79553C108.11 2.79553 111.57 6.42568 111.57 11.2767L111.572 11.5059C111.572 11.8656 111.555 12.3289 111.358 12.6747C111.247 12.869 111.067 13.0222 110.871 13.1006C110.647 13.19 110.403 13.1916 110.25 13.1916L105.198 13.1955C103.658 13.1975 101.916 13.2007 99.9759 13.2038C100.587 14.8745 102.066 15.4528 103.834 15.4528C104.364 15.4528 104.864 15.3693 105.313 15.2239C105.446 15.1806 105.575 15.1321 105.699 15.0786C105.928 14.9797 106.525 14.4684 107.011 14.4684C107.489 14.4684 107.741 14.6941 108.414 15.0648L108.449 15.0833C108.871 15.3137 109.229 15.5277 109.528 15.714L109.649 15.79C109.703 15.8243 109.756 15.8578 109.807 15.8901C110.237 16.165 110.507 17.1129 109.179 18.0422C109.131 18.076 109.083 18.1115 109.035 18.1458C107.594 19.1665 105.87 19.7574 103.77 19.7574C98.2717 19.7574 94.8638 16.063 94.8638 11.2767C94.8638 6.4899 98.336 2.79553 103.416 2.79553ZM103.533 7.17259C101.714 7.17259 100.495 8.03887 100.033 9.61738L100.019 9.66544H106.95C106.434 7.8352 104.984 7.17259 103.533 7.17259Z" fill="#00AD93"/>
<path fill-rule="evenodd" clip-rule="evenodd" d="M23.7708 15.3198C22.3203 12.5934 18.3581 11.1704 15.0021 12.9542C11.6465 14.7376 10.2342 18.6423 11.8474 21.6756C13.461 24.709 17.4894 25.7222 20.8454 23.9388C24.201 22.1554 25.2209 18.0463 23.7708 15.3198Z" fill="#00AD93"/>
<path fill-rule="evenodd" clip-rule="evenodd" d="M23.7708 15.3198C22.3203 12.5934 18.3581 11.1704 15.0021 12.9542C11.6465 14.7376 10.2342 18.6423 11.8474 21.6756C13.461 24.709 17.4894 25.7222 20.8454 23.9388C24.201 22.1554 25.2209 18.0463 23.7708 15.3198Z" fill="#00AD93"/>
<mask id="mask4" mask-type="alpha" maskUnits="userSpaceOnUse" x="0" y="0" width="26" height="13">
<path fill-rule="evenodd" clip-rule="evenodd" d="M0 0.393921H25.6085V12.9419H0V0.393921Z" fill="white"/>
</mask>
<g mask="url(#mask4)">
<path fill-rule="evenodd" clip-rule="evenodd" d="M22.9818 7.17705C25.568 7.77505 26.7061 4.52899 24.2392 2.93314C21.7728 1.3369 15.5422 -1.27295 6.94843 1.87226C3.40297 3.1699 1.77088 4.6842 0.83488 5.97553C-0.10112 7.26687 -0.337878 9.18614 0.579213 10.9266C1.4967 12.6674 5.23676 14.2735 8.68058 11.2397C15.0604 5.61941 20.3952 6.57905 22.9818 7.17705Z" fill="#272445"/>
</g>
</svg>
