<svg width="148" height="36" viewBox="0 0 148 36" fill="none" xmlns="http://www.w3.org/2000/svg">
<path d="M39.9186 36C40.9607 36 41.8026 35.3458 41.8026 34.0665V30.7591H40.9607L40.9193 31.3479H40.9055C40.7191 30.9045 40.1946 30.6646 39.7253 30.6646C38.8696 30.6646 38 31.4133 38 32.46C38 33.5431 38.8558 34.2118 39.677 34.2118C40.1946 34.2118 40.7122 33.9502 40.8848 33.5213L40.8986 33.5358V34.1755C40.8986 34.8079 40.4569 35.1786 39.9186 35.1786C39.5321 35.1786 39.2008 34.9896 39.049 34.6116H38.0414C38.283 35.5421 39.0214 36 39.9186 36ZM39.96 33.4123C39.4424 33.4123 39.0214 32.9761 39.0214 32.46C39.0214 31.9294 39.4424 31.5078 39.9462 31.5078C40.45 31.5078 40.8641 31.9439 40.8641 32.4528C40.8641 32.9834 40.45 33.4123 39.96 33.4123Z" fill="#272445"/>
<path d="M42.8227 34.3281H43.7751V29.0945H42.8227V34.3281Z" fill="#272445"/>
<path d="M46.4535 34.4226C47.5025 34.4226 48.3583 33.5722 48.3583 32.54C48.3583 31.5078 47.5025 30.6646 46.4535 30.6646C45.4045 30.6646 44.5488 31.5078 44.5488 32.54C44.5488 33.5722 45.4045 34.4226 46.4535 34.4226ZM46.4535 33.5431C45.9359 33.5431 45.5012 33.0924 45.5012 32.54C45.5012 31.9948 45.9359 31.5441 46.4535 31.5441C46.9711 31.5441 47.4059 31.9948 47.4059 32.54C47.4059 33.0924 46.9711 33.5431 46.4535 33.5431Z" fill="#272445"/>
<path d="M50.0835 29.0945H49.1311V34.3281H49.9662L50.0076 33.7394H50.0214C50.2077 34.1755 50.746 34.4226 51.2084 34.4226C52.0849 34.4226 52.9337 33.6667 52.9337 32.54C52.9337 31.4133 52.0849 30.6646 51.2291 30.6646C50.746 30.6646 50.2698 30.9335 50.0973 31.3479H50.0835V29.0945ZM51.029 33.5431C50.5045 33.5431 50.0835 33.0924 50.0835 32.54C50.0835 31.9875 50.5045 31.5441 51.029 31.5441C51.5535 31.5441 51.9813 31.9875 51.9813 32.54C51.9813 33.0924 51.5535 33.5431 51.029 33.5431Z" fill="#272445"/>
<path d="M55.1842 34.4226C55.6465 34.4226 56.1779 34.1755 56.3643 33.7394H56.385L56.4195 34.3281H57.2615V30.7591H56.4195L56.385 31.3479H56.3643C56.1848 30.9263 55.6741 30.6646 55.1842 30.6646C54.3353 30.6646 53.445 31.4133 53.445 32.54C53.445 33.6667 54.3284 34.4226 55.1842 34.4226ZM55.3498 33.5431C54.8253 33.5431 54.3974 33.0924 54.3974 32.54C54.3974 31.9875 54.8253 31.5441 55.3498 31.5441C55.8743 31.5441 56.2953 31.9875 56.2953 32.54C56.2953 33.0924 55.8743 33.5431 55.3498 33.5431Z" fill="#272445"/>
<path d="M58.2833 34.3281H59.2357V29.0945H58.2833V34.3281Z" fill="#272445"/>
<path d="M61.8216 35.9273H62.7739V33.7394H62.7877C62.9534 34.1464 63.4434 34.4226 63.9403 34.4226C64.7753 34.4226 65.6311 33.6667 65.6311 32.5472C65.6311 31.4133 64.7615 30.6646 63.8989 30.6646C63.4365 30.6646 62.9051 30.9045 62.7187 31.3479H62.7049L62.6635 30.7591H61.8216V35.9273ZM63.7263 33.5431C63.2087 33.5431 62.7739 33.0924 62.7739 32.54C62.7739 31.9948 63.2087 31.5441 63.7263 31.5441C64.2439 31.5441 64.6787 31.9948 64.6787 32.54C64.6787 33.0924 64.2439 33.5431 63.7263 33.5431Z" fill="#272445"/>
<path d="M66.8739 30.2503C67.1776 30.2503 67.4398 29.9886 67.4398 29.6687C67.4398 29.3562 67.1776 29.0872 66.8739 29.0872C66.5703 29.0872 66.3149 29.3562 66.3149 29.6687C66.3149 29.9886 66.5703 30.2503 66.8739 30.2503ZM66.3977 34.3281H67.3501V30.7591H66.3977V34.3281Z" fill="#272445"/>
<path d="M70.0286 34.4226C71.0776 34.4226 71.9334 33.5722 71.9334 32.54C71.9334 31.5078 71.0776 30.6646 70.0286 30.6646C68.9796 30.6646 68.1238 31.5078 68.1238 32.54C68.1238 33.5722 68.9796 34.4226 70.0286 34.4226ZM70.0286 33.5431C69.511 33.5431 69.0762 33.0924 69.0762 32.54C69.0762 31.9948 69.511 31.5441 70.0286 31.5441C70.5462 31.5441 70.981 31.9948 70.981 32.54C70.981 33.0924 70.5462 33.5431 70.0286 33.5431Z" fill="#272445"/>
<path d="M72.6992 34.3281H73.6516V32.4818C73.6516 31.973 74.0174 31.5587 74.4591 31.5587C74.9215 31.5587 75.2665 31.9657 75.2665 32.46V34.3281H76.2189V32.3583C76.2189 31.406 75.6323 30.6646 74.7144 30.6646C74.2589 30.6646 73.8173 30.9263 73.6102 31.3479H73.5964L73.5412 30.7591H72.6992V34.3281Z" fill="#272445"/>
<path d="M78.8648 33.6231C78.3472 33.6231 77.9815 33.325 77.8779 32.8235H80.7006C80.7006 31.6168 79.9828 30.6646 78.8165 30.6646C77.7261 30.6646 76.9325 31.5151 76.9325 32.5472C76.9325 33.6231 77.7882 34.4226 78.8441 34.4226C79.6447 34.4226 80.3555 33.9574 80.5902 33.3105L79.693 33.2087C79.5619 33.4849 79.2099 33.6231 78.8648 33.6231ZM78.8165 31.4569C79.2858 31.4569 79.6309 31.6968 79.7482 32.1911H77.8779C77.9815 31.7404 78.3058 31.4569 78.8165 31.4569Z" fill="#272445"/>
<path d="M83.104 33.6231C82.5864 33.6231 82.2207 33.325 82.1171 32.8235H84.9398C84.9398 31.6168 84.222 30.6646 83.0557 30.6646C81.9653 30.6646 81.1717 31.5151 81.1717 32.5472C81.1717 33.6231 82.0274 34.4226 83.0833 34.4226C83.8839 34.4226 84.5947 33.9574 84.8294 33.3105L83.9322 33.2087C83.8011 33.4849 83.4491 33.6231 83.104 33.6231ZM83.0557 31.4569C83.525 31.4569 83.8701 31.6968 83.9874 32.1911H82.1171C82.2207 31.7404 82.545 31.4569 83.0557 31.4569Z" fill="#272445"/>
<path d="M85.6662 34.3281H86.6186V32.7871C86.6186 32.0748 87.0258 31.5805 87.7642 31.5805V30.6864C87.2811 30.6937 86.7842 30.9626 86.5772 31.5587H86.5634L86.5082 30.7591H85.6662V34.3281Z" fill="#272445"/>
<path d="M91.6694 34.4226C92.7184 34.4226 93.5742 33.5722 93.5742 32.54C93.5742 31.5078 92.7184 30.6646 91.6694 30.6646C90.6204 30.6646 89.7646 31.5078 89.7646 32.54C89.7646 33.5722 90.6204 34.4226 91.6694 34.4226ZM91.6694 33.5431C91.1518 33.5431 90.717 33.0924 90.717 32.54C90.717 31.9948 91.1518 31.5441 91.6694 31.5441C92.187 31.5441 92.6218 31.9948 92.6218 32.54C92.6218 33.0924 92.187 33.5431 91.6694 33.5431Z" fill="#272445"/>
<path d="M95.465 30.4974C95.465 30.1049 95.6927 29.8214 96.1275 29.8214C96.2793 29.8214 96.4173 29.8577 96.5761 29.9304L96.6934 29.1381C96.514 29.0582 96.2793 29 95.9757 29C95.0716 29 94.5126 29.6179 94.5126 30.4102V30.7591H93.9467V31.5514H94.5126V34.3281H95.465V31.5514H96.6037V30.7591H95.465V30.4974Z" fill="#272445"/>
<path d="M100.546 33.6231C100.028 33.6231 99.6627 33.325 99.5592 32.8235H102.382C102.382 31.6168 101.664 30.6646 100.498 30.6646C99.4073 30.6646 98.6137 31.5151 98.6137 32.5472C98.6137 33.6231 99.4695 34.4226 100.525 34.4226C101.326 34.4226 102.037 33.9574 102.271 33.3105L101.374 33.2087C101.243 33.4849 100.891 33.6231 100.546 33.6231ZM100.498 31.4569C100.967 31.4569 101.312 31.6968 101.429 32.1911H99.5592C99.6627 31.7404 99.9871 31.4569 100.498 31.4569Z" fill="#272445"/>
<path d="M102.895 35.9273H103.91L106.45 30.7591H105.414L104.517 32.729L103.62 30.7591H102.585L104.027 33.703L102.895 35.9273Z" fill="#272445"/>
<path d="M108.58 33.6231C108.062 33.6231 107.696 33.325 107.593 32.8235H110.415C110.415 31.6168 109.698 30.6646 108.531 30.6646C107.441 30.6646 106.647 31.5151 106.647 32.5472C106.647 33.6231 107.503 34.4226 108.559 34.4226C109.359 34.4226 110.07 33.9574 110.305 33.3105L109.408 33.2087C109.277 33.4849 108.925 33.6231 108.58 33.6231ZM108.531 31.4569C109.001 31.4569 109.346 31.6968 109.463 32.1911H107.593C107.696 31.7404 108.021 31.4569 108.531 31.4569Z" fill="#272445"/>
<path d="M112.699 35.9273H113.651V33.7394H113.665C113.83 34.1464 114.32 34.4226 114.817 34.4226C115.652 34.4226 116.508 33.6667 116.508 32.5472C116.508 31.4133 115.639 30.6646 114.776 30.6646C114.314 30.6646 113.782 30.9045 113.596 31.3479H113.582L113.541 30.7591H112.699V35.9273ZM114.603 33.5431C114.086 33.5431 113.651 33.0924 113.651 32.54C113.651 31.9948 114.086 31.5441 114.603 31.5441C115.121 31.5441 115.556 31.9948 115.556 32.54C115.556 33.0924 115.121 33.5431 114.603 33.5431Z" fill="#272445"/>
<path d="M118.759 34.4226C119.221 34.4226 119.752 34.1755 119.939 33.7394H119.959L119.994 34.3281H120.836V30.7591H119.994L119.959 31.3479H119.939C119.759 30.9263 119.249 30.6646 118.759 30.6646C117.91 30.6646 117.019 31.4133 117.019 32.54C117.019 33.6667 117.903 34.4226 118.759 34.4226ZM118.924 33.5431C118.4 33.5431 117.972 33.0924 117.972 32.54C117.972 31.9875 118.4 31.5441 118.924 31.5441C119.449 31.5441 119.87 31.9875 119.87 32.54C119.87 33.0924 119.449 33.5431 118.924 33.5431Z" fill="#272445"/>
<path d="M121.618 35.9273H122.632L125.172 30.7591H124.137L123.24 32.729L122.343 30.7591H121.307L122.75 33.703L121.618 35.9273Z" fill="#272445"/>
<path d="M129.827 30.6646C129.433 30.6646 128.992 30.81 128.695 31.2461C128.446 30.8899 128.074 30.6646 127.597 30.6646C127.197 30.6646 126.79 30.9045 126.597 31.3115H126.583L126.528 30.7591H125.686V34.3281H126.638V32.3873C126.638 31.9294 126.956 31.5587 127.335 31.5587C127.742 31.5587 128.039 31.9221 128.039 32.3655V34.3281H128.992V32.3873C128.992 31.9294 129.302 31.5587 129.689 31.5587C130.089 31.5587 130.386 31.9221 130.386 32.3655V34.3281H131.338V32.3219C131.338 31.3842 130.751 30.6646 129.827 30.6646Z" fill="#272445"/>
<path d="M133.981 33.6231C133.464 33.6231 133.098 33.325 132.994 32.8235H135.817C135.817 31.6168 135.099 30.6646 133.933 30.6646C132.842 30.6646 132.049 31.5151 132.049 32.5472C132.049 33.6231 132.905 34.4226 133.96 34.4226C134.761 34.4226 135.472 33.9574 135.706 33.3105L134.809 33.2087C134.678 33.4849 134.326 33.6231 133.981 33.6231ZM133.933 31.4569C134.402 31.4569 134.747 31.6968 134.864 32.1911H132.994C133.098 31.7404 133.422 31.4569 133.933 31.4569Z" fill="#272445"/>
<path d="M136.543 34.3281H137.496V32.4818C137.496 31.973 137.861 31.5587 138.303 31.5587C138.766 31.5587 139.111 31.9657 139.111 32.46V34.3281H140.063V32.3583C140.063 31.406 139.476 30.6646 138.558 30.6646C138.103 30.6646 137.661 30.9263 137.454 31.3479H137.44L137.385 30.7591H136.543V34.3281Z" fill="#272445"/>
<path d="M142.731 33.5722C142.317 33.5722 142.096 33.2887 142.096 32.8816V31.5514H143.235V30.7591H142.096V29.8287H141.143V30.7591H140.536V31.5514H141.143V32.9688C141.143 33.783 141.696 34.4226 142.579 34.4226C142.883 34.4226 143.117 34.3572 143.241 34.2773V33.4631C143.014 33.5358 142.876 33.5722 142.731 33.5722Z" fill="#272445"/>
<path d="M145.447 34.4226C146.344 34.4226 147 34.0156 147 33.2814C147 32.5691 146.331 32.3364 145.716 32.1983C145.213 32.0893 144.854 32.0093 144.854 31.7113C144.854 31.4642 145.109 31.3697 145.364 31.3697C145.613 31.3697 145.91 31.4787 145.923 31.7913H146.903C146.89 31.0135 146.165 30.6646 145.344 30.6646C144.495 30.6646 143.867 31.0426 143.867 31.7331C143.867 32.4455 144.529 32.6999 145.088 32.838C145.647 32.9761 145.958 33.0415 145.958 33.3396C145.958 33.5794 145.696 33.6885 145.406 33.6885C145.137 33.6885 144.805 33.594 144.792 33.2523H143.777C143.791 34.0374 144.522 34.4226 145.447 34.4226Z" fill="#272445"/>
<mask id="mask0" mask-type="alpha" maskUnits="userSpaceOnUse" x="112" y="3" width="17" height="23">
<path fill-rule="evenodd" clip-rule="evenodd" d="M112.665 3.28174H128.907V25.7762H112.665V3.28174Z" fill="white"/>
</mask>
<g mask="url(#mask0)">
<path fill-rule="evenodd" clip-rule="evenodd" d="M116.851 3.28174C117.329 3.28174 117.757 3.5764 117.928 4.02116L117.937 4.04283L121.226 13.1078L123.994 4.09759C124.141 3.62013 124.577 3.29198 125.075 3.28174H125.099H127.752C127.883 3.28174 128.013 3.30419 128.136 3.34753C128.731 3.5575 129.046 4.20513 128.848 4.80116L128.841 4.82125L123.892 18.8557C122.192 23.6807 119.545 25.7528 115.464 25.7761L115.34 25.7765H113.82C113.182 25.7765 112.665 25.2592 112.665 24.621V22.4193C112.665 21.7811 113.182 21.2639 113.82 21.2639H114.738C116.964 21.2639 118.025 20.5717 118.731 18.6572L118.753 18.5985L113.029 4.88192C112.97 4.74089 112.94 4.58962 112.94 4.43677C112.94 3.80607 113.445 3.29277 114.074 3.28174H114.095H116.851Z" fill="#00AD93"/>
</g>
<mask id="mask1" mask-type="alpha" maskUnits="userSpaceOnUse" x="130" y="2" width="18" height="18">
<path fill-rule="evenodd" clip-rule="evenodd" d="M130.478 2.79541H147.186V19.7573H130.478V2.79541Z" fill="white"/>
</mask>
<g mask="url(#mask1)">
<path fill-rule="evenodd" clip-rule="evenodd" d="M139.03 2.79541C143.725 2.79541 147.185 6.42556 147.185 11.2765L147.186 11.5058C147.187 11.8655 147.17 12.3287 146.972 12.6746C146.861 12.8688 146.682 13.0221 146.486 13.1005C146.261 13.1899 146.018 13.1915 145.864 13.1915L140.813 13.1954C139.272 13.1974 137.531 13.2005 135.591 13.2037C136.201 14.8744 137.68 15.4527 139.448 15.4527C139.979 15.4527 140.478 15.3692 140.927 15.2238C141.06 15.1805 141.19 15.132 141.314 15.0784C141.542 14.9796 142.139 14.4682 142.625 14.4682C143.096 14.4682 143.347 14.6865 143.996 15.0461L144.063 15.0832C144.486 15.3136 144.843 15.5275 145.143 15.7139L145.263 15.7899C145.318 15.8242 145.371 15.8577 145.421 15.89C145.851 16.1649 146.121 17.1127 144.793 18.042C144.745 18.0759 144.698 18.1114 144.65 18.1457C143.208 19.1663 141.485 19.7573 139.384 19.7573C133.886 19.7573 130.478 16.0629 130.478 11.2765C130.478 6.48977 133.95 2.79541 139.03 2.79541M139.147 7.17247C137.328 7.17247 136.109 8.03874 135.647 9.61726L135.634 9.66532H142.564C142.048 7.83508 140.598 7.17247 139.147 7.17247" fill="#00AD93"/>
</g>
<mask id="mask2" mask-type="alpha" maskUnits="userSpaceOnUse" x="38" y="2" width="18" height="24">
<path fill-rule="evenodd" clip-rule="evenodd" d="M38.3848 2.79541H55.7114V25.7761H38.3848V2.79541Z" fill="white"/>
</mask>
<g mask="url(#mask2)">
<path fill-rule="evenodd" clip-rule="evenodd" d="M55.7114 11.2923C55.7114 6.49647 52.2329 2.79541 48.0142 2.79541C45.8562 2.79541 44.2785 3.53562 43.2153 4.7588V4.40111V4.38062C43.2042 3.7519 42.6913 3.24568 42.0602 3.24568H39.5394L39.5189 3.24608C38.8906 3.25711 38.3848 3.77002 38.3848 4.40111V24.6208V24.6413C38.3958 25.27 38.9087 25.7763 39.5394 25.7763H42.0602L42.0807 25.7759C42.709 25.7648 43.2153 25.2519 43.2153 24.6208V17.8262L43.2472 17.8628C44.31 19.0639 45.8779 19.7896 48.0142 19.7896C52.2329 19.7896 55.7114 16.0881 55.7114 11.2923M43.2479 11.3372C43.2479 8.92629 44.8572 7.41593 47.0782 7.41593C49.2993 7.41593 50.9085 8.92629 50.9085 11.3372C50.9085 13.7477 49.2993 15.2585 47.0782 15.2585C44.8572 15.2585 43.2479 13.7477 43.2479 11.3372" fill="#272445"/>
</g>
<mask id="mask3" mask-type="alpha" maskUnits="userSpaceOnUse" x="77" y="3" width="17" height="23">
<path fill-rule="evenodd" clip-rule="evenodd" d="M77.0508 3.28174H93.2927V25.7762H77.0508V3.28174Z" fill="white"/>
</mask>
<g mask="url(#mask3)">
<path fill-rule="evenodd" clip-rule="evenodd" d="M81.2368 3.28174C81.715 3.28174 82.1428 3.5764 82.3142 4.02116L82.3225 4.04283L85.6111 13.1078L88.3801 4.09759C88.5266 3.62013 88.9631 3.29198 89.4611 3.28174H89.4843H92.1375C92.2683 3.28174 92.3983 3.30419 92.5216 3.34753C93.1164 3.5575 93.432 4.20513 93.2334 4.80116L93.2267 4.82125L88.2773 18.8557C86.5778 23.6807 83.9309 25.7528 79.8497 25.7761L79.7256 25.7765H78.2058C77.568 25.7765 77.0508 25.2592 77.0508 24.621V22.4193C77.0508 21.7811 77.568 21.2639 78.2058 21.2639H79.1237C81.3494 21.2639 82.4103 20.5717 83.1167 18.6572L83.1383 18.5985L77.4144 4.88192C77.3553 4.74089 77.3254 4.58962 77.3254 4.43677C77.3254 3.80607 77.8312 3.29277 78.4599 3.28174H78.4804H81.2368Z" fill="#272445"/>
</g>
<path fill-rule="evenodd" clip-rule="evenodd" d="M70.1206 4.71862C69.0585 3.51986 67.4903 2.79541 65.3539 2.79541C61.1348 2.79541 57.6567 6.48977 57.6567 11.2765C57.6567 16.0629 61.1348 19.7573 65.3539 19.7573C67.5119 19.7573 69.09 19.0186 70.1525 17.7978V18.1527L70.1529 18.1732C70.1635 18.8016 70.6768 19.3078 71.3079 19.3078H73.8283L73.8488 19.3074C74.4776 19.2964 74.9838 18.7838 74.9838 18.1527V4.40032L74.9834 4.37983C74.9723 3.75111 74.4598 3.24529 73.8283 3.24529H71.3079H71.2874C70.6587 3.25632 70.1525 3.76923 70.1525 4.40032V4.75486L70.1206 4.71862ZM62.4596 11.3372C62.4596 8.92668 64.0689 7.41593 66.2895 7.41593C68.5106 7.41593 70.1198 8.92668 70.1198 11.3372C70.1198 13.7477 68.5106 15.2585 66.2895 15.2585C64.0689 15.2585 62.4596 13.7477 62.4596 11.3372V11.3372Z" fill="#272445"/>
<path fill-rule="evenodd" clip-rule="evenodd" d="M103.416 2.79541C108.11 2.79541 111.57 6.42556 111.57 11.2765L111.572 11.5058C111.572 11.8655 111.555 12.3287 111.358 12.6746C111.247 12.8688 111.067 13.0221 110.871 13.1005C110.647 13.1899 110.403 13.1915 110.25 13.1915L105.198 13.1954C103.658 13.1974 101.916 13.2005 99.9759 13.2037C100.587 14.8744 102.066 15.4527 103.834 15.4527C104.364 15.4527 104.864 15.3692 105.313 15.2238C105.446 15.1805 105.575 15.132 105.699 15.0784C105.928 14.9796 106.525 14.4682 107.011 14.4682C107.489 14.4682 107.741 14.694 108.414 15.0647L108.449 15.0832C108.871 15.3136 109.229 15.5275 109.528 15.7139L109.649 15.7899C109.703 15.8242 109.756 15.8577 109.807 15.89C110.237 16.1649 110.507 17.1127 109.179 18.042C109.131 18.0759 109.083 18.1114 109.035 18.1457C107.594 19.1663 105.87 19.7573 103.77 19.7573C98.2717 19.7573 94.8638 16.0629 94.8638 11.2765C94.8638 6.48977 98.336 2.79541 103.416 2.79541M103.533 7.17247C101.714 7.17247 100.495 8.03874 100.033 9.61726L100.019 9.66532H106.95C106.434 7.83508 104.984 7.17247 103.533 7.17247" fill="#00AD93"/>
<path fill-rule="evenodd" clip-rule="evenodd" d="M23.7708 15.3199C22.3203 12.5935 18.3581 11.1706 15.0021 12.9543C11.6465 14.7377 10.2342 18.6424 11.8474 21.6758C13.461 24.7091 17.4894 25.7223 20.8454 23.9389C24.201 22.1556 25.2209 18.0464 23.7708 15.3199" fill="#00AD93"/>
<path fill-rule="evenodd" clip-rule="evenodd" d="M23.7708 15.3199C22.3203 12.5935 18.3581 11.1706 15.0021 12.9543C11.6465 14.7377 10.2342 18.6424 11.8474 21.6758C13.461 24.7091 17.4894 25.7223 20.8454 23.9389C24.201 22.1556 25.2209 18.0464 23.7708 15.3199" fill="#00AD93"/>
<mask id="mask4" mask-type="alpha" maskUnits="userSpaceOnUse" x="0" y="0" width="26" height="13">
<path fill-rule="evenodd" clip-rule="evenodd" d="M0 0.394043H25.6085V12.942H0V0.394043Z" fill="white"/>
</mask>
<g mask="url(#mask4)">
<path fill-rule="evenodd" clip-rule="evenodd" d="M22.9818 7.17717C25.568 7.77517 26.7061 4.52911 24.2392 2.93326C21.7728 1.33702 15.5422 -1.27283 6.94843 1.87238C3.40297 3.17002 1.77088 4.68432 0.83488 5.97566C-0.10112 7.26699 -0.337878 9.18626 0.579213 10.9267C1.4967 12.6675 5.23676 14.2736 8.68058 11.2399C15.0604 5.61954 20.3952 6.57917 22.9818 7.17717" fill="#272445"/>
</g>
</svg>
