<svg width="121" height="27" viewBox="0 0 121 27" fill="none" xmlns="http://www.w3.org/2000/svg">
<path d="M0.5 25.8634V0.5H38.9412V25.8634H0.5Z" stroke="black"/>
<path d="M18.8798 5.74709L19.7109 5.13867L20.5459 5.74709L20.2251 4.76277L21.0716 4.15436H20.0318L19.7109 3.15454L19.3939 4.15436H18.3502L19.1929 4.76277L18.8798 5.74709Z" fill="black"/>
<path d="M14.5698 6.90578L15.4047 6.29349L16.2358 6.90578L15.9188 5.92146L16.7654 5.31305H15.7217L15.4047 4.31323L15.0839 5.31305H14.0441L14.8906 5.92146L14.5698 6.90578Z" fill="black"/>
<path d="M12.2504 7.47925L11.9334 8.47906H10.8936L11.7363 9.08748L11.4193 10.0718L12.2504 9.46338L13.0854 10.0718L12.7684 9.08748L13.615 8.47906H12.5712L12.2504 7.47925Z" fill="black"/>
<path d="M11.0981 13.7727L11.9253 14.385L11.6122 13.4007L12.4588 12.7923H11.4151L11.0981 11.7925L10.7734 12.7923H9.73352L10.5801 13.4007L10.2631 14.385L11.0981 13.7727Z" fill="black"/>
<path d="M12.5712 17.117L12.2504 16.1211L11.9334 17.117H10.8936L11.7363 17.7293L11.4193 18.7098L12.2504 18.1013L13.0854 18.7098L12.7684 17.7293L13.615 17.117H12.5712Z" fill="black"/>
<path d="M15.7294 20.2831L15.4086 19.2871L15.0877 20.2831H14.0479L14.8944 20.8915L14.5774 21.8758L15.4086 21.2674L16.2435 21.8758L15.9266 20.8915L16.7731 20.2831H15.7294Z" fill="black"/>
<path d="M20.0318 21.4302L19.7109 20.4304L19.3939 21.4302H18.3502L19.1968 22.0386L18.8798 23.023L19.7109 22.4145L20.5459 23.023L20.2251 22.0386L21.0755 21.4302H20.0318Z" fill="black"/>
<path d="M24.3341 20.2831L24.0133 19.2871L23.6924 20.2831H22.6526L23.4953 20.8915L23.1822 21.8758L24.0133 21.2674L24.8444 21.8758L24.5274 20.8915L25.3779 20.2831H24.3341Z" fill="black"/>
<path d="M27.4923 17.117L27.1715 16.1211L26.8545 17.117H25.8108L26.6574 17.7293L26.3365 18.7098L27.1715 18.1013L28.0026 18.7098L27.6856 17.7293L28.5322 17.117H27.4923Z" fill="black"/>
<path d="M29.6725 12.7806H28.6326L28.3157 11.7808L27.9948 12.7806H26.955L27.8015 13.389L27.4807 14.3733L28.3157 13.7649L29.1468 14.3733L28.8298 13.389L29.6725 12.7806Z" fill="black"/>
<path d="M26.3365 10.0562L27.1715 9.45166L28.0065 10.0562L27.6856 9.07188L28.5322 8.46734H27.4923L27.1715 7.46753L26.8545 8.47122L25.8108 8.46734L26.6574 9.07188L26.3365 10.0562Z" fill="black"/>
<path d="M24.0248 4.31323L23.7079 5.31305H22.6642L23.5107 5.92146L23.1938 6.90578L24.0287 6.29349L24.8598 6.90578L24.5428 5.92146L25.3855 5.31305H24.3457L24.0248 4.31323Z" fill="black"/>
<path d="M53.9739 17.1539C53.5254 17.1539 53.1389 17.088 52.818 16.9601C52.4933 16.8284 52.2266 16.6462 52.0178 16.4137C51.8052 16.1773 51.6506 15.9022 51.5501 15.5844C51.4419 15.2666 51.3916 14.9179 51.3916 14.5381V10.4187H52.5977V14.4257C52.5977 14.7241 52.6325 14.9799 52.6982 15.193C52.7639 15.4062 52.8605 15.5767 52.9842 15.7123C53.1079 15.8441 53.2548 15.9448 53.4211 16.0068C53.5873 16.0688 53.7767 16.1037 53.9854 16.1037C54.1942 16.1037 54.3836 16.0727 54.5537 16.0068C54.7238 15.9448 54.8707 15.8441 54.9944 15.7123C55.1181 15.5805 55.2109 15.4062 55.2804 15.193C55.3462 14.9799 55.3809 14.7241 55.3809 14.4257V10.4187H56.587V14.5381C56.587 14.9179 56.5368 15.2666 56.4324 15.5844C56.328 15.9022 56.1695 16.1773 55.9569 16.4137C55.7443 16.6501 55.4737 16.8322 55.1451 16.9601C54.8127 17.088 54.4223 17.1539 53.9739 17.1539Z" fill="black"/>
<path d="M57.9981 12.3292C58.2185 12.2672 58.5084 12.2052 58.8602 12.147C59.2158 12.0889 59.6062 12.0618 60.0353 12.0618C60.4412 12.0618 60.7775 12.116 61.052 12.2284C61.3226 12.3408 61.5391 12.4958 61.7014 12.6934C61.8638 12.8949 61.9759 13.1352 62.0416 13.4181C62.1073 13.701 62.1421 14.011 62.1421 14.3443V17.1422H60.994V14.5264C60.994 14.259 60.9747 14.0343 60.9399 13.8444C60.9051 13.6584 60.8471 13.5034 60.7698 13.3871C60.6925 13.2708 60.5842 13.1856 60.4489 13.1313C60.3136 13.0771 60.1474 13.05 59.9503 13.05C59.8034 13.05 59.6526 13.0577 59.4941 13.0771C59.3356 13.0965 59.2197 13.112 59.1424 13.1236V17.1384H57.9943V12.3292H57.9981Z" fill="black"/>
<path d="M64.7707 10.713C64.7707 10.9301 64.7011 11.1006 64.5619 11.2285C64.4228 11.3563 64.2565 11.4183 64.0671 11.4183C63.87 11.4183 63.7037 11.3563 63.5646 11.2285C63.4254 11.1006 63.3558 10.9301 63.3558 10.713C63.3558 10.4922 63.4254 10.3178 63.5646 10.1899C63.7037 10.062 63.87 10 64.0671 10C64.2565 10 64.4228 10.062 64.5619 10.1899C64.7011 10.3178 64.7707 10.4922 64.7707 10.713ZM64.647 17.146H63.4989V12.1701H64.647V17.146Z" fill="black"/>
<path d="M67.7046 11.9492C68.0834 11.9492 68.4043 11.9957 68.6633 12.0926C68.9223 12.1895 69.131 12.3212 69.2856 12.4918C69.4403 12.6623 69.5524 12.8715 69.6181 13.1157C69.6838 13.3598 69.7186 13.6272 69.7186 13.9178V16.9328C69.5408 16.9715 69.274 17.0181 68.9184 17.0723C68.5628 17.1266 68.1569 17.1537 67.7085 17.1537C67.4108 17.1537 67.1402 17.1266 66.8928 17.0684C66.6454 17.0103 66.4367 16.9212 66.2627 16.7933C66.0888 16.6654 65.9535 16.5026 65.8529 16.2973C65.7563 16.0957 65.7061 15.8439 65.7061 15.5455C65.7061 15.2587 65.7602 15.0184 65.8723 14.8208C65.9844 14.6231 66.1313 14.4643 66.3246 14.3403C66.514 14.2162 66.7343 14.1271 66.9856 14.0729C67.2369 14.0186 67.4959 13.9915 67.7703 13.9915C67.8979 13.9915 68.0293 13.9992 68.1685 14.0147C68.3076 14.0302 68.4545 14.0574 68.613 14.0961V13.9062C68.613 13.7745 68.5976 13.6466 68.5666 13.5264C68.5357 13.4063 68.4777 13.3017 68.4004 13.2087C68.3192 13.1157 68.2149 13.0459 68.0873 12.9955C67.9559 12.9452 67.7935 12.918 67.6002 12.918C67.3335 12.918 67.09 12.9374 66.8696 12.9762C66.6493 13.0149 66.4676 13.0575 66.3284 13.1079L66.1777 12.1779C66.3246 12.1275 66.5333 12.0771 66.8116 12.0267C67.09 11.9763 67.3876 11.9492 67.7046 11.9492ZM67.7974 16.2391C68.153 16.2391 68.4197 16.2197 68.6053 16.181V14.906C68.5434 14.8867 68.4507 14.8673 68.3308 14.8479C68.211 14.8285 68.0796 14.8208 67.9327 14.8208C67.8051 14.8208 67.6775 14.8285 67.55 14.8479C67.4185 14.8673 67.3026 14.9022 67.1982 14.9525C67.0938 15.0029 67.0088 15.0765 66.9469 15.1657C66.8851 15.2587 66.8503 15.3749 66.8503 15.5145C66.8503 15.7857 66.9353 15.9756 67.1054 16.0802C67.2755 16.1887 67.5074 16.2391 67.7974 16.2391Z" fill="black"/>
<path d="M73.2751 17.146V10.5503H77.4964V11.5695H74.4696V13.1971H77.164V14.1969H74.4696V16.1268H77.7245V17.146H73.2751Z" fill="black"/>
<path d="M82.6297 16.8865C82.4094 16.9446 82.1195 17.0027 81.7677 17.0608C81.4121 17.1229 81.0255 17.15 80.6003 17.15C80.2021 17.15 79.8697 17.0918 79.5991 16.9795C79.3285 16.8671 79.1159 16.7082 78.9535 16.5028C78.7911 16.3013 78.6752 16.0572 78.6056 15.7743C78.536 15.4914 78.5012 15.1813 78.5012 14.8481V12.0618H79.6493V14.6698C79.6493 15.2007 79.7266 15.5844 79.8813 15.813C80.0359 16.0417 80.3065 16.154 80.693 16.154C80.8322 16.154 80.9791 16.1463 81.1337 16.1347C81.2884 16.123 81.4043 16.1075 81.4816 16.0882V12.0656H82.6297V16.8865Z" fill="black"/>
<path d="M86.8629 13.2048C86.7663 13.1738 86.6348 13.1389 86.4686 13.104C86.3024 13.0691 86.1052 13.0497 85.8849 13.0497C85.7573 13.0497 85.622 13.0614 85.4829 13.0885C85.3398 13.1156 85.2393 13.135 85.1852 13.1544V17.142H84.0371V12.4065C84.2575 12.3251 84.5358 12.2476 84.8682 12.1739C85.2007 12.1003 85.5679 12.0654 85.9738 12.0654C86.0511 12.0654 86.14 12.0693 86.2405 12.0809C86.341 12.0887 86.4415 12.1042 86.5459 12.1197C86.6464 12.1352 86.7469 12.1546 86.8397 12.1778C86.9363 12.2011 87.0098 12.2204 87.0678 12.2398L86.8629 13.2048Z" fill="black"/>
<path d="M92.2901 14.5302C92.2901 14.9216 92.2321 15.282 92.12 15.6036C92.0079 15.9253 91.8456 16.2043 91.6368 16.4329C91.4281 16.6616 91.1768 16.8398 90.883 16.9677C90.5892 17.0956 90.2645 17.1576 89.9089 17.1576C89.5532 17.1576 89.2324 17.0956 88.9425 16.9677C88.6525 16.8398 88.4013 16.6616 88.1925 16.4329C87.9838 16.2043 87.8214 15.9292 87.7054 15.6036C87.5895 15.282 87.5315 14.9216 87.5315 14.5302C87.5315 14.1388 87.5895 13.7784 87.7054 13.4606C87.8214 13.139 87.9876 12.8677 88.2003 12.6391C88.4129 12.4104 88.6641 12.236 88.9541 12.112C89.244 11.988 89.5648 11.926 89.9127 11.926C90.2606 11.926 90.5815 11.988 90.8753 12.112C91.1691 12.236 91.4203 12.4104 91.6291 12.6391C91.8378 12.8677 92.0002 13.1429 92.1161 13.4606C92.2321 13.7784 92.2901 14.1349 92.2901 14.5302ZM91.1149 14.5302C91.1149 14.0342 91.0106 13.6428 90.798 13.356C90.5854 13.0692 90.2916 12.922 89.9089 12.922C89.53 12.922 89.2324 13.0654 89.0198 13.356C88.8072 13.6428 88.7028 14.0342 88.7028 14.5302C88.7028 15.0301 88.8072 15.4293 89.0198 15.7199C89.2324 16.0105 89.5262 16.1578 89.9089 16.1578C90.2877 16.1578 90.5854 16.0105 90.798 15.7199C91.0067 15.4254 91.1149 15.0301 91.1149 14.5302Z" fill="black"/>
<path d="M97.8876 14.6621C97.8876 15.0418 97.8374 15.3906 97.7407 15.7084C97.6441 16.0262 97.5011 16.2974 97.3194 16.5261C97.1338 16.7547 96.9058 16.933 96.6313 17.0608C96.3568 17.1887 96.0437 17.2507 95.6958 17.2507C95.46 17.2507 95.2474 17.2236 95.0502 17.1655C94.8531 17.1073 94.6946 17.0453 94.567 16.9756V18.9055H93.4189V12.3292C93.6547 12.2672 93.9408 12.2052 94.281 12.147C94.6212 12.0889 94.9845 12.0618 95.3634 12.0618C95.7538 12.0618 96.1056 12.1238 96.4187 12.2439C96.7279 12.364 96.9908 12.5384 97.2111 12.7632C97.4276 12.988 97.5977 13.2592 97.7137 13.5809C97.8296 13.9025 97.8876 14.2629 97.8876 14.6621ZM96.7125 14.6814C96.7125 14.166 96.5965 13.7669 96.3646 13.484C96.1326 13.1972 95.7615 13.0577 95.2513 13.0577C95.143 13.0577 95.0309 13.0616 94.9149 13.0732C94.799 13.081 94.683 13.1042 94.567 13.1352V15.9796C94.6675 16.0494 94.8028 16.1153 94.9691 16.1734C95.1353 16.2354 95.317 16.2625 95.5064 16.2625C95.9239 16.2625 96.2293 16.1192 96.4225 15.8363C96.6158 15.5456 96.7125 15.162 96.7125 14.6814Z" fill="black"/>
<path d="M98.7416 14.5651C98.7416 14.1272 98.8073 13.7436 98.9349 13.4142C99.0624 13.0848 99.2364 12.8096 99.4529 12.5926C99.6693 12.3756 99.9129 12.2089 100.191 12.0966C100.47 11.9842 100.756 11.9299 101.046 11.9299C101.73 11.9299 102.263 12.1431 102.646 12.5655C103.029 12.9918 103.218 13.6234 103.218 14.4682C103.218 14.5302 103.218 14.6039 103.214 14.6814C103.21 14.7627 103.206 14.8325 103.199 14.8945H99.9245C99.9554 15.2937 100.098 15.6037 100.346 15.8207C100.597 16.0377 100.957 16.1501 101.432 16.1501C101.71 16.1501 101.966 16.123 102.197 16.0726C102.429 16.0222 102.611 15.9679 102.743 15.9098L102.893 16.8515C102.831 16.8825 102.743 16.9174 102.63 16.9523C102.518 16.9871 102.395 17.0181 102.252 17.0491C102.109 17.0763 101.954 17.1034 101.792 17.1189C101.625 17.1383 101.459 17.146 101.289 17.146C100.852 17.146 100.473 17.0801 100.149 16.9523C99.8278 16.8205 99.5611 16.6422 99.3524 16.4097C99.1436 16.1772 98.989 15.9059 98.8885 15.592C98.7918 15.2859 98.7416 14.941 98.7416 14.5651ZM102.074 14.0536C102.074 13.8947 102.051 13.7435 102.008 13.6002C101.966 13.4568 101.9 13.3328 101.815 13.2281C101.73 13.1235 101.625 13.0421 101.502 12.9801C101.378 12.9181 101.231 12.891 101.061 12.891C100.883 12.891 100.729 12.9259 100.597 12.9917C100.466 13.0576 100.354 13.1468 100.261 13.2553C100.168 13.3638 100.098 13.4878 100.048 13.6273C99.9979 13.7668 99.9631 13.9102 99.9438 14.0574H102.074V14.0536Z" fill="black"/>
<path d="M103.744 18.9131C103.663 18.9131 103.547 18.9053 103.396 18.8898C103.249 18.8743 103.118 18.8433 103.002 18.8007L103.153 17.859C103.292 17.9016 103.458 17.9249 103.655 17.9249C103.922 17.9249 104.108 17.8474 104.216 17.6924C104.324 17.5374 104.378 17.3049 104.378 16.9948V12.1701H105.526V17.0103C105.526 17.6575 105.372 18.1342 105.066 18.4481C104.761 18.7581 104.32 18.9131 103.744 18.9131ZM105.65 10.713C105.65 10.9301 105.58 11.1006 105.441 11.2285C105.302 11.3563 105.136 11.4183 104.946 11.4183C104.749 11.4183 104.583 11.3563 104.444 11.2285C104.305 11.1006 104.235 10.9301 104.235 10.713C104.235 10.4922 104.305 10.3178 104.444 10.1899C104.583 10.062 104.749 10 104.946 10C105.136 10 105.302 10.062 105.441 10.1899C105.58 10.3178 105.65 10.4922 105.65 10.713Z" fill="black"/>
<path d="M108.174 16.2043C108.479 16.2043 108.7 16.1695 108.839 16.0958C108.978 16.0222 109.048 15.8982 109.048 15.7199C109.048 15.5533 108.974 15.4177 108.823 15.3092C108.676 15.2006 108.429 15.0844 108.089 14.9565C107.88 14.879 107.687 14.7976 107.517 14.7124C107.343 14.6271 107.192 14.5264 107.065 14.414C106.937 14.3016 106.84 14.1621 106.767 13.9993C106.693 13.8366 106.659 13.6389 106.659 13.4064C106.659 12.9491 106.825 12.5887 107.161 12.3252C107.497 12.0617 107.95 11.9299 108.53 11.9299C108.82 11.9299 109.098 11.9571 109.365 12.0113C109.631 12.0656 109.828 12.1159 109.964 12.1702L109.755 13.1041C109.627 13.046 109.469 12.9956 109.272 12.9491C109.075 12.9026 108.847 12.8794 108.588 12.8794C108.352 12.8794 108.162 12.9181 108.019 12.9995C107.872 13.0809 107.803 13.201 107.803 13.3677C107.803 13.449 107.818 13.5227 107.845 13.5847C107.872 13.6467 107.923 13.7087 107.992 13.7591C108.062 13.8133 108.155 13.8676 108.267 13.9218C108.379 13.9761 108.518 14.0303 108.684 14.0884C108.955 14.1892 109.187 14.29 109.376 14.3868C109.566 14.4837 109.724 14.5961 109.844 14.7201C109.968 14.8441 110.057 14.9836 110.114 15.1425C110.172 15.3014 110.2 15.4913 110.2 15.7122C110.2 16.1888 110.026 16.5492 109.674 16.7934C109.322 17.0375 108.82 17.1576 108.17 17.1576C107.733 17.1576 107.381 17.1228 107.119 17.0491C106.852 16.9755 106.666 16.9174 106.558 16.8748L106.759 15.9137C106.929 15.9834 107.134 16.0493 107.37 16.1152C107.602 16.1695 107.872 16.2043 108.174 16.2043Z" fill="black"/>
<path d="M112.361 14.1117C112.507 13.9605 112.662 13.7978 112.824 13.6234C112.987 13.449 113.149 13.2746 113.308 13.1002C113.466 12.9259 113.617 12.7592 113.76 12.5965C113.903 12.4337 114.023 12.2942 114.127 12.1741H115.484C115.167 12.5306 114.835 12.8987 114.483 13.2785C114.131 13.6583 113.779 14.0303 113.424 14.3907C113.613 14.5496 113.814 14.7395 114.023 14.9681C114.232 15.1929 114.433 15.4331 114.63 15.685C114.827 15.9369 115.009 16.1927 115.179 16.4446C115.349 16.6965 115.492 16.9329 115.604 17.1499H114.274C114.162 16.9522 114.031 16.7469 113.88 16.5298C113.733 16.3128 113.571 16.1036 113.4 15.9021C113.23 15.7005 113.056 15.5068 112.879 15.3246C112.701 15.1425 112.527 14.9914 112.357 14.8635V17.146H111.209V10.7441L112.357 10.5542V14.1117H112.361Z" fill="black"/>
<path d="M118.035 11.9492C118.414 11.9492 118.735 11.9957 118.994 12.0926C119.253 12.1895 119.462 12.3212 119.616 12.4918C119.771 12.6623 119.883 12.8715 119.949 13.1157C120.014 13.3598 120.049 13.6272 120.049 13.9178V16.9328C119.871 16.9715 119.605 17.0181 119.245 17.0723C118.889 17.1266 118.484 17.1537 118.035 17.1537C117.737 17.1537 117.467 17.1266 117.219 17.0684C116.972 17.0103 116.763 16.9212 116.589 16.7933C116.415 16.6654 116.28 16.5026 116.18 16.2973C116.083 16.0957 116.033 15.8439 116.033 15.5455C116.033 15.2587 116.087 15.0184 116.199 14.8208C116.311 14.6231 116.462 14.4643 116.651 14.3403C116.841 14.2162 117.061 14.1271 117.312 14.0729C117.564 14.0186 117.823 13.9915 118.097 13.9915C118.225 13.9915 118.356 13.9992 118.495 14.0147C118.634 14.0302 118.781 14.0574 118.94 14.0961V13.9062C118.94 13.7745 118.924 13.6466 118.893 13.5264C118.862 13.4063 118.804 13.3017 118.727 13.2087C118.646 13.1157 118.545 13.0459 118.414 12.9955C118.286 12.9452 118.12 12.918 117.927 12.918C117.66 12.918 117.417 12.9374 117.196 12.9762C116.976 13.0149 116.794 13.0575 116.655 13.1079L116.508 12.1779C116.655 12.1275 116.864 12.0771 117.146 12.0267C117.42 11.9763 117.718 11.9492 118.035 11.9492ZM118.128 16.2391C118.484 16.2391 118.75 16.2197 118.936 16.181V14.906C118.874 14.8867 118.781 14.8673 118.661 14.8479C118.542 14.8285 118.41 14.8208 118.263 14.8208C118.136 14.8208 118.008 14.8285 117.88 14.8479C117.749 14.8673 117.633 14.9022 117.529 14.9525C117.424 15.0029 117.339 15.0765 117.277 15.1657C117.216 15.2587 117.181 15.3749 117.181 15.5145C117.181 15.7857 117.266 15.9756 117.436 16.0802C117.606 16.1887 117.838 16.2391 118.128 16.2391Z" fill="black"/>
</svg>
