<svg width="69" height="42" viewBox="0 0 69 42" fill="none" xmlns="http://www.w3.org/2000/svg">
    <path d="M15.1084 0.5H53.5496V25.8634H15.1084V0.5Z" stroke="black"/>
    <path d="M33.4881 5.74696L34.3192 5.13855L35.1542 5.74696L34.8333 4.76265L35.6799 4.15423H34.6401L34.3192 3.15442L34.0022 4.15423H32.9585L33.8012 4.76265L33.4881 5.74696Z"
          fill="black"/>
    <path d="M29.1781 6.90565L30.013 6.29336L30.8441 6.90565L30.5271 5.92134L31.3737 5.31293H30.33L30.013 4.31311L29.6922 5.31293H28.6523L29.4989 5.92134L29.1781 6.90565Z"
          fill="black"/>
    <path d="M26.8588 7.47925L26.5418 8.47906H25.502L26.3447 9.08748L26.0277 10.0718L26.8588 9.46338L27.6938 10.0718L27.3768 9.08748L28.2234 8.47906H27.1796L26.8588 7.47925Z"
          fill="black"/>
    <path d="M25.7064 13.7727L26.5336 14.385L26.2205 13.4007L27.0671 12.7923H26.0234L25.7064 11.7925L25.3817 12.7923H24.3418L25.1884 13.4007L24.8714 14.385L25.7064 13.7727Z"
          fill="black"/>
    <path d="M27.1796 17.117L26.8588 16.1211L26.5418 17.117H25.502L26.3447 17.7293L26.0277 18.7098L26.8588 18.1013L27.6938 18.7098L27.3768 17.7293L28.2234 17.117H27.1796Z"
          fill="black"/>
    <path d="M30.3378 20.2832L30.017 19.2872L29.6961 20.2832H28.6562L29.5028 20.8916L29.1858 21.8759L30.017 21.2675L30.8519 21.8759L30.535 20.8916L31.3815 20.2832H30.3378Z"
          fill="black"/>
    <path d="M34.6401 21.4302L34.3192 20.4304L34.0022 21.4302H32.9585L33.8051 22.0386L33.4881 23.023L34.3192 22.4145L35.1542 23.023L34.8333 22.0386L35.6838 21.4302H34.6401Z"
          fill="black"/>
    <path d="M38.9428 20.2832L38.6219 19.2872L38.3011 20.2832H37.2612L38.1039 20.8916L37.7908 21.8759L38.6219 21.2675L39.453 21.8759L39.1361 20.8916L39.9865 20.2832H38.9428Z"
          fill="black"/>
    <path d="M42.101 17.117L41.7801 16.1211L41.4632 17.117H40.4194L41.266 17.7293L40.9452 18.7098L41.7801 18.1013L42.6113 18.7098L42.2943 17.7293L43.1408 17.117H42.101Z"
          fill="black"/>
    <path d="M44.281 12.7806H43.2412L42.9242 11.7808L42.6033 12.7806H41.5635L42.4101 13.389L42.0892 14.3733L42.9242 13.7649L43.7553 14.3733L43.4383 13.389L44.281 12.7806Z"
          fill="black"/>
    <path d="M40.9452 10.0563L41.7801 9.45178L42.6151 10.0563L42.2943 9.07201L43.1408 8.46747H42.101L41.7801 7.46765L41.4632 8.47134L40.4194 8.46747L41.266 9.07201L40.9452 10.0563Z"
          fill="black"/>
    <path d="M38.6331 4.31311L38.3161 5.31293H37.2725L38.119 5.92134L37.802 6.90565L38.637 6.29336L39.4681 6.90565L39.1511 5.92134L39.9938 5.31293H38.954L38.6331 4.31311Z"
          fill="black"/>
    <path d="M2.58225 40.2407C2.13384 40.2407 1.74727 40.1748 1.42642 40.0469C1.10171 39.9152 0.834979 39.733 0.626234 39.5005C0.413624 39.2641 0.258998 38.989 0.158491 38.6712C0.0502534 38.3534 0 38.0047 0 37.6249V33.5055H1.20608V37.5125C1.20608 37.8109 1.24087 38.0667 1.30659 38.2798C1.3723 38.4929 1.46894 38.6635 1.59265 38.7991C1.71635 38.9309 1.86324 39.0316 2.02946 39.0936C2.19569 39.1556 2.3851 39.1905 2.59385 39.1905C2.80259 39.1905 2.99201 39.1595 3.1621 39.0936C3.33219 39.0316 3.47908 38.9309 3.60278 38.7991C3.72648 38.6673 3.81926 38.4929 3.88884 38.2798C3.95455 38.0667 3.98934 37.8109 3.98934 37.5125V33.5055H5.19543V37.6249C5.19543 38.0047 5.14517 38.3534 5.0408 38.6712C4.93643 38.989 4.77794 39.2641 4.56533 39.5005C4.35272 39.7369 4.08212 39.919 3.75354 40.0469C3.4211 40.1748 3.03067 40.2407 2.58225 40.2407Z"
          fill="black"/>
    <path d="M6.6064 35.416C6.82675 35.3539 7.11667 35.2919 7.46844 35.2338C7.82408 35.1757 8.21451 35.1486 8.6436 35.1486C9.04949 35.1486 9.3858 35.2028 9.66026 35.3152C9.93086 35.4276 10.1473 35.5826 10.3097 35.7802C10.472 35.9817 10.5842 36.222 10.6499 36.5049C10.7156 36.7878 10.7504 37.0978 10.7504 37.4311V40.229H9.60228V37.6132C9.60228 37.3458 9.58295 37.1211 9.54816 36.9312C9.51337 36.7452 9.45538 36.5902 9.37807 36.4739C9.30076 36.3576 9.19252 36.2724 9.05722 36.2181C8.92193 36.1639 8.7557 36.1368 8.55855 36.1368C8.41166 36.1368 8.2609 36.1445 8.10241 36.1639C7.94392 36.1833 7.82795 36.1988 7.75064 36.2104V40.2251H6.60254V35.416H6.6064Z"
          fill="black"/>
    <path d="M13.3792 33.8C13.3792 34.017 13.3096 34.1875 13.1704 34.3154C13.0313 34.4433 12.8651 34.5053 12.6756 34.5053C12.4785 34.5053 12.3123 34.4433 12.1731 34.3154C12.0339 34.1875 11.9644 34.017 11.9644 33.8C11.9644 33.5791 12.0339 33.4047 12.1731 33.2768C12.3123 33.1489 12.4785 33.0869 12.6756 33.0869C12.8651 33.0869 13.0313 33.1489 13.1704 33.2768C13.3096 33.4047 13.3792 33.5791 13.3792 33.8ZM13.2555 40.2329H12.1074V35.2571H13.2555V40.2329Z"
          fill="black"/>
    <path d="M16.313 35.0361C16.6918 35.0361 17.0127 35.0826 17.2717 35.1795C17.5307 35.2764 17.7394 35.4082 17.894 35.5787C18.0487 35.7492 18.1608 35.9584 18.2265 36.2026C18.2922 36.4467 18.327 36.7141 18.327 37.0048V40.0197C18.1492 40.0585 17.8824 40.105 17.5268 40.1592C17.1712 40.2135 16.7653 40.2406 16.3169 40.2406C16.0192 40.2406 15.7486 40.2135 15.5012 40.1553C15.2538 40.0972 15.0451 40.0081 14.8711 39.8802C14.6972 39.7523 14.5619 39.5896 14.4613 39.3842C14.3647 39.1827 14.3145 38.9308 14.3145 38.6324C14.3145 38.3456 14.3686 38.1053 14.4807 37.9077C14.5928 37.7101 14.7397 37.5512 14.933 37.4272C15.1224 37.3032 15.3427 37.214 15.594 37.1598C15.8453 37.1055 16.1042 37.0784 16.3787 37.0784C16.5063 37.0784 16.6377 37.0861 16.7769 37.1016C16.916 37.1171 17.0629 37.1443 17.2214 37.183V36.9931C17.2214 36.8614 17.206 36.7335 17.175 36.6134C17.1441 36.4932 17.0861 36.3886 17.0088 36.2956C16.9276 36.2026 16.8233 36.1328 16.6957 36.0825C16.5643 36.0321 16.4019 36.0049 16.2086 36.0049C15.9419 36.0049 15.6984 36.0243 15.478 36.0631C15.2577 36.1018 15.076 36.1445 14.9368 36.1948L14.7861 35.2648C14.933 35.2144 15.1417 35.164 15.42 35.1136C15.6984 35.0633 15.996 35.0361 16.313 35.0361ZM16.4058 39.326C16.7614 39.326 17.0281 39.3067 17.2137 39.2679V37.993C17.1518 37.9736 17.0591 37.9542 16.9392 37.9348C16.8194 37.9154 16.688 37.9077 16.5411 37.9077C16.4135 37.9077 16.2859 37.9154 16.1584 37.9348C16.0269 37.9542 15.911 37.9891 15.8066 38.0395C15.7022 38.0898 15.6172 38.1635 15.5553 38.2526C15.4935 38.3456 15.4587 38.4619 15.4587 38.6014C15.4587 38.8726 15.5437 39.0625 15.7138 39.1672C15.8839 39.2757 16.1158 39.326 16.4058 39.326Z"
          fill="black"/>
    <path d="M21.8838 40.2329V33.6372H26.1051V34.6564H23.0783V36.284H25.7726V37.2838H23.0783V39.2137H26.3331V40.2329H21.8838Z" fill="black"/>
    <path d="M31.2384 39.9733C31.018 40.0314 30.7281 40.0895 30.3763 40.1476C30.0207 40.2096 29.6341 40.2368 29.2089 40.2368C28.8107 40.2368 28.4783 40.1786 28.2077 40.0663C27.9371 39.9539 27.7245 39.795 27.5621 39.5896C27.3998 39.3881 27.2838 39.1439 27.2142 38.8611C27.1447 38.5782 27.1099 38.2681 27.1099 37.9349V35.1486H28.258V37.7566C28.258 38.2875 28.3353 38.6712 28.4899 38.8998C28.6445 39.1284 28.9151 39.2408 29.3017 39.2408C29.4408 39.2408 29.5877 39.2331 29.7424 39.2215C29.897 39.2098 30.013 39.1943 30.0903 39.1749V35.1524H31.2384V39.9733Z"
          fill="black"/>
    <path d="M35.4713 36.2918C35.3747 36.2608 35.2432 36.2259 35.077 36.191C34.9108 36.1562 34.7136 36.1368 34.4933 36.1368C34.3657 36.1368 34.2304 36.1484 34.0913 36.1755C33.9482 36.2027 33.8477 36.222 33.7936 36.2414V40.229H32.6455V35.4935C32.8658 35.4121 33.1442 35.3346 33.4766 35.261C33.8091 35.1873 34.1763 35.1525 34.5822 35.1525C34.6595 35.1525 34.7484 35.1563 34.8489 35.168C34.9494 35.1757 35.0499 35.1912 35.1543 35.2067C35.2548 35.2222 35.3553 35.2416 35.4481 35.2648C35.5447 35.2881 35.6182 35.3075 35.6762 35.3269L35.4713 36.2918Z"
          fill="black"/>
    <path d="M40.8987 37.6171C40.8987 38.0085 40.8408 38.3689 40.7287 38.6906C40.6166 39.0122 40.4542 39.2912 40.2455 39.5199C40.0367 39.7485 39.7854 39.9268 39.4917 40.0546C39.1979 40.1825 38.8731 40.2445 38.5175 40.2445C38.1619 40.2445 37.841 40.1825 37.5511 40.0546C37.2612 39.9268 37.0099 39.7485 36.8012 39.5199C36.5924 39.2912 36.4301 39.0161 36.3141 38.6906C36.1981 38.3689 36.1401 38.0085 36.1401 37.6171C36.1401 37.2257 36.1981 36.8653 36.3141 36.5475C36.4301 36.2259 36.5963 35.9546 36.8089 35.726C37.0215 35.4973 37.2728 35.323 37.5627 35.199C37.8526 35.0749 38.1735 35.0129 38.5214 35.0129C38.8693 35.0129 39.1901 35.0749 39.4839 35.199C39.7777 35.323 40.029 35.4973 40.2377 35.726C40.4465 35.9546 40.6088 36.2298 40.7248 36.5475C40.8408 36.8653 40.8987 37.2218 40.8987 37.6171ZM39.7236 37.6171C39.7236 37.1211 39.6192 36.7297 39.4066 36.4429C39.194 36.1561 38.9002 36.0089 38.5175 36.0089C38.1387 36.0089 37.841 36.1523 37.6284 36.4429C37.4158 36.7297 37.3114 37.1211 37.3114 37.6171C37.3114 38.117 37.4158 38.5162 37.6284 38.8068C37.841 39.0975 38.1348 39.2447 38.5175 39.2447C38.8963 39.2447 39.194 39.0975 39.4066 38.8068C39.6154 38.5123 39.7236 38.117 39.7236 37.6171Z"
          fill="black"/>
    <path d="M46.496 37.7489C46.496 38.1286 46.4458 38.4774 46.3491 38.7952C46.2525 39.1129 46.1095 39.3842 45.9278 39.6129C45.7422 39.8415 45.5142 40.0198 45.2397 40.1476C44.9652 40.2755 44.6521 40.3375 44.3042 40.3375C44.0684 40.3375 43.8558 40.3104 43.6586 40.2523C43.4615 40.1941 43.303 40.1321 43.1754 40.0624V41.9923H42.0273V35.416C42.2631 35.3539 42.5492 35.2919 42.8894 35.2338C43.2296 35.1757 43.5929 35.1486 43.9718 35.1486C44.3622 35.1486 44.714 35.2106 45.0271 35.3307C45.3363 35.4508 45.5992 35.6252 45.8195 35.85C46.036 36.0747 46.2061 36.346 46.3221 36.6677C46.438 36.9893 46.496 37.3497 46.496 37.7489ZM45.3209 37.7682C45.3209 37.2528 45.2049 36.8537 44.973 36.5708C44.741 36.284 44.3699 36.1445 43.8597 36.1445C43.7514 36.1445 43.6393 36.1484 43.5233 36.16C43.4074 36.1678 43.2914 36.191 43.1754 36.222V39.0664C43.2759 39.1362 43.4112 39.2021 43.5775 39.2602C43.7437 39.3222 43.9254 39.3493 44.1148 39.3493C44.5323 39.3493 44.8377 39.206 45.0309 38.9231C45.2242 38.6324 45.3209 38.2488 45.3209 37.7682Z"
          fill="black"/>
    <path d="M47.3501 37.6519C47.3501 37.214 47.4158 36.8303 47.5434 36.5009C47.6709 36.1715 47.8449 35.8964 48.0614 35.6794C48.2779 35.4624 48.5214 35.2957 48.7997 35.1834C49.078 35.071 49.3641 35.0167 49.654 35.0167C50.3382 35.0167 50.8717 35.2299 51.2544 35.6523C51.6371 36.0785 51.8265 36.7102 51.8265 37.555C51.8265 37.617 51.8265 37.6906 51.8227 37.7682C51.8188 37.8495 51.8149 37.9193 51.8072 37.9813H48.533C48.5639 38.3804 48.7069 38.6905 48.9543 38.9075C49.2056 39.1245 49.5651 39.2369 50.0406 39.2369C50.3189 39.2369 50.574 39.2097 50.806 39.1594C51.0379 39.109 51.2196 39.0547 51.351 38.9966L51.5018 39.9383C51.44 39.9693 51.351 40.0042 51.2389 40.039C51.1268 40.0739 51.0031 40.1049 50.8601 40.1359C50.7171 40.1631 50.5625 40.1902 50.4001 40.2057C50.2339 40.2251 50.0677 40.2328 49.8976 40.2328C49.4607 40.2328 49.0819 40.1669 48.7572 40.039C48.4363 39.9073 48.1696 39.729 47.9609 39.4965C47.7521 39.264 47.5975 38.9927 47.497 38.6788C47.4004 38.3727 47.3501 38.0278 47.3501 37.6519ZM50.6823 37.1404C50.6823 36.9815 50.6591 36.8303 50.6166 36.687C50.5741 36.5436 50.5083 36.4196 50.4233 36.3149C50.3382 36.2103 50.2339 36.1289 50.1102 36.0669C49.9865 36.0049 49.8396 35.9778 49.6695 35.9778C49.4917 35.9778 49.337 36.0127 49.2056 36.0785C49.0742 36.1444 48.9621 36.2336 48.8693 36.3421C48.7765 36.4506 48.7069 36.5746 48.6567 36.7141C48.6064 36.8536 48.5716 36.997 48.5523 37.1442H50.6823V37.1404Z"
          fill="black"/>
    <path d="M52.3526 42C52.2714 42 52.1554 41.9923 52.0046 41.9767C51.8578 41.9612 51.7263 41.9302 51.6104 41.8876L51.7611 40.9459C51.9003 40.9886 52.0665 41.0118 52.2636 41.0118C52.5304 41.0118 52.7159 40.9343 52.8242 40.7793C52.9324 40.6243 52.9865 40.3918 52.9865 40.0817V35.2571H54.1346V40.0973C54.1346 40.7444 53.98 41.2211 53.6746 41.535C53.3692 41.845 52.9285 42 52.3526 42ZM54.2583 33.8C54.2583 34.017 54.1887 34.1875 54.0496 34.3154C53.9104 34.4433 53.7442 34.5053 53.5548 34.5053C53.3576 34.5053 53.1914 34.4433 53.0522 34.3154C52.9131 34.1875 52.8435 34.017 52.8435 33.8C52.8435 33.5791 52.9131 33.4047 53.0522 33.2768C53.1914 33.1489 53.3576 33.0869 53.5548 33.0869C53.7442 33.0869 53.9104 33.1489 54.0496 33.2768C54.1887 33.4047 54.2583 33.5791 54.2583 33.8Z"
          fill="black"/>
    <path d="M56.7823 39.2911C57.0877 39.2911 57.3081 39.2563 57.4472 39.1826C57.5864 39.109 57.656 38.985 57.656 38.8067C57.656 38.6401 57.5825 38.5045 57.4318 38.3959C57.2849 38.2874 57.0375 38.1712 56.6973 38.0433C56.4886 37.9658 56.2953 37.8844 56.1252 37.7992C55.9512 37.7139 55.8005 37.6131 55.6729 37.5008C55.5453 37.3884 55.4487 37.2489 55.3752 37.0861C55.3018 36.9233 55.267 36.7257 55.267 36.4932C55.267 36.0359 55.4332 35.6755 55.7695 35.412C56.1059 35.1485 56.5581 35.0167 57.138 35.0167C57.4279 35.0167 57.7062 35.0439 57.973 35.0981C58.2397 35.1524 58.4368 35.2027 58.5721 35.257L58.3634 36.1909C58.2358 36.1328 58.0773 36.0824 57.8802 36.0359C57.683 35.9894 57.455 35.9662 57.196 35.9662C56.9602 35.9662 56.7707 36.0049 56.6277 36.0863C56.4808 36.1677 56.4112 36.2878 56.4112 36.4544C56.4112 36.5358 56.4267 36.6095 56.4538 36.6715C56.4808 36.7335 56.5311 36.7955 56.6007 36.8458C56.6702 36.9001 56.763 36.9544 56.8751 37.0086C56.9872 37.0629 57.1264 37.1171 57.2926 37.1752C57.5632 37.276 57.7951 37.3768 57.9846 37.4736C58.174 37.5705 58.3325 37.6829 58.4523 37.8069C58.576 37.9309 58.6649 38.0704 58.7229 38.2293C58.7809 38.3882 58.8079 38.5781 58.8079 38.799C58.8079 39.2756 58.634 39.636 58.2822 39.8802C57.9304 40.1243 57.4279 40.2444 56.7785 40.2444C56.3417 40.2444 55.9899 40.2096 55.727 40.1359C55.4603 40.0623 55.2747 40.0042 55.1665 39.9615L55.3675 39.0005C55.5376 39.0702 55.7425 39.1361 55.9783 39.202C56.2102 39.2563 56.4808 39.2911 56.7823 39.2911Z"
          fill="black"/>
    <path d="M60.9689 37.1985C61.1158 37.0473 61.2704 36.8846 61.4327 36.7102C61.5951 36.5358 61.7574 36.3614 61.9159 36.187C62.0744 36.0126 62.2252 35.846 62.3682 35.6833C62.5112 35.5205 62.6311 35.381 62.7355 35.2608H64.0923C63.7753 35.6174 63.4429 35.9855 63.0911 36.3653C62.7393 36.7451 62.3875 37.1171 62.0319 37.4775C62.2213 37.6364 62.4223 37.8263 62.6311 38.0549C62.8398 38.2797 63.0408 38.5199 63.238 38.7718C63.4351 39.0237 63.6168 39.2795 63.7869 39.5314C63.957 39.7833 64.1 40.0197 64.2121 40.2367H62.8824C62.7702 40.039 62.6388 39.8336 62.4881 39.6166C62.3412 39.3996 62.1788 39.1904 62.0087 38.9888C61.8386 38.7873 61.6647 38.5936 61.4869 38.4114C61.309 38.2293 61.1351 38.0782 60.965 37.9503V40.2328H59.8169V33.8309L60.965 33.641V37.1985H60.9689Z"
          fill="black"/>
    <path d="M66.6435 35.0361C67.0224 35.0361 67.3432 35.0826 67.6022 35.1795C67.8612 35.2764 68.0699 35.4082 68.2246 35.5787C68.3792 35.7492 68.4913 35.9584 68.557 36.2026C68.6227 36.4467 68.6575 36.7141 68.6575 37.0048V40.0197C68.4797 40.0585 68.213 40.105 67.8535 40.1592C67.4978 40.2135 67.0919 40.2406 66.6435 40.2406C66.3459 40.2406 66.0753 40.2135 65.8279 40.1553C65.5805 40.0972 65.3717 40.0081 65.1978 39.8802C65.0238 39.7523 64.8885 39.5896 64.788 39.3842C64.6914 39.1827 64.6411 38.9308 64.6411 38.6324C64.6411 38.3456 64.6952 38.1053 64.8073 37.9077C64.9194 37.7101 65.0702 37.5512 65.2596 37.4272C65.449 37.3032 65.6694 37.214 65.9206 37.1598C66.1719 37.1055 66.4309 37.0784 66.7054 37.0784C66.8329 37.0784 66.9644 37.0861 67.1035 37.1016C67.2427 37.1171 67.3896 37.1443 67.5481 37.183V36.9931C67.5481 36.8614 67.5326 36.7335 67.5017 36.6134C67.4708 36.4932 67.4128 36.3886 67.3355 36.2956C67.2543 36.2026 67.1538 36.1328 67.0224 36.0825C66.8948 36.0321 66.7286 36.0049 66.5353 36.0049C66.2686 36.0049 66.025 36.0243 65.8047 36.0631C65.5843 36.1018 65.4026 36.1445 65.2635 36.1948L65.1166 35.2648C65.2635 35.2144 65.4722 35.164 65.7544 35.1136C66.0289 35.0633 66.3265 35.0361 66.6435 35.0361ZM66.7363 39.326C67.0919 39.326 67.3587 39.3067 67.5442 39.2679V37.993C67.4824 37.9736 67.3896 37.9542 67.2698 37.9348C67.1499 37.9154 67.0185 37.9077 66.8716 37.9077C66.744 37.9077 66.6165 37.9154 66.4889 37.9348C66.3575 37.9542 66.2415 37.9891 66.1371 38.0395C66.0327 38.0898 65.9477 38.1635 65.8859 38.2526C65.824 38.3456 65.7892 38.4619 65.7892 38.6014C65.7892 38.8726 65.8743 39.0625 66.0443 39.1672C66.2144 39.2757 66.4464 39.326 66.7363 39.326Z"
          fill="black"/>
</svg>
