<svg width="20" height="20" viewBox="0 0 20 20" xmlns="http://www.w3.org/2000/svg">
    <path d="M16.7309 7.37921H12.3259L13.2901 4.96921C13.428 4.62585 13.462 4.24958 13.3879 3.88707C13.3138 3.52456 13.1349 3.19179 12.8734 2.93004C12.7264 2.78311 12.5491 2.66995 12.3538 2.59843C12.1586 2.52691 11.9502 2.49873 11.743 2.51586C11.5358 2.53298 11.3348 2.595 11.154 2.69761C10.9732 2.80022 10.8169 2.94095 10.6959 3.11004L8.12011 6.71421C7.73566 7.25112 7.30813 7.75584 6.84177 8.22337L6.01677 9.04837C5.97921 9.08589 5.94942 9.13044 5.92911 9.17949C5.9088 9.22854 5.89838 9.28112 5.89844 9.33421V15.535C5.89838 15.6425 5.94093 15.7456 6.01677 15.8217L6.94094 16.75C7.17636 16.9867 7.45636 17.1743 7.76476 17.302C8.07315 17.4298 8.40381 17.4951 8.7376 17.4942H13.7593C14.1558 17.4939 14.5437 17.3787 14.8761 17.1627C15.2086 16.9466 15.4713 16.6389 15.6326 16.2767L18.0959 10.7342C18.2536 10.3807 18.3345 9.99789 18.3334 9.61087V8.98254C18.333 8.55759 18.1641 8.15016 17.8636 7.84959C17.5632 7.54903 17.1559 7.37987 16.7309 7.37921Z"
    />
    <path d="M3.1238 8.50586C2.73769 8.50586 2.36739 8.65924 2.09437 8.93226C1.82135 9.20528 1.66797 9.57558 1.66797 9.96169V15.4359C1.66797 15.822 1.82135 16.1923 2.09437 16.4653C2.36739 16.7383 2.73769 16.8917 3.1238 16.8917C3.50991 16.8917 3.88021 16.7383 4.15323 16.4653C4.42625 16.1923 4.57963 15.822 4.57963 15.4359V9.96169C4.57963 9.57558 4.42625 9.20528 4.15323 8.93226C3.88021 8.65924 3.50991 8.50586 3.1238 8.50586Z"
    />
</svg>
