<svg width="24" height="24" viewBox="0 0 24 24" xmlns="http://www.w3.org/2000/svg">
    <g>
        <path d="M9.40781 24V13.2656H5.8125V9H9.40781V5.63906C9.40781 1.9875 11.6391 0 14.8969 0C16.4578 0 17.7984 0.117187 18.1875 0.16875V3.98438H15.9281C14.1562 3.98438 13.8141 4.82812 13.8141 6.06094V9H17.8125L17.2641 13.2656H13.8141V24"
        />
        <mask id="mask1" mask-type="alpha" maskUnits="userSpaceOnUse" x="5" y="0" width="14" height="24">
            <path d="M9.40781 24V13.2656H5.8125V9H9.40781V5.63906C9.40781 1.9875 11.6391 0 14.8969 0C16.4578 0 17.7984 0.117187 18.1875 0.16875V3.98438H15.9281C14.1562 3.98438 13.8141 4.82812 13.8141 6.06094V9H17.8125L17.2641 13.2656H13.8141V24"
            />
        </mask>
        <g mask="url(#mask1)">
            <rect width="24" height="24"/>
        </g>
    </g>
</svg>
