<svg width="24" height="24" viewBox="0 0 24 24" xmlns="http://www.w3.org/2000/svg">
    <g>
        <path fill-rule="evenodd" clip-rule="evenodd"
              d="M22.4379 7.67227C22.3582 5.98945 21.9738 4.49883 20.741 3.2707C19.5129 2.04258 18.0223 1.6582 16.3395 1.57383C14.6051 1.47539 9.40664 1.47539 7.67227 1.57383C5.99414 1.65352 4.50352 2.03789 3.2707 3.26602C2.03789 4.49414 1.6582 5.98477 1.57383 7.66758C1.47539 9.40195 1.47539 14.6004 1.57383 16.3348C1.65352 18.0176 2.03789 19.5082 3.2707 20.7363C4.50352 21.9645 5.98945 22.3488 7.67227 22.4332C9.40664 22.5316 14.6051 22.5316 16.3395 22.4332C18.0223 22.3535 19.5129 21.9691 20.741 20.7363C21.9691 19.5082 22.3535 18.0176 22.4379 16.3348C22.5363 14.6004 22.5363 9.40664 22.4379 7.67227ZM17.6144 7.6537C18.3081 7.6537 18.8706 7.09589 18.8706 6.39745C18.8706 5.7037 18.3081 5.1412 17.6144 5.1412C16.9206 5.1412 16.3581 5.7037 16.3581 6.39745C16.3581 7.0912 16.9159 7.6537 17.6144 7.6537ZM12.0083 6.61777C9.02705 6.61777 6.62236 9.02246 6.62236 12.0037C6.62236 14.985 9.02705 17.3897 12.0083 17.3897C14.9896 17.3897 17.3942 14.985 17.3942 12.0037C17.3942 9.02246 14.9896 6.61777 12.0083 6.61777ZM12.0081 15.5051C10.0816 15.5051 8.50655 13.9348 8.50655 12.0035C8.50655 10.0723 10.0769 8.50195 12.0081 8.50195C13.9394 8.50195 15.5097 10.0723 15.5097 12.0035C15.5097 13.9348 13.9347 15.5051 12.0081 15.5051ZM18.2006 20.1928C19.124 19.8225 19.8318 19.1147 20.1974 18.196C20.6678 17.0139 20.6417 14.4283 20.6247 12.7522C20.6219 12.4742 20.6193 12.2212 20.6193 12.0038C20.6193 11.7863 20.6219 11.5334 20.6247 11.2554C20.6417 9.58024 20.6678 6.99763 20.1974 5.81159C19.8271 4.88816 19.1193 4.18034 18.2006 3.81472C17.0148 3.34687 14.4167 3.37179 12.7411 3.38786C12.4692 3.39047 12.2217 3.39284 12.0084 3.39284C11.7909 3.39284 11.538 3.39028 11.26 3.38746C9.58483 3.37049 7.00222 3.34433 5.81619 3.81472C4.89275 4.18503 4.18494 4.89284 3.81932 5.81159C3.35146 6.99736 3.37639 9.5955 3.39246 11.2711C3.39507 11.5429 3.39744 11.7905 3.39744 12.0038C3.39744 12.2212 3.39488 12.4742 3.39206 12.7521C3.37509 14.4273 3.34892 17.0099 3.81932 18.196C4.18963 19.1194 4.89744 19.8272 5.81619 20.1928C7.00195 20.6607 9.60011 20.6358 11.2757 20.6197C11.5475 20.6171 11.7951 20.6147 12.0084 20.6147C12.2258 20.6147 12.4788 20.6173 12.7567 20.6201C14.4319 20.6371 17.0145 20.6632 18.2006 20.1928Z"
        />
        <mask id="mask2" mask-type="alpha" maskUnits="userSpaceOnUse" x="1" y="1" width="22" height="22">
            <path fill-rule="evenodd" clip-rule="evenodd"
                  d="M22.4379 7.67227C22.3582 5.98945 21.9738 4.49883 20.741 3.2707C19.5129 2.04258 18.0223 1.6582 16.3395 1.57383C14.6051 1.47539 9.40664 1.47539 7.67227 1.57383C5.99414 1.65352 4.50352 2.03789 3.2707 3.26602C2.03789 4.49414 1.6582 5.98477 1.57383 7.66758C1.47539 9.40195 1.47539 14.6004 1.57383 16.3348C1.65352 18.0176 2.03789 19.5082 3.2707 20.7363C4.50352 21.9645 5.98945 22.3488 7.67227 22.4332C9.40664 22.5316 14.6051 22.5316 16.3395 22.4332C18.0223 22.3535 19.5129 21.9691 20.741 20.7363C21.9691 19.5082 22.3535 18.0176 22.4379 16.3348C22.5363 14.6004 22.5363 9.40664 22.4379 7.67227ZM17.6144 7.6537C18.3081 7.6537 18.8706 7.09589 18.8706 6.39745C18.8706 5.7037 18.3081 5.1412 17.6144 5.1412C16.9206 5.1412 16.3581 5.7037 16.3581 6.39745C16.3581 7.0912 16.9159 7.6537 17.6144 7.6537ZM12.0083 6.61777C9.02705 6.61777 6.62236 9.02246 6.62236 12.0037C6.62236 14.985 9.02705 17.3897 12.0083 17.3897C14.9896 17.3897 17.3942 14.985 17.3942 12.0037C17.3942 9.02246 14.9896 6.61777 12.0083 6.61777ZM12.0081 15.5051C10.0816 15.5051 8.50655 13.9348 8.50655 12.0035C8.50655 10.0723 10.0769 8.50195 12.0081 8.50195C13.9394 8.50195 15.5097 10.0723 15.5097 12.0035C15.5097 13.9348 13.9347 15.5051 12.0081 15.5051ZM18.2006 20.1928C19.124 19.8225 19.8318 19.1147 20.1974 18.196C20.6678 17.0139 20.6417 14.4283 20.6247 12.7522C20.6219 12.4742 20.6193 12.2212 20.6193 12.0038C20.6193 11.7863 20.6219 11.5334 20.6247 11.2554C20.6417 9.58024 20.6678 6.99763 20.1974 5.81159C19.8271 4.88816 19.1193 4.18034 18.2006 3.81472C17.0148 3.34687 14.4167 3.37179 12.7411 3.38786C12.4692 3.39047 12.2217 3.39284 12.0084 3.39284C11.7909 3.39284 11.538 3.39028 11.26 3.38746C9.58483 3.37049 7.00222 3.34433 5.81619 3.81472C4.89275 4.18503 4.18494 4.89284 3.81932 5.81159C3.35146 6.99736 3.37639 9.5955 3.39246 11.2711C3.39507 11.5429 3.39744 11.7905 3.39744 12.0038C3.39744 12.2212 3.39488 12.4742 3.39206 12.7521C3.37509 14.4273 3.34892 17.0099 3.81932 18.196C4.18963 19.1194 4.89744 19.8272 5.81619 20.1928C7.00195 20.6607 9.60011 20.6358 11.2757 20.6197C11.5475 20.6171 11.7951 20.6147 12.0084 20.6147C12.2258 20.6147 12.4788 20.6173 12.7567 20.6201C14.4319 20.6371 17.0145 20.6632 18.2006 20.1928Z"
            />
        </mask>
        <g mask="url(#mask2)">
            <rect width="24" height="24"/>
        </g>
    </g>
</svg>
