<svg width="24" height="24" viewBox="0 0 24 24" xmlns="http://www.w3.org/2000/svg">
    <g>
        <path fill-rule="evenodd" clip-rule="evenodd"
              d="M4.02187 6.56718C2.62969 6.56718 1.5 5.41406 1.5 4.02187C1.5 2.62969 2.62969 1.5 4.02187 1.5C5.41406 1.5 6.54374 2.62969 6.54374 4.02187C6.54374 5.41406 5.41406 6.56718 4.02187 6.56718ZM6.20166 22.4996H1.84697V8.47931H6.20166V22.4996ZM18.1547 22.4996H22.5H22.5047V14.7981C22.5047 11.0293 21.6938 8.12775 17.2875 8.12775C15.1687 8.12775 13.7484 9.29025 13.1672 10.3918H13.1062V8.47931H8.92969V22.4996H13.2797V15.5574C13.2797 13.7293 13.6266 11.9621 15.8906 11.9621C18.1219 11.9621 18.1547 14.0481 18.1547 15.6746V22.4996Z"
        />
        <mask id="mask3" mask-type="alpha" maskUnits="userSpaceOnUse" x="1" y="1" width="22" height="22">
            <path fill-rule="evenodd" clip-rule="evenodd"
                  d="M4.02187 6.56718C2.62969 6.56718 1.5 5.41406 1.5 4.02187C1.5 2.62969 2.62969 1.5 4.02187 1.5C5.41406 1.5 6.54374 2.62969 6.54374 4.02187C6.54374 5.41406 5.41406 6.56718 4.02187 6.56718ZM6.20166 22.4996H1.84697V8.47931H6.20166V22.4996ZM18.1547 22.4996H22.5H22.5047V14.7981C22.5047 11.0293 21.6938 8.12775 17.2875 8.12775C15.1687 8.12775 13.7484 9.29025 13.1672 10.3918H13.1062V8.47931H8.92969V22.4996H13.2797V15.5574C13.2797 13.7293 13.6266 11.9621 15.8906 11.9621C18.1219 11.9621 18.1547 14.0481 18.1547 15.6746V22.4996Z"
            />
        </mask>
        <g mask="url(#mask3)">
            <rect width="24" height="24"/>
        </g>
    </g>
</svg>
