<svg width="20" height="20" viewBox="0 0 20 20" fill="none" xmlns="http://www.w3.org/2000/svg">
    <path d="M19.9088 19.9104V12.6515C19.9088 9.08405 19.1408 6.35889 14.9788 6.35889C12.9721 6.35889 11.6343 7.44895 11.0892 8.48947H11.0397V6.68095H7.10059V19.9104H11.2131V13.3452C11.2131 11.611 11.5352 9.95114 13.6658 9.95114C15.7716 9.95114 15.7963 11.9083 15.7963 13.4443V19.8856H19.9088V19.9104Z"
          fill="white"/>
    <path d="M0.412109 6.68066H4.52463V19.9101H0.412109V6.68066Z" fill="white"/>
    <path d="M2.46817 0.0908203C1.15514 0.0908203 0.0898438 1.15611 0.0898438 2.46915C0.0898438 3.78218 1.15514 4.87224 2.46817 4.87224C3.7812 4.87224 4.84649 3.78218 4.84649 2.46915C4.84649 1.15611 3.7812 0.0908203 2.46817 0.0908203Z"
          fill="white"/>
</svg>
