<svg width="26" height="24" viewBox="0 0 26 24" xmlns="http://www.w3.org/2000/svg">
    <g>
        <path d="M23.3274 7.10784C23.3439 7.32103 23.3439 7.53427 23.3439 7.74745C23.3439 14.25 17.9823 21.7424 8.18274 21.7424C5.16369 21.7424 2.35914 20.9352 0 19.5343C0.428949 19.5799 0.841344 19.5952 1.2868 19.5952C3.77787 19.5952 6.07105 18.8185 7.90227 17.4937C5.55963 17.448 3.59643 16.0317 2.92002 14.0825C3.25 14.1281 3.57993 14.1586 3.92641 14.1586C4.40482 14.1586 4.88328 14.0977 5.32868 13.9911C2.88707 13.5342 1.05579 11.5545 1.05579 9.16369V9.1028C1.76516 9.46828 2.5901 9.6967 3.4644 9.72712C2.02912 8.84386 1.0888 7.33627 1.0888 5.63067C1.0888 4.71698 1.35271 3.87942 1.81467 3.14845C4.43777 6.13322 8.38068 8.08242 12.802 8.29566C12.7195 7.93017 12.67 7.5495 12.67 7.16878C12.67 4.45809 15.0456 2.25 17.9987 2.25C19.5329 2.25 20.9187 2.84391 21.8921 3.8033C23.0963 3.59011 24.2511 3.17892 25.274 2.61548C24.878 3.75764 24.0367 4.71703 22.9314 5.32613C24.0037 5.21958 25.0431 4.94541 25.9999 4.56473C25.2741 5.53931 24.3667 6.4073 23.3274 7.10784Z"
        />
        <mask id="mask9" mask-type="alpha" maskUnits="userSpaceOnUse" x="0" y="2" width="26" height="20">
            <path d="M23.3274 7.10784C23.3439 7.32103 23.3439 7.53427 23.3439 7.74745C23.3439 14.25 17.9823 21.7424 8.18274 21.7424C5.16369 21.7424 2.35914 20.9352 0 19.5343C0.428949 19.5799 0.841344 19.5952 1.2868 19.5952C3.77787 19.5952 6.07105 18.8185 7.90227 17.4937C5.55963 17.448 3.59643 16.0317 2.92002 14.0825C3.25 14.1281 3.57993 14.1586 3.92641 14.1586C4.40482 14.1586 4.88328 14.0977 5.32868 13.9911C2.88707 13.5342 1.05579 11.5545 1.05579 9.16369V9.1028C1.76516 9.46828 2.5901 9.6967 3.4644 9.72712C2.02912 8.84386 1.0888 7.33627 1.0888 5.63067C1.0888 4.71698 1.35271 3.87942 1.81467 3.14845C4.43777 6.13322 8.38068 8.08242 12.802 8.29566C12.7195 7.93017 12.67 7.5495 12.67 7.16878C12.67 4.45809 15.0456 2.25 17.9987 2.25C19.5329 2.25 20.9187 2.84391 21.8921 3.8033C23.0963 3.59011 24.2511 3.17892 25.274 2.61548C24.878 3.75764 24.0367 4.71703 22.9314 5.32613C24.0037 5.21958 25.0431 4.94541 25.9999 4.56473C25.2741 5.53931 24.3667 6.4073 23.3274 7.10784Z"
            />
        </mask>
        <g mask="url(#mask9)">
            <rect width="26" height="24"/>
        </g>
    </g>
</svg>
