<svg width="24" height="25" viewBox="0 0 24 25" xmlns="http://www.w3.org/2000/svg">
    <path fill-rule="evenodd" clip-rule="evenodd"
          d="M18.9984 16.0781L23.6719 20.7516C24.1078 21.1922 24.1078 21.9047 23.6672 22.3453L22.3406 23.6719C21.9047 24.1125 21.1922 24.1125 20.7516 23.6719L16.0781 18.9984C15.8672 18.7875 15.75 18.5016 15.75 18.2016V17.4375C14.0953 18.7313 12.0141 19.5 9.75 19.5C4.36406 19.5 0 15.1359 0 9.75C0 4.36406 4.36406 0 9.75 0C15.1359 0 19.5 4.36406 19.5 9.75C19.5 12.0141 18.7313 14.0953 17.4375 15.75H18.2016C18.5016 15.75 18.7875 15.8672 18.9984 16.0781ZM3.75 9.75C3.75 13.0688 6.43594 15.75 9.75 15.75C13.0688 15.75 15.75 13.0641 15.75 9.75C15.75 6.43125 13.0641 3.75 9.75 3.75C6.43125 3.75 3.75 6.43594 3.75 9.75Z"
    />
</svg>
