<svg width="126" height="26" viewBox="0 0 126 26" fill="none" xmlns="http://www.w3.org/2000/svg">
<path d="M0.5 0.5H38.3976V25.5H0.5V0.5Z" stroke="#272445"/>
<mask id="path-2-inside-1_984_62431" fill="white">
<path d="M18.6199 5.66765L19.4396 5.06762L20.2631 5.66765L19.9467 4.6969L20.7816 4.09688H19.756L19.4396 3.11084L19.127 4.09688H18.0977L18.9288 4.6969L18.6199 5.66765Z"/>
</mask>
<path d="M18.6199 5.66765L19.4396 5.06762L20.2631 5.66765L19.9467 4.6969L20.7816 4.09688H19.756L19.4396 3.11084L19.127 4.09688H18.0977L18.9288 4.6969L18.6199 5.66765Z" fill="#272445"/>
<path d="M18.6199 5.66765L17.667 5.36451L16.7381 8.28456L19.2106 6.47455L18.6199 5.66765ZM19.4396 5.06762L20.0285 4.25942L19.4382 3.82931L18.8489 4.26072L19.4396 5.06762ZM20.2631 5.66765L19.6742 6.47586L22.1715 8.29551L21.2138 5.35774L20.2631 5.66765ZM19.9467 4.6969L19.3631 3.88486L18.7693 4.3116L18.9959 5.00682L19.9467 4.6969ZM20.7816 4.09688L21.3652 4.90892L23.8865 3.09688H20.7816V4.09688ZM19.756 4.09688L18.8039 4.40244L19.0267 5.09688H19.756V4.09688ZM19.4396 3.11084L20.3918 2.80528L19.4338 -0.179829L18.4864 2.80862L19.4396 3.11084ZM19.127 4.09688V5.09688H19.859L20.0802 4.39909L19.127 4.09688ZM18.0977 4.09688V3.09688H15.0042L17.5123 4.90765L18.0977 4.09688ZM18.9288 4.6969L19.8817 5.00005L20.1012 4.31L19.5141 3.88613L18.9288 4.6969ZM19.2106 6.47455L20.0303 5.87452L18.8489 4.26072L18.0293 4.86075L19.2106 6.47455ZM18.8507 5.87583L19.6742 6.47586L20.852 4.85945L20.0285 4.25942L18.8507 5.87583ZM21.2138 5.35774L20.8974 4.38699L18.9959 5.00682L19.3123 5.97757L21.2138 5.35774ZM20.5303 5.50895L21.3652 4.90892L20.198 3.28483L19.3631 3.88486L20.5303 5.50895ZM20.7816 3.09688H19.756V5.09688H20.7816V3.09688ZM20.7082 3.79131L20.3918 2.80528L18.4874 3.4164L18.8039 4.40244L20.7082 3.79131ZM18.4864 2.80862L18.1738 3.79466L20.0802 4.39909L20.3928 3.41306L18.4864 2.80862ZM19.127 3.09688H18.0977V5.09688H19.127V3.09688ZM17.5123 4.90765L18.3434 5.50768L19.5141 3.88613L18.683 3.2861L17.5123 4.90765ZM17.9758 4.39376L17.667 5.36451L19.5729 5.97079L19.8817 5.00005L17.9758 4.39376Z" fill="#272445" mask="url(#path-2-inside-1_984_62431)"/>
<mask id="path-4-inside-2_984_62431" fill="white">
<path d="M14.369 6.81072L15.1925 6.20687L16.0121 6.81072L15.6995 5.83997L16.5344 5.23994H15.5051L15.1925 4.25391L14.8761 5.23994H13.8506L14.6855 5.83997L14.369 6.81072Z"/>
</mask>
<path d="M14.369 6.81072L15.1925 6.20687L16.0121 6.81072L15.6995 5.83997L16.5344 5.23994H15.5051L15.1925 4.25391L14.8761 5.23994H13.8506L14.6855 5.83997L14.369 6.81072Z" fill="#272445"/>
<path d="M14.369 6.81072L13.4183 6.50082L12.4557 9.45387L14.9604 7.61713L14.369 6.81072ZM15.1925 6.20687L15.7856 5.40177L15.1939 4.96579L14.6011 5.40046L15.1925 6.20687ZM16.0121 6.81072L15.419 7.61582L17.9138 9.45388L16.964 6.5042L16.0121 6.81072ZM15.6995 5.83997L15.1159 5.02794L14.5244 5.45308L14.7477 6.14649L15.6995 5.83997ZM16.5344 5.23994L17.118 6.05198L19.6393 4.23994H16.5344V5.23994ZM15.5051 5.23994L14.5518 5.54215L14.7731 6.23994H15.5051V5.23994ZM15.1925 4.25391L16.1457 3.9517L15.1983 0.963122L14.2403 3.94836L15.1925 4.25391ZM14.8761 5.23994V6.23994H15.6054L15.8282 5.54549L14.8761 5.23994ZM13.8506 5.23994V4.23994H10.7457L13.267 6.05197L13.8506 5.23994ZM14.6855 5.83997L15.6362 6.14987L15.8628 5.45467L15.2691 5.02794L14.6855 5.83997ZM14.9604 7.61713L15.7838 7.01327L14.6011 5.40046L13.7777 6.00431L14.9604 7.61713ZM14.5993 7.01196L15.419 7.61582L16.6053 6.00562L15.7856 5.40177L14.5993 7.01196ZM16.964 6.5042L16.6514 5.53345L14.7477 6.14649L15.0603 7.11724L16.964 6.5042ZM16.2831 6.652L17.118 6.05198L15.9508 4.42791L15.1159 5.02794L16.2831 6.652ZM16.5344 4.23994H15.5051V6.23994H16.5344V4.23994ZM16.4583 4.93774L16.1457 3.9517L14.2392 4.55611L14.5518 5.54215L16.4583 4.93774ZM14.2403 3.94836L13.9239 4.93439L15.8282 5.54549L16.1447 4.55946L14.2403 3.94836ZM14.8761 4.23994H13.8506V6.23994H14.8761V4.23994ZM13.267 6.05197L14.1018 6.652L15.2691 5.02794L14.4342 4.42791L13.267 6.05197ZM13.7347 5.53007L13.4183 6.50082L15.3198 7.12062L15.6362 6.14987L13.7347 5.53007Z" fill="#272445" mask="url(#path-4-inside-2_984_62431)"/>
<mask id="path-6-inside-3_984_62431" fill="white">
<path d="M12.0813 7.37622L11.7687 8.36226H10.7432L11.5743 8.96229L11.2616 9.93303L12.0813 9.333L12.9048 9.93303L12.5922 8.96229L13.4271 8.36226H12.3977L12.0813 7.37622Z"/>
</mask>
<path d="M12.0813 7.37622L11.7687 8.36226H10.7432L11.5743 8.96229L11.2616 9.93303L12.0813 9.333L12.9048 9.93303L12.5922 8.96229L13.4271 8.36226H12.3977L12.0813 7.37622Z" fill="#272445"/>
<path d="M12.0813 7.37622L13.0335 7.07066L12.0755 4.08553L11.1281 7.074L12.0813 7.37622ZM11.7687 8.36226V9.36226H12.5007L12.7219 8.66447L11.7687 8.36226ZM10.7432 8.36226V7.36226H7.64972L10.1578 9.17303L10.7432 8.36226ZM11.5743 8.96229L12.5261 9.26882L12.7489 8.57697L12.1596 8.15151L11.5743 8.96229ZM11.2616 9.93303L10.3098 9.6265L9.3648 12.5609L11.8523 10.7399L11.2616 9.93303ZM12.0813 9.333L12.6702 8.5248L12.0799 8.09469L11.4906 8.5261L12.0813 9.333ZM12.9048 9.93303L12.3159 10.7412L14.7981 12.5499L13.8566 9.6265L12.9048 9.93303ZM12.5922 8.96229L12.0086 8.15024L11.417 8.57539L11.6403 9.26882L12.5922 8.96229ZM13.4271 8.36226L14.0107 9.1743L16.532 7.36226H13.4271V8.36226ZM12.3977 8.36226L11.4456 8.66781L11.6684 9.36226H12.3977V8.36226ZM11.1281 7.074L10.8155 8.06004L12.7219 8.66447L13.0345 7.67844L11.1281 7.074ZM11.7687 7.36226H10.7432V9.36226H11.7687V7.36226ZM10.1578 9.17303L10.9889 9.77306L12.1596 8.15151L11.3285 7.55148L10.1578 9.17303ZM10.6224 8.65575L10.3098 9.6265L12.2135 10.2396L12.5261 9.26882L10.6224 8.65575ZM11.8523 10.7399L12.672 10.1399L11.4906 8.5261L10.671 9.12613L11.8523 10.7399ZM11.4924 10.1412L12.3159 10.7412L13.4937 9.12483L12.6702 8.5248L11.4924 10.1412ZM13.8566 9.6265L13.544 8.65575L11.6403 9.26882L11.9529 10.2396L13.8566 9.6265ZM13.1758 9.77433L14.0107 9.1743L12.8435 7.55021L12.0086 8.15024L13.1758 9.77433ZM13.4271 7.36226H12.3977V9.36226H13.4271V7.36226ZM13.3499 8.0567L13.0335 7.07066L11.1291 7.68178L11.4456 8.66781L13.3499 8.0567Z" fill="#272445" mask="url(#path-6-inside-3_984_62431)"/>
<mask id="path-8-inside-4_984_62431" fill="white">
<path d="M10.9454 13.5828L11.7612 14.1867L11.4524 13.2159L12.2873 12.6159H11.258L10.9454 11.6299L10.6251 12.6159H9.59961L10.4345 13.2159L10.1219 14.1867L10.9454 13.5828Z"/>
</mask>
<path d="M10.9454 13.5828L11.7612 14.1867L11.4524 13.2159L12.2873 12.6159H11.258L10.9454 11.6299L10.6251 12.6159H9.59961L10.4345 13.2159L10.1219 14.1867L10.9454 13.5828Z" fill="#272445"/>
<path d="M10.9454 13.5828L11.5403 12.7791L10.9481 12.3408L10.354 12.7764L10.9454 13.5828ZM11.7612 14.1867L11.1663 14.9905L13.6514 16.8298L12.7142 13.8836L11.7612 14.1867ZM11.4524 13.2159L10.8688 12.4039L10.2795 12.8275L10.4995 13.5191L11.4524 13.2159ZM12.2873 12.6159L12.8709 13.428L15.3923 11.6159H12.2873V12.6159ZM11.258 12.6159L10.3047 12.9181L10.526 13.6159H11.258V12.6159ZM10.9454 11.6299L11.8986 11.3277L10.9568 8.35717L9.99428 11.321L10.9454 11.6299ZM10.6251 12.6159V13.6159H11.3518L11.5762 12.9248L10.6251 12.6159ZM9.59961 12.6159V11.6159H6.49466L9.01601 13.428L9.59961 12.6159ZM10.4345 13.2159L11.3864 13.5225L11.6097 12.8291L11.0181 12.4039L10.4345 13.2159ZM10.1219 14.1867L9.17004 13.8802L8.22373 16.8187L10.7132 14.9931L10.1219 14.1867ZM10.3505 14.3866L11.1663 14.9905L12.3561 13.3829L11.5403 12.7791L10.3505 14.3866ZM12.7142 13.8836L12.4054 12.9128L10.4995 13.5191L10.8083 14.4898L12.7142 13.8836ZM12.036 14.028L12.8709 13.428L11.7037 11.8039L10.8688 12.4039L12.036 14.028ZM12.2873 11.6159H11.258V13.6159H12.2873V11.6159ZM12.2112 12.3137L11.8986 11.3277L9.99214 11.9321L10.3047 12.9181L12.2112 12.3137ZM9.99428 11.321L9.67404 12.307L11.5762 12.9248L11.8965 11.9388L9.99428 11.321ZM10.6251 11.6159H9.59961V13.6159H10.6251V11.6159ZM9.01601 13.428L9.85092 14.028L11.0181 12.4039L10.1832 11.8039L9.01601 13.428ZM9.48266 12.9094L9.17004 13.8802L11.0738 14.4932L11.3864 13.5225L9.48266 12.9094ZM10.7132 14.9931L11.5367 14.3893L10.354 12.7764L9.53056 13.3803L10.7132 14.9931Z" fill="#272445" mask="url(#path-8-inside-4_984_62431)"/>
<mask id="path-10-inside-5_984_62431" fill="white">
<path d="M12.3977 16.8811L12.0813 15.8989L11.7687 16.8811H10.7432L11.5743 17.485L11.2616 18.4519L12.0813 17.8519L12.9048 18.4519L12.5922 17.485L13.4271 16.8811H12.3977Z"/>
</mask>
<path d="M12.3977 16.8811L12.0813 15.8989L11.7687 16.8811H10.7432L11.5743 17.485L11.2616 18.4519L12.0813 17.8519L12.9048 18.4519L12.5922 17.485L13.4271 16.8811H12.3977Z" fill="#272445"/>
<path d="M12.3977 16.8811L11.4459 17.1878L11.6693 17.8811H12.3977V16.8811ZM12.0813 15.8989L13.0331 15.5923L12.0755 12.6198L11.1284 15.5956L12.0813 15.8989ZM11.7687 16.8811V17.8811H12.4998L12.7216 17.1844L11.7687 16.8811ZM10.7432 16.8811V15.8811H7.66559L10.1554 17.6901L10.7432 16.8811ZM11.5743 17.485L12.5258 17.7926L12.7489 17.1024L12.1621 16.676L11.5743 17.485ZM11.2616 18.4519L10.3101 18.1443L9.35991 21.0834L11.8523 19.2588L11.2616 18.4519ZM12.0813 17.8519L12.6702 17.0437L12.0799 16.6136L11.4906 17.045L12.0813 17.8519ZM12.9048 18.4519L12.3159 19.2601L14.8029 21.0724L13.8563 18.1443L12.9048 18.4519ZM12.5922 17.485L12.0061 16.6747L11.417 17.1008L11.6407 17.7926L12.5922 17.485ZM13.4271 16.8811L14.0131 17.6914L16.5161 15.8811H13.4271V16.8811ZM13.3496 16.5745L13.0331 15.5923L11.1295 16.2056L11.4459 17.1878L13.3496 16.5745ZM11.1284 15.5956L10.8158 16.5779L12.7216 17.1844L13.0342 16.2022L11.1284 15.5956ZM11.7687 15.8811H10.7432V17.8811H11.7687V15.8811ZM10.1554 17.6901L10.9865 18.294L12.1621 16.676L11.331 16.0721L10.1554 17.6901ZM10.6228 17.1774L10.3101 18.1443L12.2132 18.7595L12.5258 17.7926L10.6228 17.1774ZM11.8523 19.2588L12.672 18.6588L11.4906 17.045L10.671 17.645L11.8523 19.2588ZM11.4924 18.6601L12.3159 19.2601L13.4937 17.6437L12.6702 17.0437L11.4924 18.6601ZM13.8563 18.1443L13.5437 17.1774L11.6407 17.7926L11.9533 18.7595L13.8563 18.1443ZM13.1782 18.2953L14.0131 17.6914L12.841 16.0709L12.0061 16.6747L13.1782 18.2953ZM13.4271 15.8811H12.3977V17.8811H13.4271V15.8811Z" fill="#272445" mask="url(#path-10-inside-5_984_62431)"/>
<mask id="path-12-inside-6_984_62431" fill="white">
<path d="M15.5129 20.0035L15.1964 19.0212L14.88 20.0035H13.8545L14.6894 20.6035L14.3768 21.5742L15.1964 20.9742L16.0199 21.5742L15.7073 20.6035L16.5422 20.0035H15.5129Z"/>
</mask>
<path d="M15.5129 20.0035L15.1964 19.0212L14.88 20.0035H13.8545L14.6894 20.6035L14.3768 21.5742L15.1964 20.9742L16.0199 21.5742L15.7073 20.6035L16.5422 20.0035H15.5129Z" fill="#272445"/>
<path d="M15.5129 20.0035L14.561 20.3101L14.7844 21.0035H15.5129V20.0035ZM15.1964 19.0212L16.1483 18.7146L15.1964 15.7601L14.2446 18.7146L15.1964 19.0212ZM14.88 20.0035V21.0035H15.6085L15.8318 20.3101L14.88 20.0035ZM13.8545 20.0035V19.0035H10.7495L13.2709 20.8155L13.8545 20.0035ZM14.6894 20.6035L15.6413 20.91L15.8646 20.2166L15.273 19.7914L14.6894 20.6035ZM14.3768 21.5742L13.4249 21.2677L12.4799 24.2021L14.9675 22.3811L14.3768 21.5742ZM15.1964 20.9742L15.7854 20.166L15.1951 19.7359L14.6058 20.1673L15.1964 20.9742ZM16.0199 21.5742L15.431 22.3824L17.9132 24.1911L16.9718 21.2677L16.0199 21.5742ZM15.7073 20.6035L15.1237 19.7914L14.5321 20.2166L14.7554 20.91L15.7073 20.6035ZM16.5422 20.0035L17.1258 20.8155L19.6472 19.0035H16.5422V20.0035ZM16.4647 19.6968L16.1483 18.7146L14.2446 19.3279L14.561 20.3101L16.4647 19.6968ZM14.2446 18.7146L13.9282 19.6968L15.8318 20.3101L16.1483 19.3279L14.2446 18.7146ZM14.88 19.0035H13.8545V21.0035H14.88V19.0035ZM13.2709 20.8155L14.1058 21.4155L15.273 19.7914L14.4381 19.1914L13.2709 20.8155ZM13.7375 20.297L13.4249 21.2677L15.3286 21.8808L15.6413 20.91L13.7375 20.297ZM14.9675 22.3811L15.7871 21.7811L14.6058 20.1673L13.7861 20.7673L14.9675 22.3811ZM14.6075 21.7824L15.431 22.3824L16.6088 20.766L15.7854 20.166L14.6075 21.7824ZM16.9718 21.2677L16.6592 20.297L14.7554 20.91L15.0681 21.8808L16.9718 21.2677ZM16.2909 21.4155L17.1258 20.8155L15.9586 19.1914L15.1237 19.7914L16.2909 21.4155ZM16.5422 19.0035H15.5129V21.0035H16.5422V19.0035Z" fill="#272445" mask="url(#path-12-inside-6_984_62431)"/>
<mask id="path-14-inside-7_984_62431" fill="white">
<path d="M19.756 21.1347L19.4396 20.1487L19.127 21.1347H18.0977L18.9326 21.7347L18.6199 22.7055L19.4396 22.1055L20.2631 22.7055L19.9467 21.7347L20.7854 21.1347H19.756Z"/>
</mask>
<path d="M19.756 21.1347L19.4396 20.1487L19.127 21.1347H18.0977L18.9326 21.7347L18.6199 22.7055L19.4396 22.1055L20.2631 22.7055L19.9467 21.7347L20.7854 21.1347H19.756Z" fill="#272445"/>
<path d="M19.756 21.1347L18.8039 21.4403L19.0267 22.1347H19.756V21.1347ZM19.4396 20.1487L20.3918 19.8431L19.4338 16.858L18.4864 19.8465L19.4396 20.1487ZM19.127 21.1347V22.1347H19.859L20.0802 21.4369L19.127 21.1347ZM18.0977 21.1347V20.1347H14.9927L17.5141 21.9468L18.0977 21.1347ZM18.9326 21.7347L19.8844 22.0413L20.1077 21.3479L19.5162 20.9227L18.9326 21.7347ZM18.6199 22.7055L17.6681 22.399L16.7231 25.3334L19.2106 23.5124L18.6199 22.7055ZM19.4396 22.1055L20.0285 21.2973L19.4382 20.8672L18.8489 21.2986L19.4396 22.1055ZM20.2631 22.7055L19.6742 23.5137L22.1714 25.3334L21.2138 22.3956L20.2631 22.7055ZM19.9467 21.7347L19.3648 20.9214L18.7688 21.3479L18.9959 22.0447L19.9467 21.7347ZM20.7854 21.1347L21.3672 21.948L23.9018 20.1347H20.7854V21.1347ZM20.7082 20.8292L20.3918 19.8431L18.4874 20.4542L18.8039 21.4403L20.7082 20.8292ZM18.4864 19.8465L18.1738 20.8325L20.0802 21.4369L20.3928 20.4509L18.4864 19.8465ZM19.127 20.1347H18.0977V22.1347H19.127V20.1347ZM17.5141 21.9468L18.349 22.5468L19.5162 20.9227L18.6813 20.3227L17.5141 21.9468ZM17.9807 21.4282L17.6681 22.399L19.5718 23.012L19.8844 22.0413L17.9807 21.4282ZM19.2106 23.5124L20.0303 22.9124L18.8489 21.2986L18.0293 21.8986L19.2106 23.5124ZM18.8507 22.9137L19.6742 23.5137L20.852 21.8973L20.0285 21.2973L18.8507 22.9137ZM21.2138 22.3956L20.8974 21.4248L18.9959 22.0447L19.3123 23.0154L21.2138 22.3956ZM20.5285 22.548L21.3672 21.948L20.2035 20.3214L19.3648 20.9214L20.5285 22.548ZM20.7854 20.1347H19.756V22.1347H20.7854V20.1347Z" fill="#272445" mask="url(#path-14-inside-7_984_62431)"/>
<mask id="path-16-inside-8_984_62431" fill="white">
<path d="M23.9982 20.0035L23.6818 19.0212L23.3654 20.0035H22.3398L23.1709 20.6035L22.8621 21.5742L23.6818 20.9742L24.5015 21.5742L24.1888 20.6035L25.0276 20.0035H23.9982Z"/>
</mask>
<path d="M23.9982 20.0035L23.6818 19.0212L23.3654 20.0035H22.3398L23.1709 20.6035L22.8621 21.5742L23.6818 20.9742L24.5015 21.5742L24.1888 20.6035L25.0276 20.0035H23.9982Z" fill="#272445"/>
<path d="M23.9982 20.0035L23.0464 20.3101L23.2698 21.0035H23.9982V20.0035ZM23.6818 19.0212L24.6336 18.7146L23.6818 15.76L22.73 18.7146L23.6818 19.0212ZM23.3654 20.0035V21.0035H24.0938L24.3172 20.3101L23.3654 20.0035ZM22.3398 20.0035V19.0035H19.2464L21.7545 20.8142L22.3398 20.0035ZM23.1709 20.6035L24.1239 20.9066L24.3434 20.2166L23.7563 19.7927L23.1709 20.6035ZM22.8621 21.5742L21.9092 21.2711L20.9803 24.1911L23.4528 22.3811L22.8621 21.5742ZM23.6818 20.9742L24.2725 20.1673L23.6818 19.7349L23.0911 20.1673L23.6818 20.9742ZM24.5015 21.5742L23.9108 22.3811L26.3983 24.2021L25.4533 21.2677L24.5015 21.5742ZM24.1888 20.6035L23.607 19.7902L23.0132 20.215L23.237 20.91L24.1888 20.6035ZM25.0276 20.0035L25.6094 20.8168L28.144 19.0035H25.0276V20.0035ZM24.95 19.6968L24.6336 18.7146L22.73 19.3279L23.0464 20.3101L24.95 19.6968ZM22.73 18.7146L22.4135 19.6968L24.3172 20.3101L24.6336 19.3279L22.73 18.7146ZM23.3654 19.0035H22.3398V21.0035H23.3654V19.0035ZM21.7545 20.8142L22.5856 21.4143L23.7563 19.7927L22.9252 19.1927L21.7545 20.8142ZM22.218 20.3003L21.9092 21.2711L23.8151 21.8774L24.1239 20.9066L22.218 20.3003ZM23.4528 22.3811L24.2725 21.7811L23.0911 20.1673L22.2714 20.7673L23.4528 22.3811ZM23.0911 21.7811L23.9108 22.3811L25.0921 20.7673L24.2725 20.1673L23.0911 21.7811ZM25.4533 21.2677L25.1407 20.297L23.237 20.91L23.5496 21.8808L25.4533 21.2677ZM24.7707 21.4168L25.6094 20.8168L24.4457 19.1902L23.607 19.7902L24.7707 21.4168ZM25.0276 19.0035H23.9982V21.0035H25.0276V19.0035Z" fill="#272445" mask="url(#path-16-inside-8_984_62431)"/>
<mask id="path-18-inside-9_984_62431" fill="white">
<path d="M27.1135 16.8811L26.797 15.8989L26.4844 16.8811H25.4551L26.29 17.485L25.9736 18.4519L26.797 17.8519L27.6167 18.4519L27.3041 17.485L28.139 16.8811H27.1135Z"/>
</mask>
<path d="M27.1135 16.8811L26.797 15.8989L26.4844 16.8811H25.4551L26.29 17.485L25.9736 18.4519L26.797 17.8519L27.6167 18.4519L27.3041 17.485L28.139 16.8811H27.1135Z" fill="#272445"/>
<path d="M27.1135 16.8811L26.1616 17.1878L26.385 17.8811H27.1135V16.8811ZM26.797 15.8989L27.7489 15.5923L26.7913 12.6198L25.8441 15.5956L26.797 15.8989ZM26.4844 16.8811V17.8811H27.2156L27.4373 17.1844L26.4844 16.8811ZM25.4551 16.8811V15.8811H22.3661L24.869 17.6914L25.4551 16.8811ZM26.29 17.485L27.2404 17.796L27.4674 17.1024L26.876 16.6747L26.29 17.485ZM25.9736 18.4519L25.0232 18.1409L24.0602 21.0834L26.5625 19.2601L25.9736 18.4519ZM26.797 17.8519L27.3877 17.045L26.7984 16.6136L26.2081 17.0437L26.797 17.8519ZM27.6167 18.4519L27.026 19.2588L29.5184 21.0834L28.5682 18.1443L27.6167 18.4519ZM27.3041 17.485L26.718 16.6747L26.1289 17.1008L26.3526 17.7926L27.3041 17.485ZM28.139 16.8811L28.725 17.6914L31.228 15.8811H28.139V16.8811ZM28.0653 16.5745L27.7489 15.5923L25.8452 16.2056L26.1616 17.1878L28.0653 16.5745ZM25.8441 15.5956L25.5315 16.5779L27.4373 17.1844L27.7499 16.2022L25.8441 15.5956ZM26.4844 15.8811H25.4551V17.8811H26.4844V15.8811ZM24.869 17.6914L25.7039 18.2953L26.876 16.6747L26.0411 16.0709L24.869 17.6914ZM25.3396 17.174L25.0232 18.1409L26.924 18.7629L27.2404 17.796L25.3396 17.174ZM26.5625 19.2601L27.3859 18.6601L26.2081 17.0437L25.3847 17.6437L26.5625 19.2601ZM26.2063 18.6588L27.026 19.2588L28.2074 17.645L27.3877 17.045L26.2063 18.6588ZM28.5682 18.1443L28.2556 17.1774L26.3526 17.7926L26.6652 18.7595L28.5682 18.1443ZM27.8901 18.2953L28.725 17.6914L27.5529 16.0709L26.718 16.6747L27.8901 18.2953ZM28.139 15.8811H27.1135V17.8811H28.139V15.8811Z" fill="#272445" mask="url(#path-18-inside-9_984_62431)"/>
<mask id="path-20-inside-10_984_62431" fill="white">
<path d="M29.2641 12.6044H28.2386L27.9259 11.6184L27.6095 12.6044H26.584L27.4189 13.2045L27.1025 14.1752L27.9259 13.5752L28.7456 14.1752L28.433 13.2045L29.2641 12.6044Z"/>
</mask>
<path d="M29.2641 12.6044H28.2386L27.9259 11.6184L27.6095 12.6044H26.584L27.4189 13.2045L27.1025 14.1752L27.9259 13.5752L28.7456 14.1752L28.433 13.2045L29.2641 12.6044Z" fill="#272445"/>
<path d="M29.2641 12.6044L29.8494 13.4152L32.3575 11.6044H29.2641V12.6044ZM28.2386 12.6044L27.2853 12.9067L27.5065 13.6044H28.2386V12.6044ZM27.9259 11.6184L28.8792 11.3162L27.9317 8.32774L26.9738 11.3128L27.9259 11.6184ZM27.6095 12.6044V13.6044H28.3388L28.5617 12.91L27.6095 12.6044ZM26.584 12.6044V11.6044H23.479L26.0004 13.4165L26.584 12.6044ZM27.4189 13.2045L28.3697 13.5144L28.5963 12.8192L28.0025 12.3924L27.4189 13.2045ZM27.1025 14.1752L26.1517 13.8653L25.1941 16.8031L27.6914 14.9834L27.1025 14.1752ZM27.9259 13.5752L28.5166 12.7683L27.9273 12.3369L27.337 12.767L27.9259 13.5752ZM28.7456 14.1752L28.1549 14.9821L30.6424 16.8031L29.6975 13.8687L28.7456 14.1752ZM28.433 13.2045L27.8476 12.3937L27.2583 12.8192L27.4811 13.511L28.433 13.2045ZM29.2641 11.6044H28.2386V13.6044H29.2641V11.6044ZM29.1918 12.3022L28.8792 11.3162L26.9727 11.9206L27.2853 12.9067L29.1918 12.3022ZM26.9738 11.3128L26.6573 12.2989L28.5617 12.91L28.8781 11.924L26.9738 11.3128ZM27.6095 11.6044H26.584V13.6044H27.6095V11.6044ZM26.0004 13.4165L26.8353 14.0165L28.0025 12.3924L27.1676 11.7924L26.0004 13.4165ZM26.4681 12.8946L26.1517 13.8653L28.0532 14.4851L28.3697 13.5144L26.4681 12.8946ZM27.6914 14.9834L28.5148 14.3834L27.337 12.767L26.5136 13.367L27.6914 14.9834ZM27.3353 14.3821L28.1549 14.9821L29.3363 13.3683L28.5166 12.7683L27.3353 14.3821ZM29.6975 13.8687L29.3848 12.8979L27.4811 13.511L27.7937 14.4818L29.6975 13.8687ZM29.0183 14.0152L29.8494 13.4152L28.6787 11.7937L27.8476 12.3937L29.0183 14.0152Z" fill="#272445" mask="url(#path-20-inside-10_984_62431)"/>
<mask id="path-22-inside-11_984_62431" fill="white">
<path d="M25.9736 9.91774L26.797 9.32153L27.6205 9.91774L27.3041 8.94699L28.139 8.35078H27.1135L26.797 7.36475L26.4844 8.3546L25.4551 8.35078L26.29 8.94699L25.9736 9.91774Z"/>
</mask>
<path d="M25.9736 9.91774L26.797 9.32153L27.6205 9.91774L27.3041 8.94699L28.139 8.35078H27.1135L26.797 7.36475L26.4844 8.3546L25.4551 8.35078L26.29 8.94699L25.9736 9.91774Z" fill="#272445"/>
<path d="M25.9736 9.91774L25.0228 9.60783L24.0701 12.5304L26.56 10.7277L25.9736 9.91774ZM26.797 9.32153L27.3835 8.51154L26.797 8.08694L26.2106 8.51154L26.797 9.32153ZM27.6205 9.91774L27.0341 10.7277L29.5239 12.5304L28.5713 9.60783L27.6205 9.91774ZM27.3041 8.94699L26.7229 8.13318L26.126 8.55947L26.3533 9.2569L27.3041 8.94699ZM28.139 8.35078L28.7201 9.16459L31.2601 7.35078H28.139V8.35078ZM27.1135 8.35078L26.1613 8.65634L26.3841 9.35078H27.1135V8.35078ZM26.797 7.36475L27.7492 7.05919L26.7894 4.06832L25.8435 7.06359L26.797 7.36475ZM26.4844 8.3546L26.4807 9.3546L27.2164 9.35733L27.438 8.65576L26.4844 8.3546ZM25.4551 8.35078L25.4588 7.35079L22.3176 7.33913L24.8739 9.16459L25.4551 8.35078ZM26.29 8.94699L27.2408 9.2569L27.4681 8.55947L26.8711 8.13318L26.29 8.94699ZM26.56 10.7277L27.3835 10.1315L26.2106 8.51154L25.3871 9.10775L26.56 10.7277ZM26.2106 10.1315L27.0341 10.7277L28.2069 9.10775L27.3835 8.51154L26.2106 10.1315ZM28.5713 9.60783L28.2548 8.63708L26.3533 9.2569L26.6697 10.2276L28.5713 9.60783ZM27.8852 9.76079L28.7201 9.16459L27.5578 7.53698L26.7229 8.13318L27.8852 9.76079ZM28.139 7.35078H27.1135V9.35078H28.139V7.35078ZM28.0656 8.04522L27.7492 7.05919L25.8449 7.67031L26.1613 8.65634L28.0656 8.04522ZM25.8435 7.06359L25.5308 8.05345L27.438 8.65576L27.7506 7.6659L25.8435 7.06359ZM26.4881 7.35461L25.4588 7.35079L25.4514 9.35077L26.4807 9.3546L26.4881 7.35461ZM24.8739 9.16459L25.7088 9.76079L26.8711 8.13318L26.0362 7.53698L24.8739 9.16459ZM25.3392 8.63708L25.0228 9.60783L26.9243 10.2277L27.2408 9.2569L25.3392 8.63708Z" fill="#272445" mask="url(#path-22-inside-11_984_62431)"/>
<mask id="path-24-inside-12_984_62431" fill="white">
<path d="M23.6935 4.25391L23.3809 5.23994H22.3516L23.1864 5.83997L22.8738 6.81072L23.6973 6.20687L24.5169 6.81072L24.2043 5.83997L25.0354 5.23994H24.0099L23.6935 4.25391Z"/>
</mask>
<path d="M23.6935 4.25391L23.3809 5.23994H22.3516L23.1864 5.83997L22.8738 6.81072L23.6973 6.20687L24.5169 6.81072L24.2043 5.83997L25.0354 5.23994H24.0099L23.6935 4.25391Z" fill="#272445"/>
<path d="M23.6935 4.25391L24.6456 3.94836L23.6877 0.963109L22.7402 3.9517L23.6935 4.25391ZM23.3809 5.23994V6.23994H24.1129L24.3341 5.54215L23.3809 5.23994ZM22.3516 5.23994V4.23994H19.2467L21.768 6.05198L22.3516 5.23994ZM23.1864 5.83997L24.1383 6.14649L24.3616 5.45308L23.7701 5.02794L23.1864 5.83997ZM22.8738 6.81072L21.922 6.5042L20.9757 9.44275L23.4652 7.61713L22.8738 6.81072ZM23.6973 6.20687L24.2904 5.40177L23.6987 4.96579L23.1059 5.40046L23.6973 6.20687ZM24.5169 6.81072L23.9238 7.61582L26.4186 9.45388L25.4688 6.5042L24.5169 6.81072ZM24.2043 5.83997L23.6189 5.02921L23.0297 5.45466L23.2524 6.14649L24.2043 5.83997ZM25.0354 5.23994L25.6207 6.05071L28.1287 4.23994H25.0354V5.23994ZM24.0099 5.23994L23.0577 5.54549L23.2805 6.23994H24.0099V5.23994ZM22.7402 3.9517L22.4276 4.93774L24.3341 5.54215L24.6467 4.55611L22.7402 3.9517ZM23.3809 4.23994H22.3516V6.23994H23.3809V4.23994ZM21.768 6.05198L22.6028 6.652L23.7701 5.02794L22.9352 4.42791L21.768 6.05198ZM22.2346 5.53345L21.922 6.5042L23.8257 7.11724L24.1383 6.14649L22.2346 5.53345ZM23.4652 7.61713L24.2886 7.01327L23.1059 5.40046L22.2825 6.00431L23.4652 7.61713ZM23.1041 7.01196L23.9238 7.61582L25.1101 6.00562L24.2904 5.40177L23.1041 7.01196ZM25.4688 6.5042L25.1562 5.53345L23.2524 6.14649L23.565 7.11724L25.4688 6.5042ZM24.7897 6.65074L25.6207 6.05071L24.45 4.42918L23.6189 5.02921L24.7897 6.65074ZM25.0354 4.23994H24.0099V6.23994H25.0354V4.23994ZM24.9621 4.93439L24.6456 3.94836L22.7413 4.55945L23.0577 5.54549L24.9621 4.93439Z" fill="#272445" mask="url(#path-24-inside-12_984_62431)"/>
<path d="M50.2969 16.0181V8.876H55.6256V10.0842H51.7478V11.6676H55.3559V12.8708H51.7478V14.8147H55.7628V16.0181H50.2969" fill="#272445"/>
<path d="M60.4091 16.0179V15.2433C60.2195 15.5193 59.9705 15.737 59.6616 15.8961C59.3528 16.0552 59.0269 16.1348 58.6836 16.1348C58.3338 16.1348 58.0201 16.0586 57.7424 15.9059C57.4645 15.7532 57.2634 15.5388 57.1393 15.2628C57.015 14.9867 56.9531 14.605 56.9531 14.1178V10.844H58.3306V13.2215C58.3306 13.9489 58.3559 14.3949 58.4067 14.5588C58.4572 14.7228 58.5496 14.8528 58.6836 14.9485C58.8175 15.0443 58.9876 15.0923 59.1934 15.0923C59.4288 15.0923 59.6395 15.0282 59.8259 14.8998C60.0121 14.7716 60.1396 14.6124 60.2081 14.4224C60.2769 14.2324 60.311 13.7672 60.311 13.0266V10.844H61.6886V16.0179H60.4091Z" fill="#272445"/>
<path d="M64.436 16.0181H63.0586V10.8441H64.3382V11.5799C64.557 11.2323 64.754 11.0033 64.9288 10.893C65.1036 10.7825 65.3023 10.7273 65.5244 10.7273C65.8382 10.7273 66.1405 10.8133 66.4313 10.9855L66.005 12.179C65.7727 12.0296 65.5569 11.955 65.3578 11.955C65.165 11.955 65.0015 12.0079 64.8675 12.1132C64.7335 12.2189 64.628 12.4097 64.5514 12.6857C64.4746 12.9618 64.436 13.54 64.436 14.4202V16.0181Z" fill="#272445"/>
<path d="M68.1159 13.431C68.1159 13.9441 68.2385 14.3372 68.4836 14.61C68.7287 14.8827 69.0311 15.0193 69.3907 15.0193C69.7499 15.0193 70.0515 14.8827 70.295 14.61C70.5384 14.3372 70.6602 13.9409 70.6602 13.4212C70.6602 12.9146 70.5384 12.5249 70.295 12.252C70.0515 11.9791 69.7499 11.8428 69.3907 11.8428C69.0311 11.8428 68.7287 11.9791 68.4836 12.252C68.2385 12.5249 68.1159 12.9178 68.1159 13.431V13.431ZM66.7041 13.3578C66.7041 12.9031 66.817 12.4631 67.0424 12.0376C67.2678 11.6121 67.5872 11.2874 68.0009 11.0633C68.4142 10.8391 68.8759 10.7271 69.3857 10.7271C70.1731 10.7271 70.8186 10.9812 71.322 11.4895C71.8254 11.9979 72.077 12.6401 72.077 13.4164C72.077 14.1991 71.8229 14.848 71.3146 15.3627C70.8064 15.8775 70.1667 16.1348 69.3955 16.1348C68.9182 16.1348 68.4631 16.0276 68.0301 15.8132C67.5971 15.599 67.2678 15.2847 67.0424 14.8705C66.817 14.4566 66.7041 13.9523 66.7041 13.3578" fill="#272445"/>
<path d="M74.4799 13.3435C74.4799 13.9248 74.5961 14.3543 74.8281 14.6321C75.0601 14.9097 75.3427 15.0486 75.6762 15.0486C75.9965 15.0486 76.2627 14.9212 76.4752 14.666C76.6876 14.4112 76.7938 13.9931 76.7938 13.4117C76.7938 12.8693 76.6843 12.4665 76.4655 12.2035C76.2463 11.9403 75.9752 11.8088 75.6516 11.8088C75.3149 11.8088 75.0355 11.9379 74.8134 12.1962C74.5911 12.4543 74.4799 12.8368 74.4799 13.3435V13.3435ZM73.1172 10.8441H74.4014V11.6042C74.5683 11.3444 74.7937 11.1332 75.0782 10.9708C75.3624 10.8085 75.6779 10.7273 76.0242 10.7273C76.6288 10.7273 77.1419 10.9628 77.5634 11.4337C77.985 11.9046 78.1959 12.5607 78.1959 13.4019C78.1959 14.2658 77.9835 14.9373 77.5585 15.4164C77.1336 15.8955 76.619 16.1349 76.0145 16.1349C75.7268 16.1349 75.4661 16.0782 75.2325 15.9646C74.9988 15.8509 74.7529 15.656 74.4946 15.3798V17.9863H73.1172V10.8441" fill="#272445"/>
<path d="M82.381 12.9876C82.3713 12.5914 82.2683 12.2903 82.0722 12.0838C81.8762 11.8777 81.6375 11.7746 81.3566 11.7746C81.0558 11.7746 80.8074 11.8833 80.6113 12.101C80.4153 12.3185 80.3188 12.6141 80.3221 12.9876H82.381ZM82.3025 14.3713L83.6753 14.6002C83.4988 15.1004 83.22 15.4812 82.8394 15.7428C82.4585 16.0042 81.9822 16.1348 81.4103 16.1348C80.505 16.1348 79.8351 15.8409 79.4005 15.253C79.0574 14.7821 78.8857 14.1878 78.8857 13.47C78.8857 12.6126 79.1112 11.941 79.5622 11.4556C80.0134 10.9699 80.5835 10.7271 81.2731 10.7271C82.0475 10.7271 82.6588 10.9812 83.1065 11.4895C83.5543 11.9979 83.7683 12.7764 83.7487 13.8256H80.2976C80.3074 14.2315 80.4186 14.5474 80.6309 14.7731C80.8433 14.999 81.1081 15.1118 81.425 15.1118C81.6408 15.1118 81.8221 15.0533 81.9692 14.9364C82.1163 14.8194 82.2273 14.631 82.3025 14.3713" fill="#272445"/>
<path d="M87.7452 13.5332C87.5687 13.5917 87.2893 13.6616 86.9069 13.7427C86.5244 13.8239 86.2746 13.9036 86.1569 13.9814C85.9771 14.1081 85.8872 14.269 85.8872 14.4638C85.8872 14.6554 85.9591 14.8211 86.1029 14.9607C86.2468 15.1004 86.4297 15.1701 86.652 15.1701C86.9004 15.1701 87.1372 15.0889 87.3628 14.9266C87.5295 14.8032 87.6389 14.6522 87.6913 14.4735C87.7272 14.3567 87.7452 14.1341 87.7452 13.8061V13.5332ZM85.9019 12.4225L84.6519 12.1983C84.7923 11.6983 85.0343 11.3279 85.3774 11.0877C85.7206 10.8473 86.2303 10.7271 86.9069 10.7271C87.5212 10.7271 87.9787 10.7994 88.2795 10.9438C88.5802 11.0884 88.7917 11.2719 88.9142 11.4945C89.037 11.717 89.0981 12.1253 89.0981 12.7197L89.0834 14.3177C89.0834 14.7724 89.1056 15.1078 89.1497 15.3237C89.1939 15.5397 89.2763 15.771 89.3971 16.0179H88.0344C87.9985 15.9269 87.9544 15.7922 87.902 15.6135C87.879 15.5323 87.8629 15.4787 87.8529 15.4528C87.6178 15.6802 87.3659 15.8507 87.098 15.9644C86.83 16.0781 86.5441 16.1348 86.2402 16.1348C85.7041 16.1348 85.2817 15.9902 84.973 15.7012C84.6642 15.4122 84.5098 15.0468 84.5098 14.605C84.5098 14.3128 84.58 14.052 84.7205 13.8233C84.861 13.5941 85.0579 13.4186 85.3113 13.2971C85.5645 13.1752 85.9297 13.0688 86.4068 12.9779C87.0508 12.8578 87.4968 12.7457 87.7452 12.6417V12.5054C87.7452 12.2422 87.6797 12.0546 87.5492 11.9427C87.4183 11.8305 87.1716 11.7746 86.8089 11.7746C86.5636 11.7746 86.3726 11.8225 86.2353 11.9182C86.0981 12.0142 85.9869 12.1822 85.9019 12.4225" fill="#272445"/>
<path d="M95.1917 16.0181H93.8141V13.3775C93.8141 12.8189 93.7847 12.4576 93.726 12.2936C93.6672 12.1296 93.5713 12.0021 93.4391 11.9111C93.3067 11.8201 93.1475 11.7748 92.9612 11.7748C92.7226 11.7748 92.5085 11.8396 92.319 11.9696C92.1294 12.0995 91.9994 12.2717 91.9292 12.486C91.8589 12.7004 91.8239 13.0966 91.8239 13.6747V16.0181H90.4463V10.8441H91.7259V11.6042C92.18 11.0195 92.7519 10.7273 93.4414 10.7273C93.7455 10.7273 94.0233 10.7817 94.2748 10.8905C94.5265 10.9994 94.7169 11.1382 94.8461 11.307C94.975 11.4759 95.0649 11.6676 95.1156 11.8819C95.1664 12.0963 95.1917 12.4032 95.1917 12.8026V16.0181" fill="#272445"/>
<path d="M98.1592 8.87623H99.6104V12.7445C99.6104 13.3582 99.6284 13.7561 99.6642 13.938C99.7264 14.2303 99.8743 14.4651 100.108 14.6422C100.342 14.819 100.661 14.9074 101.066 14.9074C101.478 14.9074 101.789 14.824 101.998 14.6565C102.207 14.4895 102.333 14.2838 102.375 14.0403C102.418 13.7968 102.439 13.3924 102.439 12.8273V8.87623H103.89V12.6275C103.89 13.4849 103.851 14.0907 103.772 14.4447C103.694 14.7988 103.549 15.0974 103.338 15.3412C103.128 15.5847 102.846 15.7788 102.493 15.9232C102.14 16.0677 101.679 16.1401 101.11 16.1401C100.424 16.1401 99.9037 16.0612 99.5491 15.9037C99.1946 15.7463 98.9143 15.5418 98.7084 15.2899C98.5025 15.0383 98.3669 14.7744 98.3016 14.4983C98.2067 14.089 98.1592 13.4849 98.1592 12.6859V8.87623" fill="#272445"/>
<path d="M110.146 16.0181H108.768V13.3775C108.768 12.819 108.739 12.4576 108.68 12.2936C108.621 12.1296 108.525 12.0021 108.393 11.9112C108.261 11.8201 108.101 11.7748 107.915 11.7748C107.677 11.7748 107.462 11.8396 107.273 11.9697C107.083 12.0995 106.953 12.2717 106.883 12.4861C106.813 12.7004 106.778 13.0966 106.778 13.6747V16.0181H105.4V10.8441H106.68V11.6043C107.134 11.0196 107.706 10.7273 108.396 10.7273C108.699 10.7273 108.977 10.7817 109.229 10.8905C109.48 10.9994 109.671 11.1382 109.8 11.307C109.929 11.4759 110.019 11.6676 110.07 11.882C110.12 12.0963 110.146 12.4032 110.146 12.8028V16.0181" fill="#272445"/>
<path d="M111.543 16.0181V10.8441H112.92V16.0181H111.543ZM111.543 10.1427V8.87603H112.92V10.1427H111.543" fill="#272445"/>
<path d="M115.425 13.4313C115.425 13.9443 115.547 14.3374 115.792 14.6103C116.037 14.883 116.34 15.0195 116.699 15.0195C117.058 15.0195 117.36 14.883 117.603 14.6103C117.847 14.3374 117.969 13.9412 117.969 13.4214C117.969 12.9149 117.847 12.5251 117.603 12.2523C117.36 11.9794 117.058 11.843 116.699 11.843C116.34 11.843 116.037 11.9794 115.792 12.2523C115.547 12.5251 115.425 12.918 115.425 13.4313V13.4313ZM114.013 13.3581C114.013 12.9035 114.125 12.4633 114.351 12.0379C114.576 11.6124 114.896 11.2876 115.309 11.0636C115.723 10.8394 116.184 10.7273 116.694 10.7273C117.482 10.7273 118.127 10.9816 118.631 11.4898C119.134 11.9982 119.385 12.6404 119.385 13.4166C119.385 14.1994 119.131 14.8483 118.623 15.363C118.115 15.8777 117.475 16.135 116.704 16.135C116.227 16.135 115.772 16.028 115.339 15.8136C114.906 15.5993 114.576 15.285 114.351 14.8708C114.125 14.4569 114.013 13.9525 114.013 13.3581" fill="#272445"/>
<path d="M125.199 16.0181H123.822V13.3775C123.822 12.819 123.792 12.4576 123.734 12.2936C123.675 12.1296 123.579 12.0021 123.447 11.9112C123.314 11.8201 123.155 11.7748 122.969 11.7748C122.73 11.7748 122.516 11.8396 122.327 11.9697C122.137 12.0995 122.007 12.2717 121.937 12.4861C121.867 12.7004 121.832 13.0966 121.832 13.6747V16.0181H120.454V10.8441H121.734V11.6043C122.188 11.0196 122.76 10.7273 123.449 10.7273C123.753 10.7273 124.031 10.7817 124.283 10.8905C124.534 10.9994 124.725 11.1382 124.854 11.307C124.983 11.4759 125.073 11.6676 125.123 11.882C125.174 12.0963 125.199 12.4032 125.199 12.8028V16.0181Z" fill="#272445"/>
</svg>
