<svg width="76" height="43" viewBox="0 0 76 43" fill="none" xmlns="http://www.w3.org/2000/svg">
<path d="M17.8984 1H56.1232V26.2206H17.8984V1Z" stroke="black"/>
<path d="M36.1751 6.21759L37.0015 5.61261L37.8318 6.21759L37.5127 5.23882L38.3545 4.63383H37.3206L37.0015 3.63965L36.6863 4.63383H35.6484L36.4864 5.23882L36.1751 6.21759Z" fill="black"/>
<path d="M31.8891 7.36945L32.7193 6.76061L33.5457 7.36945L33.2305 6.39068L34.0723 5.7857H33.0345L32.7193 4.7915L32.4003 5.7857H31.3662L32.208 6.39068L31.8891 7.36945Z" fill="black"/>
<path d="M29.5826 7.93994L29.2673 8.93412H28.2334L29.0714 9.53912L28.7561 10.5179L29.5826 9.9129L30.4129 10.5179L30.0976 9.53912L30.9395 8.93412H29.9016L29.5826 7.93994Z" fill="black"/>
<path d="M28.437 14.1981L29.2595 14.8069L28.9482 13.8282L29.79 13.2232H28.7522L28.437 12.229L28.1141 13.2232H27.0801L27.9219 13.8282L27.6067 14.8069L28.437 14.1981Z" fill="black"/>
<path d="M29.9016 17.5235L29.5826 16.5332L29.2673 17.5235H28.2334L29.0714 18.1323L28.7561 19.1073L29.5826 18.5023L30.4129 19.1073L30.0976 18.1323L30.9395 17.5235H29.9016Z" fill="black"/>
<path d="M33.0422 20.6718L32.7233 19.6814L32.4042 20.6718H31.3701L32.212 21.2768L31.8967 22.2555L32.7233 21.6505L33.5535 22.2555L33.2383 21.2768L34.0801 20.6718H33.0422Z" fill="black"/>
<path d="M37.3206 21.8123L37.0015 20.8181L36.6863 21.8123H35.6484L36.4903 22.4173L36.1751 23.3961L37.0015 22.791L37.8318 23.3961L37.5127 22.4173L38.3584 21.8123H37.3206Z" fill="black"/>
<path d="M41.5979 20.6718L41.2788 19.6814L40.9598 20.6718H39.9258L40.7637 21.2768L40.4524 22.2555L41.2788 21.6505L42.1052 22.2555L41.7901 21.2768L42.6357 20.6718H41.5979Z" fill="black"/>
<path d="M44.7395 17.5235L44.4204 16.5332L44.1053 17.5235H43.0674L43.9092 18.1323L43.5902 19.1073L44.4204 18.5023L45.2469 19.1073L44.9317 18.1323L45.7735 17.5235H44.7395Z" fill="black"/>
<path d="M46.9063 13.2115H45.8724L45.5571 12.2173L45.238 13.2115H44.2041L45.0459 13.8164L44.7268 14.7952L45.5571 14.1902L46.3836 14.7952L46.0683 13.8164L46.9063 13.2115Z" fill="black"/>
<path d="M43.5902 10.5023L44.4204 9.90118L45.2507 10.5023L44.9317 9.52355L45.7735 8.92241H44.7395L44.4204 7.92822L44.1053 8.92626L43.0674 8.92241L43.9092 9.52355L43.5902 10.5023Z" fill="black"/>
<path d="M41.2904 4.7915L40.9752 5.7857H39.9375L40.7792 6.39068L40.464 7.36945L41.2943 6.76061L42.1207 7.36945L41.8055 6.39068L42.6435 5.7857H41.6095L41.2904 4.7915Z" fill="black"/>
<path d="M0 41.0154V33.8143H5.37275V35.0324H1.4629V36.6289H5.10085V37.8421H1.4629V39.8021H5.51115V41.0154H0" fill="#272445"/>
<path d="M10.1955 41.0152V40.2342C10.0043 40.5125 9.75323 40.732 9.44176 40.8924C9.13046 41.0529 8.80181 41.1331 8.45567 41.1331C8.10307 41.1331 7.78672 41.0562 7.50678 40.9023C7.22652 40.7483 7.02382 40.5322 6.89867 40.2539C6.77335 39.9756 6.71094 39.5907 6.71094 39.0994V35.7985H8.09976V38.1957C8.09976 38.9292 8.12529 39.3788 8.17652 39.544C8.22743 39.7094 8.32059 39.8405 8.45567 39.937C8.59075 40.0336 8.76225 40.0819 8.96968 40.0819C9.20706 40.0819 9.41954 40.0173 9.60743 39.8879C9.79516 39.7587 9.92378 39.5981 9.99281 39.4066C10.0622 39.215 10.0965 38.7459 10.0965 37.9992V35.7985H11.4855V41.0152H10.1955Z" fill="#272445"/>
<path d="M14.256 41.0154H12.8672V35.7987H14.1573V36.5405C14.378 36.1901 14.5766 35.9592 14.7528 35.8479C14.9291 35.7365 15.1294 35.6809 15.3534 35.6809C15.6697 35.6809 15.9746 35.7676 16.2678 35.9412L15.8379 37.1446C15.6037 36.994 15.3862 36.9187 15.1854 36.9187C14.991 36.9187 14.8261 36.972 14.691 37.0783C14.556 37.1848 14.4496 37.3772 14.3723 37.6555C14.2949 37.9338 14.256 38.5169 14.256 39.4043V41.0154Z" fill="#272445"/>
<path d="M17.9665 38.407C17.9665 38.9243 18.09 39.3206 18.3372 39.5957C18.5843 39.8707 18.8892 40.0083 19.2517 40.0083C19.6139 40.0083 19.918 39.8707 20.1636 39.5957C20.409 39.3206 20.5318 38.9211 20.5318 38.3971C20.5318 37.8863 20.409 37.4933 20.1636 37.2182C19.918 36.9431 19.6139 36.8056 19.2517 36.8056C18.8892 36.8056 18.5843 36.9431 18.3372 37.2182C18.09 37.4933 17.9665 37.8895 17.9665 38.407V38.407ZM16.543 38.3332C16.543 37.8747 16.6568 37.431 16.8841 37.0021C17.1114 36.573 17.4334 36.2456 17.8505 36.0197C18.2672 35.7937 18.7327 35.6807 19.2467 35.6807C20.0406 35.6807 20.6915 35.9369 21.199 36.4494C21.7066 36.962 21.9603 37.6095 21.9603 38.3922C21.9603 39.1814 21.704 39.8356 21.1916 40.3546C20.6792 40.8736 20.0342 41.1331 19.2566 41.1331C18.7754 41.1331 18.3165 41.025 17.8799 40.8089C17.4433 40.5929 17.1114 40.276 16.8841 39.8583C16.6568 39.441 16.543 38.9325 16.543 38.3332" fill="#272445"/>
<path d="M24.3828 38.3188C24.3828 38.9049 24.4999 39.3379 24.7338 39.6181C24.9677 39.8979 25.2527 40.038 25.5889 40.038C25.9119 40.038 26.1803 39.9095 26.3945 39.6522C26.6087 39.3954 26.7158 38.9738 26.7158 38.3875C26.7158 37.8406 26.6054 37.4346 26.3848 37.1694C26.1638 36.904 25.8905 36.7714 25.5642 36.7714C25.2247 36.7714 24.943 36.9016 24.719 37.1621C24.4949 37.4222 24.3828 37.8079 24.3828 38.3188V38.3188ZM23.0088 35.7988H24.3037V36.5652C24.4718 36.3031 24.6991 36.0902 24.986 35.9265C25.2726 35.7628 25.5907 35.6809 25.9398 35.6809C26.5495 35.6809 27.0668 35.9184 27.4918 36.3932C27.9169 36.868 28.1295 37.5295 28.1295 38.3776C28.1295 39.2487 27.9153 39.9258 27.4869 40.4088C27.0584 40.8919 26.5396 41.1333 25.93 41.1333C25.64 41.1333 25.3771 41.0761 25.1416 40.9615C24.9059 40.8469 24.658 40.6504 24.3976 40.3719V43H23.0088V35.7988" fill="#272445"/>
<path d="M32.3493 37.9599C32.3396 37.5604 32.2357 37.2568 32.038 37.0486C31.8404 36.8408 31.5997 36.7369 31.3164 36.7369C31.0132 36.7369 30.7627 36.8464 30.565 37.0659C30.3674 37.2853 30.2701 37.5833 30.2734 37.9599H32.3493ZM32.2702 39.355L33.6543 39.5858C33.4763 40.0902 33.1953 40.4741 32.8115 40.7378C32.4275 41.0014 31.9472 41.1331 31.3707 41.1331C30.4579 41.1331 29.7824 40.8367 29.3442 40.244C28.9983 39.7692 28.8252 39.17 28.8252 38.4463C28.8252 37.5817 29.0525 36.9047 29.5072 36.4152C29.9621 35.9255 30.537 35.6807 31.2323 35.6807C32.0131 35.6807 32.6294 35.9369 33.0809 36.4494C33.5323 36.962 33.7481 37.747 33.7284 38.8048H30.2487C30.2586 39.214 30.3707 39.5326 30.5847 39.7602C30.799 39.9879 31.066 40.1016 31.3855 40.1016C31.603 40.1016 31.7858 40.0426 31.9342 39.9248C32.0825 39.8068 32.1944 39.6169 32.2702 39.355" fill="#272445"/>
<path d="M37.7573 38.51C37.5793 38.569 37.2977 38.6394 36.9121 38.7213C36.5264 38.8031 36.2745 38.8834 36.1558 38.9619C35.9746 39.0897 35.8839 39.2518 35.8839 39.4483C35.8839 39.6414 35.9564 39.8085 36.1015 39.9493C36.2465 40.0902 36.4309 40.1604 36.655 40.1604C36.9055 40.1604 37.1443 40.0786 37.3717 39.9149C37.5398 39.7905 37.6501 39.6382 37.7029 39.4581C37.7392 39.3402 37.7573 39.1159 37.7573 38.7851V38.51ZM35.8988 37.3901L34.6384 37.1641C34.7799 36.6599 35.0239 36.2864 35.3699 36.0442C35.7159 35.8019 36.2299 35.6807 36.9121 35.6807C37.5314 35.6807 37.9928 35.7536 38.296 35.8991C38.5992 36.045 38.8124 36.23 38.936 36.4544C39.0597 36.6788 39.1214 37.0905 39.1214 37.6898L39.1066 39.3009C39.1066 39.7594 39.1289 40.0976 39.1734 40.3153C39.218 40.5331 39.3011 40.7663 39.4229 41.0152H38.0489C38.0126 40.9235 37.9682 40.7877 37.9154 40.6075C37.8922 40.5256 37.876 40.4715 37.8659 40.4455C37.6288 40.6747 37.3749 40.8467 37.1047 40.9613C36.8346 41.0759 36.5463 41.1331 36.2399 41.1331C35.6994 41.1331 35.2735 40.9873 34.9622 40.6959C34.6508 40.4045 34.4951 40.0361 34.4951 39.5907C34.4951 39.296 34.5659 39.0331 34.7076 38.8025C34.8493 38.5714 35.0477 38.3945 35.3033 38.2719C35.5586 38.1491 35.9268 38.0418 36.4079 37.9501C37.0571 37.829 37.5068 37.716 37.7573 37.6112V37.4737C37.7573 37.2083 37.6912 37.0191 37.5596 36.9063C37.4277 36.7932 37.179 36.7369 36.8133 36.7369C36.566 36.7369 36.3734 36.7852 36.235 36.8817C36.0966 36.9784 35.9845 37.1478 35.8988 37.3901" fill="#272445"/>
<path d="M45.2661 41.0154H43.8771V38.353C43.8771 37.7898 43.8475 37.4255 43.7882 37.2601C43.729 37.0947 43.6323 36.9662 43.499 36.8745C43.3655 36.7827 43.205 36.737 43.0171 36.737C42.7766 36.737 42.5607 36.8024 42.3696 36.9335C42.1784 37.0644 42.0474 37.238 41.9767 37.4542C41.9057 37.6703 41.8704 38.0698 41.8704 38.6527V41.0154H40.4814V35.7987H41.7716V36.5651C42.2295 35.9755 42.8061 35.6809 43.5014 35.6809C43.8079 35.6809 44.088 35.7357 44.3416 35.8455C44.5954 35.9552 44.7874 36.0951 44.9176 36.2654C45.0476 36.4357 45.1383 36.6289 45.1893 36.8451C45.2406 37.0612 45.2661 37.3706 45.2661 37.7733V41.0154" fill="#272445"/>
<path d="M48.2578 33.8145H49.721V37.7147C49.721 38.3335 49.7392 38.7347 49.7753 38.918C49.838 39.2128 49.9871 39.4496 50.2226 39.6281C50.4582 39.8064 50.7803 39.8955 51.189 39.8955C51.6042 39.8955 51.9172 39.8114 52.1281 39.6425C52.339 39.4741 52.4659 39.2668 52.5086 39.0212C52.5515 38.7757 52.5729 38.3679 52.5729 37.7982V33.8145H54.0361V37.5967C54.0361 38.4612 53.9966 39.072 53.9174 39.429C53.8383 39.786 53.6925 40.0871 53.4799 40.3329C53.2674 40.5784 52.9832 40.7741 52.6273 40.9197C52.2714 41.0654 51.8069 41.1384 51.2334 41.1384C50.5415 41.1384 50.0167 41.0588 49.6592 40.9C49.3018 40.7413 49.0191 40.5351 48.8115 40.2812C48.604 40.0275 48.4673 39.7614 48.4014 39.483C48.3057 39.0703 48.2578 38.4612 48.2578 37.6557V33.8145" fill="#272445"/>
<path d="M60.3431 41.0154H58.9543V38.353C58.9543 37.7898 58.9245 37.4255 58.8652 37.2601C58.8058 37.0948 58.7095 36.9663 58.576 36.8745C58.4426 36.7828 58.282 36.737 58.0941 36.737C57.8536 36.737 57.6376 36.8024 57.4466 36.9335C57.2556 37.0645 57.1244 37.238 57.0537 37.4542C56.9829 37.6703 56.9474 38.0698 56.9474 38.6527V41.0154H55.5586V35.7987H56.8486V36.5651C57.3066 35.9756 57.8832 35.6808 58.5785 35.6808C58.8849 35.6808 59.165 35.7357 59.4188 35.8455C59.6724 35.9552 59.8644 36.0952 59.9946 36.2654C60.1248 36.4357 60.2154 36.629 60.2665 36.8451C60.3176 37.0612 60.3431 37.3707 60.3431 37.7735V41.0154" fill="#272445"/>
<path d="M61.752 41.0154V35.7987H63.1408V41.0154H61.752ZM61.752 35.0914V33.8143H63.1408V35.0914H61.752" fill="#272445"/>
<path d="M65.6667 38.4072C65.6667 38.9245 65.7902 39.3208 66.0372 39.596C66.2845 39.8709 66.5892 40.0086 66.9518 40.0086C67.3141 40.0086 67.6182 39.8709 67.8636 39.596C68.1092 39.3208 68.2318 38.9214 68.2318 38.3973C68.2318 37.8866 68.1092 37.4936 67.8636 37.2185C67.6182 36.9433 67.3141 36.8058 66.9518 36.8058C66.5892 36.8058 66.2845 36.9433 66.0372 37.2185C65.7902 37.4936 65.6667 37.8897 65.6667 38.4072V38.4072ZM64.2432 38.3335C64.2432 37.8751 64.3568 37.4312 64.5843 37.0023C64.8116 36.5733 65.1336 36.2459 65.5507 36.02C65.9672 35.7939 66.4327 35.6809 66.9469 35.6809C67.7408 35.6809 68.3917 35.9373 68.8992 36.4497C69.4066 36.9623 69.6604 37.6098 69.6604 38.3924C69.6604 39.1817 69.4042 39.8359 68.8918 40.3549C68.3794 40.8739 67.7344 41.1333 66.9567 41.1333C66.4756 41.1333 66.0167 41.0254 65.5801 40.8093C65.1435 40.5932 64.8116 40.2762 64.5843 39.8586C64.3568 39.4413 64.2432 38.9327 64.2432 38.3335" fill="#272445"/>
<path d="M75.5208 41.0154H74.132V38.353C74.132 37.7898 74.1022 37.4255 74.0429 37.2601C73.9837 37.0948 73.8872 36.9663 73.7537 36.8745C73.6204 36.7828 73.4597 36.737 73.272 36.737C73.0313 36.737 72.8154 36.8024 72.6243 36.9335C72.4331 37.0645 72.3022 37.238 72.2314 37.4542C72.1606 37.6703 72.1251 38.0698 72.1251 38.6527V41.0154H70.7363V35.7987H72.0263V36.5651C72.4844 35.9756 73.061 35.6808 73.7562 35.6808C74.0627 35.6808 74.3429 35.7357 74.5965 35.8455C74.8501 35.9552 75.0421 36.0952 75.1723 36.2654C75.3024 36.4357 75.3932 36.629 75.4442 36.8451C75.4953 37.0612 75.5208 37.3707 75.5208 37.7735V41.0154Z" fill="#272445"/>
</svg>
